<?xml version="1.0" encoding="utf-8"?>
<!-- Generator: Adobe Illustrator 24.1.2, SVG Export Plug-In . SVG Version: 6.00 Build 0)  -->
<svg version="1.1" id="Layer_1" xmlns="http://www.w3.org/2000/svg" xmlns:xlink="http://www.w3.org/1999/xlink" x="0px" y="0px"
	 viewBox="0 0 752.91 436" style="enable-background:new 0 0 752.91 436;" xml:space="preserve">
<style type="text/css">
	.st0{fill:#FFFFFF;stroke:#000000;stroke-width:15;stroke-miterlimit:10;}
	.st1{fill:#237287;}
	.st2{fill:#237287;stroke:#237287;stroke-miterlimit:10;}
</style>
<g>
	<path class="st0" d="M716.45,427H37.91c-15.35,0-27.79-12.44-27.79-27.79V35.29c0-15.35,12.44-27.79,27.79-27.79h678.54
		c15.35,0,27.79,12.44,27.79,27.79v363.92C744.25,414.56,731.8,427,716.45,427z"/>
	<path class="st1" d="M64.55,51.94V379.8c0,4.83,3.92,8.75,8.75,8.75h92.81c3.75,0,7.08-2.39,8.28-5.93l10.07-29.65
		c1.51-4.44-0.75-9.27-5.11-10.97l-44.29-17.21c-3.36-1.31-5.58-4.54-5.58-8.15V163.72c0-3.57,2.16-6.77,5.47-8.11L279.82,97.1
		c3.31-1.34,5.47-4.54,5.47-8.11V51.94"/>
	<path d="M67.8,400.53c-7.85,0-14.23-6.38-14.23-14.23V48.68c0-5.36,4.36-9.72,9.72-9.72h206.4c15.08,0,27.36,12.27,27.36,27.36
		V88.3c0,10.9-6.87,20.7-17.1,24.4c-19.57,7.08-45.41,15.82-70.41,24.28c-24.35,8.24-49.5,16.75-68.72,23.67
		c-3.36,1.21-5.62,4.42-5.62,8v128.39c0,5.98,3.48,11.45,8.88,14l40.64,22.79c0.09,0.05,0.19,0.1,0.29,0.15
		c4.56,2.09,6.79,7.43,5.08,12.14l-17.37,48.01c-1.39,3.84-5.06,6.41-9.14,6.41H67.8z M81.51,58.4c-4.69,0-8.51,3.82-8.51,8.51
		v305.68c0,4.69,3.82,8.51,8.51,8.51h69.27c3.57,0,6.78-2.25,8-5.61l7.32-20.22c1.46-4.03-0.37-8.58-4.18-10.5l-24.72-15.43
		c-0.06-0.03-0.11-0.07-0.17-0.1c-14.12-7.88-21.29-17.52-21.29-28.67V167.26c0-10.9,6.87-20.7,17.1-24.4
		c19.55-7.07,45.36-15.8,70.32-24.25l0.12-0.04c24.36-8.24,49.49-16.75,68.7-23.67c3.36-1.21,5.62-4.43,5.62-8V66.91
		c0-4.69-3.82-8.51-8.51-8.51H81.51z"/>
	<path d="M376.79,259.5c-15.28,0-32.22-3.29-45.31-8.81c-10.58-4.46-14.53-15.95-10.3-29.98l0.16-0.52
		c1.44-4.79,5.28-17.56,19.97-17.56c3.38,0,6.69,0.68,9.83,2.01c6.17,2.62,15.92,5.75,27.32,5.75c9.24,0,24.74-2.27,24.74-17.5
		c0-7.76-1.91-14.44-25.87-23.69c-39.75-14.14-59.07-36-59.07-66.83c0-37.95,31.65-65.5,75.25-65.5c13.62,0,26.09,1.97,37.04,5.85
		c7.08,2.51,18.02,9.46,11.8,27.86l-0.11,0.32c-2.05,6.08-6.87,20.32-19.98,20.32c-2.89,0-5.72-0.51-8.44-1.5
		c-6.74-2.48-13.85-3.73-21.14-3.73c-15.38,0-20.84,7.32-20.84,13.6c0,6.07,0,11.8,28.03,22.65c11.93,4.6,27.1,11.34,38.68,22.68
		c12.46,12.2,18.51,27.26,18.51,46.01c0,18.18-6.99,34.96-19.67,47.25C422.98,252.13,402.03,259.5,376.79,259.5z"/>
	<path d="M376.79,253.48c-14.52,0-30.58-3.12-42.97-8.34c-8.84-3.73-9.65-13.48-6.87-22.69l0.15-0.5c2.39-7.95,5.85-13.3,14.21-13.3
		c2.57,0,5.09,0.51,7.48,1.53c6.69,2.84,17.26,6.22,29.68,6.22c19.26,0,30.76-8.79,30.76-23.52c0-11.57-4.75-19.68-29.8-29.33
		c-37.11-13.19-55.14-33.2-55.14-61.18c0-34.46,29.11-59.48,69.23-59.48c12.94,0,24.72,1.85,35.03,5.5
		c9.64,3.41,11.37,10.6,8.1,20.26l-0.11,0.32c-2.58,7.64-6.26,16.23-14.28,16.23c-2.17,0-4.31-0.38-6.36-1.13
		c-7.41-2.72-15.22-4.1-23.22-4.1c-18.55,0-26.86,9.85-26.86,19.62c0,10.79,4.77,17.77,31.88,28.27
		c11.39,4.4,25.85,10.8,36.64,21.37c11.24,11.01,16.71,24.66,16.71,41.71c0,16.54-6.34,31.78-17.84,42.92
		C419.93,246.69,400.43,253.48,376.79,253.48z"/>
	<path d="M491.57,255.7c-6.38,0-11.56-5.19-11.56-11.56V110.88c0-6.38,5.19-11.56,11.56-11.56h2.98c6.38,0,11.57,5.19,11.57,11.56
		v133.26c0,6.38-5.19,11.56-11.57,11.56H491.57z"/>
	<path d="M686.76,255.7c-6.12,0-11.19-4.79-11.55-10.9l-3.35-58.42c-0.39-7.3-0.79-14.85-1.15-22.67c-0.09-1.91-1.52-3.49-3.42-3.77
		c-0.19-0.03-0.39-0.04-0.58-0.04c-1.68,0-3.21,1.06-3.77,2.68c-1.93,5.56-4.02,11.42-6.22,17.42l-24.45,67.2
		c-1.66,4.55-6.02,7.61-10.87,7.61h-3.08c-4.96,0-9.36-3.15-10.95-7.85l-22.31-65.7c-1.82-5.4-3.52-10.56-5.06-15.34
		c-0.54-1.67-2.09-2.77-3.8-2.77c-0.17,0-0.35,0.01-0.53,0.03c-1.91,0.25-3.37,1.84-3.47,3.76c-0.35,7.07-0.74,14.27-1.17,21.41
		l-3.52,56.5c-0.38,6.08-5.45,10.85-11.54,10.85h-2c-3.2,0-6.28-1.34-8.45-3.68c-2.18-2.34-3.3-5.51-3.08-8.69l9.29-133.26
		c0.42-6.03,5.49-10.76,11.54-10.76h11.25c4.89,0,9.28,3.1,10.91,7.72l23.6,66.91c3.36,9.97,6.16,18.65,8.52,26.48
		c0.51,1.68,2.05,2.83,3.8,2.84c0.01,0,0.02,0,0.03,0c1.74,0,3.28-1.13,3.81-2.79c2.47-7.8,5.39-16.47,8.94-26.53l24.68-67.05
		c1.67-4.53,6.03-7.57,10.85-7.57h11.27c6.09,0,11.16,4.76,11.54,10.85l8.3,133.26c0.2,3.17-0.94,6.32-3.11,8.64
		c-2.18,2.32-5.25,3.65-8.43,3.65H686.76z"/>
	<g>
		<path class="st2" d="M416.27,72.36l5.61-18.93c0.24-0.81,1.09-1.27,1.9-1.03l3.55,1.05c0.81,0.24,1.27,1.09,1.03,1.9l-5.61,18.93
			c-0.24,0.81-1.09,1.27-1.9,1.03l-3.55-1.05C416.49,74.02,416.03,73.17,416.27,72.36z"/>
		<path class="st2" d="M404.65,69.89l3.06-19.5c0.13-0.83,0.91-1.4,1.74-1.27l3.66,0.57c0.83,0.13,1.4,0.91,1.27,1.74l-3.06,19.5
			c-0.13,0.83-0.91,1.4-1.74,1.27l-3.66-0.57C405.09,71.5,404.52,70.72,404.65,69.89z"/>
		<path class="st2" d="M393.34,69.01l1.3-19.7c0.06-0.84,0.78-1.48,1.62-1.42l3.69,0.24c0.84,0.06,1.48,0.78,1.42,1.62l-1.3,19.7
			c-0.06,0.84-0.78,1.48-1.62,1.42l-3.69-0.24C393.92,70.57,393.28,69.85,393.34,69.01z"/>
		<path class="st2" d="M382.84,69.54l-2-19.64c-0.09-0.84,0.53-1.59,1.36-1.67l3.68-0.37c0.84-0.09,1.59,0.53,1.67,1.36l2,19.64
			c0.09,0.84-0.53,1.59-1.36,1.67l-3.68,0.37C383.68,70.99,382.93,70.38,382.84,69.54z"/>
		<path class="st2" d="M373.8,72.37l-6.6-18.61c-0.28-0.79,0.13-1.67,0.93-1.95l3.49-1.24c0.79-0.28,1.67,0.13,1.95,0.93l6.6,18.61
			c0.28,0.79-0.13,1.67-0.93,1.95l-3.49,1.24C374.96,73.58,374.09,73.17,373.8,72.37z"/>
		<path class="st2" d="M366.43,77.52l-10.87-16.48c-0.46-0.7-0.27-1.65,0.43-2.12l3.09-2.04c0.7-0.46,1.65-0.27,2.12,0.43
			l10.87,16.48c0.46,0.7,0.27,1.65-0.43,2.12l-3.09,2.04C367.84,78.41,366.89,78.22,366.43,77.52z"/>
		<path class="st2" d="M361.27,83.94L344.3,72.26c-0.72-0.5-0.88-1.45-0.35-2.13l2.33-2.99c0.53-0.68,1.55-0.83,2.27-0.33
			l16.98,11.67c0.72,0.5,0.88,1.45,0.35,2.13l-2.33,2.99C363.02,84.29,362,84.43,361.27,83.94z"/>
		<path class="st2" d="M356.93,92.07l-19.23-8.03c-0.82-0.34-1.19-1.24-0.82-2.01l1.61-3.38c0.36-0.77,1.33-1.12,2.15-0.77
			l19.23,8.03c0.82,0.34,1.19,1.24,0.82,2.01l-1.61,3.38C358.71,92.07,357.75,92.41,356.93,92.07z"/>
		<path class="st2" d="M391.8,134.23l-6.83,18.52c-0.29,0.79,0.11,1.67,0.9,1.96l3.47,1.28c0.79,0.29,1.67-0.11,1.96-0.9l6.83-18.52
			c0.29-0.79-0.11-1.67-0.9-1.96l-3.47-1.28C392.97,133.03,392.09,133.44,391.8,134.23z"/>
		<path class="st2" d="M380.25,130.45l-7.92,18.09c-0.34,0.77,0.01,1.67,0.79,2.01l3.39,1.48c0.77,0.34,1.67-0.01,2.01-0.79
			l7.92-18.09c0.34-0.77-0.01-1.67-0.79-2.01l-3.39-1.48C381.49,129.33,380.59,129.68,380.25,130.45z"/>
		<path class="st2" d="M370.77,125.76l-10.74,16.57c-0.46,0.71-0.26,1.65,0.45,2.11l3.11,2.01c0.71,0.46,1.65,0.26,2.11-0.45
			l10.74-16.57c0.46-0.71,0.26-1.65-0.45-2.11l-3.11-2.01C372.18,124.85,371.23,125.05,370.77,125.76z"/>
		<path class="st2" d="M362.27,120.16l-12.71,15.11c-0.54,0.65-0.46,1.61,0.19,2.15l2.83,2.38c0.65,0.54,1.61,0.46,2.15-0.19
			l12.71-15.11c0.54-0.65,0.46-1.61-0.19-2.15l-2.83-2.38C363.77,119.43,362.81,119.52,362.27,120.16z"/>
		<path class="st2" d="M356.96,113.04l-17.02,10c-0.73,0.43-0.97,1.36-0.54,2.09l1.87,3.19c0.43,0.73,1.36,0.97,2.09,0.54l17.02-10
			c0.73-0.43,0.97-1.36,0.54-2.09l-1.87-3.19C358.62,112.86,357.69,112.61,356.96,113.04z"/>
		<path class="st2" d="M355.87,103.71l-19.99,5.14c-0.87,0.22-1.38,1.06-1.14,1.87l1.02,3.49c0.24,0.81,1.13,1.29,2,1.07l19.99-5.14
			c0.87-0.22,1.38-1.06,1.14-1.87l-1.02-3.49C357.63,103.97,356.73,103.49,355.87,103.71z"/>
		<path class="st2" d="M355.83,94.39l-20.71-0.94c-0.9-0.04-1.66,0.61-1.7,1.45l-0.19,3.61c-0.04,0.84,0.65,1.56,1.55,1.6
			l20.71,0.94c0.9,0.04,1.66-0.61,1.7-1.45l0.19-3.61C357.42,95.15,356.73,94.43,355.83,94.39z"/>
		<path class="st2" d="M367.91,224.39l-4.03,19.33c-0.17,0.83-0.98,1.36-1.81,1.18l-3.62-0.76c-0.83-0.17-1.36-0.98-1.18-1.81
			l4.03-19.33c0.17-0.83,0.98-1.36,1.81-1.18l3.62,0.76C367.55,222.76,368.08,223.57,367.91,224.39z"/>
		<path class="st2" d="M377.88,224.97l-0.39,19.74c-0.02,0.84-0.71,1.51-1.56,1.5l-3.7-0.07c-0.84-0.02-1.51-0.71-1.5-1.56
			l0.39-19.74c0.02-0.84,0.71-1.51,1.56-1.5l3.7,0.07C377.22,223.43,377.89,224.13,377.88,224.97z"/>
		<path class="st2" d="M389.19,224.84l0.86,19.72c0.04,0.84-0.62,1.56-1.46,1.59l-3.7,0.16c-0.84,0.04-1.56-0.62-1.59-1.46
			l-0.86-19.72c-0.04-0.84,0.62-1.56,1.46-1.59l3.7-0.16C388.44,223.34,389.15,224,389.19,224.84z"/>
		<path class="st2" d="M398.95,222.01l4.47,19.23c0.19,0.82-0.32,1.64-1.14,1.83l-3.6,0.84c-0.82,0.19-1.64-0.32-1.83-1.14
			l-4.47-19.23c-0.19-0.82,0.32-1.64,1.14-1.83l3.6-0.84C397.94,220.68,398.76,221.19,398.95,222.01z"/>
		<path class="st2" d="M408.38,217.55l8.96,17.59c0.38,0.75,0.08,1.67-0.67,2.05l-3.3,1.68c-0.75,0.38-1.67,0.08-2.05-0.67
			l-8.96-17.59c-0.38-0.75-0.08-1.67,0.67-2.05l3.3-1.68C407.08,216.5,408,216.8,408.38,217.55z"/>
		<path class="st2" d="M414.49,210.95l15.32,13.38c0.65,0.57,0.7,1.54,0.09,2.15l-2.65,2.72c-0.6,0.62-1.62,0.66-2.27,0.09
			l-15.32-13.38c-0.65-0.57-0.7-1.54-0.09-2.15l2.65-2.72C412.82,210.42,413.84,210.38,414.49,210.95z"/>
		<path class="st2" d="M419.73,203.32l17.97,9.99c0.77,0.43,1.02,1.36,0.57,2.09l-1.98,3.19c-0.45,0.73-1.44,0.97-2.2,0.54
			l-17.97-9.99c-0.77-0.43-1.02-1.36-0.57-2.09l1.98-3.19C417.97,203.13,418.96,202.89,419.73,203.32z"/>
		<path class="st2" d="M400.96,159.74l9.89-17.09c0.42-0.73,0.17-1.66-0.56-2.09l-3.2-1.85c-0.73-0.42-1.66-0.17-2.09,0.56
			l-9.89,17.09c-0.42,0.73-0.17,1.66,0.56,2.09l3.2,1.85C399.6,160.71,400.54,160.47,400.96,159.74z"/>
		<path class="st2" d="M409.85,165.45l12.52-15.26c0.53-0.65,0.44-1.61-0.21-2.15l-2.86-2.35c-0.65-0.53-1.61-0.44-2.15,0.21
			l-12.52,15.26c-0.53,0.65-0.44,1.61,0.21,2.15l2.86,2.35C408.35,166.2,409.32,166.11,409.85,165.45z"/>
		<path class="st2" d="M416.88,173.25l15.11-13.59c0.64-0.58,0.67-1.55,0.06-2.16l-2.69-2.69c-0.61-0.61-1.63-0.64-2.27-0.06
			l-15.11,13.59c-0.64,0.58-0.67,1.55-0.06,2.16l2.69,2.69C415.22,173.81,416.24,173.83,416.88,173.25z"/>
		<path class="st2" d="M420.93,182.2l19.03-8.03c0.81-0.34,1.18-1.24,0.82-2.01l-1.59-3.38c-0.36-0.77-1.31-1.12-2.12-0.77
			l-19.03,8.03c-0.81,0.34-1.18,1.24-0.82,2.01l1.59,3.38C419.17,182.2,420.12,182.54,420.93,182.2z"/>
		<path class="st2" d="M421.43,192.08l21.56-3.22c0.93-0.14,1.58-0.93,1.44-1.76l-0.59-3.57c-0.14-0.83-1.01-1.39-1.94-1.25
			l-21.56,3.22c-0.93,0.14-1.58,0.93-1.44,1.76l0.59,3.57C419.62,191.66,420.49,192.22,421.43,192.08z"/>
		<path class="st2" d="M421.08,201.13l20.26,3.11c0.88,0.13,1.7-0.43,1.85-1.26l0.61-3.57c0.14-0.83-0.45-1.61-1.33-1.75
			l-20.26-3.11c-0.88-0.13-1.7,0.43-1.85,1.26l-0.61,3.57C419.6,200.21,420.2,200.99,421.08,201.13z"/>
		<path class="st2" d="M340.42,228.66"/>
		<path class="st2" d="M357.53,222.8l-5.29,19.02c-0.23,0.81-1.07,1.29-1.88,1.06l-3.57-0.99c-0.81-0.23-1.29-1.07-1.06-1.88
			l5.29-19.02c0.23-0.81,1.07-1.29,1.88-1.06l3.57,0.99C357.28,221.15,357.76,221.99,357.53,222.8z"/>
		<path class="st2" d="M347.03,220.6l-5.29,19.02c-0.23,0.81-1.07,1.29-1.88,1.06l-3.57-0.99c-0.81-0.23-1.29-1.07-1.06-1.88
			l5.29-19.02c0.23-0.81,1.07-1.29,1.88-1.06l3.57,0.99C346.78,218.95,347.26,219.79,347.03,220.6z"/>
	</g>
	<g>
		<g>
			<path d="M242.09,400.14c-4.24,0-8.01-2.7-9.38-6.72l-9.75-28.7c-0.41-1.21-1.55-2.03-2.83-2.03h-32.94
				c-1.29,0-2.43,0.82-2.84,2.05l-9.44,28.6c-1.34,4.07-5.12,6.8-9.41,6.8h-2.24c-3.19,0-6.2-1.55-8.05-4.14
				c-1.86-2.59-2.35-5.94-1.33-8.96l36.07-106.17c1.37-4.02,5.14-6.72,9.38-6.72h9.32c4.24,0,8.01,2.7,9.38,6.71l36.23,106.17
				c1.03,3.02,0.54,6.37-1.32,8.96c-1.86,2.59-4.87,4.14-8.06,4.14H242.09z M203.55,310.69c-1.15,0-2.28,1.23-2.89,3.13l-8.8,26
				c-0.31,0.92-0.17,1.91,0.4,2.7c0.57,0.79,1.45,1.25,2.43,1.25h17.87c0.98,0,1.86-0.46,2.43-1.25c0.57-0.79,0.71-1.78,0.4-2.7
				l-8.76-25.75C205.94,312.01,204.73,310.69,203.55,310.69z"/>
			<path d="M181.07,363.66l-9.44,28.6c-0.87,2.64-3.34,4.43-6.12,4.43h-2.24c-4.42,0-7.53-4.34-6.11-8.52l36.07-106.17
				c0.89-2.61,3.34-4.37,6.11-4.37h9.32c2.76,0,5.21,1.75,6.1,4.37l36.23,106.17c1.43,4.18-1.68,8.53-6.1,8.53h-2.8
				c-2.76,0-5.22-1.76-6.11-4.37l-9.75-28.7c-0.89-2.62-3.34-4.37-6.11-4.37h-32.94C184.41,359.23,181.94,361.02,181.07,363.66z
				 M212.57,347.22c4.42,0,7.53-4.34,6.1-8.53l-8.76-25.75c-2.65-7.77-10.25-7.42-12.54-0.18l-8.78,25.93
				c-1.41,4.18,1.69,8.52,6.11,8.52H212.57z"/>
			<path d="M277.84,400.14c-5.46,0-9.91-4.44-9.91-9.91V284.06c0-5.46,4.44-9.91,9.91-9.91h2.47c5.46,0,9.91,4.44,9.91,9.91v106.17
				c0,5.46-4.44,9.91-9.91,9.91H277.84z"/>
			<path d="M286.77,284.06v106.17c0,3.56-2.89,6.45-6.45,6.45h-2.47c-3.56,0-6.45-2.89-6.45-6.45V284.06c0-3.56,2.89-6.45,6.45-6.45
				h2.47C283.88,277.61,286.77,280.5,286.77,284.06z"/>
			<path d="M320.07,400.14c-5.46,0-9.91-4.44-9.91-9.91V284.06c0-5.46,4.44-9.91,9.91-9.91h2.47c5.46,0,9.91,4.44,9.91,9.91v93.28
				c0,1.65,1.34,2.99,2.99,2.99h37.98c5.46,0,9.91,4.44,9.91,9.91s-4.44,9.91-9.91,9.91H320.07z"/>
			<path d="M320.07,277.61h2.47c3.56,0,6.45,2.89,6.45,6.45v93.28c0,3.56,2.89,6.45,6.45,6.45h37.98c3.56,0,6.45,2.89,6.45,6.45l0,0
				c0,3.56-2.89,6.45-6.45,6.45h-53.35c-3.56,0-6.45-2.89-6.45-6.45V284.06C313.62,280.5,316.51,277.61,320.07,277.61z"/>
			<path d="M476.45,400.14c-4.59,0-8.55-3.12-9.63-7.58L453,335.49c-1.88-7.71-3.53-14.79-4.91-21.72
				c-1.59,6.89-3.45,13.97-5.72,21.86l-15.65,57.22c-1.17,4.29-5.1,7.29-9.56,7.29h-6.14c-4.54,0-8.49-3.07-9.6-7.47L374.49,286.5
				c-0.76-2.98-0.11-6.09,1.78-8.52c1.89-2.43,4.74-3.82,7.82-3.82h2.85c4.62,0,8.59,3.14,9.65,7.64l12.97,55.27
				c2.04,8.57,3.99,17.27,5.68,25.31c1.93-8.26,4.24-17.01,6.51-25.59l14.63-55.27c1.15-4.34,5.09-7.37,9.58-7.37h6.03
				c4.6,0,8.56,3.12,9.63,7.6l13.3,55.47c1.91,8.03,3.82,16.3,5.43,24.33c1.69-7.31,3.56-14.8,5.5-22.53l0.55-2.19l14.47-55.29
				c1.14-4.36,5.08-7.4,9.59-7.4h2.22c3.13,0,6.01,1.43,7.9,3.93c1.89,2.5,2.48,5.66,1.63,8.68l-30.09,106.17
				c-1.2,4.24-5.12,7.21-9.53,7.21H476.45z"/>
			<path d="M404.78,391.82l-26.94-106.17c-1.03-4.08,2.05-8.03,6.25-8.03h2.85c2.99,0,5.59,2.06,6.28,4.98l12.97,55.27
				c3.53,14.84,6.71,29.68,8.83,41.16h0.35c1.94-11.84,5.65-25.97,9.72-41.34l14.63-55.27c0.75-2.83,3.31-4.8,6.23-4.8h6.03
				c2.98,0,5.58,2.04,6.27,4.94l13.3,55.47c3.36,14.13,6.54,28.27,8.3,40.81h0.35c2.47-13.07,5.83-26.32,9.54-41.16l14.46-55.25
				c0.74-2.84,3.31-4.82,6.24-4.82h2.22c4.28,0,7.37,4.09,6.2,8.21l-30.09,106.17c-0.79,2.77-3.32,4.69-6.2,4.69h-6.13
				c-2.98,0-5.57-2.04-6.27-4.93l-13.82-57.08c-3.71-15.19-6.18-26.85-7.77-38.87h-0.35c-2.12,11.84-4.77,23.5-9.19,38.87
				l-15.66,57.26c-0.77,2.8-3.31,4.75-6.22,4.75h-6.14C408.08,396.68,405.51,394.68,404.78,391.82z"/>
			<path d="M604.79,400.14c-4.24,0-8.01-2.7-9.38-6.72l-9.75-28.7c-0.41-1.21-1.55-2.03-2.83-2.03h-32.94
				c-1.29,0-2.43,0.82-2.84,2.05l-9.44,28.6c-1.34,4.07-5.12,6.8-9.41,6.8h-2.24c-3.19,0-6.2-1.55-8.05-4.14s-2.35-5.94-1.33-8.96
				l36.07-106.17c1.37-4.02,5.14-6.72,9.38-6.72h9.32c4.24,0,8.01,2.7,9.38,6.71l36.23,106.17c1.03,3.02,0.54,6.37-1.32,8.96
				c-1.86,2.59-4.87,4.14-8.06,4.14H604.79z M566.25,310.69c-1.15,0-2.28,1.23-2.89,3.13l-8.8,26c-0.31,0.92-0.17,1.91,0.4,2.7
				c0.57,0.79,1.45,1.25,2.43,1.25h17.87c0.98,0,1.86-0.46,2.43-1.25c0.57-0.79,0.71-1.78,0.4-2.7l-8.76-25.75
				C568.64,312.01,567.43,310.69,566.25,310.69z"/>
			<path d="M543.77,363.66l-9.44,28.6c-0.87,2.64-3.34,4.43-6.12,4.43h-2.24c-4.42,0-7.53-4.34-6.11-8.52l36.07-106.17
				c0.89-2.61,3.34-4.37,6.11-4.37h9.32c2.76,0,5.21,1.75,6.1,4.37l36.23,106.17c1.43,4.18-1.68,8.53-6.1,8.53h-2.8
				c-2.76,0-5.22-1.76-6.11-4.37l-9.75-28.7c-0.89-2.62-3.34-4.37-6.11-4.37h-32.94C547.11,359.23,544.64,361.02,543.77,363.66z
				 M575.27,347.22c4.42,0,7.53-4.34,6.1-8.52l-8.76-25.75c-2.65-7.77-10.25-7.42-12.54-0.18l-8.78,25.93
				c-1.41,4.18,1.69,8.52,6.11,8.52H575.27z"/>
			<path d="M653.08,400.14c-5.46,0-9.91-4.44-9.91-9.91v-42.42c0-0.5-0.13-1-0.37-1.44l-31.59-57.54c-1.7-3.1-1.64-6.77,0.16-9.81
				c1.8-3.04,4.99-4.86,8.53-4.86h2.65c3.74,0,7.12,2.07,8.82,5.4l14.99,29.34c3.58,7.01,6.36,12.67,8.93,18.17
				c2.23-4.71,4.69-9.51,7.4-14.81l1.72-3.36l15.34-29.42c1.71-3.29,5.08-5.33,8.78-5.33h2.35c3.59,0,6.8,1.86,8.59,4.97
				c1.79,3.11,1.77,6.83-0.04,9.93l-33.38,57.16c-0.27,0.46-0.41,0.98-0.41,1.51v42.51c0,5.46-4.44,9.91-9.91,9.91H653.08z"/>
			<path d="M646.64,390.24v-42.42c0-1.08-0.27-2.15-0.8-3.1l-31.59-57.54c-2.36-4.3,0.75-9.55,5.65-9.55h2.65
				c2.42,0,4.64,1.36,5.74,3.52l14.99,29.34c4.59,9.01,8.13,16.25,11.84,24.56h0.35c3.36-7.77,7.42-15.55,12.01-24.56l15.33-29.39
				c1.11-2.13,3.31-3.47,5.72-3.47h2.35c4.98,0,8.08,5.4,5.57,9.7l-33.38,57.16c-0.58,0.99-0.88,2.11-0.88,3.25v42.51
				c0,3.56-2.89,6.45-6.45,6.45h-2.65C649.52,396.68,646.64,393.8,646.64,390.24z"/>
		</g>
	</g>
</g>
</svg>
