<?xml version="1.0" encoding="utf-8"?>
<!-- Generator: Adobe Illustrator 24.1.2, SVG Export Plug-In . SVG Version: 6.00 Build 0)  -->
<svg version="1.1" id="Layer_1" xmlns="http://www.w3.org/2000/svg" xmlns:xlink="http://www.w3.org/1999/xlink" x="0px" y="0px"
	 viewBox="0 0 320 214" style="enable-background:new 0 0 320 214;" xml:space="preserve">
<style type="text/css">
	.st0{fill:#FFFFFF;}
	.st1{fill:none;stroke:#000000;stroke-width:0.75;stroke-miterlimit:10;}
	.st2{fill:none;stroke:#E52A29;stroke-miterlimit:10;}
	.st3{fill:none;}
	.st4{fill:none;stroke:#000000;stroke-width:0.5;stroke-miterlimit:10;}
	.st5{fill:#231F20;}
	.st6{fill:#FFFFFF;stroke:#000000;stroke-width:0.75;stroke-miterlimit:10;}
	.st7{fill:none;stroke:#000000;stroke-width:0.25;stroke-miterlimit:10;}
	.st8{fill:none;stroke:#000000;stroke-width:0.25;stroke-miterlimit:10;stroke-dasharray:1.8805,1.8805;}
	.st9{fill:none;stroke:#000000;stroke-width:0.25;stroke-miterlimit:10;stroke-dasharray:1.9477,1.9477;}
	.st10{fill:none;stroke:#000000;stroke-width:0.25;stroke-miterlimit:10;stroke-dasharray:2.0472,2.0472;}
	.st11{fill:none;stroke:#000000;stroke-width:0.25;stroke-miterlimit:10;stroke-dasharray:2.0079,2.0079;}
	.st12{fill:none;stroke:#000000;stroke-width:0.25;stroke-miterlimit:10;stroke-dasharray:9.888758e-03,1.958,9.888758e-03,0;}
	
		.st13{fill:none;stroke:#000000;stroke-width:0.25;stroke-miterlimit:10;stroke-dasharray:1.9778,0,9.888758e-03,1.958,9.888758e-03,0;}
	.st14{fill:none;stroke:#5FBA47;stroke-miterlimit:10;}
</style>
<rect x="0.2" class="st0" width="319.8" height="214"/>
<g>
	<g>
		<polyline class="st1" points="55.6,14.9 55.6,122.9 251.9,122.9 		"/>
		<g>
			<path d="M55.6,16.3l2.7,1.6l0.1-0.1l-1.8-4.4c-0.3-1.5-0.7-3.1-1-4.6c-0.3,1.5-0.7,3.1-1,4.6l-1.8,4.4l0,0.1L55.6,16.3z"/>
		</g>
		<g>
			<path d="M250.6,122.9l-1.6-2.7l0.1-0.1l4.4,1.8c1.5,0.3,3.1,0.7,4.6,1c-1.5,0.3-3.1,0.7-4.6,1l-4.4,1.8l-0.1-0.1L250.6,122.9z"/>
		</g>
	</g>
</g>
<polyline class="st2" points="55.6,68.3 75.3,68.3 75.3,108.7 98,108.7 98,91.3 114.2,91.3 114.2,68.3 130.7,68.3 130.7,49 
	255.9,49 "/>
<g>
	<path class="st3" d="M55.6,122.9"/>
</g>
<g>
	<path class="st3" d="M75.3,108.7"/>
</g>
<g>
	<path class="st4" d="M130.6,190.4v10.8h65.9c7.8,0,7.8-3.6,7.8-5.3c0-1.6,0-5.4-7.8-5.4C168.9,190.2,158.2,190.6,130.6,190.4z"/>
	<path class="st4" d="M130.6,195.8v-1.6V195.8z"/>
	<path class="st4" d="M130.6,195.8"/>
	<path class="st4" d="M130.5,195.8v1.6V195.8z"/>
	<path class="st4" d="M129,195.8"/>
	<path class="st4" d="M130.5,195.8"/>
</g>
<g>
	<path class="st4" d="M114.2,171.3v10.8h65.9c7.8,0,7.8-3.6,7.8-5.3c0-1.6,0-5.4-7.8-5.4C152.5,171.1,141.8,171.6,114.2,171.3z"/>
	<path class="st4" d="M114.2,176.7v-1.6V176.7z"/>
	<path class="st4" d="M114.2,176.7"/>
	<path class="st4" d="M114.2,176.7v1.6V176.7z"/>
	<path class="st4" d="M112.6,176.7"/>
	<path class="st4" d="M114.2,176.7"/>
</g>
<g>
	<path class="st4" d="M98,151.2V162h65.9c7.8,0,7.8-3.6,7.8-5.3c0-1.6,0-5.4-7.8-5.4C136.3,151,125.6,151.4,98,151.2z"/>
	<path class="st4" d="M98,156.6V155V156.6z"/>
	<path class="st4" d="M98,156.6"/>
	<path class="st4" d="M98,156.6v1.6V156.6z"/>
	<path class="st4" d="M96.4,156.6"/>
	<path class="st4" d="M98,156.6"/>
</g>
<g>
	<path class="st4" d="M1.8,132v10.8h65.9c7.8,0,7.8-3.6,7.8-5.3c0-1.6,0-5.4-7.8-5.4C40.1,131.8,29.4,132.3,1.8,132z"/>
	<path class="st4" d="M1.8,137.4v-1.6V137.4z"/>
	<path class="st4" d="M1.8,137.4"/>
	<path class="st4" d="M1.8,137.4v1.6V137.4z"/>
	<path class="st4" d="M0.2,137.4"/>
	<path class="st4" d="M1.8,137.4"/>
</g>
<g>
	<g>
		<path d="M67.7,14V7.9h0.9v0.3H68v5.7h0.6V14H67.7z"/>
		<path d="M71.4,12.5c-0.2,0-0.4,0-0.6,0v-0.2c0.1,0,0.1,0,0.1,0s0.1,0,0.1-0.1c0-0.1,0-0.1,0-0.1s-0.1-0.1-0.1-0.1l-0.6-0.9
			l-0.4,0.3v0.7c0,0,0,0.1,0,0.1c0,0,0,0.1,0.1,0.1c0,0,0.1,0,0.2,0s0.2,0,0.2,0v0.2c-0.5,0-0.9,0-1.4,0v-0.2c0.1,0,0.2,0,0.2,0
			s0.1,0,0.2,0c0,0,0.1,0,0.1-0.1c0,0,0-0.1,0-0.1V8.8c0-0.1,0-0.1,0-0.2s0-0.1-0.1-0.1s-0.1-0.1-0.2-0.1s-0.2,0-0.2,0V8.3l0.9-0.1
			v2.9l0.9-0.7c0,0,0.1-0.1,0.1-0.1c0,0,0-0.1,0-0.1c0,0,0-0.1-0.1-0.1c0,0-0.1,0-0.1,0V9.8c0.2,0,0.5,0,0.7,0c0.1,0,0.1,0,0.2,0
			c0.1,0,0.2,0,0.2,0V10c-0.1,0-0.3,0-0.4,0.1c-0.1,0-0.2,0.1-0.2,0.1s-0.1,0.1-0.2,0.2l-0.4,0.4l0.8,1.1c0.1,0.1,0.1,0.1,0.1,0.2
			s0.1,0.1,0.2,0.1c0.1,0,0.1,0.1,0.2,0.1s0.1,0,0.2,0v0.2C71.8,12.5,71.6,12.5,71.4,12.5z"/>
		<path d="M76.5,12.5c-0.2,0-0.5,0-0.7,0v-0.2c0.1,0,0.2,0,0.2,0s0.1,0,0.2,0c0,0,0.1,0,0.1-0.1s0-0.1,0-0.1v-1.5c0-0.1,0-0.2,0-0.3
			c0-0.1,0-0.2-0.1-0.3c0-0.1-0.1-0.1-0.1-0.1c-0.1,0-0.1,0-0.2,0c-0.1,0-0.2,0-0.3,0.1c-0.1,0.1-0.2,0.1-0.3,0.2s-0.1,0.2-0.2,0.3
			S75,10.7,75,10.8v1.2c0,0,0,0.1,0,0.1c0,0,0,0.1,0.1,0.1c0,0,0.1,0,0.2,0s0.2,0,0.2,0v0.2c-0.2,0-0.5,0-0.7,0s-0.5,0-0.7,0v-0.2
			c0.1,0,0.2,0,0.2,0s0.1,0,0.2,0c0,0,0.1,0,0.1-0.1c0,0,0-0.1,0-0.1v-1.5c0-0.1,0-0.2,0-0.3c0-0.1,0-0.2-0.1-0.3
			c0-0.1-0.1-0.1-0.1-0.1c-0.1,0-0.1,0-0.2,0c-0.1,0-0.2,0-0.3,0.1c-0.1,0.1-0.2,0.1-0.3,0.2s-0.1,0.2-0.2,0.3s-0.1,0.2-0.1,0.4v1.2
			c0,0,0,0.1,0,0.1c0,0,0,0.1,0.1,0.1c0,0,0.1,0,0.2,0s0.2,0,0.2,0v0.2c-0.1,0-0.2,0-0.3,0c-0.1,0-0.2,0-0.3,0h-0.2
			c-0.2,0-0.5,0-0.7,0v-0.2c0.1,0,0.2,0,0.2,0s0.1,0,0.2,0c0,0,0.1,0,0.1-0.1c0,0,0-0.1,0-0.1v-1.7c0-0.1,0-0.1,0-0.2s0-0.1-0.1-0.1
			c0,0-0.1,0-0.2-0.1c-0.1,0-0.2,0-0.2,0V9.8l0.5,0l0.4,0v0.1v0.6c0.1-0.2,0.2-0.3,0.3-0.5c0.2-0.1,0.3-0.2,0.6-0.2
			c0.1,0,0.2,0,0.3,0c0.1,0,0.2,0.1,0.3,0.2c0.1,0.1,0.1,0.1,0.1,0.2s0.1,0.1,0.1,0.2c0.1-0.2,0.2-0.3,0.3-0.4s0.3-0.2,0.5-0.2
			c0.1,0,0.2,0,0.3,0c0.1,0,0.2,0.1,0.3,0.2s0.2,0.2,0.2,0.3s0,0.2,0,0.3v1.5c0,0,0,0.1,0,0.1c0,0,0,0.1,0.1,0.1c0,0,0.1,0,0.2,0
			s0.2,0,0.2,0v0.2C77,12.5,76.8,12.5,76.5,12.5z"/>
		<path d="M78,13.9C77.9,14,77.9,14,78,13.9C77.8,14,77.8,14,77.8,14c-0.1,0-0.1-0.1-0.1-0.2l2.2-5.9c0,0,0-0.1,0.1-0.1
			c0,0,0.1,0,0.1,0c0.1,0,0.1,0.1,0.1,0.2L78,13.9z"/>
		<path d="M83.1,12.5c-0.2,0-0.5,0-0.7,0v-0.2c0.1,0,0.2,0,0.2,0s0.1,0,0.2,0c0,0,0.1,0,0.1-0.1c0,0,0-0.1,0-0.1v-1.5
			c0-0.1,0-0.2,0-0.3c0-0.1,0-0.2-0.1-0.3c0-0.1-0.1-0.1-0.1-0.1c-0.1,0-0.1,0-0.2,0c-0.1,0-0.2,0-0.3,0.1c-0.1,0.1-0.2,0.1-0.3,0.2
			s-0.1,0.2-0.2,0.3s-0.1,0.2-0.1,0.4v1.2c0,0,0,0.1,0,0.1c0,0,0,0.1,0.1,0.1c0,0,0.1,0,0.2,0s0.2,0,0.2,0v0.2c-0.1,0-0.2,0-0.3,0
			c-0.1,0-0.2,0-0.3,0h-0.2c-0.2,0-0.5,0-0.7,0v-0.2c0.1,0,0.2,0,0.2,0s0.1,0,0.2,0c0,0,0.1,0,0.1-0.1c0,0,0-0.1,0-0.1V8.8
			c0-0.1,0-0.1,0-0.2s0-0.1-0.1-0.1S81,8.5,80.9,8.5s-0.2,0-0.2,0V8.3l0.5,0l0.4,0v0.1v2.1c0.1-0.2,0.2-0.3,0.3-0.4
			c0.2-0.1,0.3-0.2,0.5-0.2c0.1,0,0.2,0,0.3,0c0.1,0,0.2,0.1,0.3,0.2s0.2,0.2,0.2,0.3c0,0.1,0,0.2,0,0.3v1.5c0,0,0,0.1,0,0.1
			c0,0,0,0.1,0.1,0.1c0,0,0.1,0,0.2,0s0.2,0,0.2,0v0.2C83.6,12.5,83.3,12.5,83.1,12.5z"/>
		<path d="M84.3,14v-0.3h0.6V8.1h-0.6V7.9h0.9V14L84.3,14L84.3,14z"/>
	</g>
	<g>
		<path d="M64.7,11.9c0,0.1-0.1,0.2-0.1,0.3c-0.1,0.1-0.1,0.2-0.2,0.2s-0.2,0.1-0.3,0.1c-0.1,0-0.2,0-0.3-0.1
			c-0.1-0.1-0.1-0.2-0.2-0.3c-0.1,0.1-0.2,0.2-0.3,0.3c-0.1,0.1-0.2,0.1-0.4,0.1c-0.1,0-0.3,0-0.4-0.1c-0.1-0.1-0.2-0.1-0.2-0.2
			c-0.1-0.1-0.1-0.3-0.1-0.4c0-0.1,0-0.3,0.1-0.4c0-0.1,0.1-0.3,0.1-0.4s0.1-0.3,0.2-0.5c0.1-0.2,0.1-0.3,0.1-0.4s0-0.2-0.1-0.2
			c-0.1,0-0.1,0-0.2,0.1s-0.1,0.1-0.2,0.2c0,0.1-0.1,0.2-0.1,0.3s-0.1,0.2-0.1,0.3c0,0,0,0.1-0.1,0.1h-0.1c0,0,0,0,0-0.1
			c0-0.1,0.1-0.2,0.1-0.3s0.1-0.2,0.2-0.3s0.2-0.2,0.2-0.2c0.1-0.1,0.2-0.1,0.3-0.1c0.1,0,0.2,0,0.2,0.1c0.1,0,0.1,0.1,0.2,0.2
			c0,0.1,0,0.1,0.1,0.2s0,0.2,0,0.3c-0.1,0.2-0.1,0.3-0.2,0.5s-0.1,0.3-0.1,0.4c0,0.1-0.1,0.3-0.1,0.4s0,0.3,0,0.4
			c0,0.1,0.1,0.1,0.1,0.2c0,0,0.1,0.1,0.2,0.1c0.1,0,0.3,0,0.4-0.1s0.2-0.2,0.3-0.3c0,0,0,0,0-0.1s0,0,0-0.1L64,10
			c0-0.1,0.1-0.1,0.1-0.1s0.1-0.1,0.2-0.1s0.1,0,0.1,0.1c0,0,0,0.1,0,0.1L64,11.8c0,0.2-0.1,0.3,0,0.4s0.1,0.2,0.2,0.2
			c0.1,0,0.2-0.1,0.3-0.2c0.1-0.2,0.1-0.4,0.2-0.6c0,0,0-0.1,0.1-0.1h0.1c0,0,0,0,0,0s0,0,0,0C64.7,11.7,64.7,11.8,64.7,11.9z"/>
	</g>
</g>
<g>
	<g>
		<path d="M257.1,117.8v-6.2h0.9v0.3h-0.6v5.7h0.6v0.3L257.1,117.8L257.1,117.8z"/>
		<path d="M262.6,116.3c-0.2,0-0.5,0-0.7,0v-0.2c0.1,0,0.1,0,0.2,0s0.1,0,0.2,0c0,0,0.1,0,0.1-0.1s0-0.1,0-0.1v-1.5
			c0-0.1,0-0.2,0-0.3c0-0.1,0-0.2-0.1-0.3c0-0.1-0.1-0.1-0.1-0.1c-0.1,0-0.1,0-0.2,0c-0.1,0-0.2,0-0.3,0.1c-0.1,0.1-0.2,0.1-0.3,0.2
			c-0.1,0.1-0.1,0.2-0.2,0.3c0,0.1-0.1,0.2-0.1,0.4v1.2c0,0,0,0.1,0,0.1s0,0.1,0.1,0.1c0,0,0.1,0,0.2,0s0.1,0,0.2,0v0.2
			c-0.2,0-0.5,0-0.7,0c-0.2,0-0.5,0-0.7,0v-0.2c0.1,0,0.1,0,0.2,0c0.1,0,0.1,0,0.2,0c0,0,0,0,0.1-0.1s0-0.1,0-0.1v-1.5
			c0-0.1,0-0.2,0-0.3c0-0.1,0-0.2-0.1-0.3c0-0.1-0.1-0.1-0.1-0.1c-0.1,0-0.1,0-0.2,0c-0.1,0-0.2,0-0.3,0.1c-0.1,0.1-0.2,0.1-0.3,0.2
			c-0.1,0.1-0.1,0.2-0.2,0.3c0,0.1-0.1,0.2-0.1,0.4v1.2c0,0,0,0.1,0,0.1s0,0.1,0.1,0.1c0,0,0.1,0,0.2,0s0.2,0,0.2,0v0.2
			c-0.1,0-0.2,0-0.3,0s-0.2,0-0.3,0h-0.2c-0.2,0-0.5,0-0.7,0v-0.2c0.1,0,0.1,0,0.2,0c0.1,0,0.1,0,0.2,0c0,0,0,0,0.1-0.1s0-0.1,0-0.1
			v-1.7c0-0.1,0-0.1,0-0.2s0-0.1-0.1-0.1c0,0-0.1,0-0.2-0.1c-0.1,0-0.1,0-0.2,0v-0.2l0.5,0l0.4,0v0.1v0.6c0.1-0.2,0.2-0.3,0.4-0.5
			s0.3-0.2,0.6-0.2c0.1,0,0.2,0,0.4,0s0.2,0.1,0.3,0.2c0.1,0.1,0.1,0.1,0.1,0.2s0,0.1,0.1,0.2c0.1-0.2,0.2-0.3,0.4-0.4
			c0.2-0.1,0.3-0.2,0.5-0.2c0.1,0,0.2,0,0.4,0s0.2,0.1,0.3,0.2s0.1,0.2,0.2,0.3c0,0.1,0,0.2,0,0.3v1.5c0,0,0,0.1,0,0.1
			c0,0,0,0.1,0.1,0.1c0,0,0.1,0,0.2,0s0.1,0,0.2,0v0.2C263.1,116.3,262.8,116.3,262.6,116.3z"/>
		<path d="M263.8,117.8v-0.3h0.6v-5.7h-0.6v-0.3h0.9v6.2L263.8,117.8L263.8,117.8z"/>
	</g>
	<g>
		<path d="M253.4,115.6c-0.1,0.2-0.1,0.3-0.1,0.4c0,0.1,0.1,0.2,0.2,0.2c0.1,0,0.1,0,0.1-0.1s0.1-0.1,0.1-0.2s0.1-0.2,0.1-0.3
			s0.1-0.2,0.1-0.3c0,0,0-0.1,0.1-0.1h0.1c0,0,0.1,0,0.1,0.1c0,0.1-0.1,0.2-0.1,0.3s-0.1,0.2-0.1,0.3c-0.1,0.1-0.1,0.2-0.2,0.2
			s-0.2,0.1-0.3,0.1c-0.1,0-0.3,0-0.4-0.1s-0.1-0.2-0.2-0.3c-0.1,0.1-0.2,0.2-0.4,0.3c-0.1,0.1-0.3,0.1-0.4,0.1
			c-0.2,0-0.3,0-0.4-0.1s-0.2-0.2-0.2-0.3c-0.1-0.1-0.1-0.3-0.1-0.5s0-0.3,0.1-0.5c0.1-0.2,0.1-0.3,0.2-0.5c0.1-0.2,0.2-0.3,0.4-0.5
			c0.1-0.1,0.3-0.2,0.4-0.3s0.3-0.1,0.4-0.1c0.1,0,0.2,0,0.3,0.1s0.1,0.2,0.2,0.3l0.4-1.4c0-0.1,0-0.1,0-0.2s0-0.1,0-0.1
			c0,0-0.1,0-0.1,0s-0.1,0-0.2,0c-0.1,0-0.1,0-0.1-0.1l0-0.1c0,0,0-0.1,0.1-0.1l0.6-0.1l0.2,0c0,0,0,0,0.1,0c0,0,0,0,0,0.1
			L253.4,115.6z M253.4,114.2c0,0,0-0.1,0-0.1c0-0.1-0.1-0.2-0.1-0.3c-0.1-0.1-0.1-0.1-0.3-0.1c-0.1,0-0.2,0-0.3,0.1
			c-0.1,0.1-0.2,0.2-0.2,0.3c-0.1,0.1-0.2,0.3-0.2,0.4s-0.1,0.3-0.1,0.5c0,0.2-0.1,0.3-0.1,0.5c0,0.2,0,0.3,0,0.4
			c0,0.1,0.1,0.2,0.1,0.3s0.1,0.1,0.2,0.1c0.1,0,0.2,0,0.3-0.1s0.2-0.2,0.3-0.3c0,0,0.1-0.1,0.1-0.1s0.1-0.1,0.1-0.1l0.3-1.3
			C253.4,114.3,253.4,114.2,253.4,114.2z"/>
	</g>
</g>
<g>
	<path class="st5" d="M92.6,104.3c0,0.1-0.1,0.2-0.1,0.3c-0.1,0.1-0.1,0.2-0.2,0.3S92.1,105,92,105c-0.2,0-0.3,0-0.3-0.1
		s-0.2-0.2-0.2-0.3c-0.1,0.1-0.2,0.2-0.3,0.3s-0.3,0.1-0.4,0.1c-0.1,0-0.3,0-0.4-0.1c-0.1-0.1-0.2-0.1-0.3-0.3
		c-0.1-0.1-0.1-0.3-0.1-0.4c0-0.2,0-0.3,0.1-0.5c0-0.2,0.1-0.3,0.2-0.5s0.1-0.4,0.2-0.5c0.1-0.2,0.1-0.3,0.1-0.5s-0.1-0.2-0.2-0.2
		c-0.1,0-0.2,0-0.2,0.1s-0.1,0.1-0.2,0.2s-0.1,0.2-0.1,0.3c0,0.1-0.1,0.2-0.1,0.3c0,0.1-0.1,0.1-0.1,0.1h-0.1c0,0-0.1,0-0.1-0.1
		c0-0.1,0.1-0.2,0.1-0.4s0.1-0.2,0.2-0.3s0.2-0.2,0.3-0.3c0.1-0.1,0.2-0.1,0.3-0.1c0.1,0,0.2,0,0.3,0.1s0.1,0.1,0.2,0.2
		c0,0.1,0.1,0.2,0.1,0.3s0,0.2-0.1,0.3c-0.1,0.2-0.1,0.3-0.2,0.5c-0.1,0.2-0.1,0.3-0.2,0.5s-0.1,0.3-0.1,0.4c0,0.1,0,0.3,0,0.4
		c0,0.1,0.1,0.2,0.1,0.2s0.1,0.1,0.2,0.1c0.2,0,0.3-0.1,0.4-0.1s0.2-0.2,0.3-0.4c0,0,0,0,0-0.1c0,0,0,0,0-0.1l0.5-2
		c0-0.1,0.1-0.1,0.1-0.2c0.1,0,0.1-0.1,0.2-0.1s0.1,0,0.1,0.1c0,0,0,0.1,0,0.2l-0.5,2c-0.1,0.2-0.1,0.3-0.1,0.5
		c0,0.1,0.1,0.2,0.2,0.2s0.2-0.1,0.3-0.3s0.1-0.4,0.2-0.6c0,0,0-0.1,0.1-0.1h0.1c0,0,0,0,0,0c0,0,0,0,0,0
		C92.7,104.1,92.6,104.2,92.6,104.3z"/>
	<path class="st5" d="M92.9,107.2v-0.1c0,0,0.1,0,0.1,0s0.1,0,0.1,0s0.1,0,0.1,0c0,0,0.1,0,0.1,0c0,0,0.1,0,0.1,0s0-0.1,0-0.1v-2.1
		c-0.1,0-0.2,0.1-0.3,0.1c-0.1,0-0.2,0-0.3,0v-0.1c0.1,0,0.3,0,0.4-0.1s0.2-0.1,0.3-0.2h0.1c0,0,0,0,0,0v2.3c0,0,0,0.1,0,0.1
		c0,0,0,0,0.1,0s0.1,0,0.1,0s0.1,0,0.1,0s0.1,0,0.1,0s0.1,0,0.1,0v0.1C93.8,107.2,93.3,107.2,92.9,107.2z"/>
</g>
<g>
	<path class="st5" d="M229.9,140.2c0,0.1-0.1,0.2-0.1,0.3c-0.1,0.1-0.1,0.2-0.2,0.3c-0.1,0.1-0.2,0.1-0.3,0.1c-0.1,0-0.3,0-0.4-0.1
		c-0.1-0.1-0.1-0.2-0.2-0.3c-0.1,0.1-0.2,0.2-0.3,0.3s-0.3,0.1-0.4,0.1c-0.1,0-0.3,0-0.4-0.1c-0.1-0.1-0.2-0.1-0.3-0.3
		c-0.1-0.1-0.1-0.3-0.1-0.4s0-0.3,0.1-0.5c0-0.1,0.1-0.3,0.1-0.5c0.1-0.2,0.1-0.4,0.2-0.5c0.1-0.2,0.1-0.3,0.1-0.5
		c0-0.1-0.1-0.2-0.2-0.2c-0.1,0-0.1,0-0.2,0.1s-0.1,0.1-0.2,0.2s-0.1,0.2-0.1,0.3s-0.1,0.2-0.1,0.4c0,0.1-0.1,0.1-0.1,0.1h-0.1
		c0,0-0.1,0-0.1-0.1c0-0.1,0.1-0.2,0.1-0.4c0.1-0.1,0.1-0.2,0.2-0.3c0.1-0.1,0.2-0.2,0.3-0.3c0.1-0.1,0.2-0.1,0.3-0.1
		c0.1,0,0.2,0,0.3,0.1c0.1,0,0.1,0.1,0.2,0.2c0,0.1,0.1,0.2,0.1,0.3s0,0.2-0.1,0.3c-0.1,0.2-0.1,0.4-0.2,0.5s-0.1,0.3-0.1,0.5
		c0,0.1-0.1,0.3-0.1,0.4s0,0.3,0,0.4c0,0.1,0.1,0.1,0.1,0.2s0.1,0.1,0.2,0.1c0.1,0,0.3-0.1,0.4-0.1s0.2-0.2,0.3-0.4c0,0,0,0,0-0.1
		c0,0,0,0,0-0.1l0.5-2c0-0.1,0.1-0.1,0.1-0.2c0.1,0,0.1-0.1,0.2-0.1s0.1,0,0.1,0.1s0,0.1,0,0.2l-0.5,2c-0.1,0.2-0.1,0.3-0.1,0.5
		s0.1,0.2,0.2,0.2s0.2-0.1,0.3-0.3s0.1-0.4,0.2-0.6c0,0,0-0.1,0.1-0.1h0.1c0,0,0,0,0,0c0,0,0,0,0,0
		C229.9,139.9,229.9,140.1,229.9,140.2z"/>
	<path class="st5" d="M232.6,143.1c-0.1,0-0.3,0-0.4,0V143c0,0,0.1,0,0.1,0s0.1,0,0.1,0c0,0,0,0,0-0.1c0,0,0-0.1,0-0.1v-0.9
		c0-0.1,0-0.1,0-0.2s0-0.1-0.1-0.2c0,0-0.1-0.1-0.1-0.1s-0.1,0-0.1,0c-0.1,0-0.1,0-0.2,0.1c-0.1,0-0.1,0.1-0.2,0.1
		c-0.1,0.1-0.1,0.1-0.1,0.2s0,0.1,0,0.2v0.8c0,0,0,0.1,0,0.1s0,0,0,0.1c0,0,0.1,0,0.1,0c0.1,0,0.1,0,0.1,0v0.1c-0.1,0-0.3,0-0.4,0
		s-0.3,0-0.4,0V143c0,0,0.1,0,0.1,0s0.1,0,0.1,0c0,0,0,0,0-0.1c0,0,0-0.1,0-0.1v-0.9c0-0.1,0-0.1,0-0.2s0-0.1-0.1-0.2
		c0,0-0.1-0.1-0.1-0.1s-0.1,0-0.1,0c-0.1,0-0.1,0-0.2,0.1c-0.1,0-0.1,0.1-0.2,0.1c-0.1,0.1-0.1,0.1-0.1,0.2s0,0.1,0,0.2v0.8
		c0,0,0,0.1,0,0.1s0,0,0,0.1c0,0,0.1,0,0.1,0s0.1,0,0.1,0v0.1c-0.1,0-0.1,0-0.2,0c-0.1,0-0.1,0-0.2,0h-0.1c-0.1,0-0.3,0-0.4,0v-0.1
		c0,0,0.1,0,0.1,0s0.1,0,0.1,0c0,0,0,0,0-0.1c0,0,0,0,0-0.1v-1.1c0,0,0-0.1,0-0.1s0-0.1-0.1-0.1s-0.1,0-0.1,0s-0.1,0-0.1,0v-0.1
		l0.3,0l0.3,0v0v0.4c0.1-0.1,0.1-0.2,0.2-0.3c0.1-0.1,0.2-0.1,0.4-0.1c0.1,0,0.1,0,0.2,0c0.1,0,0.1,0.1,0.2,0.1c0,0,0.1,0.1,0.1,0.1
		s0,0.1,0,0.1c0.1-0.1,0.1-0.2,0.2-0.3c0.1-0.1,0.2-0.1,0.3-0.1c0.1,0,0.1,0,0.2,0s0.1,0.1,0.2,0.1c0.1,0.1,0.1,0.1,0.1,0.2
		s0,0.1,0,0.2v0.9c0,0,0,0.1,0,0.1s0,0,0,0.1c0,0,0.1,0,0.1,0c0.1,0,0.1,0,0.1,0v0.1C232.9,143.1,232.7,143.1,232.6,143.1z"/>
	<path class="st5" d="M235,142.9c0,0,0,0.1-0.1,0.1c0,0-0.1,0.1-0.1,0.1c0,0-0.1,0-0.1,0c-0.1,0-0.1,0-0.2-0.1s-0.1-0.1-0.1-0.2
		c0,0.1-0.1,0.2-0.2,0.3s-0.2,0.1-0.3,0.1c-0.1,0-0.1,0-0.2,0c-0.1,0-0.1,0-0.2-0.1c-0.1,0-0.1-0.1-0.1-0.1s-0.1-0.1-0.1-0.2
		c0-0.1,0-0.2,0.1-0.3c0.1-0.1,0.1-0.1,0.2-0.2c0.1-0.1,0.3-0.1,0.4-0.1s0.3,0,0.4,0v-0.2c0-0.1,0-0.1,0-0.2s-0.1-0.1-0.1-0.2
		c-0.1-0.1-0.2-0.1-0.3-0.1c-0.1,0-0.2,0-0.3,0.1s-0.1,0.1-0.2,0.1c0.1,0,0.1,0,0.1,0c0,0,0.1,0.1,0.1,0.1s0,0.1-0.1,0.1
		s-0.1,0.1-0.1,0.1s-0.1,0-0.1-0.1c0,0-0.1-0.1-0.1-0.1c0-0.1,0-0.1,0.1-0.2c0-0.1,0.1-0.1,0.1-0.1s0.1-0.1,0.2-0.1s0.1,0,0.2,0
		c0.1,0,0.2,0,0.3,0s0.2,0.1,0.2,0.1c0.1,0.1,0.1,0.1,0.1,0.2c0,0.1,0.1,0.1,0.1,0.2v0.9c0,0.1,0,0.1,0,0.1c0,0,0.1,0.1,0.1,0.1
		S234.9,143,235,142.9c-0.1,0-0.1-0.1-0.1-0.1v-0.3h0.1v0.3C235,142.8,235,142.9,235,142.9z M234.4,142.1c-0.1,0-0.2,0-0.3,0
		s-0.2,0.1-0.3,0.1c-0.1,0-0.1,0.1-0.2,0.2c0,0.1-0.1,0.2-0.1,0.2c0,0.1,0,0.1,0,0.1c0,0,0,0.1,0.1,0.1c0,0,0.1,0.1,0.1,0.1
		s0.1,0,0.1,0c0.1,0,0.1,0,0.2,0c0.1,0,0.1-0.1,0.1-0.1c0,0,0.1-0.1,0.1-0.1s0-0.1,0-0.2L234.4,142.1L234.4,142.1z M234,141.2
		L234,141.2l0.4-0.6c0,0,0.1-0.1,0.1-0.1s0.1,0,0.1,0.1s0,0.1,0,0.1c0,0,0,0.1-0.1,0.1L234,141.2z"/>
	<path class="st5" d="M236.7,143.1c-0.1,0-0.3,0-0.4,0V143c0,0,0,0,0.1,0s0,0,0.1,0c0,0,0-0.1,0-0.1l-0.4-0.5l-0.3,0.4
		c0,0,0,0.1,0,0.1s0,0.1,0,0.1c0,0.1,0.1,0.1,0.1,0.1v0.1c-0.1,0-0.2,0-0.4,0c-0.1,0-0.2,0-0.4,0V143c0.1,0,0.2,0,0.3-0.1
		c0,0,0.1-0.1,0.1-0.1c0,0,0.1-0.1,0.1-0.1l0.4-0.5l-0.5-0.6c0,0,0-0.1-0.1-0.1s-0.1,0-0.1-0.1c0,0-0.1,0-0.1,0c-0.1,0-0.1,0-0.1,0
		v-0.1c0.1,0,0.3,0,0.4,0s0.3,0,0.4,0v0.1c-0.1,0-0.1,0-0.1,0.1s0,0.1,0,0.1l0.3,0.4l0.3-0.3c0-0.1,0.1-0.1,0.1-0.2c0,0,0,0,0-0.1
		s0,0-0.1,0v-0.1c0.1,0,0.2,0,0.4,0c0.1,0,0.2,0,0.4,0v0.1c-0.1,0-0.2,0-0.3,0.1c0,0-0.1,0.1-0.1,0.1c0,0-0.1,0.1-0.1,0.1l-0.3,0.4
		l0.5,0.7c0,0,0,0.1,0.1,0.1s0.1,0,0.1,0.1c0,0,0.1,0,0.1,0c0.1,0,0.1,0,0.1,0v0.1C237,143.1,236.8,143.1,236.7,143.1z"/>
	<path class="st5" d="M244.3,138.6C244.2,138.6,244.2,138.6,244.3,138.6l-4.3,0c0,0-0.1,0-0.1,0c0,0,0-0.1,0-0.1s0-0.1,0-0.1
		s0.1,0,0.1,0h4.2c0,0,0.1,0,0.1,0s0,0.1,0,0.1S244.3,138.5,244.3,138.6z M244.3,139.9C244.2,139.9,244.2,139.9,244.3,139.9l-4.3,0
		c0,0-0.1,0-0.1,0c0,0,0-0.1,0-0.1s0-0.1,0-0.1s0.1,0,0.1,0h4.2c0,0,0.1,0,0.1,0S244.3,139.8,244.3,139.9
		C244.3,139.8,244.3,139.9,244.3,139.9z"/>
	<path class="st5" d="M250.7,140.2c0,0.1-0.1,0.2-0.1,0.3c-0.1,0.1-0.1,0.2-0.2,0.3c-0.1,0.1-0.2,0.1-0.3,0.1c-0.1,0-0.3,0-0.4-0.1
		c-0.1-0.1-0.1-0.2-0.2-0.3c-0.1,0.1-0.2,0.2-0.3,0.3s-0.3,0.1-0.4,0.1c-0.1,0-0.3,0-0.4-0.1s-0.2-0.1-0.3-0.3
		c-0.1-0.1-0.1-0.3-0.1-0.4c0-0.2,0-0.3,0.1-0.5c0-0.1,0.1-0.3,0.1-0.5c0.1-0.2,0.1-0.4,0.2-0.5c0.1-0.2,0.1-0.3,0.1-0.5
		c0-0.1-0.1-0.2-0.2-0.2c-0.1,0-0.2,0-0.2,0.1s-0.1,0.1-0.2,0.2c-0.1,0.1-0.1,0.2-0.1,0.3s-0.1,0.2-0.1,0.4c0,0.1-0.1,0.1-0.1,0.1
		h-0.1c0,0-0.1,0-0.1-0.1c0-0.1,0.1-0.2,0.1-0.4c0.1-0.1,0.1-0.2,0.2-0.3c0.1-0.1,0.2-0.2,0.3-0.3c0.1-0.1,0.2-0.1,0.3-0.1
		c0.1,0,0.2,0,0.3,0.1c0.1,0,0.1,0.1,0.2,0.2c0,0.1,0.1,0.2,0.1,0.3c0,0.1,0,0.2-0.1,0.3c-0.1,0.2-0.1,0.4-0.2,0.5s-0.1,0.3-0.1,0.5
		c0,0.1-0.1,0.3-0.1,0.4s0,0.3,0,0.4c0,0.1,0.1,0.1,0.1,0.2s0.1,0.1,0.2,0.1c0.1,0,0.3-0.1,0.4-0.1s0.2-0.2,0.3-0.4c0,0,0,0,0-0.1
		c0,0,0,0,0-0.1l0.5-2c0-0.1,0.1-0.1,0.1-0.2c0.1,0,0.1-0.1,0.2-0.1s0.1,0,0.1,0.1s0.1,0.1,0,0.2l-0.5,2c-0.1,0.2-0.1,0.3-0.1,0.5
		s0.1,0.2,0.2,0.2s0.2-0.1,0.3-0.3s0.1-0.4,0.2-0.6c0,0,0-0.1,0.1-0.1h0.1c0,0,0,0,0,0c0,0,0,0,0,0
		C250.7,139.9,250.7,140.1,250.7,140.2z"/>
	<path class="st5" d="M251,143.1V143c0,0,0.1,0,0.1,0s0.1,0,0.1,0c0,0,0.1,0,0.1,0s0.1,0,0.1,0c0,0,0.1,0,0.1,0c0,0,0-0.1,0-0.1
		v-2.1c-0.1,0-0.2,0.1-0.3,0.1c-0.1,0-0.2,0-0.3,0v-0.1c0.1,0,0.3,0,0.4-0.1c0.1,0,0.2-0.1,0.3-0.2h0.1c0,0,0,0,0,0v2.3
		c0,0,0,0.1,0,0.1s0,0,0.1,0s0.1,0,0.1,0s0.1,0,0.1,0c0,0,0.1,0,0.1,0s0.1,0,0.1,0v0.1C251.8,143.1,251.4,143.1,251,143.1z"/>
</g>
<g>
	<path class="st5" d="M264.4,142.5C264.4,142.5,264.4,142.5,264.4,142.5c-0.1,0-0.1,0-0.1,0c-0.3-0.2-0.5-0.4-0.7-0.7
		c-0.2-0.3-0.3-0.5-0.5-0.8c-0.1-0.3-0.2-0.6-0.3-0.9c-0.1-0.3-0.1-0.6-0.1-1s0-0.6,0.1-1s0.1-0.6,0.3-0.9c0.1-0.3,0.3-0.6,0.5-0.8
		c0.2-0.3,0.4-0.5,0.7-0.7c0,0,0,0,0.1,0c0,0,0,0,0,0c0,0,0,0,0,0.1s0,0,0,0.1c-0.2,0.2-0.4,0.4-0.5,0.7c-0.1,0.3-0.3,0.5-0.4,0.8
		s-0.2,0.6-0.2,0.9s-0.1,0.6-0.1,0.9c0,0.3,0,0.6,0.1,0.9s0.1,0.6,0.2,0.9s0.2,0.6,0.4,0.8S264.2,142.2,264.4,142.5
		C264.4,142.4,264.4,142.5,264.4,142.5C264.4,142.5,264.4,142.5,264.4,142.5z"/>
	<path class="st5" d="M265,140.8v-0.2c0.1,0,0.2,0,0.2,0c0.1,0,0.1,0,0.2,0c0,0,0.1-0.1,0.1-0.1c0,0,0-0.1,0-0.1v-1.9
		c0-0.1,0-0.1,0-0.2s0-0.1-0.1-0.1c0,0-0.1-0.1-0.2-0.1s-0.2,0-0.2,0v-0.2l1-0.1v2.5c0,0,0,0.1,0,0.1s0,0.1,0.1,0.1c0,0,0.1,0,0.2,0
		s0.1,0,0.2,0v0.2C266,140.8,265.5,140.8,265,140.8z M265.9,136.9c-0.1,0.1-0.2,0.1-0.3,0.1c-0.1,0-0.2,0-0.3-0.1s-0.1-0.2-0.1-0.3
		s0-0.2,0.1-0.3s0.2-0.1,0.3-0.1c0.1,0,0.2,0,0.3,0.1s0.1,0.1,0.1,0.3S266,136.8,265.9,136.9z"/>
	<path class="st5" d="M269.9,138.2c0,0-0.1,0.1-0.1,0.1s-0.1,0-0.1-0.1c0,0-0.1-0.1-0.1-0.1c0-0.1,0-0.1,0-0.1s0-0.1,0.1-0.1
		c-0.3,0-0.5,0.1-0.7,0.3c0.1,0.1,0.1,0.2,0.2,0.3c0,0.1,0.1,0.2,0.1,0.4c0,0.1,0,0.3-0.1,0.4c-0.1,0.1-0.1,0.2-0.2,0.3
		c-0.1,0.1-0.2,0.2-0.4,0.2c-0.1,0.1-0.3,0.1-0.4,0.1c-0.1,0-0.2,0-0.4-0.1s-0.2-0.1-0.3-0.2c-0.1,0.1-0.1,0.2-0.1,0.3
		c0,0.1,0,0.2,0,0.3c0,0.1,0.1,0.1,0.1,0.2s0.1,0.1,0.2,0.1h0.5c0.2,0,0.4,0,0.6,0c0.2,0,0.4,0.1,0.5,0.2c0.1,0.1,0.2,0.2,0.3,0.3
		c0.1,0.1,0.1,0.3,0.1,0.4c0,0.1,0,0.3-0.1,0.4s-0.2,0.2-0.3,0.3c-0.2,0.1-0.3,0.1-0.5,0.2s-0.4,0.1-0.5,0.1s-0.4,0-0.5-0.1
		s-0.4-0.1-0.5-0.2c-0.1-0.1-0.2-0.1-0.3-0.3c-0.1-0.1-0.1-0.2-0.1-0.4c0-0.1,0-0.2,0.1-0.3c0-0.1,0.1-0.2,0.2-0.2
		c0.1-0.1,0.2-0.1,0.3-0.2c-0.1-0.1-0.1-0.1-0.2-0.2s-0.1-0.2-0.1-0.3c0-0.1,0-0.2,0-0.3s0.1-0.2,0.2-0.3c-0.1-0.1-0.2-0.2-0.2-0.3
		s-0.1-0.3-0.1-0.4c0-0.1,0-0.3,0.1-0.4c0.1-0.1,0.1-0.2,0.2-0.3c0.1-0.1,0.2-0.2,0.4-0.2s0.3-0.1,0.4-0.1c0.3,0,0.5,0.1,0.7,0.2
		c0.1-0.1,0.2-0.2,0.3-0.2c0.1-0.1,0.3-0.1,0.4-0.1c0.1,0,0.2,0,0.2,0.1s0.1,0.1,0.1,0.2C270,138.2,269.9,138.2,269.9,138.2z
		 M269.4,141.1c0-0.1-0.1-0.1-0.2-0.2c-0.1-0.1-0.3-0.1-0.4-0.1c-0.1,0-0.3,0-0.5,0h-0.5c-0.2,0-0.3,0.1-0.4,0.2
		c-0.1,0.1-0.2,0.3-0.2,0.4c0,0.1,0,0.2,0.1,0.3s0.1,0.1,0.2,0.2c0.1,0.1,0.3,0.1,0.4,0.2c0.1,0,0.3,0.1,0.4,0.1s0.3,0,0.4-0.1
		c0.1,0,0.3-0.1,0.4-0.2c0.1-0.1,0.2-0.1,0.2-0.2s0.1-0.2,0.1-0.3C269.5,141.3,269.5,141.2,269.4,141.1z M268.7,138.5
		c0-0.1,0-0.2-0.1-0.3c0-0.1-0.1-0.1-0.2-0.2s-0.2-0.1-0.3-0.1s-0.2,0-0.3,0.1s-0.1,0.1-0.2,0.2c-0.1,0.1-0.1,0.2-0.1,0.3
		c0,0.1,0,0.2,0,0.3c0,0.1,0,0.2,0,0.3s0,0.2,0.1,0.3c0.1,0.1,0.3,0.2,0.5,0.2s0.3-0.1,0.5-0.2c0.1-0.1,0.1-0.2,0.1-0.3
		c0-0.1,0-0.2,0-0.3C268.8,138.7,268.8,138.6,268.7,138.5z"/>
	<path class="st5" d="M272.9,140.8c-0.3,0-0.5,0-0.8,0v-0.2c0.1,0,0.2,0,0.2,0s0.1,0,0.2,0c0,0,0.1-0.1,0.1-0.1c0,0,0-0.1,0-0.1
		v-1.6c0-0.1,0-0.2,0-0.3c0-0.1,0-0.2-0.1-0.3c0-0.1-0.1-0.1-0.1-0.1s-0.1,0-0.2,0c-0.1,0-0.3,0-0.4,0.1s-0.2,0.1-0.3,0.2
		c-0.1,0.1-0.1,0.2-0.2,0.3c0,0.1-0.1,0.3-0.1,0.4v1.4c0,0,0,0.1,0,0.1c0,0,0,0.1,0.1,0.1c0,0,0.1,0,0.2,0s0.2,0,0.2,0v0.2
		c-0.1,0-0.2,0-0.3,0s-0.2,0-0.3,0H271c-0.3,0-0.5,0-0.8,0v-0.2c0.1,0,0.2,0,0.2,0c0.1,0,0.1,0,0.2,0c0,0,0.1-0.1,0.1-0.1
		c0,0,0-0.1,0-0.1v-1.9c0-0.1,0-0.1,0-0.2s0-0.1-0.1-0.1c0,0-0.1-0.1-0.2-0.1s-0.2,0-0.2,0v-0.2l0.5,0l0.4,0v0.1v0.6
		c0.1-0.2,0.2-0.4,0.4-0.5c0.2-0.1,0.4-0.2,0.6-0.2c0.1,0,0.3,0,0.4,0c0.1,0,0.2,0.1,0.3,0.2s0.2,0.2,0.2,0.3c0,0.1,0,0.3,0,0.4v1.6
		c0,0,0,0.1,0,0.1c0,0,0,0.1,0.1,0.1c0,0,0.1,0,0.2,0c0.1,0,0.2,0,0.2,0v0.2C273.4,140.8,273.2,140.8,272.9,140.8z"/>
	<path class="st5" d="M276.9,140c-0.1,0.2-0.2,0.4-0.3,0.5c-0.1,0.1-0.3,0.3-0.5,0.3c-0.2,0.1-0.4,0.1-0.6,0.1c-0.2,0-0.4,0-0.6-0.1
		s-0.3-0.2-0.5-0.3s-0.3-0.3-0.3-0.5s-0.1-0.4-0.1-0.6c0-0.2,0-0.4,0.1-0.6c0.1-0.2,0.2-0.4,0.3-0.5c0.1-0.1,0.3-0.3,0.5-0.3
		s0.4-0.1,0.6-0.1c0.2,0,0.4,0,0.6,0.1c0.2,0.1,0.3,0.2,0.5,0.3c0.1,0.1,0.3,0.3,0.3,0.5c0.1,0.2,0.1,0.4,0.1,0.6
		C277,139.6,277,139.8,276.9,140z M276.4,138.8c0-0.2-0.1-0.3-0.2-0.5c-0.1-0.1-0.2-0.2-0.3-0.3c-0.1-0.1-0.3-0.1-0.4-0.1
		s-0.3,0-0.4,0.1s-0.2,0.2-0.3,0.3c-0.1,0.1-0.1,0.3-0.2,0.5c0,0.2,0,0.3,0,0.5c0,0.2,0,0.4,0,0.5s0.1,0.3,0.2,0.5
		c0.1,0.1,0.2,0.2,0.3,0.3c0.1,0.1,0.3,0.1,0.4,0.1s0.3,0,0.4-0.1s0.2-0.2,0.3-0.3c0.1-0.1,0.2-0.3,0.2-0.5c0-0.2,0-0.4,0-0.5
		C276.5,139.1,276.5,139,276.4,138.8z"/>
	<path class="st5" d="M279.6,138.5c-0.1,0.1-0.1,0.1-0.2,0.1s-0.1,0-0.2-0.1s-0.1-0.1-0.1-0.2c0-0.1,0-0.1,0-0.2
		c0,0,0.1-0.1,0.1-0.1c0,0,0,0-0.1,0c-0.1,0-0.3,0-0.3,0.1s-0.2,0.2-0.3,0.3s-0.1,0.3-0.1,0.4c0,0.1,0,0.3,0,0.5v1.1
		c0,0,0,0.1,0,0.1c0,0,0,0.1,0.1,0.1c0.1,0,0.1,0,0.3,0s0.2,0,0.3,0v0.2c-0.3,0-0.5,0-0.8,0s-0.5,0-0.8,0v-0.2c0.1,0,0.2,0,0.2,0
		c0.1,0,0.1,0,0.2,0c0,0,0.1-0.1,0.1-0.1c0,0,0-0.1,0-0.1v-1.9c0-0.1,0-0.1,0-0.2s0-0.1-0.1-0.1c0,0-0.1-0.1-0.2-0.1s-0.2,0-0.2,0
		v-0.2l0.9-0.1v0.8c0.1-0.2,0.2-0.4,0.3-0.5c0.1-0.1,0.3-0.2,0.5-0.2c0.1,0,0.2,0,0.3,0.1s0.2,0.2,0.2,0.3
		C279.7,138.4,279.7,138.4,279.6,138.5z"/>
	<path class="st5" d="M282.6,140.4c-0.1,0.1-0.1,0.2-0.3,0.3c-0.1,0.1-0.2,0.1-0.4,0.2s-0.3,0.1-0.4,0.1c-0.2,0-0.4,0-0.6-0.1
		s-0.3-0.2-0.5-0.3c-0.1-0.1-0.3-0.3-0.3-0.5c-0.1-0.2-0.1-0.4-0.1-0.6c0-0.2,0-0.4,0.1-0.6s0.2-0.4,0.3-0.5
		c0.1-0.1,0.3-0.3,0.5-0.3s0.4-0.1,0.5-0.1c0.2,0,0.3,0,0.5,0.1s0.3,0.1,0.4,0.3c0.1,0.1,0.2,0.3,0.3,0.5s0.1,0.4,0.1,0.5
		c0,0.1,0,0.1-0.1,0.1h-2c0,0.2,0,0.4,0,0.6s0.1,0.4,0.2,0.5c0.1,0.1,0.2,0.2,0.3,0.3c0.1,0.1,0.3,0.1,0.4,0.1c0.1,0,0.2,0,0.3-0.1
		c0.1,0,0.2-0.1,0.3-0.1c0.1-0.1,0.1-0.1,0.2-0.2s0.1-0.2,0.1-0.3c0,0,0-0.1,0.1-0.1h0c0,0,0.1,0,0.1,0.1
		C282.7,140.1,282.6,140.3,282.6,140.4z M282.2,138.7c0-0.1-0.1-0.3-0.2-0.4c-0.1-0.1-0.1-0.2-0.2-0.2c-0.1-0.1-0.2-0.1-0.3-0.1
		c-0.1,0-0.3,0-0.4,0.1s-0.2,0.2-0.3,0.3s-0.1,0.2-0.1,0.4c0,0.1,0,0.3,0,0.4h1.6C282.2,138.9,282.2,138.8,282.2,138.7z"/>
	<path class="st5" d="M285.5,140.9v-0.4c-0.1,0.1-0.2,0.2-0.4,0.3c-0.1,0.1-0.3,0.1-0.5,0.1c-0.2,0-0.4,0-0.6-0.1s-0.3-0.2-0.5-0.3
		c-0.1-0.1-0.3-0.3-0.3-0.5s-0.1-0.4-0.1-0.6s0-0.4,0.1-0.6s0.2-0.4,0.3-0.5c0.1-0.1,0.3-0.3,0.5-0.3s0.4-0.1,0.6-0.1
		c0.2,0,0.3,0,0.5,0.1s0.3,0.2,0.4,0.3v-1.5c0-0.1,0-0.1,0-0.2s0-0.1-0.1-0.1s-0.1-0.1-0.2-0.1s-0.2,0-0.2,0v-0.2l1-0.1v4.1
		c0,0.1,0,0.1,0,0.2s0,0.1,0.1,0.1c0,0,0.1,0.1,0.2,0.1s0.2,0,0.2,0v0.2L285.5,140.9z M285.5,138.5c-0.1-0.2-0.2-0.3-0.3-0.4
		s-0.3-0.1-0.5-0.1c-0.1,0-0.3,0-0.4,0.1s-0.2,0.2-0.3,0.3c-0.1,0.1-0.2,0.3-0.2,0.5s0,0.4,0,0.5s0,0.4,0,0.5c0,0.2,0.1,0.3,0.2,0.5
		c0.1,0.1,0.2,0.2,0.3,0.3c0.1,0.1,0.3,0.1,0.4,0.1c0.2,0,0.4-0.1,0.5-0.2s0.3-0.3,0.4-0.4V138.5z"/>
	<path class="st5" d="M288.5,140.1c-0.1,0.3-0.1,0.6-0.3,0.9s-0.3,0.6-0.5,0.8c-0.2,0.3-0.4,0.5-0.7,0.7c0,0,0,0,0,0h0c0,0,0,0,0,0
		c0,0,0,0,0-0.1s0,0,0-0.1c0.2-0.2,0.4-0.4,0.5-0.7c0.1-0.3,0.3-0.5,0.4-0.8s0.2-0.6,0.2-0.9c0-0.3,0.1-0.6,0.1-0.9s0-0.6-0.1-0.9
		s-0.1-0.6-0.2-0.9c-0.1-0.3-0.2-0.6-0.4-0.8s-0.3-0.5-0.5-0.7c0,0,0,0,0-0.1s0,0,0-0.1c0,0,0,0,0,0h0c0,0,0,0,0,0
		c0.3,0.2,0.5,0.4,0.7,0.7c0.2,0.3,0.3,0.5,0.5,0.8c0.1,0.3,0.2,0.6,0.3,0.9s0.1,0.6,0.1,1S288.6,139.8,288.5,140.1z"/>
</g>
<g>
	<path class="st5" d="M229.9,157.8c0,0.1-0.1,0.2-0.1,0.3c-0.1,0.1-0.1,0.2-0.2,0.3c-0.1,0.1-0.2,0.1-0.3,0.1c-0.1,0-0.3,0-0.4-0.1
		c-0.1-0.1-0.1-0.2-0.2-0.3c-0.1,0.1-0.2,0.2-0.3,0.3s-0.3,0.1-0.4,0.1c-0.1,0-0.3,0-0.4-0.1c-0.1-0.1-0.2-0.1-0.3-0.3
		c-0.1-0.1-0.1-0.3-0.1-0.4s0-0.3,0.1-0.5c0-0.1,0.1-0.3,0.1-0.5c0.1-0.2,0.1-0.4,0.2-0.5c0.1-0.2,0.1-0.3,0.1-0.5
		c0-0.1-0.1-0.2-0.2-0.2c-0.1,0-0.1,0-0.2,0.1s-0.1,0.1-0.2,0.2s-0.1,0.2-0.1,0.3s-0.1,0.2-0.1,0.4c0,0.1-0.1,0.1-0.1,0.1h-0.1
		c0,0-0.1,0-0.1-0.1c0-0.1,0.1-0.2,0.1-0.4c0.1-0.1,0.1-0.2,0.2-0.3c0.1-0.1,0.2-0.2,0.3-0.3c0.1-0.1,0.2-0.1,0.3-0.1
		c0.1,0,0.2,0,0.3,0.1c0.1,0,0.1,0.1,0.2,0.2c0,0.1,0.1,0.2,0.1,0.3s0,0.2-0.1,0.3c-0.1,0.2-0.1,0.4-0.2,0.5s-0.1,0.3-0.1,0.5
		c0,0.1-0.1,0.3-0.1,0.4s0,0.3,0,0.4c0,0.1,0.1,0.1,0.1,0.2s0.1,0.1,0.2,0.1c0.1,0,0.3-0.1,0.4-0.1s0.2-0.2,0.3-0.4c0,0,0,0,0-0.1
		c0,0,0,0,0-0.1l0.5-2c0-0.1,0.1-0.1,0.1-0.2c0.1,0,0.1-0.1,0.2-0.1s0.1,0,0.1,0.1s0,0.1,0,0.2l-0.5,2c-0.1,0.2-0.1,0.3-0.1,0.5
		s0.1,0.2,0.2,0.2s0.2-0.1,0.3-0.3s0.1-0.4,0.2-0.6c0,0,0-0.1,0.1-0.1h0.1c0,0,0,0,0,0c0,0,0,0,0,0
		C229.9,157.5,229.9,157.6,229.9,157.8z"/>
	<path class="st5" d="M232.6,160.6c-0.1,0-0.3,0-0.4,0v-0.1c0,0,0.1,0,0.1,0s0.1,0,0.1,0c0,0,0,0,0-0.1c0,0,0-0.1,0-0.1v-0.9
		c0-0.1,0-0.1,0-0.2s0-0.1-0.1-0.2c0,0-0.1-0.1-0.1-0.1s-0.1,0-0.1,0c-0.1,0-0.1,0-0.2,0.1c-0.1,0-0.1,0.1-0.2,0.1
		c-0.1,0.1-0.1,0.1-0.1,0.2s0,0.1,0,0.2v0.8c0,0,0,0.1,0,0.1s0,0,0,0.1c0,0,0.1,0,0.1,0c0.1,0,0.1,0,0.1,0v0.1c-0.1,0-0.3,0-0.4,0
		s-0.3,0-0.4,0v-0.1c0,0,0.1,0,0.1,0s0.1,0,0.1,0c0,0,0,0,0-0.1c0,0,0-0.1,0-0.1v-0.9c0-0.1,0-0.1,0-0.2s0-0.1-0.1-0.2
		c0,0-0.1-0.1-0.1-0.1s-0.1,0-0.1,0c-0.1,0-0.1,0-0.2,0.1c-0.1,0-0.1,0.1-0.2,0.1c-0.1,0.1-0.1,0.1-0.1,0.2s0,0.1,0,0.2v0.8
		c0,0,0,0.1,0,0.1s0,0,0,0.1c0,0,0.1,0,0.1,0s0.1,0,0.1,0v0.1c-0.1,0-0.1,0-0.2,0c-0.1,0-0.1,0-0.2,0h-0.1c-0.1,0-0.3,0-0.4,0v-0.1
		c0,0,0.1,0,0.1,0s0.1,0,0.1,0c0,0,0,0,0-0.1c0,0,0,0,0-0.1v-1.1c0,0,0-0.1,0-0.1s0-0.1-0.1-0.1s-0.1,0-0.1,0s-0.1,0-0.1,0v-0.1
		l0.3,0l0.3,0v0v0.4c0.1-0.1,0.1-0.2,0.2-0.3c0.1-0.1,0.2-0.1,0.4-0.1c0.1,0,0.1,0,0.2,0c0.1,0,0.1,0.1,0.2,0.1c0,0,0.1,0.1,0.1,0.1
		s0,0.1,0,0.1c0.1-0.1,0.1-0.2,0.2-0.3c0.1-0.1,0.2-0.1,0.3-0.1c0.1,0,0.1,0,0.2,0s0.1,0.1,0.2,0.1c0.1,0.1,0.1,0.1,0.1,0.2
		s0,0.1,0,0.2v0.9c0,0,0,0.1,0,0.1s0,0,0,0.1c0,0,0.1,0,0.1,0c0.1,0,0.1,0,0.1,0v0.1C232.9,160.6,232.7,160.6,232.6,160.6z"/>
	<path class="st5" d="M235,160.5c0,0,0,0.1-0.1,0.1c0,0-0.1,0.1-0.1,0.1c0,0-0.1,0-0.1,0c-0.1,0-0.1,0-0.2-0.1s-0.1-0.1-0.1-0.2
		c0,0.1-0.1,0.2-0.2,0.3s-0.2,0.1-0.3,0.1c-0.1,0-0.1,0-0.2,0c-0.1,0-0.1,0-0.2-0.1c-0.1,0-0.1-0.1-0.1-0.1s-0.1-0.1-0.1-0.2
		c0-0.1,0-0.2,0.1-0.3c0.1-0.1,0.1-0.1,0.2-0.2c0.1-0.1,0.3-0.1,0.4-0.1s0.3,0,0.4,0v-0.2c0-0.1,0-0.1,0-0.2s-0.1-0.1-0.1-0.2
		c-0.1-0.1-0.2-0.1-0.3-0.1c-0.1,0-0.2,0-0.3,0.1s-0.1,0.1-0.2,0.1c0.1,0,0.1,0,0.1,0c0,0,0.1,0.1,0.1,0.1s0,0.1-0.1,0.1
		s-0.1,0.1-0.1,0.1s-0.1,0-0.1-0.1c0,0-0.1-0.1-0.1-0.1c0-0.1,0-0.1,0.1-0.2c0-0.1,0.1-0.1,0.1-0.1s0.1-0.1,0.2-0.1s0.1,0,0.2,0
		c0.1,0,0.2,0,0.3,0s0.2,0.1,0.2,0.1c0.1,0.1,0.1,0.1,0.1,0.2c0,0.1,0.1,0.1,0.1,0.2v0.9c0,0.1,0,0.1,0,0.1c0,0,0.1,0.1,0.1,0.1
		S234.9,160.5,235,160.5c-0.1,0-0.1-0.1-0.1-0.1v-0.3h0.1v0.3C235,160.4,235,160.4,235,160.5z M234.4,159.7c-0.1,0-0.2,0-0.3,0
		s-0.2,0.1-0.3,0.1c-0.1,0-0.1,0.1-0.2,0.2c0,0.1-0.1,0.2-0.1,0.2c0,0.1,0,0.1,0,0.1c0,0,0,0.1,0.1,0.1c0,0,0.1,0.1,0.1,0.1
		s0.1,0,0.1,0c0.1,0,0.1,0,0.2,0c0.1,0,0.1-0.1,0.1-0.1c0,0,0.1-0.1,0.1-0.1s0-0.1,0-0.2L234.4,159.7L234.4,159.7z M234,158.8
		L234,158.8l0.4-0.6c0,0,0.1-0.1,0.1-0.1s0.1,0,0.1,0.1s0,0.1,0,0.1c0,0,0,0.1-0.1,0.1L234,158.8z"/>
	<path class="st5" d="M236.7,160.6c-0.1,0-0.3,0-0.4,0v-0.1c0,0,0,0,0.1,0s0,0,0.1,0c0,0,0-0.1,0-0.1l-0.4-0.5l-0.3,0.4
		c0,0,0,0.1,0,0.1s0,0.1,0,0.1c0,0.1,0.1,0.1,0.1,0.1v0.1c-0.1,0-0.2,0-0.4,0c-0.1,0-0.2,0-0.4,0v-0.1c0.1,0,0.2,0,0.3-0.1
		c0,0,0.1-0.1,0.1-0.1c0,0,0.1-0.1,0.1-0.1l0.4-0.5l-0.5-0.6c0,0,0-0.1-0.1-0.1s-0.1,0-0.1-0.1c0,0-0.1,0-0.1,0c-0.1,0-0.1,0-0.1,0
		V159c0.1,0,0.3,0,0.4,0s0.3,0,0.4,0v0.1c-0.1,0-0.1,0-0.1,0.1s0,0.1,0,0.1l0.3,0.4l0.3-0.3c0-0.1,0.1-0.1,0.1-0.2c0,0,0,0,0-0.1
		s0,0-0.1,0V159c0.1,0,0.2,0,0.4,0c0.1,0,0.2,0,0.4,0v0.1c-0.1,0-0.2,0-0.3,0.1c0,0-0.1,0.1-0.1,0.1c0,0-0.1,0.1-0.1,0.1l-0.3,0.4
		l0.5,0.7c0,0,0,0.1,0.1,0.1s0.1,0,0.1,0.1c0,0,0.1,0,0.1,0c0.1,0,0.1,0,0.1,0v0.1C237,160.6,236.8,160.6,236.7,160.6z"/>
	<path class="st5" d="M244.3,156.1C244.2,156.2,244.2,156.2,244.3,156.1l-4.3,0c0,0-0.1,0-0.1,0c0,0,0-0.1,0-0.1s0-0.1,0-0.1
		s0.1,0,0.1,0h4.2c0,0,0.1,0,0.1,0s0,0.1,0,0.1S244.3,156.1,244.3,156.1z M244.3,157.4C244.2,157.5,244.2,157.5,244.3,157.4l-4.3,0
		c0,0-0.1,0-0.1,0c0,0,0-0.1,0-0.1s0-0.1,0-0.1s0.1,0,0.1,0h4.2c0,0,0.1,0,0.1,0S244.3,157.3,244.3,157.4
		C244.3,157.4,244.3,157.4,244.3,157.4z"/>
	<path class="st5" d="M250.7,157.8c0,0.1-0.1,0.2-0.1,0.3c-0.1,0.1-0.1,0.2-0.2,0.3c-0.1,0.1-0.2,0.1-0.3,0.1c-0.1,0-0.3,0-0.4-0.1
		c-0.1-0.1-0.1-0.2-0.2-0.3c-0.1,0.1-0.2,0.2-0.3,0.3s-0.3,0.1-0.4,0.1c-0.1,0-0.3,0-0.4-0.1s-0.2-0.1-0.3-0.3
		c-0.1-0.1-0.1-0.3-0.1-0.4c0-0.2,0-0.3,0.1-0.5c0-0.1,0.1-0.3,0.1-0.5c0.1-0.2,0.1-0.4,0.2-0.5c0.1-0.2,0.1-0.3,0.1-0.5
		c0-0.1-0.1-0.2-0.2-0.2c-0.1,0-0.2,0-0.2,0.1s-0.1,0.1-0.2,0.2c-0.1,0.1-0.1,0.2-0.1,0.3s-0.1,0.2-0.1,0.4c0,0.1-0.1,0.1-0.1,0.1
		h-0.1c0,0-0.1,0-0.1-0.1c0-0.1,0.1-0.2,0.1-0.4c0.1-0.1,0.1-0.2,0.2-0.3c0.1-0.1,0.2-0.2,0.3-0.3c0.1-0.1,0.2-0.1,0.3-0.1
		c0.1,0,0.2,0,0.3,0.1c0.1,0,0.1,0.1,0.2,0.2c0,0.1,0.1,0.2,0.1,0.3c0,0.1,0,0.2-0.1,0.3c-0.1,0.2-0.1,0.4-0.2,0.5s-0.1,0.3-0.1,0.5
		c0,0.1-0.1,0.3-0.1,0.4s0,0.3,0,0.4c0,0.1,0.1,0.1,0.1,0.2s0.1,0.1,0.2,0.1c0.1,0,0.3-0.1,0.4-0.1s0.2-0.2,0.3-0.4c0,0,0,0,0-0.1
		c0,0,0,0,0-0.1l0.5-2c0-0.1,0.1-0.1,0.1-0.2c0.1,0,0.1-0.1,0.2-0.1s0.1,0,0.1,0.1s0.1,0.1,0,0.2l-0.5,2c-0.1,0.2-0.1,0.3-0.1,0.5
		s0.1,0.2,0.2,0.2s0.2-0.1,0.3-0.3s0.1-0.4,0.2-0.6c0,0,0-0.1,0.1-0.1h0.1c0,0,0,0,0,0c0,0,0,0,0,0
		C250.7,157.5,250.7,157.6,250.7,157.8z"/>
	<path class="st5" d="M252.3,160.6h-1.5v-0.1c0,0,0,0,0,0l0.6-0.7c0.1-0.1,0.1-0.2,0.2-0.3c0.1-0.1,0.1-0.2,0.2-0.3s0.1-0.2,0.1-0.3
		c0-0.1,0.1-0.2,0.1-0.3c0-0.1,0-0.2,0-0.3s-0.1-0.1-0.1-0.2c0-0.1-0.1-0.1-0.2-0.1c-0.1,0-0.1-0.1-0.2-0.1c-0.1,0-0.2,0-0.3,0.1
		s-0.2,0.2-0.2,0.3c0,0,0.1,0,0.1,0s0.1,0,0.1,0c0,0,0.1,0,0.1,0.1c0,0,0,0.1,0,0.1c0,0.1,0,0.1-0.1,0.2c0,0-0.1,0.1-0.1,0.1
		s-0.1,0-0.1-0.1c0,0-0.1-0.1-0.1-0.2c0-0.1,0-0.2,0.1-0.3c0-0.1,0.1-0.2,0.2-0.2c0.1-0.1,0.1-0.1,0.2-0.2c0.1,0,0.2-0.1,0.3-0.1
		c0.1,0,0.2,0,0.3,0.1c0.1,0,0.2,0.1,0.3,0.2c0.1,0.1,0.1,0.1,0.2,0.3s0.1,0.2,0.1,0.3c0,0.1,0,0.2-0.1,0.4
		c-0.1,0.1-0.1,0.2-0.2,0.3s-0.2,0.2-0.3,0.3s-0.2,0.2-0.3,0.2l-0.5,0.4h0.4c0.1,0,0.1,0,0.2,0s0.1,0,0.2,0s0.1,0,0.2,0s0.1,0,0.1,0
		c0,0,0,0,0-0.1s0-0.1,0-0.1s0-0.1,0-0.1s0-0.1,0-0.1h0.1L252.3,160.6z"/>
</g>
<g>
	<path class="st5" d="M229.9,176.9c0,0.1-0.1,0.2-0.1,0.3c-0.1,0.1-0.1,0.2-0.2,0.3s-0.2,0.1-0.3,0.1c-0.1,0-0.3,0-0.4-0.1
		c-0.1-0.1-0.1-0.2-0.2-0.3c-0.1,0.1-0.2,0.2-0.3,0.3s-0.3,0.1-0.4,0.1c-0.1,0-0.3,0-0.4-0.1c-0.1-0.1-0.2-0.1-0.3-0.3
		c-0.1-0.1-0.1-0.3-0.1-0.4c0-0.2,0-0.3,0.1-0.5c0-0.1,0.1-0.3,0.1-0.5c0.1-0.2,0.1-0.4,0.2-0.5c0.1-0.2,0.1-0.3,0.1-0.5
		s-0.1-0.2-0.2-0.2c-0.1,0-0.1,0-0.2,0.1s-0.1,0.1-0.2,0.2c-0.1,0.1-0.1,0.2-0.1,0.3c0,0.1-0.1,0.2-0.1,0.4c0,0-0.1,0.1-0.1,0.1
		h-0.1c0,0-0.1,0-0.1-0.1c0-0.1,0.1-0.2,0.1-0.4s0.1-0.2,0.2-0.3c0.1-0.1,0.2-0.2,0.3-0.3c0.1-0.1,0.2-0.1,0.3-0.1
		c0.1,0,0.2,0,0.3,0.1c0.1,0.1,0.1,0.1,0.2,0.2c0,0.1,0.1,0.2,0.1,0.3c0,0.1,0,0.2-0.1,0.3c-0.1,0.2-0.1,0.4-0.2,0.5
		s-0.1,0.3-0.1,0.5c0,0.1-0.1,0.3-0.1,0.4s0,0.3,0,0.4c0,0.1,0.1,0.1,0.1,0.2s0.1,0.1,0.2,0.1c0.1,0,0.3-0.1,0.4-0.1
		s0.2-0.2,0.3-0.4c0,0,0,0,0-0.1c0,0,0,0,0-0.1l0.5-2c0-0.1,0.1-0.1,0.1-0.2c0.1,0,0.1-0.1,0.2-0.1s0.1,0,0.1,0.1s0,0.1,0,0.2
		l-0.5,2c-0.1,0.2-0.1,0.3-0.1,0.5s0.1,0.2,0.2,0.2s0.2-0.1,0.3-0.3s0.1-0.4,0.2-0.6c0,0,0-0.1,0.1-0.1h0.1c0,0,0,0,0,0c0,0,0,0,0,0
		C229.9,176.6,229.9,176.7,229.9,176.9z"/>
	<path class="st5" d="M232.6,179.8c-0.1,0-0.3,0-0.4,0v-0.1c0,0,0.1,0,0.1,0s0.1,0,0.1,0c0,0,0,0,0-0.1c0,0,0,0,0-0.1v-0.9
		c0-0.1,0-0.1,0-0.2s0-0.1-0.1-0.2c0,0-0.1-0.1-0.1-0.1s-0.1,0-0.1,0c-0.1,0-0.1,0-0.2,0.1c-0.1,0-0.1,0.1-0.2,0.1
		c-0.1,0.1-0.1,0.1-0.1,0.2s0,0.1,0,0.2v0.8c0,0,0,0.1,0,0.1s0,0,0,0.1c0,0,0.1,0,0.1,0c0.1,0,0.1,0,0.1,0v0.1c-0.1,0-0.3,0-0.4,0
		s-0.3,0-0.4,0v-0.1c0,0,0.1,0,0.1,0s0.1,0,0.1,0c0,0,0,0,0-0.1c0,0,0,0,0-0.1v-0.9c0-0.1,0-0.1,0-0.2s0-0.1-0.1-0.2
		c0,0-0.1-0.1-0.1-0.1s-0.1,0-0.1,0c-0.1,0-0.1,0-0.2,0.1c-0.1,0-0.1,0.1-0.2,0.1c-0.1,0.1-0.1,0.1-0.1,0.2s0,0.1,0,0.2v0.8
		c0,0,0,0.1,0,0.1s0,0,0,0.1c0,0,0.1,0,0.1,0s0.1,0,0.1,0v0.1c-0.1,0-0.1,0-0.2,0c-0.1,0-0.1,0-0.2,0h-0.1c-0.1,0-0.3,0-0.4,0v-0.1
		c0,0,0.1,0,0.1,0s0.1,0,0.1,0c0,0,0,0,0-0.1c0,0,0-0.1,0-0.1v-1.1c0,0,0-0.1,0-0.1c0,0,0-0.1-0.1-0.1s-0.1,0-0.1,0s-0.1,0-0.1,0
		V178l0.3,0l0.3,0v0v0.4c0.1-0.1,0.1-0.2,0.2-0.3c0.1-0.1,0.2-0.1,0.4-0.1c0.1,0,0.1,0,0.2,0c0.1,0,0.1,0.1,0.2,0.1
		c0,0,0.1,0.1,0.1,0.1s0,0.1,0,0.1c0.1-0.1,0.1-0.2,0.2-0.3c0.1-0.1,0.2-0.1,0.3-0.1c0.1,0,0.1,0,0.2,0s0.1,0.1,0.2,0.1
		c0.1,0.1,0.1,0.1,0.1,0.2s0,0.1,0,0.2v0.9c0,0,0,0.1,0,0.1s0,0,0,0.1c0,0,0.1,0,0.1,0c0.1,0,0.1,0,0.1,0v0.1
		C232.9,179.8,232.7,179.8,232.6,179.8z"/>
	<path class="st5" d="M235,179.6c0,0,0,0.1-0.1,0.1c0,0-0.1,0.1-0.1,0.1c0,0-0.1,0-0.1,0c-0.1,0-0.1,0-0.2-0.1
		c-0.1-0.1-0.1-0.1-0.1-0.2c0,0.1-0.1,0.2-0.2,0.3s-0.2,0.1-0.3,0.1c-0.1,0-0.1,0-0.2,0c-0.1,0-0.1,0-0.2-0.1
		c-0.1,0-0.1-0.1-0.1-0.1s-0.1-0.1-0.1-0.2c0-0.1,0-0.2,0.1-0.3c0.1-0.1,0.1-0.1,0.2-0.2c0.1-0.1,0.3-0.1,0.4-0.1s0.3,0,0.4,0v-0.2
		c0-0.1,0-0.1,0-0.2s-0.1-0.1-0.1-0.2c-0.1-0.1-0.2-0.1-0.3-0.1c-0.1,0-0.2,0-0.3,0s-0.1,0.1-0.2,0.1c0.1,0,0.1,0,0.1,0
		c0,0,0.1,0.1,0.1,0.1s0,0.1-0.1,0.1s-0.1,0.1-0.1,0.1s-0.1,0-0.1-0.1s-0.1-0.1-0.1-0.1c0-0.1,0-0.1,0.1-0.2s0.1-0.1,0.1-0.1
		s0.1-0.1,0.2-0.1s0.1,0,0.2,0c0.1,0,0.2,0,0.3,0s0.2,0.1,0.2,0.1c0.1,0.1,0.1,0.1,0.1,0.2s0.1,0.1,0.1,0.2v0.9c0,0.1,0,0.1,0,0.1
		c0,0,0.1,0.1,0.1,0.1S234.9,179.7,235,179.6c-0.1,0-0.1-0.1-0.1-0.1v-0.3h0.1v0.3C235,179.5,235,179.5,235,179.6z M234.4,178.8
		c-0.1,0-0.2,0-0.3,0c-0.1,0-0.2,0.1-0.3,0.1c-0.1,0-0.1,0.1-0.2,0.2c0,0.1-0.1,0.2-0.1,0.2c0,0.1,0,0.1,0,0.1c0,0,0,0.1,0.1,0.1
		c0,0,0.1,0.1,0.1,0.1s0.1,0,0.1,0c0.1,0,0.1,0,0.2,0c0.1,0,0.1-0.1,0.1-0.1c0,0,0.1-0.1,0.1-0.1s0-0.1,0-0.2L234.4,178.8
		L234.4,178.8z M234,177.9L234,177.9l0.4-0.6c0,0,0.1-0.1,0.1-0.1c0,0,0.1,0,0.1,0.1s0,0.1,0,0.1c0,0,0,0.1-0.1,0.1L234,177.9z"/>
	<path class="st5" d="M236.7,179.8c-0.1,0-0.3,0-0.4,0v-0.1c0,0,0,0,0.1,0s0,0,0.1,0c0,0,0-0.1,0-0.1l-0.4-0.5l-0.3,0.4
		c0,0,0,0.1,0,0.1c0,0,0,0.1,0,0.1c0,0.1,0.1,0.1,0.1,0.1v0.1c-0.1,0-0.2,0-0.4,0c-0.1,0-0.2,0-0.4,0v-0.1c0.1,0,0.2,0,0.3-0.1
		c0,0,0.1-0.1,0.1-0.1c0,0,0.1-0.1,0.1-0.1l0.4-0.4l-0.5-0.6c0,0,0-0.1-0.1-0.1s-0.1,0-0.1-0.1c0,0-0.1,0-0.1,0c-0.1,0-0.1,0-0.1,0
		v-0.1c0.1,0,0.3,0,0.4,0c0.1,0,0.3,0,0.4,0v0.1c-0.1,0-0.1,0-0.1,0.1s0,0.1,0,0.1l0.3,0.4l0.3-0.3c0-0.1,0.1-0.1,0.1-0.2
		c0,0,0,0,0-0.1s0,0-0.1,0v-0.1c0.1,0,0.2,0,0.4,0c0.1,0,0.2,0,0.4,0v0.1c-0.1,0-0.2,0-0.3,0.1c0,0-0.1,0.1-0.1,0.1
		s-0.1,0.1-0.1,0.1l-0.3,0.4l0.5,0.7c0,0,0,0.1,0.1,0.1s0.1,0,0.1,0.1c0,0,0.1,0,0.1,0c0.1,0,0.1,0,0.1,0v0.1
		C237,179.8,236.8,179.8,236.7,179.8z"/>
	<path class="st5" d="M244.3,175.2C244.2,175.3,244.2,175.3,244.3,175.2l-4.3,0c0,0-0.1,0-0.1,0s0-0.1,0-0.1s0-0.1,0-0.1
		s0.1,0,0.1,0h4.2c0,0,0.1,0,0.1,0C244.3,175.1,244.3,175.1,244.3,175.2C244.3,175.2,244.3,175.2,244.3,175.2z M244.3,176.6
		C244.2,176.6,244.2,176.6,244.3,176.6l-4.3,0c0,0-0.1,0-0.1,0s0-0.1,0-0.1s0-0.1,0-0.1s0.1,0,0.1,0h4.2c0,0,0.1,0,0.1,0
		C244.3,176.4,244.3,176.4,244.3,176.6C244.3,176.5,244.3,176.5,244.3,176.6z"/>
	<path class="st5" d="M250.7,176.9c0,0.1-0.1,0.2-0.1,0.3c-0.1,0.1-0.1,0.2-0.2,0.3s-0.2,0.1-0.3,0.1c-0.1,0-0.3,0-0.4-0.1
		c-0.1-0.1-0.1-0.2-0.2-0.3c-0.1,0.1-0.2,0.2-0.3,0.3s-0.3,0.1-0.4,0.1c-0.1,0-0.3,0-0.4-0.1c-0.1-0.1-0.2-0.1-0.3-0.3
		c-0.1-0.1-0.1-0.3-0.1-0.4c0-0.2,0-0.3,0.1-0.5c0-0.1,0.1-0.3,0.1-0.5c0.1-0.2,0.1-0.4,0.2-0.5c0.1-0.2,0.1-0.3,0.1-0.5
		s-0.1-0.2-0.2-0.2c-0.1,0-0.2,0-0.2,0.1c-0.1,0.1-0.1,0.1-0.2,0.2c-0.1,0.1-0.1,0.2-0.1,0.3c0,0.1-0.1,0.2-0.1,0.4
		c0,0-0.1,0.1-0.1,0.1h-0.1c0,0-0.1,0-0.1-0.1c0-0.1,0.1-0.2,0.1-0.4c0.1-0.1,0.1-0.2,0.2-0.3c0.1-0.1,0.2-0.2,0.3-0.3
		s0.2-0.1,0.3-0.1c0.1,0,0.2,0,0.3,0.1c0.1,0.1,0.1,0.1,0.2,0.2c0,0.1,0.1,0.2,0.1,0.3c0,0.1,0,0.2-0.1,0.3
		c-0.1,0.2-0.1,0.4-0.2,0.5s-0.1,0.3-0.1,0.5c0,0.1-0.1,0.3-0.1,0.4s0,0.3,0,0.4c0,0.1,0.1,0.1,0.1,0.2s0.1,0.1,0.2,0.1
		c0.1,0,0.3-0.1,0.4-0.1s0.2-0.2,0.3-0.4c0,0,0,0,0-0.1c0,0,0,0,0-0.1l0.5-2c0-0.1,0.1-0.1,0.1-0.2c0.1,0,0.1-0.1,0.2-0.1
		s0.1,0,0.1,0.1s0.1,0.1,0,0.2l-0.5,2c-0.1,0.2-0.1,0.3-0.1,0.5s0.1,0.2,0.2,0.2s0.2-0.1,0.3-0.3s0.1-0.4,0.2-0.6c0,0,0-0.1,0.1-0.1
		h0.1c0,0,0,0,0,0c0,0,0,0,0,0C250.7,176.6,250.7,176.7,250.7,176.9z"/>
	<path class="st5" d="M252.3,179.4c0,0.1-0.1,0.2-0.2,0.3c-0.1,0.1-0.2,0.1-0.3,0.2c-0.1,0-0.2,0.1-0.3,0.1c-0.1,0-0.2,0-0.3,0
		c-0.1,0-0.2-0.1-0.3-0.1c-0.1-0.1-0.1-0.1-0.2-0.2c0-0.1-0.1-0.2-0.1-0.3c0-0.1,0-0.1,0.1-0.2c0.1,0,0.1-0.1,0.1-0.1
		c0.1,0,0.1,0,0.1,0.1c0.1,0,0.1,0.1,0.1,0.2c0,0,0,0.1,0,0.1c0,0,0,0.1-0.1,0.1s-0.1,0-0.1,0s-0.1,0-0.1,0c0.1,0.1,0.1,0.2,0.3,0.2
		s0.2,0.1,0.4,0.1c0.1,0,0.1,0,0.2-0.1c0.1,0,0.1-0.1,0.1-0.1c0-0.1,0.1-0.1,0.1-0.2c0-0.1,0-0.2,0-0.3c0-0.1,0-0.2,0-0.3
		c0-0.1-0.1-0.1-0.1-0.2c0-0.1-0.1-0.1-0.1-0.1c-0.1,0-0.1-0.1-0.2-0.1h-0.3c0,0,0,0,0,0v0c0,0,0,0,0,0s0,0,0,0c0,0,0.1,0,0.1,0
		s0.1,0,0.1,0c0.1,0,0.1,0,0.2-0.1c0.1,0,0.1-0.1,0.1-0.1c0-0.1,0.1-0.1,0.1-0.2s0-0.2,0-0.2c0-0.1,0-0.1,0-0.2c0-0.1,0-0.1-0.1-0.1
		c-0.1-0.1-0.2-0.1-0.3-0.1c-0.1,0-0.2,0-0.3,0.1c-0.1,0-0.2,0.1-0.2,0.2c0.1,0,0.1,0,0.2,0s0.1,0.1,0.1,0.2c0,0.1,0,0.1-0.1,0.1
		s-0.1,0.1-0.1,0.1s-0.1,0-0.1-0.1s-0.1-0.1-0.1-0.1c0-0.1,0-0.2,0.1-0.2c0-0.1,0.1-0.1,0.2-0.2c0.1-0.1,0.1-0.1,0.2-0.1
		s0.2,0,0.3,0c0.1,0,0.2,0,0.3,0c0.1,0,0.2,0.1,0.2,0.1c0.1,0,0.1,0.1,0.2,0.2c0,0.1,0.1,0.1,0.1,0.2s0,0.2,0,0.2
		c0,0.1-0.1,0.1-0.1,0.2s-0.1,0.1-0.2,0.2s-0.1,0.1-0.2,0.1c0.1,0,0.1,0,0.2,0.1c0.1,0,0.1,0.1,0.2,0.1c0.1,0.1,0.1,0.1,0.2,0.2
		c0,0.1,0.1,0.2,0.1,0.3C252.4,179.2,252.4,179.3,252.3,179.4z"/>
</g>
<g>
	<path class="st5" d="M229.9,195.9c0,0.1-0.1,0.2-0.1,0.3c-0.1,0.1-0.1,0.2-0.2,0.3c-0.1,0.1-0.2,0.1-0.3,0.1c-0.1,0-0.3,0-0.4-0.1
		c-0.1-0.1-0.1-0.2-0.2-0.3c-0.1,0.1-0.2,0.2-0.3,0.3s-0.3,0.1-0.4,0.1c-0.1,0-0.3,0-0.4-0.1c-0.1-0.1-0.2-0.1-0.3-0.3
		c-0.1-0.1-0.1-0.3-0.1-0.4s0-0.3,0.1-0.5c0-0.1,0.1-0.3,0.1-0.5c0.1-0.2,0.1-0.4,0.2-0.5c0.1-0.2,0.1-0.3,0.1-0.5
		c0-0.1-0.1-0.2-0.2-0.2c-0.1,0-0.1,0-0.2,0.1s-0.1,0.1-0.2,0.2s-0.1,0.2-0.1,0.3s-0.1,0.2-0.1,0.4c0,0.1-0.1,0.1-0.1,0.1h-0.1
		c0,0-0.1,0-0.1-0.1c0-0.1,0.1-0.2,0.1-0.4c0.1-0.1,0.1-0.2,0.2-0.3c0.1-0.1,0.2-0.2,0.3-0.3c0.1-0.1,0.2-0.1,0.3-0.1
		c0.1,0,0.2,0,0.3,0.1c0.1,0,0.1,0.1,0.2,0.2c0,0.1,0.1,0.2,0.1,0.3s0,0.2-0.1,0.3c-0.1,0.2-0.1,0.4-0.2,0.5s-0.1,0.3-0.1,0.5
		c0,0.1-0.1,0.3-0.1,0.4s0,0.3,0,0.4c0,0.1,0.1,0.1,0.1,0.2s0.1,0.1,0.2,0.1c0.1,0,0.3-0.1,0.4-0.1s0.2-0.2,0.3-0.4c0,0,0,0,0-0.1
		c0,0,0,0,0-0.1l0.5-2c0-0.1,0.1-0.1,0.1-0.2c0.1,0,0.1-0.1,0.2-0.1s0.1,0,0.1,0.1s0,0.1,0,0.2l-0.5,2c-0.1,0.2-0.1,0.3-0.1,0.5
		s0.1,0.2,0.2,0.2s0.2-0.1,0.3-0.3s0.1-0.4,0.2-0.6c0,0,0-0.1,0.1-0.1h0.1c0,0,0,0,0,0c0,0,0,0,0,0
		C229.9,195.7,229.9,195.8,229.9,195.9z"/>
	<path class="st5" d="M232.6,198.8c-0.1,0-0.3,0-0.4,0v-0.1c0,0,0.1,0,0.1,0s0.1,0,0.1,0c0,0,0,0,0-0.1c0,0,0-0.1,0-0.1v-0.9
		c0-0.1,0-0.1,0-0.2s0-0.1-0.1-0.2c0,0-0.1-0.1-0.1-0.1s-0.1,0-0.1,0c-0.1,0-0.1,0-0.2,0.1c-0.1,0-0.1,0.1-0.2,0.1
		c-0.1,0.1-0.1,0.1-0.1,0.2s0,0.1,0,0.2v0.8c0,0,0,0.1,0,0.1s0,0,0,0.1c0,0,0.1,0,0.1,0c0.1,0,0.1,0,0.1,0v0.1c-0.1,0-0.3,0-0.4,0
		s-0.3,0-0.4,0v-0.1c0,0,0.1,0,0.1,0s0.1,0,0.1,0c0,0,0,0,0-0.1c0,0,0-0.1,0-0.1v-0.9c0-0.1,0-0.1,0-0.2s0-0.1-0.1-0.2
		c0,0-0.1-0.1-0.1-0.1s-0.1,0-0.1,0c-0.1,0-0.1,0-0.2,0.1c-0.1,0-0.1,0.1-0.2,0.1c-0.1,0.1-0.1,0.1-0.1,0.2s0,0.1,0,0.2v0.8
		c0,0,0,0.1,0,0.1s0,0,0,0.1c0,0,0.1,0,0.1,0s0.1,0,0.1,0v0.1c-0.1,0-0.1,0-0.2,0c-0.1,0-0.1,0-0.2,0h-0.1c-0.1,0-0.3,0-0.4,0v-0.1
		c0,0,0.1,0,0.1,0s0.1,0,0.1,0c0,0,0,0,0-0.1c0,0,0,0,0-0.1v-1.1c0,0,0-0.1,0-0.1s0-0.1-0.1-0.1s-0.1,0-0.1,0s-0.1,0-0.1,0v-0.1
		l0.3,0l0.3,0v0v0.4c0.1-0.1,0.1-0.2,0.2-0.3c0.1-0.1,0.2-0.1,0.4-0.1c0.1,0,0.1,0,0.2,0c0.1,0,0.1,0.1,0.2,0.1c0,0,0.1,0.1,0.1,0.1
		s0,0.1,0,0.1c0.1-0.1,0.1-0.2,0.2-0.3c0.1-0.1,0.2-0.1,0.3-0.1c0.1,0,0.1,0,0.2,0s0.1,0.1,0.2,0.1c0.1,0.1,0.1,0.1,0.1,0.2
		s0,0.1,0,0.2v0.9c0,0,0,0.1,0,0.1s0,0,0,0.1c0,0,0.1,0,0.1,0c0.1,0,0.1,0,0.1,0v0.1C232.9,198.8,232.7,198.8,232.6,198.8z"/>
	<path class="st5" d="M235,198.7c0,0,0,0.1-0.1,0.1c0,0-0.1,0.1-0.1,0.1c0,0-0.1,0-0.1,0c-0.1,0-0.1,0-0.2-0.1s-0.1-0.1-0.1-0.2
		c0,0.1-0.1,0.2-0.2,0.3s-0.2,0.1-0.3,0.1c-0.1,0-0.1,0-0.2,0c-0.1,0-0.1,0-0.2-0.1c-0.1,0-0.1-0.1-0.1-0.1s-0.1-0.1-0.1-0.2
		c0-0.1,0-0.2,0.1-0.3c0.1-0.1,0.1-0.1,0.2-0.2c0.1-0.1,0.3-0.1,0.4-0.1s0.3,0,0.4,0v-0.2c0-0.1,0-0.1,0-0.2s-0.1-0.1-0.1-0.2
		c-0.1-0.1-0.2-0.1-0.3-0.1c-0.1,0-0.2,0-0.3,0.1s-0.1,0.1-0.2,0.1c0.1,0,0.1,0,0.1,0c0,0,0.1,0.1,0.1,0.1s0,0.1-0.1,0.1
		s-0.1,0.1-0.1,0.1s-0.1,0-0.1-0.1c0,0-0.1-0.1-0.1-0.1c0-0.1,0-0.1,0.1-0.2c0-0.1,0.1-0.1,0.1-0.1s0.1-0.1,0.2-0.1s0.1,0,0.2,0
		c0.1,0,0.2,0,0.3,0s0.2,0.1,0.2,0.1c0.1,0.1,0.1,0.1,0.1,0.2c0,0.1,0.1,0.1,0.1,0.2v0.9c0,0.1,0,0.1,0,0.1c0,0,0.1,0.1,0.1,0.1
		S234.9,198.7,235,198.7c-0.1,0-0.1-0.1-0.1-0.1v-0.3h0.1v0.3C235,198.6,235,198.6,235,198.7z M234.4,197.9c-0.1,0-0.2,0-0.3,0
		s-0.2,0.1-0.3,0.1c-0.1,0-0.1,0.1-0.2,0.2c0,0.1-0.1,0.2-0.1,0.2c0,0.1,0,0.1,0,0.1c0,0,0,0.1,0.1,0.1c0,0,0.1,0.1,0.1,0.1
		s0.1,0,0.1,0c0.1,0,0.1,0,0.2,0c0.1,0,0.1-0.1,0.1-0.1c0,0,0.1-0.1,0.1-0.1s0-0.1,0-0.2L234.4,197.9L234.4,197.9z M234,197L234,197
		l0.4-0.6c0,0,0.1-0.1,0.1-0.1s0.1,0,0.1,0.1s0,0.1,0,0.1c0,0,0,0.1-0.1,0.1L234,197z"/>
	<path class="st5" d="M236.7,198.8c-0.1,0-0.3,0-0.4,0v-0.1c0,0,0,0,0.1,0s0,0,0.1,0c0,0,0-0.1,0-0.1l-0.4-0.5l-0.3,0.4
		c0,0,0,0.1,0,0.1s0,0.1,0,0.1c0,0.1,0.1,0.1,0.1,0.1v0.1c-0.1,0-0.2,0-0.4,0c-0.1,0-0.2,0-0.4,0v-0.1c0.1,0,0.2,0,0.3-0.1
		c0,0,0.1-0.1,0.1-0.1c0,0,0.1-0.1,0.1-0.1l0.4-0.5l-0.5-0.6c0,0,0-0.1-0.1-0.1s-0.1,0-0.1-0.1c0,0-0.1,0-0.1,0c-0.1,0-0.1,0-0.1,0
		v-0.1c0.1,0,0.3,0,0.4,0s0.3,0,0.4,0v0.1c-0.1,0-0.1,0-0.1,0.1s0,0.1,0,0.1l0.3,0.4l0.3-0.3c0-0.1,0.1-0.1,0.1-0.2c0,0,0,0,0-0.1
		s0,0-0.1,0v-0.1c0.1,0,0.2,0,0.4,0c0.1,0,0.2,0,0.4,0v0.1c-0.1,0-0.2,0-0.3,0.1c0,0-0.1,0.1-0.1,0.1c0,0-0.1,0.1-0.1,0.1l-0.3,0.4
		l0.5,0.7c0,0,0,0.1,0.1,0.1s0.1,0,0.1,0.1c0,0,0.1,0,0.1,0c0.1,0,0.1,0,0.1,0v0.1C237,198.8,236.8,198.8,236.7,198.8z"/>
	<path class="st5" d="M244.3,194.3C244.2,194.4,244.2,194.4,244.3,194.3l-4.3,0c0,0-0.1,0-0.1,0c0,0,0-0.1,0-0.1s0-0.1,0-0.1
		s0.1,0,0.1,0h4.2c0,0,0.1,0,0.1,0s0,0.1,0,0.1S244.3,194.3,244.3,194.3z M244.3,195.6C244.2,195.7,244.2,195.7,244.3,195.6l-4.3,0
		c0,0-0.1,0-0.1,0c0,0,0-0.1,0-0.1s0-0.1,0-0.1s0.1,0,0.1,0h4.2c0,0,0.1,0,0.1,0S244.3,195.5,244.3,195.6
		C244.3,195.6,244.3,195.6,244.3,195.6z"/>
	<path class="st5" d="M250.7,195.9c0,0.1-0.1,0.2-0.1,0.3c-0.1,0.1-0.1,0.2-0.2,0.3c-0.1,0.1-0.2,0.1-0.3,0.1c-0.1,0-0.3,0-0.4-0.1
		c-0.1-0.1-0.1-0.2-0.2-0.3c-0.1,0.1-0.2,0.2-0.3,0.3s-0.3,0.1-0.4,0.1c-0.1,0-0.3,0-0.4-0.1s-0.2-0.1-0.3-0.3
		c-0.1-0.1-0.1-0.3-0.1-0.4c0-0.2,0-0.3,0.1-0.5c0-0.1,0.1-0.3,0.1-0.5c0.1-0.2,0.1-0.4,0.2-0.5c0.1-0.2,0.1-0.3,0.1-0.5
		c0-0.1-0.1-0.2-0.2-0.2c-0.1,0-0.2,0-0.2,0.1s-0.1,0.1-0.2,0.2c-0.1,0.1-0.1,0.2-0.1,0.3s-0.1,0.2-0.1,0.4c0,0.1-0.1,0.1-0.1,0.1
		h-0.1c0,0-0.1,0-0.1-0.1c0-0.1,0.1-0.2,0.1-0.4c0.1-0.1,0.1-0.2,0.2-0.3c0.1-0.1,0.2-0.2,0.3-0.3c0.1-0.1,0.2-0.1,0.3-0.1
		c0.1,0,0.2,0,0.3,0.1c0.1,0,0.1,0.1,0.2,0.2c0,0.1,0.1,0.2,0.1,0.3c0,0.1,0,0.2-0.1,0.3c-0.1,0.2-0.1,0.4-0.2,0.5s-0.1,0.3-0.1,0.5
		c0,0.1-0.1,0.3-0.1,0.4s0,0.3,0,0.4c0,0.1,0.1,0.1,0.1,0.2s0.1,0.1,0.2,0.1c0.1,0,0.3-0.1,0.4-0.1s0.2-0.2,0.3-0.4c0,0,0,0,0-0.1
		c0,0,0,0,0-0.1l0.5-2c0-0.1,0.1-0.1,0.1-0.2c0.1,0,0.1-0.1,0.2-0.1s0.1,0,0.1,0.1s0.1,0.1,0,0.2l-0.5,2c-0.1,0.2-0.1,0.3-0.1,0.5
		s0.1,0.2,0.2,0.2s0.2-0.1,0.3-0.3s0.1-0.4,0.2-0.6c0,0,0-0.1,0.1-0.1h0.1c0,0,0,0,0,0c0,0,0,0,0,0
		C250.7,195.7,250.7,195.8,250.7,195.9z"/>
	<path class="st5" d="M252.1,198.2v0.4c0,0,0,0.1,0,0.1c0,0,0,0,0.1,0.1c0,0,0.1,0,0.1,0s0.1,0,0.2,0v0.1c-0.4,0-0.7,0-1.1,0v-0.1
		c0.1,0,0.1,0,0.2,0c0.1,0,0.1,0,0.1,0c0,0,0,0,0.1-0.1c0,0,0-0.1,0-0.1v-0.4h-1.1v-0.1l1.2-1.9c0,0,0,0,0,0h0c0,0,0,0,0,0v1.9h0.4
		v0.1L252.1,198.2L252.1,198.2z M251.8,196.6l-1,1.5h1V196.6z"/>
</g>
<g>
	<path class="st5" d="M110.4,86.7c0,0.1-0.1,0.2-0.1,0.3c-0.1,0.1-0.1,0.2-0.2,0.3c-0.1,0.1-0.2,0.1-0.3,0.1c-0.2,0-0.3,0-0.3-0.1
		s-0.2-0.2-0.2-0.3c-0.1,0.1-0.2,0.2-0.3,0.3s-0.3,0.1-0.4,0.1c-0.1,0-0.3,0-0.4-0.1c-0.1-0.1-0.2-0.1-0.3-0.3
		c-0.1-0.1-0.1-0.3-0.1-0.4c0-0.2,0-0.3,0.1-0.5c0-0.2,0.1-0.3,0.2-0.5s0.1-0.4,0.2-0.5c0.1-0.2,0.1-0.3,0.1-0.5s-0.1-0.2-0.2-0.2
		c-0.1,0-0.2,0-0.2,0.1s-0.1,0.1-0.2,0.2s-0.1,0.2-0.1,0.3c0,0.1-0.1,0.2-0.1,0.3c0,0.1-0.1,0.1-0.1,0.1h-0.1c0,0-0.1,0-0.1-0.1
		c0-0.1,0.1-0.2,0.1-0.4s0.1-0.2,0.2-0.3s0.2-0.2,0.3-0.3c0.1-0.1,0.2-0.1,0.3-0.1c0.1,0,0.2,0,0.3,0.1s0.1,0.1,0.2,0.2
		c0,0.1,0.1,0.2,0.1,0.3s0,0.2-0.1,0.3c-0.1,0.2-0.1,0.3-0.2,0.5c-0.1,0.2-0.1,0.3-0.2,0.5s-0.1,0.3-0.1,0.4c0,0.1,0,0.3,0,0.4
		c0,0.1,0.1,0.2,0.1,0.2s0.1,0.1,0.2,0.1c0.2,0,0.3-0.1,0.4-0.1s0.2-0.2,0.3-0.4c0,0,0,0,0-0.1c0,0,0,0,0-0.1l0.5-2
		c0-0.1,0.1-0.1,0.1-0.2c0.1,0,0.1-0.1,0.2-0.1s0.1,0,0.1,0.1c0,0,0,0.1,0,0.2l-0.5,2c-0.1,0.2-0.1,0.3-0.1,0.5
		c0,0.1,0.1,0.2,0.2,0.2s0.2-0.1,0.3-0.3s0.1-0.4,0.2-0.6c0,0,0-0.1,0.1-0.1h0.1c0,0,0,0,0,0c0,0,0,0,0,0
		C110.5,86.4,110.5,86.6,110.4,86.7z"/>
	<path class="st5" d="M112,89.6h-1.5v-0.1c0,0,0,0,0,0l0.6-0.7c0.1-0.1,0.2-0.2,0.2-0.3c0.1-0.1,0.1-0.2,0.2-0.3
		c0.1-0.1,0.1-0.2,0.1-0.3s0.1-0.2,0.1-0.3c0-0.1,0-0.2,0-0.3s-0.1-0.2-0.1-0.2s-0.1-0.1-0.2-0.1c-0.1,0-0.1-0.1-0.2-0.1
		c-0.1,0-0.2,0-0.3,0.1s-0.2,0.2-0.2,0.3c0,0,0.1,0,0.1,0s0.1,0,0.1,0s0.1,0,0.1,0.1c0,0,0,0.1,0,0.1c0,0.1,0,0.1-0.1,0.2
		c0,0-0.1,0.1-0.1,0.1s-0.1,0-0.1-0.1c0,0-0.1-0.1-0.1-0.2c0-0.1,0-0.2,0.1-0.3c0-0.1,0.1-0.2,0.2-0.2c0.1-0.1,0.1-0.1,0.2-0.2
		c0.1,0,0.2-0.1,0.3-0.1c0.1,0,0.2,0,0.3,0.1s0.2,0.1,0.3,0.2s0.1,0.2,0.2,0.3c0,0.1,0.1,0.2,0.1,0.3c0,0.1,0,0.2-0.1,0.3
		s-0.1,0.2-0.2,0.3c-0.1,0.1-0.2,0.2-0.3,0.3s-0.2,0.2-0.3,0.2l-0.4,0.4h0.4c0.1,0,0.1,0,0.2,0c0.1,0,0.2,0,0.2,0s0.1,0,0.2,0
		s0.1,0,0.1,0c0,0,0,0,0-0.1s0-0.1,0-0.1s0-0.1,0-0.1c0,0,0-0.1,0-0.1h0.1L112,89.6z"/>
</g>
<g>
	<path class="st5" d="M126.7,63.5c0,0.1-0.1,0.2-0.1,0.3c-0.1,0.1-0.1,0.2-0.2,0.3c-0.1,0.1-0.2,0.1-0.3,0.1c-0.2,0-0.3,0-0.3-0.1
		s-0.2-0.2-0.2-0.3c-0.1,0.1-0.2,0.2-0.3,0.3s-0.3,0.1-0.4,0.1c-0.1,0-0.3,0-0.4-0.1c-0.1-0.1-0.2-0.1-0.3-0.3
		c-0.1-0.1-0.1-0.3-0.1-0.4c0-0.2,0-0.3,0.1-0.5c0-0.2,0.1-0.3,0.2-0.5s0.1-0.4,0.2-0.5c0.1-0.2,0.1-0.3,0.1-0.5s-0.1-0.2-0.2-0.2
		c-0.1,0-0.2,0-0.2,0.1s-0.1,0.1-0.2,0.2c-0.1,0.1-0.1,0.2-0.1,0.3c0,0.1-0.1,0.2-0.1,0.3c0,0-0.1,0.1-0.1,0.1h-0.1
		c0,0-0.1,0-0.1-0.1c0-0.1,0.1-0.2,0.1-0.4s0.1-0.2,0.2-0.3s0.2-0.2,0.3-0.3c0.1-0.1,0.2-0.1,0.3-0.1c0.1,0,0.2,0,0.3,0.1
		s0.1,0.1,0.2,0.2c0,0.1,0.1,0.2,0.1,0.3s0,0.2-0.1,0.3c-0.1,0.2-0.1,0.3-0.2,0.5c-0.1,0.2-0.1,0.3-0.2,0.5s-0.1,0.3-0.1,0.4
		c0,0.1,0,0.3,0,0.4c0,0.1,0.1,0.2,0.1,0.2s0.1,0.1,0.2,0.1c0.2,0,0.3,0,0.4-0.1s0.2-0.2,0.3-0.4c0,0,0,0,0-0.1c0,0,0,0,0-0.1l0.5-2
		c0-0.1,0.1-0.1,0.1-0.2c0.1,0,0.1,0,0.2,0s0.1,0,0.1,0s0,0.1,0,0.2l-0.5,2c-0.1,0.2-0.1,0.3-0.1,0.5s0.1,0.2,0.2,0.2
		s0.2-0.1,0.3-0.3s0.1-0.4,0.2-0.6c0,0,0-0.1,0.1-0.1h0.1c0,0,0,0,0,0c0,0,0,0,0,0C126.7,63.2,126.7,63.3,126.7,63.5z"/>
	<path class="st5" d="M128.3,66c0,0.1-0.1,0.2-0.2,0.3c-0.1,0.1-0.2,0.1-0.3,0.2s-0.2,0.1-0.3,0.1c-0.1,0-0.2,0-0.3,0
		c-0.1,0-0.2-0.1-0.3-0.1s-0.1-0.1-0.2-0.2s-0.1-0.2-0.1-0.3c0-0.1,0-0.1,0.1-0.2s0.1-0.1,0.2-0.1c0.1,0,0.1,0,0.2,0.1
		s0.1,0.1,0.1,0.2c0,0,0,0.1,0,0.1c0,0,0,0.1-0.1,0.1c0,0-0.1,0-0.1,0s-0.1,0-0.1,0c0.1,0.1,0.1,0.2,0.3,0.2s0.2,0.1,0.4,0.1
		c0.1,0,0.1,0,0.2-0.1c0.1,0,0.1-0.1,0.1-0.1c0-0.1,0.1-0.1,0.1-0.2s0-0.2,0-0.3s0-0.2,0-0.3c0-0.1-0.1-0.2-0.1-0.2
		c0-0.1-0.1-0.1-0.1-0.1s-0.1-0.1-0.2-0.1h-0.3c0,0,0,0,0,0v0c0,0,0,0,0,0s0,0,0,0c0,0,0.1,0,0.1,0s0.1,0,0.1,0c0.1,0,0.1,0,0.2-0.1
		s0.1-0.1,0.1-0.2c0-0.1,0.1-0.1,0.1-0.2c0-0.1,0-0.2,0-0.2c0-0.1,0-0.1,0-0.2s0-0.1-0.1-0.2c-0.1-0.1-0.2-0.1-0.3-0.1
		c-0.1,0-0.2,0-0.3,0.1c-0.1,0-0.2,0.1-0.2,0.2c0.1,0,0.1,0,0.2,0s0.1,0.1,0.1,0.2c0,0.1,0,0.1-0.1,0.2s-0.1,0.1-0.1,0.1
		s-0.1,0-0.1-0.1c0,0-0.1-0.1-0.1-0.2c0-0.1,0-0.2,0.1-0.2s0.1-0.1,0.2-0.2c0.1,0,0.1-0.1,0.2-0.1c0.1,0,0.2,0,0.3,0
		c0.1,0,0.2,0,0.3,0c0.1,0,0.2,0.1,0.2,0.1c0.1,0,0.1,0.1,0.2,0.2c0,0.1,0.1,0.1,0.1,0.2s0,0.2,0,0.2c0,0.1-0.1,0.1-0.1,0.2
		c-0.1,0.1-0.1,0.1-0.2,0.2c-0.1,0-0.1,0.1-0.2,0.1c0.1,0,0.2,0,0.2,0.1c0.1,0,0.1,0.1,0.2,0.1c0.1,0.1,0.1,0.1,0.2,0.2
		c0,0.1,0.1,0.2,0.1,0.3C128.4,65.8,128.4,65.9,128.3,66z"/>
</g>
<g>
	<path class="st5" d="M251.4,41.9c0,0.1-0.1,0.2-0.1,0.3c-0.1,0.1-0.1,0.2-0.2,0.3s-0.2,0.1-0.3,0.1c-0.1,0-0.3,0-0.4-0.1
		c-0.1-0.1-0.1-0.2-0.2-0.3c-0.1,0.1-0.2,0.2-0.3,0.3s-0.3,0.1-0.4,0.1c-0.1,0-0.3,0-0.4-0.1c-0.1,0-0.2-0.1-0.3-0.3
		c-0.1-0.1-0.1-0.3-0.1-0.4c0-0.2,0-0.3,0.1-0.5c0-0.2,0.1-0.3,0.1-0.5c0.1-0.2,0.1-0.4,0.2-0.5c0.1-0.2,0.1-0.3,0.1-0.5
		s-0.1-0.2-0.2-0.2c-0.1,0-0.2,0-0.2,0.1c-0.1,0-0.1,0.1-0.2,0.2c-0.1,0.1-0.1,0.2-0.1,0.3c0,0.1-0.1,0.2-0.1,0.3
		c0,0-0.1,0.1-0.1,0.1h-0.1c0,0-0.1,0-0.1-0.1c0-0.1,0.1-0.2,0.1-0.4c0.1-0.1,0.1-0.2,0.2-0.3c0.1-0.1,0.2-0.2,0.3-0.3
		c0.1-0.1,0.2-0.1,0.3-0.1c0.1,0,0.2,0,0.3,0.1c0.1,0,0.1,0.1,0.2,0.2c0,0.1,0.1,0.2,0.1,0.3s0,0.2-0.1,0.3
		c-0.1,0.2-0.1,0.3-0.2,0.5s-0.1,0.3-0.1,0.5s-0.1,0.3-0.1,0.4s0,0.3,0,0.4c0,0.1,0.1,0.2,0.1,0.2s0.1,0.1,0.2,0.1
		c0.1,0,0.3,0,0.4-0.1s0.2-0.2,0.3-0.4c0,0,0,0,0-0.1c0,0,0,0,0-0.1l0.5-2c0-0.1,0.1-0.1,0.1-0.2c0.1,0,0.1,0,0.2,0s0.1,0,0.1,0
		s0.1,0.1,0,0.2l-0.5,2c-0.1,0.2-0.1,0.3-0.1,0.5s0.1,0.2,0.2,0.2s0.2-0.1,0.3-0.3s0.1-0.4,0.2-0.6c0,0,0-0.1,0.1-0.1h0.1
		c0,0,0,0,0,0c0,0,0,0,0,0C251.4,41.7,251.4,41.8,251.4,41.9z"/>
	<path class="st5" d="M252.8,44.2v0.4c0,0,0,0,0,0.1c0,0,0,0,0.1,0c0,0,0.1,0,0.1,0s0.1,0,0.2,0v0.1c-0.4,0-0.7,0-1.1,0v-0.1
		c0.1,0,0.1,0,0.2,0s0.1,0,0.1,0c0,0,0,0,0.1,0c0,0,0,0,0-0.1v-0.4h-1.1v-0.1l1.2-1.9c0,0,0,0,0,0h0c0,0,0,0,0,0v1.9h0.4v0.1H252.8z
		 M252.5,42.6l-1,1.5h1V42.6z"/>
</g>
<path class="st6" d="M148.9,112.1"/>
<g>
	<g>
		<line class="st7" x1="75.5" y1="138.9" x2="75.5" y2="137.9"/>
		<line class="st8" x1="75.5" y1="136.1" x2="75.5" y2="110.7"/>
		<line class="st7" x1="75.5" y1="109.7" x2="75.5" y2="108.7"/>
	</g>
</g>
<g>
	<path class="st3" d="M114.2,176.7"/>
</g>
<g>
	<g>
		<line class="st7" x1="171.4" y1="157.6" x2="171.4" y2="156.6"/>
		<line class="st9" x1="171.4" y1="154.6" x2="171.4" y2="93.3"/>
		<polyline class="st7" points="171.4,92.3 171.4,91.3 170.4,91.3 		"/>
		<line class="st10" x1="168.4" y1="91.3" x2="116.2" y2="91.3"/>
		<line class="st7" x1="115.2" y1="91.3" x2="114.2" y2="91.3"/>
	</g>
</g>
<g>
	<path class="st3" d="M130.5,195.8"/>
</g>
<g>
	<path class="st3" d="M130.5,68.3"/>
</g>
<g>
	<g>
		<line class="st7" x1="187.9" y1="176.7" x2="187.9" y2="175.7"/>
		<line class="st11" x1="187.9" y1="173.7" x2="187.9" y2="70.3"/>
		<line class="st7" x1="187.9" y1="69.3" x2="187.9" y2="68.3"/>
	</g>
</g>
<g>
	<line class="st3" x1="204.2" y1="49.4" x2="204.2" y2="195.8"/>
	<g>
		<line class="st7" x1="204.2" y1="49.4" x2="204.2" y2="50.4"/>
		<line class="st12" x1="204.2" y1="50.4" x2="204.2" y2="51.4"/>
		<line class="st13" x1="204.2" y1="52.4" x2="204.2" y2="194.8"/>
		<line class="st7" x1="204.2" y1="194.8" x2="204.2" y2="195.8"/>
	</g>
</g>
<g>
	<g>
		<line class="st3" x1="130.6" y1="195.8" x2="204.2" y2="195.8"/>
		<g>
			<line class="st7" x1="132.7" y1="195.8" x2="202.2" y2="195.8"/>
			<g>
				<path d="M133.1,195.8l0.6-0.9l0,0l-1.5,0.6c-0.5,0.1-1,0.2-1.5,0.3c0.5,0.1,1,0.2,1.5,0.3l1.5,0.6l0,0L133.1,195.8z"/>
			</g>
			<g>
				<path d="M201.7,195.8l-0.6-0.9l0,0l1.5,0.6c0.5,0.1,1,0.2,1.5,0.3c-0.5,0.1-1,0.2-1.5,0.3l-1.5,0.6l0,0L201.7,195.8z"/>
			</g>
		</g>
	</g>
	<g>
		<rect x="158.4" y="191" class="st0" width="18" height="9.5"/>
		<g>
			<path class="st5" d="M164.3,196.9c0,0.1-0.1,0.1-0.1,0.1h-3.3c0,0,0,0-0.1,0c0,0,0,0,0-0.1l0-0.1c0,0,0,0,0-0.1c0,0,0,0,0.1,0
				c0.1,0,0.2,0,0.3,0c0.1,0,0.2,0,0.2,0c0.1,0,0.1-0.1,0.1-0.2l1-4c0-0.1,0-0.2,0-0.2c0,0-0.1,0-0.2,0s-0.2,0-0.3,0c0,0,0,0-0.1,0
				s0,0,0-0.1l0-0.1c0-0.1,0.1-0.1,0.1-0.1c0.3,0,0.6,0,1,0c0.3,0,0.6,0,1,0c0,0,0,0,0.1,0s0,0,0,0.1l0,0.1c0,0,0,0,0,0.1s0,0-0.1,0
				c-0.1,0-0.3,0-0.4,0c-0.1,0-0.2,0-0.3,0c-0.1,0-0.1,0.1-0.1,0.2l-1,4c0,0.1,0,0.2,0,0.2c0,0,0.1,0,0.2,0h0.6c0.2,0,0.3,0,0.5-0.1
				s0.3-0.1,0.5-0.3c0.2-0.1,0.3-0.3,0.4-0.5c0.1-0.2,0.2-0.4,0.3-0.7c0-0.1,0.1-0.1,0.1-0.1h0.1c0.1,0,0.1,0,0.1,0.1L164.3,196.9z"
				/>
			<path class="st5" d="M166.3,199.1c0,0.1,0,0.1-0.1,0.2s-0.1,0.1-0.1,0.1c-0.1,0-0.1,0.1-0.2,0.1c-0.1,0-0.1,0-0.2,0
				c-0.1,0-0.1-0.1-0.2-0.1s-0.1-0.1-0.1-0.2c0-0.1,0-0.1,0-0.2v-1.2H165v-0.1c0.1,0,0.2,0,0.2-0.1s0.1-0.1,0.2-0.2
				c0.1-0.1,0.1-0.2,0.1-0.3c0-0.1,0-0.2,0-0.3h0.1v0.8h0.6v0.1h-0.6v1.2c0,0.1,0,0.1,0,0.2s0,0.1,0.1,0.2c0.1,0.1,0.1,0.1,0.2,0.1
				c0,0,0.1,0,0.1,0c0,0,0.1-0.1,0.1-0.1c0,0,0-0.1,0.1-0.1c0-0.1,0-0.1,0-0.2v-0.3h0.1v0.3C166.3,198.9,166.3,199,166.3,199.1z"/>
			<path class="st5" d="M168,197.9c0,0-0.1,0.1-0.1,0.1s-0.1,0-0.1-0.1c0,0-0.1-0.1-0.1-0.1c0,0,0-0.1,0-0.1s0-0.1,0.1-0.1
				c0,0,0,0,0,0c-0.1,0-0.1,0-0.2,0.1c-0.1,0-0.1,0.1-0.1,0.2c0,0.1-0.1,0.2-0.1,0.3c0,0.1,0,0.2,0,0.3v0.7c0,0,0,0.1,0,0.1
				c0,0,0,0,0.1,0.1c0,0,0.1,0,0.2,0s0.1,0,0.2,0v0.1c-0.2,0-0.3,0-0.5,0s-0.3,0-0.5,0v-0.1c0.1,0,0.1,0,0.1,0c0.1,0,0.1,0,0.1,0
				c0,0,0,0,0-0.1c0,0,0-0.1,0-0.1v-1.2c0,0,0-0.1,0-0.1c0,0,0-0.1-0.1-0.1c0,0-0.1,0-0.1,0c-0.1,0-0.1,0-0.1,0v-0.1l0.6-0.1v0.5
				c0-0.1,0.1-0.3,0.2-0.3c0.1-0.1,0.2-0.1,0.3-0.1c0.1,0,0.1,0,0.2,0.1s0.1,0.1,0.1,0.2C168.1,197.9,168.1,197.9,168,197.9z"/>
			<path class="st5" d="M170.2,199.2c0,0,0,0.1-0.1,0.1c0,0-0.1,0.1-0.1,0.1s-0.1,0-0.1,0c-0.1,0-0.2,0-0.2-0.1s-0.1-0.1-0.1-0.3
				c0,0.1-0.1,0.2-0.2,0.3c-0.1,0.1-0.2,0.1-0.3,0.1c-0.1,0-0.2,0-0.2,0s-0.2,0-0.2-0.1s-0.1-0.1-0.2-0.1c0-0.1-0.1-0.1-0.1-0.2
				c0-0.1,0-0.2,0.1-0.3s0.2-0.2,0.3-0.2c0.1-0.1,0.3-0.1,0.4-0.1s0.3,0,0.4,0v-0.2c0-0.1,0-0.1,0-0.2s-0.1-0.1-0.1-0.2
				c-0.1-0.1-0.2-0.1-0.3-0.1c-0.1,0-0.2,0-0.3,0.1s-0.1,0.1-0.2,0.1c0.1,0,0.1,0,0.1,0c0.1,0,0.1,0.1,0.1,0.1c0,0.1,0,0.1-0.1,0.1
				s-0.1,0.1-0.1,0.1s-0.1,0-0.1-0.1c0,0-0.1-0.1-0.1-0.1c0-0.1,0-0.1,0.1-0.2c0-0.1,0.1-0.1,0.1-0.1s0.1-0.1,0.2-0.1
				c0.1,0,0.1,0,0.2,0c0.1,0,0.2,0,0.3,0c0.1,0,0.2,0.1,0.2,0.1c0.1,0.1,0.1,0.1,0.2,0.2s0.1,0.1,0.1,0.2v0.9c0,0.1,0,0.1,0,0.2
				s0.1,0.1,0.1,0.1C170.1,199.3,170.1,199.2,170.2,199.2c-0.1,0-0.1-0.1-0.1-0.1v-0.3h0.1v0.3C170.3,199.1,170.3,199.1,170.2,199.2
				z M169.6,198.4c-0.1,0-0.2,0-0.3,0c-0.1,0-0.2,0.1-0.3,0.1c-0.1,0.1-0.1,0.1-0.2,0.2s-0.1,0.2-0.1,0.3c0,0.1,0,0.1,0,0.1
				s0.1,0.1,0.1,0.1s0.1,0.1,0.1,0.1c0,0,0.1,0,0.1,0c0.1,0,0.1,0,0.2,0s0.1-0.1,0.2-0.1c0-0.1,0.1-0.1,0.1-0.2s0-0.1,0-0.2
				L169.6,198.4L169.6,198.4z"/>
			<path class="st5" d="M170.4,199.4v-0.1c0.1,0,0.1,0,0.1,0c0.1,0,0.1,0,0.1,0c0,0,0,0,0-0.1c0,0,0-0.1,0-0.1v-1.2c0,0,0-0.1,0-0.1
				c0,0,0-0.1,0-0.1c0,0-0.1,0-0.1,0c-0.1,0-0.1,0-0.1,0v-0.1l0.6,0v1.6c0,0,0,0.1,0,0.1c0,0,0,0,0,0.1c0,0,0.1,0,0.1,0s0.1,0,0.1,0
				v0.1C171,199.4,170.7,199.4,170.4,199.4z M171,196.9c0,0-0.1,0.1-0.2,0.1s-0.1,0-0.2-0.1c0,0-0.1-0.1-0.1-0.2s0-0.1,0.1-0.2
				c0,0,0.1-0.1,0.2-0.1s0.1,0,0.2,0.1c0,0,0.1,0.1,0.1,0.2S171,196.9,171,196.9z"/>
			<path class="st5" d="M173.2,199.4c-0.2,0-0.3,0-0.5,0v-0.1c0.1,0,0.1,0,0.1,0c0.1,0,0.1,0,0.1,0c0,0,0,0,0-0.1s0-0.1,0-0.1v-1
				c0-0.1,0-0.1,0-0.2s0-0.1-0.1-0.2c0,0-0.1-0.1-0.1-0.1s-0.1,0-0.1,0c-0.1,0-0.2,0-0.2,0.1c-0.1,0-0.1,0.1-0.2,0.1
				c-0.1,0.1-0.1,0.1-0.1,0.2s0,0.2,0,0.3v0.8c0,0,0,0.1,0,0.1s0,0,0,0.1c0,0,0.1,0,0.1,0c0.1,0,0.1,0,0.1,0v0.1c-0.1,0-0.1,0-0.2,0
				c-0.1,0-0.1,0-0.2,0h-0.1c-0.2,0-0.3,0-0.5,0v-0.1c0.1,0,0.1,0,0.1,0c0.1,0,0.1,0,0.1,0c0,0,0,0,0-0.1c0,0,0-0.1,0-0.1v-1.2
				c0,0,0-0.1,0-0.1c0,0,0-0.1-0.1-0.1c0,0-0.1,0-0.1,0c-0.1,0-0.1,0-0.1,0v-0.1l0.3,0l0.3,0v0.1v0.4c0.1-0.1,0.1-0.2,0.2-0.3
				c0.1-0.1,0.2-0.1,0.4-0.1c0.1,0,0.1,0,0.2,0s0.1,0.1,0.2,0.1s0.1,0.1,0.1,0.2c0,0.1,0,0.1,0,0.2v1c0,0,0,0.1,0,0.1s0,0,0,0.1
				c0,0,0.1,0,0.1,0c0.1,0,0.1,0,0.1,0v0.1C173.6,199.4,173.4,199.4,173.2,199.4z"/>
		</g>
	</g>
</g>
<g>
	<g>
		<line class="st3" x1="75.5" y1="137.2" x2="171.6" y2="137.2"/>
		<g>
			<line class="st7" x1="77.5" y1="137.2" x2="169.6" y2="137.2"/>
			<g>
				<path d="M78,137.2l0.6-0.9l0,0l-1.5,0.6c-0.5,0.1-1,0.2-1.5,0.3c0.5,0.1,1,0.2,1.5,0.3l1.5,0.6l0,0L78,137.2z"/>
			</g>
			<g>
				<path d="M169.1,137.2l-0.6-0.9l0,0l1.5,0.6c0.5,0.1,1,0.2,1.5,0.3c-0.5,0.1-1,0.2-1.5,0.3l-1.5,0.6l0,0L169.1,137.2z"/>
			</g>
		</g>
	</g>
	<g>
		<rect x="109.5" y="132.4" class="st0" width="28" height="9.5"/>
		<g>
			<path class="st5" d="M114,137.7c0,0.2-0.1,0.3-0.1,0.4c0,0.1,0.1,0.2,0.2,0.2c0.1,0,0.1,0,0.1-0.1s0.1-0.1,0.1-0.2
				c0-0.1,0.1-0.2,0.1-0.3c0-0.1,0.1-0.2,0.1-0.3c0,0,0-0.1,0.1-0.1h0.1c0,0,0.1,0,0.1,0.1c0,0.1-0.1,0.2-0.1,0.3s-0.1,0.2-0.1,0.3
				c-0.1,0.1-0.1,0.2-0.2,0.2s-0.2,0.1-0.3,0.1c-0.1,0-0.3,0-0.3-0.1c-0.1-0.1-0.1-0.2-0.2-0.3c-0.1,0.1-0.2,0.2-0.3,0.3
				c-0.1,0.1-0.3,0.1-0.4,0.1c-0.2,0-0.3,0-0.4-0.1c-0.1-0.1-0.2-0.2-0.2-0.3c-0.1-0.1-0.1-0.3-0.1-0.5s0-0.3,0.1-0.5
				s0.1-0.3,0.2-0.5s0.2-0.3,0.3-0.5c0.1-0.1,0.2-0.2,0.4-0.3s0.3-0.1,0.4-0.1c0.1,0,0.2,0,0.3,0.1c0.1,0.1,0.1,0.1,0.2,0.3l0.3-1.3
				c0-0.1,0-0.1,0-0.1c0,0,0-0.1,0-0.1c0,0-0.1,0-0.1,0s-0.1,0-0.2,0c0,0-0.1,0-0.1-0.1l0-0.1c0,0,0-0.1,0.1-0.1l0.6-0.1l0.2,0
				c0,0,0,0,0,0s0,0,0,0.1L114,137.7z M113.9,136.3c0,0,0-0.1,0-0.1c0-0.1-0.1-0.2-0.1-0.2s-0.1-0.1-0.2-0.1c-0.1,0-0.2,0-0.3,0.1
				s-0.2,0.1-0.2,0.2c-0.1,0.1-0.2,0.3-0.2,0.4s-0.1,0.3-0.1,0.5s-0.1,0.3-0.1,0.5c0,0.1,0,0.3,0,0.4c0,0.1,0.1,0.2,0.1,0.2
				c0.1,0.1,0.1,0.1,0.2,0.1c0.1,0,0.2,0,0.3-0.1c0.1-0.1,0.2-0.1,0.3-0.3c0,0,0.1-0.1,0.1-0.1c0,0,0.1-0.1,0.1-0.1l0.3-1.3
				C113.9,136.4,113.9,136.4,113.9,136.3z"/>
			<path class="st5" d="M114.9,140.4v-0.1c0,0,0.1,0,0.1,0s0.1,0,0.1,0s0.1,0,0.1,0c0,0,0.1,0,0.1,0s0,0,0.1,0c0,0,0,0,0-0.1v-1.9
				c-0.1,0-0.1,0.1-0.2,0.1c-0.1,0-0.2,0-0.2,0v-0.1c0.1,0,0.2,0,0.3-0.1c0.1,0,0.2-0.1,0.3-0.2h0c0,0,0,0,0,0v2.1c0,0,0,0.1,0,0.1
				c0,0,0,0,0.1,0c0,0,0,0,0.1,0s0.1,0,0.1,0s0.1,0,0.1,0s0.1,0,0.1,0v0.1C115.7,140.4,115.3,140.4,114.9,140.4z"/>
			<path class="st5" d="M121.8,137C121.8,137,121.7,137,121.8,137l-1.8,0v1.8c0,0,0,0.1,0,0.1c0,0-0.1,0-0.1,0s-0.1,0-0.1,0
				c0,0,0-0.1,0-0.1V137h-1.8c0,0-0.1,0-0.1,0c0,0,0-0.1,0-0.1s0-0.1,0-0.1c0,0,0.1,0,0.1,0h1.8V135c0,0,0-0.1,0-0.1
				c0,0,0.1,0,0.1,0s0.1,0,0.1,0c0,0,0,0.1,0,0.1v1.8h1.8c0,0,0.1,0,0.1,0C121.8,136.8,121.8,136.9,121.8,137
				C121.8,136.9,121.8,136.9,121.8,137z"/>
			<path class="st5" d="M126.1,138.3C126,138.4,126,138.4,126.1,138.3l-3.4,0.1c0,0,0,0-0.1,0c0,0,0,0,0-0.1l0-0.1c0,0,0,0,0-0.1
				c0,0,0,0,0.1,0c0.1,0,0.2,0,0.3,0s0.2,0,0.2,0c0.1,0,0.1-0.1,0.1-0.2l1-4c0-0.1,0-0.2,0-0.2c0,0-0.1,0-0.2,0s-0.2,0-0.3,0
				c0,0,0,0-0.1,0c0,0,0,0,0-0.1l0-0.1c0-0.1,0.1-0.1,0.1-0.1c0.3,0,0.6,0,1,0c0.3,0,0.7,0,1,0c0,0,0,0,0.1,0c0,0,0,0,0,0.1l0,0.1
				c0,0,0,0,0,0.1c0,0,0,0-0.1,0c-0.1,0-0.3,0-0.4,0c-0.1,0-0.2,0-0.3,0c-0.1,0-0.1,0.1-0.1,0.2l-1,4c0,0.1,0,0.2,0,0.2
				c0,0,0.1,0,0.2,0h0.6c0.2,0,0.3,0,0.5-0.1s0.3-0.1,0.5-0.3c0.2-0.1,0.3-0.3,0.4-0.5c0.1-0.2,0.2-0.4,0.3-0.7
				c0-0.1,0.1-0.1,0.1-0.1h0.1c0.1,0,0.1,0,0.1,0.1L126.1,138.3z"/>
			<path class="st5" d="M128,140.5c0,0.1,0,0.1-0.1,0.2s-0.1,0.1-0.1,0.1s-0.1,0.1-0.2,0.1s-0.1,0-0.2,0c-0.1,0-0.1-0.1-0.2-0.1
				s-0.1-0.1-0.1-0.2c0-0.1,0-0.1,0-0.2v-1.2h-0.4V139c0.1,0,0.2,0,0.2-0.1s0.1-0.1,0.2-0.2c0.1-0.1,0.1-0.2,0.1-0.3
				c0-0.1,0-0.2,0-0.3h0.1v0.8h0.6v0.1h-0.6v1.2c0,0.1,0,0.1,0,0.2s0,0.1,0.1,0.2c0.1,0.1,0.1,0.1,0.2,0.1c0,0,0.1,0,0.1,0
				c0,0,0.1-0.1,0.1-0.1c0,0,0-0.1,0.1-0.1s0-0.1,0-0.2V140h0.1v0.3C128.1,140.3,128.1,140.4,128,140.5z"/>
			<path class="st5" d="M129.8,139.3c0,0-0.1,0.1-0.1,0.1s-0.1,0-0.1-0.1c0,0-0.1-0.1-0.1-0.1c0,0,0-0.1,0-0.1s0-0.1,0.1-0.1
				c0,0,0,0,0,0c-0.1,0-0.1,0-0.2,0.1c-0.1,0-0.1,0.1-0.1,0.2c0,0.1-0.1,0.2-0.1,0.3c0,0.1,0,0.2,0,0.3v0.7c0,0,0,0.1,0,0.1
				c0,0,0,0,0.1,0.1c0,0,0.1,0,0.2,0s0.1,0,0.2,0v0.1c-0.2,0-0.3,0-0.5,0s-0.3,0-0.5,0v-0.1c0.1,0,0.1,0,0.1,0c0.1,0,0.1,0,0.1,0
				c0,0,0,0,0-0.1c0,0,0-0.1,0-0.1v-1.2c0,0,0-0.1,0-0.1c0,0,0-0.1-0.1-0.1c0,0-0.1,0-0.1,0s-0.1,0-0.1,0V139l0.6-0.1v0.5
				c0-0.1,0.1-0.3,0.2-0.3c0.1-0.1,0.2-0.1,0.3-0.1c0.1,0,0.1,0,0.2,0.1s0.1,0.1,0.1,0.2C129.8,139.3,129.8,139.3,129.8,139.3z"/>
			<path class="st5" d="M132,140.6c0,0,0,0.1-0.1,0.1c0,0-0.1,0.1-0.1,0.1s-0.1,0-0.1,0c-0.1,0-0.2,0-0.2-0.1s-0.1-0.1-0.1-0.3
				c0,0.1-0.1,0.2-0.2,0.3s-0.2,0.1-0.3,0.1c-0.1,0-0.2,0-0.2,0s-0.1,0-0.2-0.1c-0.1,0-0.1-0.1-0.2-0.1c0-0.1-0.1-0.1-0.1-0.2
				c0-0.1,0-0.2,0.1-0.3s0.2-0.2,0.3-0.2c0.1-0.1,0.3-0.1,0.4-0.1s0.3,0,0.4,0v-0.2c0-0.1,0-0.1,0-0.2s-0.1-0.1-0.1-0.2
				c-0.1-0.1-0.2-0.1-0.3-0.1c-0.1,0-0.2,0-0.3,0.1s-0.1,0.1-0.2,0.1c0.1,0,0.1,0,0.1,0c0.1,0,0.1,0.1,0.1,0.1c0,0.1,0,0.1-0.1,0.1
				s-0.1,0.1-0.1,0.1s-0.1,0-0.1-0.1s-0.1-0.1-0.1-0.1c0-0.1,0-0.1,0.1-0.2c0-0.1,0.1-0.1,0.1-0.1s0.1-0.1,0.2-0.1s0.1,0,0.2,0
				c0.1,0,0.2,0,0.3,0c0.1,0,0.2,0.1,0.2,0.1c0.1,0.1,0.1,0.1,0.2,0.2s0.1,0.1,0.1,0.2v0.9c0,0.1,0,0.1,0,0.2s0.1,0.1,0.1,0.1
				C131.8,140.7,131.9,140.7,132,140.6c-0.1,0-0.1-0.1-0.1-0.1v-0.3h0.1v0.3C132,140.5,132,140.5,132,140.6z M131.3,139.8
				c-0.1,0-0.2,0-0.3,0c-0.1,0-0.2,0.1-0.3,0.1c-0.1,0.1-0.1,0.1-0.2,0.2s-0.1,0.2-0.1,0.3c0,0.1,0,0.1,0,0.1s0.1,0.1,0.1,0.1
				s0.1,0.1,0.1,0.1c0,0,0.1,0,0.1,0c0.1,0,0.1,0,0.2,0s0.1-0.1,0.2-0.1c0-0.1,0.1-0.1,0.1-0.2c0-0.1,0-0.1,0-0.2V139.8z"/>
			<path class="st5" d="M132.2,140.8v-0.1c0.1,0,0.1,0,0.1,0c0.1,0,0.1,0,0.1,0c0,0,0,0,0-0.1c0,0,0-0.1,0-0.1v-1.2c0,0,0-0.1,0-0.1
				c0,0,0-0.1,0-0.1c0,0-0.1,0-0.1,0c-0.1,0-0.1,0-0.1,0V139l0.6,0v1.6c0,0,0,0.1,0,0.1c0,0,0,0,0,0.1c0,0,0.1,0,0.1,0s0.1,0,0.1,0
				v0.1C132.8,140.8,132.5,140.8,132.2,140.8z M132.7,138.4c0,0-0.1,0.1-0.2,0.1s-0.1,0-0.2-0.1s-0.1-0.1-0.1-0.2s0-0.1,0.1-0.2
				c0,0,0.1-0.1,0.2-0.1s0.1,0,0.2,0.1c0,0,0.1,0.1,0.1,0.2S132.8,138.3,132.7,138.4z"/>
			<path class="st5" d="M135,140.8c-0.2,0-0.3,0-0.5,0v-0.1c0.1,0,0.1,0,0.1,0c0.1,0,0.1,0,0.1,0c0,0,0,0,0-0.1s0-0.1,0-0.1v-1
				c0-0.1,0-0.1,0-0.2s0-0.1-0.1-0.2c0,0-0.1-0.1-0.1-0.1s-0.1,0-0.1,0c-0.1,0-0.2,0-0.2,0.1c-0.1,0-0.1,0.1-0.2,0.1
				c-0.1,0.1-0.1,0.1-0.1,0.2s0,0.2,0,0.3v0.8c0,0,0,0.1,0,0.1s0,0,0,0.1c0,0,0.1,0,0.1,0c0.1,0,0.1,0,0.1,0v0.1c-0.1,0-0.1,0-0.2,0
				c-0.1,0-0.1,0-0.2,0h-0.1c-0.2,0-0.3,0-0.5,0v-0.1c0.1,0,0.1,0,0.1,0c0.1,0,0.1,0,0.1,0c0,0,0,0,0-0.1c0,0,0-0.1,0-0.1v-1.2
				c0,0,0-0.1,0-0.1c0,0,0-0.1-0.1-0.1c0,0-0.1,0-0.1,0c-0.1,0-0.1,0-0.1,0V139l0.3,0l0.3,0v0.1v0.4c0.1-0.1,0.1-0.2,0.2-0.3
				c0.1-0.1,0.2-0.1,0.4-0.1c0.1,0,0.1,0,0.2,0s0.1,0.1,0.2,0.1c0.1,0.1,0.1,0.1,0.1,0.2s0,0.1,0,0.2v1c0,0,0,0.1,0,0.1s0,0,0,0.1
				c0,0,0.1,0,0.1,0c0.1,0,0.1,0,0.1,0v0.1C135.3,140.8,135.1,140.8,135,140.8z"/>
		</g>
	</g>
</g>
<g>
	<g>
		<line class="st3" x1="187.9" y1="137.2" x2="171.2" y2="137.2"/>
		<g>
			<line class="st7" x1="185.8" y1="137.2" x2="173.3" y2="137.2"/>
			<g>
				<path d="M185.4,137.2l-0.6,0.9l0,0l1.5-0.6c0.5-0.1,1-0.2,1.5-0.3c-0.5-0.1-1-0.2-1.5-0.3l-1.5-0.6l0,0L185.4,137.2z"/>
			</g>
			<g>
				<path d="M173.7,137.2l0.6,0.9l0,0l-1.5-0.6c-0.5-0.1-1-0.2-1.5-0.3c0.5-0.1,1-0.2,1.5-0.3l1.5-0.6l0,0L173.7,137.2z"/>
			</g>
		</g>
	</g>
	<g>
		<rect x="176" y="132.4" class="st0" width="6.9" height="8.9"/>
		<g>
			<path class="st5" d="M179.6,137.7c0,0.2-0.1,0.3-0.1,0.4s0.1,0.2,0.2,0.2c0.1,0,0.1,0,0.1-0.1s0.1-0.1,0.1-0.2
				c0-0.1,0.1-0.2,0.1-0.3c0-0.1,0.1-0.2,0.1-0.3c0,0,0-0.1,0.1-0.1h0.1c0,0,0.1,0,0.1,0.1c0,0.1-0.1,0.2-0.1,0.3s-0.1,0.2-0.1,0.3
				c-0.1,0.1-0.1,0.2-0.2,0.2c-0.1,0.1-0.2,0.1-0.3,0.1c-0.1,0-0.3,0-0.3-0.1c-0.1-0.1-0.1-0.2-0.2-0.3c-0.1,0.1-0.2,0.2-0.3,0.3
				s-0.3,0.1-0.4,0.1c-0.1,0-0.3,0-0.4-0.1s-0.2-0.2-0.2-0.3c-0.1-0.1-0.1-0.3-0.1-0.5s0-0.3,0.1-0.5s0.1-0.3,0.2-0.5
				s0.2-0.3,0.3-0.5c0.1-0.1,0.2-0.2,0.4-0.3c0.1-0.1,0.3-0.1,0.4-0.1c0.1,0,0.2,0,0.3,0.1c0.1,0.1,0.1,0.1,0.2,0.3l0.3-1.3
				c0-0.1,0-0.1,0-0.1c0,0,0-0.1,0-0.1c0,0-0.1,0-0.1,0c-0.1,0-0.1,0-0.2,0c0,0-0.1,0-0.1-0.1l0-0.1c0,0,0-0.1,0.1-0.1l0.6-0.1
				l0.2,0c0,0,0,0,0,0s0,0,0,0.1L179.6,137.7z M179.5,136.3c0,0,0-0.1,0-0.1c0-0.1-0.1-0.2-0.1-0.2c-0.1-0.1-0.1-0.1-0.2-0.1
				c-0.1,0-0.2,0-0.3,0.1s-0.2,0.1-0.2,0.2c-0.1,0.1-0.2,0.3-0.2,0.4s-0.1,0.3-0.1,0.5c0,0.2-0.1,0.3-0.1,0.5s0,0.3,0,0.4
				c0,0.1,0.1,0.2,0.1,0.2c0.1,0.1,0.1,0.1,0.2,0.1c0.1,0,0.2,0,0.3-0.1c0.1-0.1,0.2-0.1,0.3-0.3c0,0,0.1-0.1,0.1-0.1
				s0.1-0.1,0.1-0.1l0.3-1.3C179.5,136.4,179.5,136.4,179.5,136.3z"/>
			<path class="st5" d="M181.6,140.4h-1.3v-0.1c0,0,0,0,0,0l0.5-0.6c0.1-0.1,0.1-0.1,0.2-0.2c0.1-0.1,0.1-0.1,0.2-0.2
				s0.1-0.2,0.1-0.3c0-0.1,0.1-0.2,0.1-0.3c0-0.1,0-0.1,0-0.2s-0.1-0.1-0.1-0.2s-0.1-0.1-0.1-0.1c-0.1,0-0.1-0.1-0.2-0.1
				c-0.1,0-0.2,0-0.3,0.1s-0.1,0.2-0.2,0.3c0,0,0.1,0,0.1,0c0,0,0.1,0,0.1,0c0,0,0,0,0.1,0.1c0,0,0,0.1,0,0.1c0,0.1,0,0.1-0.1,0.1
				s-0.1,0.1-0.1,0.1c0,0-0.1,0-0.1-0.1c0,0-0.1-0.1-0.1-0.1c0-0.1,0-0.2,0.1-0.3s0.1-0.1,0.1-0.2c0.1-0.1,0.1-0.1,0.2-0.1
				c0.1,0,0.2-0.1,0.3-0.1c0.1,0,0.2,0,0.3,0.1s0.2,0.1,0.2,0.1c0.1,0.1,0.1,0.1,0.1,0.2c0,0.1,0.1,0.2,0.1,0.3c0,0.1,0,0.2-0.1,0.3
				c-0.1,0.1-0.1,0.2-0.2,0.3c-0.1,0.1-0.1,0.1-0.2,0.2s-0.2,0.1-0.2,0.2l-0.4,0.4h0.4c0.1,0,0.1,0,0.2,0s0.1,0,0.2,0s0.1,0,0.1,0
				s0.1,0,0.1,0c0,0,0,0,0-0.1c0,0,0-0.1,0-0.1c0,0,0-0.1,0-0.1c0,0,0-0.1,0-0.1h0.1L181.6,140.4z"/>
		</g>
	</g>
</g>
<g>
	<g>
		<line class="st3" x1="204.5" y1="137.2" x2="187.9" y2="137.2"/>
		<g>
			<line class="st7" x1="202.4" y1="137.2" x2="189.9" y2="137.2"/>
			<g>
				<path d="M202,137.2l-0.6,0.9l0,0l1.5-0.6c0.5-0.1,1-0.2,1.5-0.3c-0.5-0.1-1-0.2-1.5-0.3l-1.5-0.6l0,0L202,137.2z"/>
			</g>
			<g>
				<path d="M190.3,137.2l0.6,0.9l0,0l-1.5-0.6c-0.5-0.1-1-0.2-1.5-0.3c0.5-0.1,1-0.2,1.5-0.3l1.5-0.6l0,0L190.3,137.2z"/>
			</g>
		</g>
	</g>
	<g>
		<rect x="192.6" y="132.4" class="st0" width="6.9" height="8.9"/>
		<g>
			<path class="st5" d="M196.2,137.7c0,0.2-0.1,0.3-0.1,0.4s0.1,0.2,0.2,0.2c0.1,0,0.1,0,0.1-0.1s0.1-0.1,0.1-0.2
				c0-0.1,0.1-0.2,0.1-0.3c0-0.1,0.1-0.2,0.1-0.3c0,0,0-0.1,0.1-0.1h0.1c0,0,0.1,0,0.1,0.1c0,0.1-0.1,0.2-0.1,0.3s-0.1,0.2-0.1,0.3
				c-0.1,0.1-0.1,0.2-0.2,0.2c-0.1,0.1-0.2,0.1-0.3,0.1c-0.1,0-0.3,0-0.3-0.1c-0.1-0.1-0.1-0.2-0.2-0.3c-0.1,0.1-0.2,0.2-0.3,0.3
				s-0.3,0.1-0.4,0.1c-0.1,0-0.3,0-0.4-0.1s-0.2-0.2-0.2-0.3c-0.1-0.1-0.1-0.3-0.1-0.5s0-0.3,0.1-0.5s0.1-0.3,0.2-0.5
				s0.2-0.3,0.3-0.5c0.1-0.1,0.2-0.2,0.4-0.3c0.1-0.1,0.3-0.1,0.4-0.1c0.1,0,0.2,0,0.3,0.1c0.1,0.1,0.1,0.1,0.2,0.3l0.3-1.3
				c0-0.1,0-0.1,0-0.1c0,0,0-0.1,0-0.1c0,0-0.1,0-0.1,0c-0.1,0-0.1,0-0.2,0c0,0-0.1,0-0.1-0.1l0-0.1c0,0,0-0.1,0.1-0.1l0.6-0.1
				l0.2,0c0,0,0,0,0,0s0,0,0,0.1L196.2,137.7z M196.1,136.3c0,0,0-0.1,0-0.1c0-0.1-0.1-0.2-0.1-0.2c-0.1-0.1-0.1-0.1-0.2-0.1
				c-0.1,0-0.2,0-0.3,0.1s-0.2,0.1-0.2,0.2c-0.1,0.1-0.2,0.3-0.2,0.4s-0.1,0.3-0.1,0.5c0,0.2-0.1,0.3-0.1,0.5s0,0.3,0,0.4
				c0,0.1,0.1,0.2,0.1,0.2c0.1,0.1,0.1,0.1,0.2,0.1c0.1,0,0.2,0,0.3-0.1c0.1-0.1,0.2-0.1,0.3-0.3c0,0,0.1-0.1,0.1-0.1
				s0.1-0.1,0.1-0.1l0.3-1.3C196.1,136.4,196.1,136.4,196.1,136.3z"/>
			<path class="st5" d="M198.3,140.1c0,0.1-0.1,0.2-0.2,0.2c-0.1,0.1-0.1,0.1-0.2,0.1c-0.1,0-0.2,0.1-0.3,0.1c-0.1,0-0.2,0-0.3,0
				c-0.1,0-0.2-0.1-0.2-0.1s-0.1-0.1-0.2-0.2c0-0.1-0.1-0.1-0.1-0.2c0-0.1,0-0.1,0.1-0.1s0.1-0.1,0.1-0.1s0.1,0,0.1,0.1
				c0,0,0.1,0.1,0.1,0.1c0,0,0,0.1,0,0.1c0,0,0,0.1-0.1,0.1c0,0-0.1,0-0.1,0c0,0-0.1,0-0.1,0c0.1,0.1,0.1,0.1,0.2,0.2
				s0.2,0.1,0.3,0.1c0.1,0,0.1,0,0.2,0s0.1-0.1,0.1-0.1c0-0.1,0.1-0.1,0.1-0.2c0-0.1,0-0.1,0-0.2c0-0.1,0-0.1,0-0.2
				c0-0.1,0-0.1-0.1-0.2c0-0.1-0.1-0.1-0.1-0.1s-0.1,0-0.2,0h-0.2c0,0,0,0,0,0v0c0,0,0,0,0,0c0,0,0,0,0,0c0,0,0.1,0,0.1,0
				c0,0,0.1,0,0.1,0c0.1,0,0.1,0,0.2-0.1c0.1,0,0.1-0.1,0.1-0.1s0.1-0.1,0.1-0.2c0-0.1,0-0.1,0-0.2c0-0.1,0-0.1,0-0.1
				c0-0.1,0-0.1-0.1-0.1c-0.1-0.1-0.1-0.1-0.2-0.1s-0.2,0-0.3,0.1s-0.1,0.1-0.2,0.2c0.1,0,0.1,0,0.1,0c0.1,0,0.1,0.1,0.1,0.1
				c0,0.1,0,0.1-0.1,0.1s-0.1,0-0.1,0s-0.1,0-0.1,0s-0.1-0.1-0.1-0.1c0-0.1,0-0.1,0.1-0.2s0.1-0.1,0.1-0.1s0.1-0.1,0.2-0.1
				c0.1,0,0.1,0,0.2,0s0.2,0,0.2,0s0.1,0.1,0.2,0.1c0.1,0,0.1,0.1,0.1,0.1s0.1,0.1,0.1,0.2s0,0.1,0,0.2s-0.1,0.1-0.1,0.2
				s-0.1,0.1-0.1,0.1s-0.1,0.1-0.2,0.1c0.1,0,0.1,0,0.2,0.1s0.1,0.1,0.2,0.1c0.1,0.1,0.1,0.1,0.2,0.2c0,0.1,0.1,0.2,0.1,0.3
				C198.4,139.9,198.3,140,198.3,140.1z"/>
		</g>
	</g>
</g>
<g>
	<g>
		<line class="st3" x1="114.4" y1="37.5" x2="97.8" y2="37.5"/>
		<g>
			<line class="st7" x1="112.3" y1="37.5" x2="99.8" y2="37.5"/>
			<g>
				<path d="M111.9,37.5l-0.6,0.9l0,0l1.5-0.6c0.5-0.1,1-0.2,1.5-0.3c-0.5-0.1-1-0.2-1.5-0.3l-1.5-0.6l0,0L111.9,37.5z"/>
			</g>
			<g>
				<path d="M100.3,37.5l0.6,0.9l0,0l-1.5-0.6c-0.5-0.1-1-0.2-1.5-0.3c0.5-0.1,1-0.2,1.5-0.3l1.5-0.6l0,0L100.3,37.5z"/>
			</g>
		</g>
	</g>
	<g>
		<rect x="102.6" y="32.8" class="st0" width="6.9" height="8.9"/>
		<g>
			<path class="st5" d="M106.1,38.1c0,0.2-0.1,0.3-0.1,0.4c0,0.1,0.1,0.2,0.2,0.2c0.1,0,0.1,0,0.1-0.1s0.1-0.1,0.1-0.2
				s0.1-0.2,0.1-0.3c0-0.1,0.1-0.2,0.1-0.3c0,0,0,0,0.1,0h0.1c0,0,0.1,0,0.1,0c0,0.1-0.1,0.2-0.1,0.3s-0.1,0.2-0.1,0.3
				c-0.1,0.1-0.1,0.2-0.2,0.2s-0.2,0.1-0.3,0.1c-0.1,0-0.3,0-0.3-0.1c-0.1-0.1-0.1-0.2-0.2-0.3c-0.1,0.1-0.2,0.2-0.3,0.3
				c-0.1,0.1-0.3,0.1-0.4,0.1c-0.2,0-0.3,0-0.4-0.1c-0.1-0.1-0.2-0.2-0.2-0.3c-0.1-0.1-0.1-0.3-0.1-0.5c0-0.2,0-0.3,0.1-0.5
				s0.1-0.3,0.2-0.5c0.1-0.2,0.2-0.3,0.3-0.5c0.1-0.1,0.2-0.2,0.4-0.3s0.3-0.1,0.4-0.1c0.1,0,0.2,0,0.3,0.1c0.1,0.1,0.1,0.2,0.2,0.3
				l0.3-1.3c0-0.1,0-0.1,0-0.2c0,0,0-0.1,0-0.1c0,0-0.1,0-0.1,0c-0.1,0-0.1,0-0.2,0c0,0-0.1,0-0.1-0.1l0,0c0,0,0-0.1,0.1-0.1l0.6,0
				l0.2,0c0,0,0,0,0,0c0,0,0,0,0,0L106.1,38.1z M106,36.7c0,0,0-0.1,0-0.1c0-0.1-0.1-0.2-0.1-0.2c-0.1-0.1-0.1-0.1-0.2-0.1
				c-0.1,0-0.2,0-0.3,0.1c-0.1,0.1-0.2,0.2-0.2,0.2c-0.1,0.1-0.2,0.3-0.2,0.4s-0.1,0.3-0.1,0.5s-0.1,0.3-0.1,0.5c0,0.2,0,0.3,0,0.4
				c0,0.1,0.1,0.2,0.1,0.2c0.1,0.1,0.1,0.1,0.2,0.1c0.1,0,0.2,0,0.3-0.1c0.1-0.1,0.2-0.2,0.3-0.3c0,0,0.1-0.1,0.1-0.1
				c0,0,0.1-0.1,0.1-0.1l0.3-1.3C106.1,36.8,106,36.7,106,36.7z"/>
			<path class="st5" d="M108.1,40.7h-1.3v-0.1c0,0,0,0,0,0l0.5-0.6c0.1-0.1,0.1-0.2,0.2-0.2c0.1-0.1,0.1-0.2,0.2-0.2
				s0.1-0.2,0.1-0.2c0-0.1,0.1-0.2,0.1-0.3c0-0.1,0-0.2,0-0.2s-0.1-0.1-0.1-0.2c0,0-0.1-0.1-0.1-0.1c-0.1,0-0.1,0-0.2,0
				c-0.1,0-0.2,0-0.3,0.1s-0.2,0.2-0.2,0.3c0,0,0.1,0,0.1,0s0.1,0,0.1,0c0,0,0,0,0.1,0.1c0,0,0,0.1,0,0.1c0,0.1,0,0.1-0.1,0.1
				s-0.1,0-0.1,0c0,0-0.1,0-0.1,0c0,0-0.1-0.1-0.1-0.1c0-0.1,0-0.2,0.1-0.3c0-0.1,0.1-0.2,0.1-0.2c0.1-0.1,0.1-0.1,0.2-0.1
				c0.1,0,0.2,0,0.3,0c0.1,0,0.2,0,0.3,0c0.1,0,0.2,0.1,0.2,0.1c0.1,0.1,0.1,0.1,0.2,0.2c0,0.1,0.1,0.2,0.1,0.3c0,0.1,0,0.2-0.1,0.3
				c-0.1,0.1-0.1,0.2-0.2,0.3c-0.1,0.1-0.2,0.2-0.2,0.2s-0.2,0.1-0.2,0.2l-0.4,0.4h0.3c0.1,0,0.1,0,0.2,0s0.1,0,0.2,0
				c0.1,0,0.1,0,0.2,0c0,0,0.1,0,0.1,0c0,0,0,0,0,0s0,0,0-0.1c0,0,0-0.1,0-0.1s0-0.1,0-0.1h0.1L108.1,40.7z"/>
		</g>
	</g>
</g>
<g>
	<g>
		<line class="st3" x1="98" y1="37.5" x2="75.3" y2="37.5"/>
		<g>
			<line class="st7" x1="96" y1="37.5" x2="77.3" y2="37.5"/>
			<g>
				<path d="M95.6,37.5L95,38.4l0,0l1.5-0.6c0.5-0.1,1-0.2,1.5-0.3c-0.5-0.1-1-0.2-1.5-0.3L95,36.6l0,0L95.6,37.5z"/>
			</g>
			<g>
				<path d="M77.7,37.5l0.6,0.9l0,0l-1.5-0.6c-0.5-0.1-1-0.2-1.5-0.3c0.5-0.1,1-0.2,1.5-0.3l1.5-0.6l0,0L77.7,37.5z"/>
			</g>
		</g>
	</g>
	<g>
		<rect x="82.8" y="32.8" class="st0" width="6.9" height="8.9"/>
		<g>
			<path class="st5" d="M86.4,38.1c0,0.2-0.1,0.3-0.1,0.4c0,0.1,0.1,0.2,0.2,0.2c0.1,0,0.1,0,0.1-0.1s0.1-0.1,0.1-0.2
				s0.1-0.2,0.1-0.3c0-0.1,0.1-0.2,0.1-0.3c0,0,0,0,0.1,0h0.1c0,0,0.1,0,0.1,0c0,0.1-0.1,0.2-0.1,0.3s-0.1,0.2-0.1,0.3
				c-0.1,0.1-0.1,0.2-0.2,0.2s-0.2,0.1-0.3,0.1c-0.1,0-0.3,0-0.3-0.1c-0.1-0.1-0.1-0.2-0.2-0.3c-0.1,0.1-0.2,0.2-0.3,0.3
				c-0.1,0.1-0.3,0.1-0.4,0.1c-0.2,0-0.3,0-0.4-0.1c-0.1-0.1-0.2-0.2-0.2-0.3c-0.1-0.1-0.1-0.3-0.1-0.5c0-0.2,0-0.3,0.1-0.5
				s0.1-0.3,0.2-0.5c0.1-0.2,0.2-0.3,0.3-0.5c0.1-0.1,0.2-0.2,0.4-0.3s0.3-0.1,0.4-0.1c0.1,0,0.2,0,0.3,0.1c0.1,0.1,0.1,0.2,0.2,0.3
				l0.3-1.3c0-0.1,0-0.1,0-0.2c0,0,0-0.1,0-0.1c0,0-0.1,0-0.1,0c-0.1,0-0.1,0-0.2,0c0,0-0.1,0-0.1-0.1l0,0c0,0,0-0.1,0.1-0.1l0.6,0
				l0.2,0c0,0,0,0,0,0c0,0,0,0,0,0L86.4,38.1z M86.3,36.7c0,0,0-0.1,0-0.1c0-0.1-0.1-0.2-0.1-0.2c-0.1-0.1-0.1-0.1-0.2-0.1
				c-0.1,0-0.2,0-0.3,0.1c-0.1,0.1-0.2,0.2-0.2,0.2c-0.1,0.1-0.2,0.3-0.2,0.4s-0.1,0.3-0.1,0.5S85,37.8,85,37.9c0,0.2,0,0.3,0,0.4
				c0,0.1,0.1,0.2,0.1,0.2c0.1,0.1,0.1,0.1,0.2,0.1c0.1,0,0.2,0,0.3-0.1c0.1-0.1,0.2-0.2,0.3-0.3c0,0,0.1-0.1,0.1-0.1
				c0,0,0.1-0.1,0.1-0.1l0.3-1.3C86.3,36.8,86.3,36.7,86.3,36.7z"/>
			<path class="st5" d="M87.3,40.7v-0.1c0,0,0.1,0,0.1,0s0.1,0,0.1,0s0.1,0,0.1,0c0,0,0.1,0,0.1,0s0,0,0.1,0s0,0,0-0.1v-1.9
				c-0.1,0-0.1,0.1-0.2,0.1s-0.2,0-0.2,0v-0.1c0.1,0,0.2,0,0.3,0s0.2-0.1,0.3-0.2h0c0,0,0,0,0,0v2.1c0,0,0,0,0,0.1c0,0,0,0,0.1,0
				c0,0,0,0,0.1,0s0.1,0,0.1,0s0.1,0,0.1,0s0.1,0,0.1,0v0.1C88,40.7,87.7,40.7,87.3,40.7z"/>
		</g>
	</g>
</g>
<g>
	<g>
		<line class="st3" x1="131" y1="37.5" x2="114.4" y2="37.5"/>
		<g>
			<line class="st7" x1="129" y1="37.5" x2="116.4" y2="37.5"/>
			<g>
				<path d="M128.5,37.5l-0.6,0.9l0,0l1.5-0.6c0.5-0.1,1-0.2,1.5-0.3c-0.5-0.1-1-0.2-1.5-0.3l-1.5-0.6l0,0L128.5,37.5z"/>
			</g>
			<g>
				<path d="M116.9,37.5l0.6,0.9l0,0l-1.5-0.6c-0.5-0.1-1-0.2-1.5-0.3c0.5-0.1,1-0.2,1.5-0.3l1.5-0.6l0,0L116.9,37.5z"/>
			</g>
		</g>
	</g>
	<g>
		<rect x="119.2" y="32.8" class="st0" width="6.9" height="8.9"/>
		<g>
			<path class="st5" d="M122.7,38.1c0,0.2-0.1,0.3-0.1,0.4c0,0.1,0.1,0.2,0.2,0.2c0.1,0,0.1,0,0.1-0.1s0.1-0.1,0.1-0.2
				s0.1-0.2,0.1-0.3c0-0.1,0.1-0.2,0.1-0.3c0,0,0,0,0.1,0h0.1c0,0,0.1,0,0.1,0c0,0.1-0.1,0.2-0.1,0.3s-0.1,0.2-0.1,0.3
				c-0.1,0.1-0.1,0.2-0.2,0.2s-0.2,0.1-0.3,0.1c-0.1,0-0.3,0-0.3-0.1c-0.1-0.1-0.1-0.2-0.2-0.3c-0.1,0.1-0.2,0.2-0.3,0.3
				c-0.1,0.1-0.3,0.1-0.4,0.1c-0.2,0-0.3,0-0.4-0.1c-0.1-0.1-0.2-0.2-0.2-0.3c-0.1-0.1-0.1-0.3-0.1-0.5c0-0.2,0-0.3,0.1-0.5
				s0.1-0.3,0.2-0.5c0.1-0.2,0.2-0.3,0.3-0.5c0.1-0.1,0.2-0.2,0.4-0.3s0.3-0.1,0.4-0.1c0.1,0,0.2,0,0.3,0.1c0.1,0.1,0.1,0.2,0.2,0.3
				l0.3-1.3c0-0.1,0-0.1,0-0.2c0,0,0-0.1,0-0.1c0,0-0.1,0-0.1,0c-0.1,0-0.1,0-0.2,0c0,0-0.1,0-0.1-0.1l0,0c0,0,0-0.1,0.1-0.1l0.6,0
				l0.2,0c0,0,0,0,0,0c0,0,0,0,0,0L122.7,38.1z M122.7,36.7c0,0,0-0.1,0-0.1c0-0.1-0.1-0.2-0.1-0.2c-0.1-0.1-0.1-0.1-0.2-0.1
				c-0.1,0-0.2,0-0.3,0.1c-0.1,0.1-0.2,0.2-0.2,0.2c-0.1,0.1-0.2,0.3-0.2,0.4s-0.1,0.3-0.1,0.5s-0.1,0.3-0.1,0.5c0,0.2,0,0.3,0,0.4
				c0,0.1,0.1,0.2,0.1,0.2c0.1,0.1,0.1,0.1,0.2,0.1c0.1,0,0.2,0,0.3-0.1c0.1-0.1,0.2-0.2,0.3-0.3c0,0,0.1-0.1,0.1-0.1
				c0,0,0.1-0.1,0.1-0.1l0.3-1.3C122.7,36.8,122.7,36.7,122.7,36.7z"/>
			<path class="st5" d="M124.8,40.4c0,0.1-0.1,0.2-0.2,0.2c-0.1,0.1-0.2,0.1-0.2,0.2c-0.1,0-0.2,0-0.3,0c-0.1,0-0.2,0-0.3,0
				c-0.1,0-0.2-0.1-0.2-0.1s-0.1-0.1-0.2-0.2c0-0.1-0.1-0.2-0.1-0.2c0-0.1,0-0.1,0.1-0.2c0,0,0.1,0,0.1,0c0.1,0,0.1,0,0.1,0
				s0.1,0.1,0.1,0.2c0,0,0,0.1,0,0.1c0,0,0,0-0.1,0.1c0,0-0.1,0-0.1,0s-0.1,0-0.1,0c0.1,0.1,0.1,0.2,0.2,0.2s0.2,0.1,0.3,0.1
				c0.1,0,0.1,0,0.2,0c0.1,0,0.1-0.1,0.1-0.1c0-0.1,0.1-0.1,0.1-0.2s0-0.1,0-0.2s0-0.2,0-0.2c0-0.1,0-0.1-0.1-0.2
				c0,0-0.1-0.1-0.1-0.1s-0.1,0-0.2,0h-0.2c0,0,0,0,0,0v0c0,0,0,0,0,0c0,0,0,0,0,0c0,0,0.1,0,0.1,0s0.1,0,0.1,0c0.1,0,0.1,0,0.2-0.1
				c0.1,0,0.1-0.1,0.1-0.1s0.1-0.1,0.1-0.2c0-0.1,0-0.1,0-0.2c0,0,0-0.1,0-0.2c0,0,0-0.1-0.1-0.1c-0.1-0.1-0.1-0.1-0.2-0.1
				s-0.2,0-0.3,0.1s-0.2,0.1-0.2,0.2c0.1,0,0.1,0,0.2,0s0.1,0.1,0.1,0.2c0,0.1,0,0.1-0.1,0.1c0,0-0.1,0-0.1,0s-0.1,0-0.1,0
				c0,0-0.1-0.1-0.1-0.1c0-0.1,0-0.1,0.1-0.2c0-0.1,0.1-0.1,0.1-0.2s0.1-0.1,0.2-0.1c0.1,0,0.2,0,0.2,0s0.2,0,0.2,0
				c0.1,0,0.2,0.1,0.2,0.1c0.1,0,0.1,0.1,0.1,0.2s0.1,0.1,0.1,0.2c0,0.1,0,0.1,0,0.2s-0.1,0.1-0.1,0.2s-0.1,0.1-0.2,0.1
				s-0.1,0.1-0.2,0.1c0.1,0,0.1,0,0.2,0.1c0.1,0,0.1,0.1,0.2,0.1c0.1,0.1,0.1,0.1,0.2,0.2c0,0.1,0.1,0.2,0.1,0.3
				C124.9,40.2,124.9,40.3,124.8,40.4z"/>
		</g>
	</g>
</g>
<polyline class="st14" points="114.2,91.3 171.6,91.3 187.9,91.3 187.9,68.3 204.2,68.3 204.2,48.7 "/>
<g>
	<circle class="st4" cx="75.5" cy="137.4" r="1.7"/>
	<line class="st4" x1="75.5" y1="137.4" x2="75.5" y2="134.2"/>
	<line class="st4" x1="75.5" y1="140.6" x2="75.5" y2="137.4"/>
	<line class="st4" x1="72.3" y1="137.4" x2="75.5" y2="137.4"/>
	<line class="st4" x1="75.5" y1="137.4" x2="78.7" y2="137.4"/>
</g>
<g>
	<circle class="st4" cx="171.4" cy="156.6" r="1.7"/>
	<line class="st4" x1="171.4" y1="156.6" x2="171.4" y2="153.4"/>
	<line class="st4" x1="171.4" y1="159.8" x2="171.4" y2="156.6"/>
	<line class="st4" x1="168.2" y1="156.6" x2="171.4" y2="156.6"/>
	<line class="st4" x1="171.4" y1="156.6" x2="174.7" y2="156.6"/>
</g>
<g>
	<circle class="st4" cx="187.9" cy="176.8" r="1.7"/>
	<line class="st4" x1="187.9" y1="176.8" x2="187.9" y2="173.6"/>
	<line class="st4" x1="187.9" y1="180" x2="187.9" y2="176.7"/>
	<line class="st4" x1="184.6" y1="176.8" x2="187.9" y2="176.8"/>
	<line class="st4" x1="187.9" y1="176.8" x2="191.1" y2="176.8"/>
</g>
<g>
	<circle class="st4" cx="204.3" cy="195.8" r="1.7"/>
	<line class="st4" x1="204.3" y1="195.8" x2="204.3" y2="192.6"/>
	<line class="st4" x1="204.3" y1="199" x2="204.3" y2="195.8"/>
	<line class="st4" x1="201" y1="195.8" x2="204.3" y2="195.8"/>
	<line class="st4" x1="204.3" y1="195.8" x2="207.5" y2="195.8"/>
</g>
<line class="st7" x1="75.3" y1="68.3" x2="75.3" y2="29.7"/>
<line class="st7" x1="98" y1="91.3" x2="98" y2="29.7"/>
<line class="st7" x1="114.2" y1="68.3" x2="114.2" y2="29.7"/>
<line class="st7" x1="130.7" y1="49" x2="130.7" y2="29.7"/>
</svg>
