<?xml version="1.0" encoding="utf-8"?>
<!-- Generator: Adobe Illustrator 24.1.2, SVG Export Plug-In . SVG Version: 6.00 Build 0)  -->
<svg version="1.1" id="Layer_1" xmlns="http://www.w3.org/2000/svg" xmlns:xlink="http://www.w3.org/1999/xlink" x="0px" y="0px"
	 viewBox="0 0 48 48" style="enable-background:new 0 0 48 48;" xml:space="preserve">
<style type="text/css">
	.st0{fill:#237287;}
	.st1{fill:url(#SVGID_1_);}
	.st2{fill:url(#SVGID_2_);}
	.st3{fill:url(#SVGID_3_);}
	.st4{fill:url(#SVGID_4_);}
	.st5{fill:url(#SVGID_5_);}
	.st6{fill:url(#SVGID_6_);}
	.st7{fill:url(#SVGID_7_);}
	.st8{fill:url(#SVGID_8_);}
	.st9{fill:url(#SVGID_9_);}
	.st10{fill:url(#SVGID_10_);}
	.st11{fill:url(#SVGID_11_);}
	.st12{fill:url(#SVGID_12_);}
	.st13{fill:url(#SVGID_13_);}
	.st14{fill:url(#SVGID_14_);}
	.st15{fill:url(#SVGID_15_);}
	.st16{fill:url(#SVGID_16_);}
	.st17{fill:url(#SVGID_17_);}
	.st18{fill:url(#SVGID_18_);}
	.st19{fill:url(#SVGID_19_);}
	.st20{fill:url(#SVGID_20_);}
	.st21{fill:url(#SVGID_21_);}
	.st22{fill:url(#SVGID_22_);}
	.st23{fill:url(#SVGID_23_);}
	.st24{fill:url(#SVGID_24_);}
	.st25{fill:url(#SVGID_25_);}
	.st26{fill:url(#SVGID_26_);}
	.st27{fill:url(#SVGID_27_);}
	.st28{fill:url(#SVGID_28_);}
	.st29{fill:url(#SVGID_29_);}
	.st30{fill:url(#SVGID_30_);}
	.st31{fill:url(#SVGID_31_);}
	.st32{fill:url(#SVGID_32_);}
</style>
<g>
	<path class="st0" d="M36.7,48H11.3C5.07,48,0,42.93,0,36.7V11.3C0,5.07,5.07,0,11.3,0H36.7C42.93,0,48,5.07,48,11.3V36.7
		C48,42.93,42.93,48,36.7,48z M11.3,2.5c-4.85,0-8.8,3.95-8.8,8.8V36.7c0,4.85,3.95,8.8,8.8,8.8H36.7c4.85,0,8.8-3.95,8.8-8.8V11.3
		c0-4.85-3.95-8.8-8.8-8.8H11.3z"/>
	<g>
		<radialGradient id="SVGID_1_" cx="24.0315" cy="23.9594" r="21.7952" gradientUnits="userSpaceOnUse">
			<stop  offset="0" style="stop-color:#C5E6EA"/>
			<stop  offset="0.1739" style="stop-color:#AFD6DC"/>
			<stop  offset="0.5379" style="stop-color:#75ACB9"/>
			<stop  offset="1" style="stop-color:#237287"/>
		</radialGradient>
		<path class="st1" d="M28.82,45.75H17c-15.18,0-14.75-7.58-14.75-16.93v-9.64C2.25,9.83,1,2.25,19.18,2.25h9.64
			c9.35,0,16.93-2.25,16.93,16.93v9.64C45.75,38.17,48,45.75,28.82,45.75z"/>
		<path d="M36.7,47H11.3C5.62,47,1,42.38,1,36.7V11.3C1,5.62,5.62,1,11.3,1H36.7C42.38,1,47,5.62,47,11.3V36.7
			C47,42.38,42.38,47,36.7,47z M11.3,3.5C7,3.5,3.5,7,3.5,11.3V36.7c0,4.3,3.5,7.8,7.8,7.8H36.7c4.3,0,7.8-3.5,7.8-7.8V11.3
			c0-4.3-3.5-7.8-7.8-7.8H11.3z"/>
	</g>
	<path d="M22.02,43.05c-2.55,0-5.38-0.55-7.56-1.47c-1.77-0.74-2.42-2.66-1.72-5l0.03-0.09c0.24-0.8,0.88-2.93,3.33-2.93
		c0.56,0,1.12,0.11,1.64,0.34c1.03,0.44,2.66,0.96,4.56,0.96c1.54,0,4.13-0.38,4.13-2.92c0-1.3-0.32-2.41-4.32-3.95
		c-6.63-2.36-9.86-6.01-9.86-11.15c0-6.33,5.28-10.93,12.56-10.93c2.27,0,4.35,0.33,6.18,0.98c1.18,0.42,3.01,1.58,1.97,4.65
		l-0.02,0.05c-0.34,1.01-1.15,3.39-3.33,3.39c-0.48,0-0.96-0.08-1.41-0.25c-1.12-0.41-2.31-0.62-3.53-0.62
		c-2.57,0-3.48,1.22-3.48,2.27c0,1.01,0,1.97,4.68,3.78c1.99,0.77,4.52,1.89,6.45,3.78c2.08,2.04,3.09,4.55,3.09,7.68
		c0,3.03-1.17,5.83-3.28,7.88C29.72,41.82,26.23,43.05,22.02,43.05z"/>
	<path d="M22.02,42.05c-2.42,0-5.1-0.52-7.17-1.39c-1.48-0.62-1.61-2.25-1.15-3.79l0.03-0.08c0.4-1.33,0.98-2.22,2.37-2.22
		c0.43,0,0.85,0.09,1.25,0.26c1.12,0.47,2.88,1.04,4.95,1.04c3.21,0,5.13-1.47,5.13-3.92c0-1.93-0.79-3.28-4.97-4.89
		c-6.19-2.2-9.2-5.54-9.2-10.21c0-5.75,4.86-9.92,11.55-9.92c2.16,0,4.13,0.31,5.85,0.92c1.61,0.57,1.9,1.77,1.35,3.38l-0.02,0.05
		c-0.43,1.28-1.04,2.71-2.38,2.71c-0.36,0-0.72-0.06-1.06-0.19c-1.24-0.45-2.54-0.68-3.88-0.68c-3.1,0-4.48,1.64-4.48,3.27
		c0,1.8,0.8,2.97,5.32,4.72c1.9,0.73,4.31,1.8,6.11,3.57c1.88,1.84,2.79,4.11,2.79,6.96c0,2.76-1.06,5.3-2.98,7.16
		C29.22,40.91,25.96,42.05,22.02,42.05z"/>
	<g>
		<radialGradient id="SVGID_2_" cx="29.6143" cy="10.4047" r="1.4955" gradientUnits="userSpaceOnUse">
			<stop  offset="0" style="stop-color:#CCCCCC"/>
			<stop  offset="0.5149" style="stop-color:#CACACA"/>
			<stop  offset="0.7003" style="stop-color:#C3C3C3"/>
			<stop  offset="0.8325" style="stop-color:#B8B8B8"/>
			<stop  offset="0.9387" style="stop-color:#A7A7A7"/>
			<stop  offset="1" style="stop-color:#999999"/>
		</radialGradient>
		<path class="st2" d="M28.66,11.65l0.83-2.81c0.07-0.23,0.31-0.36,0.55-0.3l0.24,0.07c0.23,0.07,0.36,0.31,0.3,0.55l-0.83,2.81
			c-0.07,0.23-0.31,0.36-0.55,0.3l-0.24-0.07C28.72,12.12,28.59,11.88,28.66,11.65z"/>
		<radialGradient id="SVGID_3_" cx="27.4791" cy="9.8709" r="1.4571" gradientUnits="userSpaceOnUse">
			<stop  offset="0" style="stop-color:#CCCCCC"/>
			<stop  offset="0.5149" style="stop-color:#CACACA"/>
			<stop  offset="0.7003" style="stop-color:#C3C3C3"/>
			<stop  offset="0.8325" style="stop-color:#B8B8B8"/>
			<stop  offset="0.9387" style="stop-color:#A7A7A7"/>
			<stop  offset="1" style="stop-color:#999999"/>
		</radialGradient>
		<path class="st3" d="M26.7,11.23l0.45-2.89c0.04-0.24,0.26-0.4,0.5-0.37l0.25,0.04c0.24,0.04,0.4,0.26,0.37,0.5l-0.45,2.89
			c-0.04,0.24-0.26,0.4-0.5,0.37l-0.25-0.04C26.82,11.69,26.66,11.47,26.7,11.23z"/>
		<radialGradient id="SVGID_4_" cx="25.4506" cy="9.6574" r="1.4269" gradientUnits="userSpaceOnUse">
			<stop  offset="0" style="stop-color:#CCCCCC"/>
			<stop  offset="0.5149" style="stop-color:#CACACA"/>
			<stop  offset="0.7003" style="stop-color:#C3C3C3"/>
			<stop  offset="0.8325" style="stop-color:#B8B8B8"/>
			<stop  offset="0.9387" style="stop-color:#A7A7A7"/>
			<stop  offset="1" style="stop-color:#999999"/>
		</radialGradient>
		<path class="st4" d="M24.79,11.08l0.19-2.92c0.02-0.24,0.22-0.42,0.47-0.41l0.25,0.02c0.24,0.02,0.42,0.22,0.41,0.47l-0.19,2.92
			c-0.02,0.24-0.22,0.42-0.47,0.41l-0.25-0.02C24.96,11.53,24.78,11.32,24.79,11.08z"/>
		<radialGradient id="SVGID_5_" cx="23.4221" cy="9.6574" r="1.4392" gradientUnits="userSpaceOnUse">
			<stop  offset="0" style="stop-color:#CCCCCC"/>
			<stop  offset="0.5149" style="stop-color:#CACACA"/>
			<stop  offset="0.7003" style="stop-color:#C3C3C3"/>
			<stop  offset="0.8325" style="stop-color:#B8B8B8"/>
			<stop  offset="0.9387" style="stop-color:#A7A7A7"/>
			<stop  offset="1" style="stop-color:#999999"/>
		</radialGradient>
		<path class="st5" d="M23.01,11.17l-0.3-2.91c-0.02-0.24,0.15-0.46,0.39-0.48l0.25-0.03c0.24-0.02,0.46,0.15,0.48,0.39l0.3,2.91
			c0.02,0.24-0.15,0.46-0.39,0.48l-0.25,0.03C23.25,11.59,23.03,11.41,23.01,11.17z"/>
		<radialGradient id="SVGID_6_" cx="21.5004" cy="10.0845" r="1.5085" gradientUnits="userSpaceOnUse">
			<stop  offset="0" style="stop-color:#CCCCCC"/>
			<stop  offset="0.5149" style="stop-color:#CACACA"/>
			<stop  offset="0.7003" style="stop-color:#C3C3C3"/>
			<stop  offset="0.8325" style="stop-color:#B8B8B8"/>
			<stop  offset="0.9387" style="stop-color:#A7A7A7"/>
			<stop  offset="1" style="stop-color:#999999"/>
		</radialGradient>
		<path class="st6" d="M21.46,11.65l-0.98-2.76c-0.08-0.23,0.04-0.48,0.27-0.56l0.24-0.08c0.23-0.08,0.48,0.04,0.56,0.27l0.98,2.76
			c0.08,0.23-0.04,0.48-0.27,0.56l-0.24,0.08C21.79,12,21.54,11.88,21.46,11.65z"/>
		<radialGradient id="SVGID_7_" cx="19.8521" cy="10.9985" r="1.5505" gradientUnits="userSpaceOnUse">
			<stop  offset="0" style="stop-color:#CCCCCC"/>
			<stop  offset="0.5149" style="stop-color:#CACACA"/>
			<stop  offset="0.7003" style="stop-color:#C3C3C3"/>
			<stop  offset="0.8325" style="stop-color:#B8B8B8"/>
			<stop  offset="0.9387" style="stop-color:#A7A7A7"/>
			<stop  offset="1" style="stop-color:#999999"/>
		</radialGradient>
		<path class="st7" d="M20.19,12.53l-1.61-2.44c-0.13-0.2-0.08-0.47,0.12-0.61l0.21-0.14c0.2-0.13,0.47-0.08,0.61,0.12l1.61,2.44
			c0.13,0.2,0.08,0.47-0.12,0.61l-0.21,0.14C20.59,12.79,20.32,12.73,20.19,12.53z"/>
		<radialGradient id="SVGID_8_" cx="18.3677" cy="12.3265" r="1.6921" gradientUnits="userSpaceOnUse">
			<stop  offset="0" style="stop-color:#CCCCCC"/>
			<stop  offset="0.5149" style="stop-color:#CACACA"/>
			<stop  offset="0.7003" style="stop-color:#C3C3C3"/>
			<stop  offset="0.8325" style="stop-color:#B8B8B8"/>
			<stop  offset="0.9387" style="stop-color:#A7A7A7"/>
			<stop  offset="1" style="stop-color:#999999"/>
		</radialGradient>
		<path class="st8" d="M19.43,13.75l-2.83-1.95c-0.12-0.08-0.15-0.24-0.06-0.36l0.39-0.5c0.09-0.11,0.26-0.14,0.38-0.05l2.83,1.95
			c0.12,0.08,0.15,0.24,0.06,0.36l-0.39,0.5C19.72,13.81,19.55,13.84,19.43,13.75z"/>
		<radialGradient id="SVGID_9_" cx="17.3435" cy="13.9279" r="1.6575" gradientUnits="userSpaceOnUse">
			<stop  offset="0" style="stop-color:#CCCCCC"/>
			<stop  offset="0.5149" style="stop-color:#CACACA"/>
			<stop  offset="0.7003" style="stop-color:#C3C3C3"/>
			<stop  offset="0.8325" style="stop-color:#B8B8B8"/>
			<stop  offset="0.9387" style="stop-color:#A7A7A7"/>
			<stop  offset="1" style="stop-color:#999999"/>
		</radialGradient>
		<path class="st9" d="M18.7,15.11l-3.21-1.34c-0.14-0.06-0.2-0.21-0.14-0.34l0.27-0.56c0.06-0.13,0.22-0.19,0.36-0.13l3.21,1.34
			c0.14,0.06,0.2,0.21,0.14,0.34l-0.27,0.56C19,15.11,18.84,15.17,18.7,15.11z"/>
		<radialGradient id="SVGID_10_" cx="24.4815" cy="23.8877" r="1.5114" gradientUnits="userSpaceOnUse">
			<stop  offset="0" style="stop-color:#CCCCCC"/>
			<stop  offset="0.5149" style="stop-color:#CACACA"/>
			<stop  offset="0.7003" style="stop-color:#C3C3C3"/>
			<stop  offset="0.8325" style="stop-color:#B8B8B8"/>
			<stop  offset="0.9387" style="stop-color:#A7A7A7"/>
			<stop  offset="1" style="stop-color:#999999"/>
		</radialGradient>
		<path class="st10" d="M24.46,22.32l-1.01,2.75c-0.08,0.23,0.03,0.48,0.26,0.56l0.23,0.09c0.23,0.08,0.48-0.03,0.56-0.26l1.01-2.75
			c0.08-0.23-0.03-0.48-0.26-0.56l-0.23-0.09C24.79,21.98,24.54,22.09,24.46,22.32z"/>
		<radialGradient id="SVGID_11_" cx="22.4511" cy="23.2517" r="1.5241" gradientUnits="userSpaceOnUse">
			<stop  offset="0" style="stop-color:#CCCCCC"/>
			<stop  offset="0.5149" style="stop-color:#CACACA"/>
			<stop  offset="0.7003" style="stop-color:#C3C3C3"/>
			<stop  offset="0.8325" style="stop-color:#B8B8B8"/>
			<stop  offset="0.9387" style="stop-color:#A7A7A7"/>
			<stop  offset="1" style="stop-color:#999999"/>
		</radialGradient>
		<path class="st11" d="M22.52,21.69l-1.17,2.68c-0.1,0.22,0,0.48,0.23,0.58l0.23,0.1c0.22,0.1,0.48,0,0.58-0.23l1.17-2.68
			c0.1-0.22,0-0.48-0.23-0.58l-0.23-0.1C22.88,21.36,22.62,21.46,22.52,21.69z"/>
		<radialGradient id="SVGID_12_" cx="20.5911" cy="22.423" r="1.5496" gradientUnits="userSpaceOnUse">
			<stop  offset="0" style="stop-color:#CCCCCC"/>
			<stop  offset="0.5149" style="stop-color:#CACACA"/>
			<stop  offset="0.7003" style="stop-color:#C3C3C3"/>
			<stop  offset="0.8325" style="stop-color:#B8B8B8"/>
			<stop  offset="0.9387" style="stop-color:#A7A7A7"/>
			<stop  offset="1" style="stop-color:#999999"/>
		</radialGradient>
		<path class="st12" d="M20.91,20.89l-1.59,2.46c-0.13,0.2-0.07,0.47,0.13,0.61l0.21,0.14c0.2,0.13,0.47,0.07,0.61-0.13l1.59-2.46
			c0.13-0.2,0.07-0.47-0.13-0.61l-0.21-0.14C21.32,20.63,21.05,20.69,20.91,20.89z"/>
		<radialGradient id="SVGID_13_" cx="18.9655" cy="21.4231" r="1.5596" gradientUnits="userSpaceOnUse">
			<stop  offset="0" style="stop-color:#CCCCCC"/>
			<stop  offset="0.5149" style="stop-color:#CACACA"/>
			<stop  offset="0.7003" style="stop-color:#C3C3C3"/>
			<stop  offset="0.8325" style="stop-color:#B8B8B8"/>
			<stop  offset="0.9387" style="stop-color:#A7A7A7"/>
			<stop  offset="1" style="stop-color:#999999"/>
		</radialGradient>
		<path class="st13" d="M19.48,19.94l-1.88,2.24c-0.16,0.19-0.13,0.46,0.05,0.62l0.19,0.16c0.19,0.16,0.46,0.13,0.62-0.05l1.88-2.24
			c0.16-0.19,0.13-0.46-0.05-0.62l-0.19-0.16C19.91,19.73,19.63,19.76,19.48,19.94z"/>
		<radialGradient id="SVGID_14_" cx="17.5742" cy="19.9314" r="1.544" gradientUnits="userSpaceOnUse">
			<stop  offset="0" style="stop-color:#CCCCCC"/>
			<stop  offset="0.5149" style="stop-color:#CACACA"/>
			<stop  offset="0.7003" style="stop-color:#C3C3C3"/>
			<stop  offset="0.8325" style="stop-color:#B8B8B8"/>
			<stop  offset="0.9387" style="stop-color:#A7A7A7"/>
			<stop  offset="1" style="stop-color:#999999"/>
		</radialGradient>
		<path class="st14" d="M18.55,18.7l-2.52,1.48c-0.21,0.12-0.28,0.39-0.16,0.6L16,21c0.12,0.21,0.39,0.28,0.6,0.16l2.52-1.48
			c0.21-0.12,0.28-0.39,0.16-0.6l-0.13-0.22C19.03,18.65,18.76,18.58,18.55,18.7z"/>
		<radialGradient id="SVGID_15_" cx="17.015" cy="18.0203" r="1.5889" gradientUnits="userSpaceOnUse">
			<stop  offset="0" style="stop-color:#CCCCCC"/>
			<stop  offset="0.5149" style="stop-color:#CACACA"/>
			<stop  offset="0.7003" style="stop-color:#C3C3C3"/>
			<stop  offset="0.8325" style="stop-color:#B8B8B8"/>
			<stop  offset="0.9387" style="stop-color:#A7A7A7"/>
			<stop  offset="1" style="stop-color:#999999"/>
		</radialGradient>
		<path class="st15" d="M18.53,17.05l-3.34,0.86c-0.14,0.04-0.23,0.18-0.19,0.31l0.17,0.58c0.04,0.14,0.19,0.22,0.33,0.18l3.34-0.86
			c0.14-0.04,0.23-0.18,0.19-0.31l-0.17-0.58C18.82,17.1,18.67,17.02,18.53,17.05z"/>
		<radialGradient id="SVGID_16_" cx="16.7644" cy="15.9769" r="1.4935" gradientUnits="userSpaceOnUse">
			<stop  offset="0" style="stop-color:#CCCCCC"/>
			<stop  offset="0.5149" style="stop-color:#CACACA"/>
			<stop  offset="0.7003" style="stop-color:#C3C3C3"/>
			<stop  offset="0.8325" style="stop-color:#B8B8B8"/>
			<stop  offset="0.9387" style="stop-color:#A7A7A7"/>
			<stop  offset="1" style="stop-color:#999999"/>
		</radialGradient>
		<path class="st16" d="M18.52,15.5l-3.46-0.16c-0.15-0.01-0.28,0.1-0.28,0.24l-0.03,0.6c-0.01,0.14,0.11,0.26,0.26,0.27l3.46,0.16
			c0.15,0.01,0.28-0.1,0.28-0.24l0.03-0.6C18.79,15.63,18.67,15.51,18.52,15.5z"/>
		<radialGradient id="SVGID_17_" cx="19.6485" cy="38.6894" r="1.4725" gradientUnits="userSpaceOnUse">
			<stop  offset="0" style="stop-color:#CCCCCC"/>
			<stop  offset="0.5149" style="stop-color:#CACACA"/>
			<stop  offset="0.7003" style="stop-color:#C3C3C3"/>
			<stop  offset="0.8325" style="stop-color:#B8B8B8"/>
			<stop  offset="0.9387" style="stop-color:#A7A7A7"/>
			<stop  offset="1" style="stop-color:#999999"/>
		</radialGradient>
		<path class="st17" d="M20.5,37.37l-0.6,2.86c-0.05,0.24-0.28,0.39-0.52,0.34l-0.24-0.05c-0.24-0.05-0.39-0.28-0.34-0.52l0.6-2.86
			c0.05-0.24,0.28-0.39,0.52-0.34l0.24,0.05C20.4,36.9,20.55,37.13,20.5,37.37z"/>
		<radialGradient id="SVGID_18_" cx="21.6039" cy="38.9247" r="1.41" gradientUnits="userSpaceOnUse">
			<stop  offset="0" style="stop-color:#CCCCCC"/>
			<stop  offset="0.5149" style="stop-color:#CACACA"/>
			<stop  offset="0.7003" style="stop-color:#C3C3C3"/>
			<stop  offset="0.8325" style="stop-color:#B8B8B8"/>
			<stop  offset="0.9387" style="stop-color:#A7A7A7"/>
			<stop  offset="1" style="stop-color:#999999"/>
		</radialGradient>
		<path class="st18" d="M22.2,37.47l-0.06,2.93c0,0.24-0.2,0.43-0.45,0.43l-0.25,0c-0.24,0-0.43-0.2-0.43-0.45l0.06-2.93
			c0-0.24,0.2-0.43,0.45-0.43l0.25,0C22.01,37.03,22.2,37.23,22.2,37.47z"/>
		<radialGradient id="SVGID_19_" cx="23.5958" cy="38.9366" r="1.4188" gradientUnits="userSpaceOnUse">
			<stop  offset="0" style="stop-color:#CCCCCC"/>
			<stop  offset="0.5149" style="stop-color:#CACACA"/>
			<stop  offset="0.7003" style="stop-color:#C3C3C3"/>
			<stop  offset="0.8325" style="stop-color:#B8B8B8"/>
			<stop  offset="0.9387" style="stop-color:#A7A7A7"/>
			<stop  offset="1" style="stop-color:#999999"/>
		</radialGradient>
		<path class="st19" d="M24.09,37.45l0.13,2.92c0.01,0.24-0.18,0.45-0.42,0.46l-0.25,0.01c-0.24,0.01-0.45-0.18-0.46-0.42
			l-0.13-2.92c-0.01-0.24,0.18-0.45,0.42-0.46l0.25-0.01C23.88,37.02,24.08,37.21,24.09,37.45z"/>
		<radialGradient id="SVGID_20_" cx="25.5405" cy="38.5268" r="1.4792" gradientUnits="userSpaceOnUse">
			<stop  offset="0" style="stop-color:#CCCCCC"/>
			<stop  offset="0.5149" style="stop-color:#CACACA"/>
			<stop  offset="0.7003" style="stop-color:#C3C3C3"/>
			<stop  offset="0.8325" style="stop-color:#B8B8B8"/>
			<stop  offset="0.9387" style="stop-color:#A7A7A7"/>
			<stop  offset="1" style="stop-color:#999999"/>
		</radialGradient>
		<path class="st20" d="M25.76,36.97l0.66,2.85c0.05,0.24-0.09,0.47-0.33,0.53l-0.24,0.06c-0.24,0.05-0.47-0.09-0.53-0.33
			l-0.66-2.85c-0.05-0.24,0.09-0.47,0.33-0.53l0.24-0.06C25.47,36.59,25.7,36.74,25.76,36.97z"/>
		<radialGradient id="SVGID_21_" cx="27.5344" cy="37.7735" r="1.5348" gradientUnits="userSpaceOnUse">
			<stop  offset="0" style="stop-color:#CCCCCC"/>
			<stop  offset="0.5149" style="stop-color:#CACACA"/>
			<stop  offset="0.7003" style="stop-color:#C3C3C3"/>
			<stop  offset="0.8325" style="stop-color:#B8B8B8"/>
			<stop  offset="0.9387" style="stop-color:#A7A7A7"/>
			<stop  offset="1" style="stop-color:#999999"/>
		</radialGradient>
		<path class="st21" d="M27.37,36.21l1.33,2.61c0.11,0.22,0.02,0.48-0.19,0.59l-0.22,0.11c-0.22,0.11-0.48,0.02-0.59-0.19
			l-1.33-2.61c-0.11-0.22-0.02-0.48,0.19-0.59l0.22-0.11C27,35.91,27.26,36,27.37,36.21z"/>
		<radialGradient id="SVGID_22_" cx="29.1842" cy="36.4792" r="1.6849" gradientUnits="userSpaceOnUse">
			<stop  offset="0" style="stop-color:#CCCCCC"/>
			<stop  offset="0.5149" style="stop-color:#CACACA"/>
			<stop  offset="0.7003" style="stop-color:#C3C3C3"/>
			<stop  offset="0.8325" style="stop-color:#B8B8B8"/>
			<stop  offset="0.9387" style="stop-color:#A7A7A7"/>
			<stop  offset="1" style="stop-color:#999999"/>
		</radialGradient>
		<path class="st22" d="M28.31,34.95l2.56,2.23c0.11,0.1,0.12,0.26,0.02,0.36L30.44,38c-0.1,0.1-0.27,0.11-0.38,0.01l-2.56-2.23
			c-0.11-0.1-0.12-0.26-0.02-0.36l0.44-0.45C28.03,34.86,28.2,34.85,28.31,34.95z"/>
		<radialGradient id="SVGID_23_" cx="30.3803" cy="34.9952" r="1.6688" gradientUnits="userSpaceOnUse">
			<stop  offset="0" style="stop-color:#CCCCCC"/>
			<stop  offset="0.5149" style="stop-color:#CACACA"/>
			<stop  offset="0.7003" style="stop-color:#C3C3C3"/>
			<stop  offset="0.8325" style="stop-color:#B8B8B8"/>
			<stop  offset="0.9387" style="stop-color:#A7A7A7"/>
			<stop  offset="1" style="stop-color:#999999"/>
		</radialGradient>
		<path class="st23" d="M29.18,33.68l3,1.67c0.13,0.07,0.17,0.23,0.1,0.35l-0.33,0.53c-0.08,0.12-0.24,0.16-0.37,0.09l-3-1.67
			c-0.13-0.07-0.17-0.23-0.1-0.35l0.33-0.53C28.89,33.64,29.05,33.6,29.18,33.68z"/>
		<radialGradient id="SVGID_24_" cx="26.388" cy="24.6952" r="1.5432" gradientUnits="userSpaceOnUse">
			<stop  offset="0" style="stop-color:#CCCCCC"/>
			<stop  offset="0.5149" style="stop-color:#CACACA"/>
			<stop  offset="0.7003" style="stop-color:#C3C3C3"/>
			<stop  offset="0.8325" style="stop-color:#B8B8B8"/>
			<stop  offset="0.9387" style="stop-color:#A7A7A7"/>
			<stop  offset="1" style="stop-color:#999999"/>
		</radialGradient>
		<path class="st24" d="M26.14,26.24l1.47-2.53c0.12-0.21,0.05-0.48-0.16-0.6l-0.22-0.13c-0.21-0.12-0.48-0.05-0.6,0.16l-1.47,2.53
			c-0.12,0.21-0.05,0.48,0.16,0.6l0.22,0.13C25.75,26.53,26.02,26.45,26.14,26.24z"/>
		<radialGradient id="SVGID_25_" cx="28.1437" cy="25.7267" r="1.559" gradientUnits="userSpaceOnUse">
			<stop  offset="0" style="stop-color:#CCCCCC"/>
			<stop  offset="0.5149" style="stop-color:#CACACA"/>
			<stop  offset="0.7003" style="stop-color:#C3C3C3"/>
			<stop  offset="0.8325" style="stop-color:#B8B8B8"/>
			<stop  offset="0.9387" style="stop-color:#A7A7A7"/>
			<stop  offset="1" style="stop-color:#999999"/>
		</radialGradient>
		<path class="st25" d="M27.65,27.22l1.86-2.26c0.15-0.19,0.13-0.46-0.06-0.62l-0.19-0.16c-0.19-0.15-0.46-0.13-0.62,0.06
			l-1.86,2.26c-0.15,0.19-0.13,0.46,0.06,0.62l0.19,0.16C27.22,27.43,27.5,27.4,27.65,27.22z"/>
		<radialGradient id="SVGID_26_" cx="29.5588" cy="27.1155" r="1.6846" gradientUnits="userSpaceOnUse">
			<stop  offset="0" style="stop-color:#CCCCCC"/>
			<stop  offset="0.5149" style="stop-color:#CACACA"/>
			<stop  offset="0.7003" style="stop-color:#C3C3C3"/>
			<stop  offset="0.8325" style="stop-color:#B8B8B8"/>
			<stop  offset="0.9387" style="stop-color:#A7A7A7"/>
			<stop  offset="1" style="stop-color:#999999"/>
		</radialGradient>
		<path class="st26" d="M28.71,28.66l2.52-2.27c0.11-0.1,0.11-0.26,0.01-0.36l-0.45-0.45c-0.1-0.1-0.27-0.11-0.38-0.01l-2.52,2.27
			c-0.11,0.1-0.11,0.26-0.01,0.36l0.45,0.45C28.43,28.75,28.6,28.76,28.71,28.66z"/>
		<radialGradient id="SVGID_27_" cx="30.7289" cy="28.967" r="1.645" gradientUnits="userSpaceOnUse">
			<stop  offset="0" style="stop-color:#CCCCCC"/>
			<stop  offset="0.5149" style="stop-color:#CACACA"/>
			<stop  offset="0.7003" style="stop-color:#C3C3C3"/>
			<stop  offset="0.8325" style="stop-color:#B8B8B8"/>
			<stop  offset="0.9387" style="stop-color:#A7A7A7"/>
			<stop  offset="1" style="stop-color:#999999"/>
		</radialGradient>
		<path class="st27" d="M29.38,30.15l3.18-1.34c0.14-0.06,0.2-0.21,0.14-0.34l-0.27-0.56c-0.06-0.13-0.22-0.19-0.35-0.13l-3.18,1.34
			c-0.14,0.06-0.2,0.21-0.14,0.34l0.27,0.56C29.09,30.15,29.25,30.21,29.38,30.15z"/>
		<radialGradient id="SVGID_28_" cx="31.1739" cy="30.9825" r="1.6167" gradientUnits="userSpaceOnUse">
			<stop  offset="0" style="stop-color:#CCCCCC"/>
			<stop  offset="0.5149" style="stop-color:#CACACA"/>
			<stop  offset="0.7003" style="stop-color:#C3C3C3"/>
			<stop  offset="0.8325" style="stop-color:#B8B8B8"/>
			<stop  offset="0.9387" style="stop-color:#A7A7A7"/>
			<stop  offset="1" style="stop-color:#999999"/>
		</radialGradient>
		<path class="st28" d="M29.47,31.8l3.6-0.54c0.16-0.02,0.26-0.15,0.24-0.29l-0.1-0.6c-0.02-0.14-0.17-0.23-0.32-0.21l-3.6,0.54
			c-0.16,0.02-0.26,0.15-0.24,0.29l0.1,0.6C29.17,31.73,29.31,31.82,29.47,31.8z"/>
		<radialGradient id="SVGID_29_" cx="31.1915" cy="33.0197" r="1.5323" gradientUnits="userSpaceOnUse">
			<stop  offset="0" style="stop-color:#CCCCCC"/>
			<stop  offset="0.5149" style="stop-color:#CACACA"/>
			<stop  offset="0.7003" style="stop-color:#C3C3C3"/>
			<stop  offset="0.8325" style="stop-color:#B8B8B8"/>
			<stop  offset="0.9387" style="stop-color:#A7A7A7"/>
			<stop  offset="1" style="stop-color:#999999"/>
		</radialGradient>
		<path class="st29" d="M29.41,33.31l3.38,0.52c0.15,0.02,0.28-0.07,0.31-0.21l0.1-0.6c0.02-0.14-0.08-0.27-0.22-0.29l-3.38-0.52
			c-0.15-0.02-0.28,0.07-0.31,0.21l-0.1,0.6C29.16,33.16,29.26,33.29,29.41,33.31z"/>
		<radialGradient id="SVGID_30_" cx="15.9488" cy="37.9045" r="0" gradientUnits="userSpaceOnUse">
			<stop  offset="0" style="stop-color:#CCCCCC"/>
			<stop  offset="0.5149" style="stop-color:#CACACA"/>
			<stop  offset="0.7003" style="stop-color:#C3C3C3"/>
			<stop  offset="0.8325" style="stop-color:#B8B8B8"/>
			<stop  offset="0.9387" style="stop-color:#A7A7A7"/>
			<stop  offset="1" style="stop-color:#999999"/>
		</radialGradient>
		<path class="st30" d="M15.95,37.9"/>
		<radialGradient id="SVGID_31_" cx="17.8203" cy="38.3629" r="1.491" gradientUnits="userSpaceOnUse">
			<stop  offset="0" style="stop-color:#CCCCCC"/>
			<stop  offset="0.5149" style="stop-color:#CACACA"/>
			<stop  offset="0.7003" style="stop-color:#C3C3C3"/>
			<stop  offset="0.8325" style="stop-color:#B8B8B8"/>
			<stop  offset="0.9387" style="stop-color:#A7A7A7"/>
			<stop  offset="1" style="stop-color:#999999"/>
		</radialGradient>
		<path class="st31" d="M18.76,37.1l-0.78,2.82c-0.06,0.23-0.31,0.37-0.54,0.31l-0.24-0.07c-0.23-0.06-0.37-0.31-0.31-0.54
			l0.78-2.82c0.06-0.23,0.31-0.37,0.54-0.31l0.24,0.07C18.68,36.63,18.82,36.87,18.76,37.1z"/>
		<radialGradient id="SVGID_32_" cx="16.0681" cy="37.9956" r="1.491" gradientUnits="userSpaceOnUse">
			<stop  offset="0" style="stop-color:#CCCCCC"/>
			<stop  offset="0.5149" style="stop-color:#CACACA"/>
			<stop  offset="0.7003" style="stop-color:#C3C3C3"/>
			<stop  offset="0.8325" style="stop-color:#B8B8B8"/>
			<stop  offset="0.9387" style="stop-color:#A7A7A7"/>
			<stop  offset="1" style="stop-color:#999999"/>
		</radialGradient>
		<path class="st32" d="M17,36.74l-0.78,2.82c-0.06,0.23-0.31,0.37-0.54,0.31l-0.24-0.07c-0.23-0.06-0.37-0.31-0.31-0.54l0.78-2.82
			c0.06-0.23,0.31-0.37,0.54-0.31l0.24,0.07C16.93,36.26,17.07,36.5,17,36.74z"/>
	</g>
</g>
</svg>
