<?xml version="1.0" encoding="utf-8"?>
<!-- Generator: Adobe Illustrator 24.1.2, SVG Export Plug-In . SVG Version: 6.00 Build 0)  -->
<svg version="1.1" id="Layer_1" xmlns="http://www.w3.org/2000/svg" xmlns:xlink="http://www.w3.org/1999/xlink" x="0px" y="0px"
	 viewBox="0 0 320 214" style="enable-background:new 0 0 320 214;" xml:space="preserve">
<style type="text/css">
	.st0{fill:#FFFFFF;}
	.st1{fill:none;stroke:#000000;stroke-width:0.823;stroke-miterlimit:10;}
	.st2{fill:none;stroke:#E52A29;stroke-width:1.0974;stroke-miterlimit:10;}
	.st3{fill:none;}
	.st4{fill:none;stroke:#000000;stroke-width:0.5487;stroke-miterlimit:10;}
	.st5{fill:#231F20;}
	.st6{fill:#FFFFFF;stroke:#000000;stroke-width:0.823;stroke-miterlimit:10;}
	.st7{fill:none;stroke:#000000;stroke-width:0.2743;stroke-miterlimit:10;}
	.st8{fill:none;stroke:#000000;stroke-width:0.2743;stroke-miterlimit:10;stroke-dasharray:2.0636,2.0636;}
	.st9{fill:none;stroke:#000000;stroke-width:0.2743;stroke-miterlimit:10;stroke-dasharray:2.1374,2.1374;}
	.st10{fill:none;stroke:#000000;stroke-width:0.2743;stroke-miterlimit:10;stroke-dasharray:2.2034,2.2034;}
	.st11{fill:none;stroke:#000000;stroke-width:0.2743;stroke-miterlimit:10;stroke-dasharray:9.888758e-03,2.1506,9.888758e-03,0;}
	
		.st12{fill:none;stroke:#000000;stroke-width:0.2743;stroke-miterlimit:10;stroke-dasharray:2.1703,0,9.888758e-03,2.1506,9.888758e-03,0;}
	.st13{fill:none;stroke:#5FBA47;stroke-width:1.0974;stroke-miterlimit:10;}
</style>
<rect x="0.2" class="st0" width="319.8" height="214"/>
<g>
	<g>
		<polyline class="st1" points="62.4,8.8 62.4,127.3 277.8,127.3 		"/>
		<g>
			<path d="M62.4,10.3l3,1.8l0.1-0.1l-1.9-4.8c-0.4-1.7-0.7-3.4-1.1-5.1c-0.4,1.7-0.7,3.4-1.1,5.1L59.4,12l0.1,0.1L62.4,10.3z"/>
		</g>
		<g>
			<path d="M276.4,127.3l-1.8-3l0.1-0.1l4.8,1.9c1.7,0.4,3.4,0.7,5.1,1.1c-1.7,0.4-3.4,0.7-5.1,1.1l-4.8,1.9l-0.1-0.1L276.4,127.3z"
				/>
		</g>
	</g>
</g>
<polyline class="st2" points="281.1,46.2 254.1,46.1 254.1,25 235.3,25 235.3,46.1 144.8,46.1 144.8,67.4 126.7,67.4 126.7,92.6 
	108.9,92.6 108.9,111.7 83.9,111.7 83.9,67.4 62.4,67.4 "/>
<g>
	<path class="st3" d="M62.4,127.3"/>
</g>
<g>
	<path class="st3" d="M84,111.7"/>
</g>
<g>
	<path class="st4" d="M144.6,201.4v11.8H217c8.5,0,8.5-3.9,8.5-5.8c0-1.7,0-6-8.5-6C186.7,201.1,175,201.6,144.6,201.4z"/>
	<path class="st4" d="M144.6,207.3v-1.8V207.3z"/>
	<path class="st4" d="M144.6,207.3"/>
	<path class="st4" d="M144.6,207.3v1.8V207.3z"/>
	<path class="st4" d="M142.9,207.3"/>
	<path class="st4" d="M144.6,207.3"/>
</g>
<g>
	<path class="st4" d="M126.6,180.4v11.8H199c8.5,0,8.5-3.9,8.5-5.8c0-1.7,0-6-8.5-6C168.7,180.2,157,180.7,126.6,180.4z"/>
	<path class="st4" d="M126.6,186.3v-1.8V186.3z"/>
	<path class="st4" d="M126.6,186.3"/>
	<path class="st4" d="M126.6,186.3v1.8V186.3z"/>
	<path class="st4" d="M124.9,186.3"/>
	<path class="st4" d="M126.6,186.3"/>
</g>
<g>
	<path class="st4" d="M108.9,158.4v11.8h72.3c8.5,0,8.5-3.9,8.5-5.8c0-1.7,0-6-8.5-6C150.9,158.1,139.2,158.6,108.9,158.4z"/>
	<path class="st4" d="M108.9,164.2v-1.8V164.2z"/>
	<path class="st4" d="M108.9,164.2"/>
	<path class="st4" d="M108.9,164.2v1.8V164.2z"/>
	<path class="st4" d="M107.2,164.2"/>
	<path class="st4" d="M108.9,164.2"/>
</g>
<g>
	<path class="st4" d="M3.3,137.3v11.8h72.3c8.5,0,8.5-3.9,8.5-5.8c0-1.7,0-6-8.5-6C45.3,137,33.6,137.5,3.3,137.3z"/>
	<path class="st4" d="M3.3,143.2v-1.8V143.2z"/>
	<path class="st4" d="M3.3,143.2"/>
	<path class="st4" d="M3.3,143.2v1.8V143.2z"/>
	<path class="st4" d="M1.6,143.2"/>
	<path class="st4" d="M3.3,143.2"/>
</g>
<g>
	<g>
		<path d="M75.6,7.8V1h0.9v0.3h-0.7v6.2h0.7v0.3H75.6z"/>
		<path d="M79.7,6.1c-0.2,0-0.4,0-0.7,0V5.9c0.1,0,0.1,0,0.1,0c0,0,0.1,0,0.1-0.1c0,0,0-0.1,0-0.2c0-0.1-0.1-0.1-0.1-0.2l-0.7-0.9
			L78,4.9v0.8c0,0,0,0.1,0,0.1c0,0,0,0.1,0.1,0.1c0,0,0.1,0,0.2,0c0.1,0,0.2,0,0.2,0v0.2c-0.5,0-1,0-1.5,0V5.9c0.1,0,0.2,0,0.2,0
			c0.1,0,0.2,0,0.2,0c0,0,0.1,0,0.1-0.1c0,0,0-0.1,0-0.1V2.1c0-0.1,0-0.1,0-0.2s0-0.1-0.1-0.1c0,0-0.1,0-0.2-0.1c-0.1,0-0.2,0-0.2,0
			V1.5l1-0.1v3.2l1-0.8c0,0,0.1-0.1,0.1-0.1c0,0,0-0.1,0-0.2c0,0,0-0.1-0.1-0.1c0,0-0.1,0-0.1,0V3.2c0.3,0,0.5,0,0.8,0
			c0.1,0,0.2,0,0.2,0c0.1,0,0.2,0,0.2,0v0.2c-0.1,0-0.3,0-0.5,0.1c-0.1,0-0.2,0.1-0.3,0.1s-0.2,0.1-0.2,0.2l-0.5,0.4l0.9,1.2
			c0.1,0.1,0.1,0.1,0.2,0.2s0.1,0.1,0.2,0.2c0.1,0,0.1,0.1,0.2,0.1c0.1,0,0.1,0,0.2,0v0.2C80.2,6.1,79.9,6.1,79.7,6.1z"/>
		<path d="M85.3,6.1c-0.3,0-0.5,0-0.8,0V5.9c0.1,0,0.2,0,0.2,0c0.1,0,0.2,0,0.2,0c0,0,0.1,0,0.1-0.1c0,0,0-0.1,0-0.1V4
			c0-0.1,0-0.2,0-0.3c0-0.1,0-0.2-0.1-0.3c0-0.1-0.1-0.1-0.2-0.1c-0.1,0-0.1,0-0.2,0c-0.1,0-0.3,0-0.4,0.1c-0.1,0.1-0.2,0.1-0.3,0.2
			c-0.1,0.1-0.1,0.2-0.2,0.3c0,0.1-0.1,0.3-0.1,0.4v1.3c0,0,0,0.1,0,0.1c0,0,0,0.1,0.1,0.1c0,0,0.1,0,0.2,0c0.1,0,0.2,0,0.2,0v0.2
			c-0.3,0-0.5,0-0.8,0c-0.3,0-0.5,0-0.8,0V5.9c0.1,0,0.2,0,0.2,0c0.1,0,0.2,0,0.2,0c0,0,0.1,0,0.1-0.1s0-0.1,0-0.1V4
			c0-0.1,0-0.2,0-0.3c0-0.1,0-0.2-0.1-0.3c0-0.1-0.1-0.1-0.2-0.1s-0.1,0-0.2,0c-0.1,0-0.3,0-0.4,0.1c-0.1,0.1-0.2,0.1-0.3,0.2
			s-0.1,0.2-0.2,0.3c0,0.1-0.1,0.3-0.1,0.4v1.3c0,0,0,0.1,0,0.1c0,0,0,0.1,0.1,0.1c0,0,0.1,0,0.2,0c0.1,0,0.2,0,0.2,0v0.2
			c-0.1,0-0.2,0-0.3,0c-0.1,0-0.2,0-0.3,0h-0.2c-0.3,0-0.5,0-0.8,0V5.9c0.1,0,0.2,0,0.2,0c0.1,0,0.2,0,0.2,0c0,0,0.1,0,0.1-0.1
			c0,0,0-0.1,0-0.1V3.8c0-0.1,0-0.1,0-0.2c0-0.1,0-0.1-0.1-0.1c0,0-0.1,0-0.2-0.1c-0.1,0-0.2,0-0.2,0V3.2l0.6,0l0.4,0v0.1v0.6
			c0.1-0.2,0.2-0.4,0.4-0.5c0.2-0.1,0.4-0.2,0.6-0.2c0.1,0,0.3,0,0.4,0c0.1,0,0.2,0.1,0.3,0.2c0.1,0.1,0.1,0.1,0.1,0.2
			c0,0.1,0.1,0.1,0.1,0.2c0.1-0.2,0.2-0.4,0.4-0.5c0.2-0.1,0.4-0.2,0.6-0.2c0.1,0,0.3,0,0.4,0c0.1,0,0.2,0.1,0.3,0.2
			c0.1,0.1,0.2,0.2,0.2,0.3c0,0.1,0,0.2,0,0.4v1.6c0,0,0,0.1,0,0.1c0,0,0,0.1,0.1,0.1c0,0,0.1,0,0.2,0c0.1,0,0.2,0,0.2,0v0.2
			C85.8,6.1,85.6,6.1,85.3,6.1z"/>
		<path d="M86.9,7.7C86.9,7.7,86.9,7.8,86.9,7.7c-0.1,0.1-0.1,0.1-0.2,0.1c-0.1,0-0.1-0.1-0.1-0.2L89,1.1c0,0,0-0.1,0.1-0.1
			c0,0,0.1,0,0.1,0c0.1,0,0.1,0.1,0.1,0.2L86.9,7.7z"/>
		<path d="M92.6,6.1c-0.3,0-0.5,0-0.8,0V5.9c0.1,0,0.2,0,0.2,0c0.1,0,0.2,0,0.2,0c0,0,0.1,0,0.1-0.1c0,0,0-0.1,0-0.1V4
			c0-0.1,0-0.2,0-0.3c0-0.1,0-0.2-0.1-0.3c0-0.1-0.1-0.1-0.2-0.1s-0.1,0-0.2,0c-0.1,0-0.3,0-0.4,0.1c-0.1,0.1-0.2,0.1-0.3,0.2
			S91,3.8,91,3.9c0,0.1-0.1,0.3-0.1,0.4v1.3c0,0,0,0.1,0,0.1c0,0,0,0.1,0.1,0.1c0,0,0.1,0,0.2,0c0.1,0,0.2,0,0.2,0v0.2
			c-0.1,0-0.2,0-0.3,0c-0.1,0-0.2,0-0.3,0h-0.2c-0.3,0-0.5,0-0.8,0V5.9c0.1,0,0.2,0,0.2,0c0.1,0,0.2,0,0.2,0c0,0,0.1,0,0.1-0.1
			c0,0,0-0.1,0-0.1V2.1c0-0.1,0-0.1,0-0.2c0-0.1,0-0.1-0.1-0.1c0,0-0.1,0-0.2-0.1c-0.1,0-0.2,0-0.2,0V1.5l0.6,0l0.4,0v0.1v2.3
			c0.1-0.2,0.2-0.4,0.4-0.5c0.2-0.1,0.4-0.2,0.6-0.2c0.1,0,0.2,0,0.4,0c0.1,0,0.2,0.1,0.3,0.2c0.1,0.1,0.2,0.2,0.2,0.3
			c0,0.1,0,0.2,0,0.4v1.6c0,0,0,0.1,0,0.1c0,0,0,0.1,0.1,0.1c0,0,0.1,0,0.2,0c0.1,0,0.2,0,0.2,0v0.2C93.1,6.1,92.8,6.1,92.6,6.1z"/>
		<path d="M93.9,7.8V7.5h0.7V1.3h-0.7V1h0.9v6.8H93.9z"/>
	</g>
	<g>
		<path d="M72.3,5.5c0,0.1-0.1,0.2-0.1,0.3S72.1,6,72,6.1c-0.1,0.1-0.2,0.1-0.3,0.1c-0.1,0-0.3,0-0.4-0.1s-0.2-0.2-0.2-0.3
			C71,5.9,70.9,6,70.8,6.1c-0.1,0.1-0.3,0.1-0.4,0.1c-0.1,0-0.3,0-0.4-0.1C69.9,6,69.8,6,69.7,5.8c-0.1-0.1-0.1-0.3-0.1-0.4
			c0-0.2,0-0.3,0.1-0.5c0-0.1,0.1-0.3,0.2-0.5S70,4.1,70,3.9c0.1-0.2,0.1-0.3,0.1-0.5S70.1,3.3,70,3.3c-0.1,0-0.2,0-0.2,0.1
			s-0.1,0.1-0.2,0.2s-0.1,0.2-0.1,0.3c0,0.1-0.1,0.2-0.1,0.3c0,0,0,0.1-0.1,0.1h-0.1c0,0-0.1,0,0-0.1c0-0.1,0.1-0.2,0.1-0.4
			c0.1-0.1,0.1-0.2,0.2-0.3s0.2-0.2,0.3-0.2s0.2-0.1,0.3-0.1c0.1,0,0.2,0,0.3,0.1c0.1,0,0.1,0.1,0.2,0.2c0,0.1,0.1,0.2,0.1,0.3
			c0,0.1,0,0.2-0.1,0.3c-0.1,0.2-0.1,0.3-0.2,0.5c-0.1,0.2-0.1,0.3-0.2,0.5c0,0.1-0.1,0.3-0.1,0.4c0,0.1,0,0.3,0,0.4
			c0,0.1,0.1,0.1,0.1,0.2C70.3,6,70.3,6,70.4,6c0.2,0,0.3,0,0.4-0.1c0.1-0.1,0.2-0.2,0.3-0.4c0,0,0,0,0-0.1s0,0,0-0.1l0.5-2
			c0-0.1,0.1-0.1,0.1-0.2c0.1,0,0.1-0.1,0.2-0.1s0.1,0,0.1,0.1s0,0.1,0,0.2l-0.5,2c-0.1,0.2-0.1,0.3-0.1,0.5C71.6,6,71.6,6,71.7,6
			c0.1,0,0.2-0.1,0.3-0.3c0.1-0.2,0.1-0.4,0.2-0.6c0,0,0-0.1,0.1-0.1h0.1c0,0,0,0,0,0c0,0,0,0,0,0C72.4,5.2,72.4,5.3,72.3,5.5z"/>
	</g>
</g>
<g>
	<g>
		<path d="M283.5,121.7V115h1v0.3h-0.7v6.2h0.7v0.3H283.5z"/>
		<path d="M289.5,120c-0.3,0-0.5,0-0.8,0v-0.2c0.1,0,0.2,0,0.2,0c0.1,0,0.2,0,0.2,0c0,0,0.1,0,0.1-0.1c0,0,0-0.1,0-0.1V118
			c0-0.1,0-0.2,0-0.3s0-0.2-0.1-0.3c0-0.1-0.1-0.1-0.2-0.1s-0.1,0-0.2,0c-0.1,0-0.3,0-0.4,0.1c-0.1,0.1-0.2,0.1-0.3,0.2
			s-0.1,0.2-0.2,0.3c0,0.1-0.1,0.3-0.1,0.4v1.3c0,0,0,0.1,0,0.1s0,0.1,0.1,0.1c0,0,0.1,0,0.2,0c0.1,0,0.2,0,0.2,0v0.2
			c-0.3,0-0.5,0-0.8,0c-0.3,0-0.5,0-0.8,0v-0.2c0.1,0,0.2,0,0.2,0c0.1,0,0.2,0,0.2,0c0,0,0.1,0,0.1-0.1c0,0,0-0.1,0-0.1V118
			c0-0.1,0-0.2,0-0.3s0-0.2-0.1-0.3c0-0.1-0.1-0.1-0.2-0.1s-0.1,0-0.2,0c-0.1,0-0.3,0-0.4,0.1c-0.1,0.1-0.2,0.1-0.3,0.2
			c-0.1,0.1-0.1,0.2-0.2,0.3c0,0.1-0.1,0.3-0.1,0.4v1.3c0,0,0,0.1,0,0.1c0,0,0,0.1,0.1,0.1c0,0,0.1,0,0.2,0c0.1,0,0.2,0,0.2,0v0.2
			c-0.1,0-0.2,0-0.3,0c-0.1,0-0.2,0-0.3,0h-0.2c-0.3,0-0.5,0-0.8,0v-0.2c0.1,0,0.2,0,0.2,0c0.1,0,0.2,0,0.2,0c0,0,0.1,0,0.1-0.1
			s0-0.1,0-0.1v-1.9c0-0.1,0-0.1,0-0.2c0-0.1,0-0.1-0.1-0.1c0,0-0.1,0-0.2-0.1c-0.1,0-0.2,0-0.2,0v-0.2l0.6,0l0.4,0v0.1v0.6
			c0.1-0.2,0.2-0.4,0.4-0.5s0.4-0.2,0.6-0.2c0.1,0,0.3,0,0.4,0s0.2,0.1,0.3,0.2c0.1,0.1,0.1,0.1,0.1,0.2s0.1,0.1,0.1,0.2
			c0.1-0.2,0.2-0.4,0.4-0.5c0.2-0.1,0.4-0.2,0.6-0.2c0.1,0,0.3,0,0.4,0s0.2,0.1,0.3,0.2c0.1,0.1,0.2,0.2,0.2,0.3c0,0.1,0,0.2,0,0.4
			v1.6c0,0,0,0.1,0,0.1s0,0.1,0.1,0.1c0,0,0.1,0,0.2,0c0.1,0,0.2,0,0.2,0v0.2C290,120,289.8,120,289.5,120z"/>
		<path d="M290.9,121.7v-0.3h0.7v-6.2h-0.7V115h0.9v6.8H290.9z"/>
	</g>
	<g>
		<path d="M279.5,119.3c-0.1,0.2-0.1,0.3-0.1,0.5s0.1,0.2,0.2,0.2c0.1,0,0.1,0,0.2-0.1s0.1-0.1,0.1-0.2s0.1-0.2,0.1-0.3
			c0-0.1,0.1-0.2,0.1-0.4c0,0,0-0.1,0.1-0.1h0.1c0,0,0.1,0,0.1,0.1c0,0.1-0.1,0.2-0.1,0.3c0,0.1-0.1,0.2-0.1,0.3
			c-0.1,0.1-0.1,0.2-0.2,0.3c-0.1,0.1-0.2,0.1-0.3,0.1c-0.2,0-0.3,0-0.4-0.1s-0.2-0.2-0.2-0.3c-0.1,0.1-0.2,0.2-0.4,0.3
			s-0.3,0.1-0.5,0.1c-0.2,0-0.3,0-0.4-0.1c-0.1-0.1-0.2-0.2-0.3-0.3c-0.1-0.2-0.1-0.3-0.1-0.5c0-0.2,0-0.4,0.1-0.6
			c0-0.2,0.1-0.4,0.2-0.6c0.1-0.2,0.2-0.4,0.4-0.5c0.1-0.1,0.3-0.2,0.4-0.3c0.2-0.1,0.3-0.1,0.5-0.1c0.1,0,0.3,0,0.3,0.1
			s0.2,0.2,0.2,0.3l0.4-1.5c0-0.1,0-0.1,0-0.2s0-0.1,0-0.1c0,0-0.1,0-0.2,0c-0.1,0-0.2,0-0.3,0c-0.1,0-0.1,0-0.1-0.1l0-0.1
			c0,0,0-0.1,0.1-0.1l0.6-0.1l0.2,0c0,0,0,0,0.1,0c0,0,0,0,0,0.1L279.5,119.3z M279.4,117.7c0,0,0-0.1,0-0.1c0-0.1-0.1-0.2-0.2-0.3
			c-0.1-0.1-0.2-0.1-0.3-0.1c-0.1,0-0.2,0-0.3,0.1c-0.1,0.1-0.2,0.2-0.3,0.3c-0.1,0.2-0.2,0.3-0.2,0.5c-0.1,0.2-0.1,0.3-0.2,0.5
			c0,0.2-0.1,0.3-0.1,0.5c0,0.2,0,0.3,0,0.5c0,0.1,0.1,0.2,0.1,0.3c0.1,0.1,0.1,0.1,0.2,0.1c0.1,0,0.2,0,0.3-0.1
			c0.1-0.1,0.2-0.2,0.3-0.3c0,0,0.1-0.1,0.1-0.1s0.1-0.1,0.1-0.1l0.4-1.5C279.4,117.8,279.4,117.8,279.4,117.7z"/>
	</g>
</g>
<g>
	<path class="st5" d="M103,106.9c0,0.1-0.1,0.3-0.1,0.4s-0.1,0.2-0.2,0.3c-0.1,0.1-0.2,0.1-0.3,0.1c-0.2,0-0.3,0-0.4-0.1
		c-0.1-0.1-0.2-0.2-0.2-0.3c-0.1,0.1-0.2,0.2-0.4,0.3c-0.1,0.1-0.3,0.1-0.5,0.1c-0.2,0-0.3,0-0.4-0.1s-0.2-0.2-0.3-0.3
		c-0.1-0.1-0.1-0.3-0.1-0.5c0-0.2,0-0.3,0.1-0.5c0-0.2,0.1-0.3,0.2-0.5c0.1-0.2,0.1-0.4,0.2-0.6c0.1-0.2,0.1-0.4,0.1-0.5
		s-0.1-0.2-0.2-0.2c-0.1,0-0.2,0-0.2,0.1c-0.1,0.1-0.1,0.1-0.2,0.2s-0.1,0.2-0.2,0.3c0,0.1-0.1,0.2-0.1,0.4c0,0-0.1,0.1-0.1,0.1
		h-0.1c0,0-0.1,0-0.1-0.1c0-0.1,0.1-0.3,0.1-0.4c0.1-0.1,0.1-0.3,0.2-0.4c0.1-0.1,0.2-0.2,0.3-0.3c0.1-0.1,0.2-0.1,0.4-0.1
		c0.1,0,0.2,0,0.3,0.1s0.1,0.1,0.2,0.2c0,0.1,0.1,0.2,0.1,0.3c0,0.1,0,0.2-0.1,0.3c-0.1,0.2-0.1,0.4-0.2,0.6
		c-0.1,0.2-0.1,0.4-0.2,0.5c0,0.2-0.1,0.3-0.1,0.5c0,0.2,0,0.3,0,0.4c0,0.1,0.1,0.2,0.1,0.2s0.1,0.1,0.2,0.1c0.2,0,0.3-0.1,0.4-0.2
		c0.1-0.1,0.2-0.2,0.3-0.4c0,0,0,0,0-0.1s0,0,0-0.1l0.5-2.2c0-0.1,0.1-0.1,0.1-0.2s0.1-0.1,0.2-0.1s0.1,0,0.1,0.1c0,0,0,0.1,0,0.2
		l-0.5,2.2c-0.1,0.2-0.1,0.4-0.1,0.5c0,0.1,0.1,0.2,0.2,0.2c0.1,0,0.2-0.1,0.3-0.3c0.1-0.2,0.1-0.4,0.2-0.7c0,0,0-0.1,0.1-0.1h0.1
		c0,0,0,0,0,0c0,0,0,0,0,0C103,106.6,103,106.8,103,106.9z"/>
	<path class="st5" d="M103.3,110.1v-0.1c0,0,0.1,0,0.1,0c0,0,0.1,0,0.1,0s0.1,0,0.1,0s0.1,0,0.1,0c0,0,0.1,0,0.1,0c0,0,0-0.1,0-0.1
		v-2.3c-0.1,0-0.2,0.1-0.3,0.1c-0.1,0-0.2,0-0.3,0v-0.1c0.1,0,0.3,0,0.4-0.1c0.1,0,0.3-0.1,0.4-0.2h0.1c0,0,0,0,0,0v2.6
		c0,0,0,0.1,0,0.1c0,0,0,0,0.1,0c0,0,0.1,0,0.1,0s0.1,0,0.1,0s0.1,0,0.1,0s0.1,0,0.1,0v0.1C104.2,110.1,103.8,110.1,103.3,110.1z"/>
</g>
<g>
	<path class="st5" d="M253.6,146.2c0,0.1-0.1,0.3-0.1,0.4s-0.1,0.2-0.2,0.3c-0.1,0.1-0.2,0.1-0.3,0.1c-0.2,0-0.3,0-0.4-0.1
		c-0.1-0.1-0.2-0.2-0.2-0.3c-0.1,0.1-0.2,0.2-0.4,0.3s-0.3,0.1-0.5,0.1c-0.2,0-0.3,0-0.4-0.1c-0.1-0.1-0.2-0.2-0.3-0.3
		c-0.1-0.1-0.1-0.3-0.1-0.5c0-0.2,0-0.3,0.1-0.5c0-0.2,0.1-0.3,0.2-0.5c0.1-0.2,0.1-0.4,0.2-0.6c0.1-0.2,0.1-0.4,0.1-0.5
		s-0.1-0.2-0.2-0.2c-0.1,0-0.2,0-0.2,0.1s-0.1,0.1-0.2,0.2c-0.1,0.1-0.1,0.2-0.2,0.3c0,0.1-0.1,0.2-0.1,0.4c0,0-0.1,0.1-0.1,0.1
		h-0.1c0,0-0.1,0-0.1-0.1c0-0.1,0.1-0.3,0.1-0.4c0.1-0.1,0.1-0.3,0.2-0.4c0.1-0.1,0.2-0.2,0.3-0.3c0.1-0.1,0.2-0.1,0.4-0.1
		c0.1,0,0.2,0,0.3,0.1s0.1,0.1,0.2,0.2s0.1,0.2,0.1,0.3c0,0.1,0,0.2-0.1,0.3c-0.1,0.2-0.1,0.4-0.2,0.6c-0.1,0.2-0.1,0.4-0.2,0.5
		s-0.1,0.3-0.1,0.5c0,0.2,0,0.3,0,0.4c0,0.1,0.1,0.2,0.1,0.2s0.1,0.1,0.2,0.1c0.2,0,0.3-0.1,0.4-0.2s0.2-0.2,0.3-0.4c0,0,0,0,0-0.1
		c0,0,0,0,0-0.1l0.5-2.2c0-0.1,0.1-0.1,0.1-0.2c0.1,0,0.1-0.1,0.2-0.1s0.1,0,0.1,0.1c0,0,0,0.1,0,0.2l-0.5,2.2
		c-0.1,0.2-0.1,0.4-0.1,0.5c0,0.1,0.1,0.2,0.2,0.2c0.1,0,0.2-0.1,0.3-0.3c0.1-0.2,0.2-0.4,0.2-0.7c0,0,0-0.1,0.1-0.1h0.1
		c0,0,0,0,0,0c0,0,0,0,0,0C253.7,146,253.6,146.1,253.6,146.2z"/>
	<path class="st5" d="M256.6,149.4c-0.2,0-0.3,0-0.5,0v-0.1c0,0,0.1,0,0.2,0c0.1,0,0.1,0,0.1,0c0,0,0,0,0-0.1c0,0,0,0,0-0.1v-1
		c0-0.1,0-0.1,0-0.2c0-0.1,0-0.1-0.1-0.2c0,0-0.1-0.1-0.1-0.1c0,0-0.1,0-0.1,0c-0.1,0-0.2,0-0.2,0.1c-0.1,0-0.1,0.1-0.2,0.1
		c-0.1,0.1-0.1,0.1-0.1,0.2c0,0.1,0,0.2,0,0.3v0.9c0,0,0,0.1,0,0.1c0,0,0,0,0,0.1c0,0,0.1,0,0.1,0c0.1,0,0.1,0,0.2,0v0.1
		c-0.2,0-0.3,0-0.5,0c-0.2,0-0.3,0-0.5,0v-0.1c0,0,0.1,0,0.2,0c0.1,0,0.1,0,0.1,0c0,0,0,0,0-0.1c0,0,0,0,0-0.1v-1c0-0.1,0-0.1,0-0.2
		c0-0.1,0-0.1-0.1-0.2c0,0-0.1-0.1-0.1-0.1c0,0-0.1,0-0.1,0c-0.1,0-0.2,0-0.2,0.1s-0.1,0.1-0.2,0.1s-0.1,0.1-0.1,0.2
		c0,0.1,0,0.2,0,0.3v0.9c0,0,0,0.1,0,0.1c0,0,0,0,0,0.1c0,0,0.1,0,0.1,0c0.1,0,0.1,0,0.2,0v0.1c-0.1,0-0.1,0-0.2,0
		c-0.1,0-0.1,0-0.2,0h-0.1c-0.2,0-0.3,0-0.5,0v-0.1c0,0,0.1,0,0.2,0c0.1,0,0.1,0,0.1,0c0,0,0,0,0-0.1c0,0,0,0,0-0.1v-1.2
		c0,0,0-0.1,0-0.1c0,0,0-0.1,0-0.1c0,0-0.1,0-0.1,0c-0.1,0-0.1,0-0.2,0v-0.1l0.3,0l0.3,0v0v0.4c0.1-0.1,0.1-0.2,0.2-0.3
		c0.1-0.1,0.2-0.1,0.4-0.1c0.1,0,0.2,0,0.2,0s0.2,0.1,0.2,0.1c0,0,0.1,0.1,0.1,0.1s0,0.1,0,0.1c0.1-0.1,0.1-0.2,0.2-0.3
		c0.1-0.1,0.2-0.1,0.4-0.1c0.1,0,0.2,0,0.2,0c0.1,0,0.2,0.1,0.2,0.1c0.1,0.1,0.1,0.1,0.1,0.2c0,0.1,0,0.2,0,0.2v1c0,0,0,0.1,0,0.1
		c0,0,0,0,0,0.1c0,0,0.1,0,0.1,0c0.1,0,0.1,0,0.2,0v0.1C256.9,149.4,256.7,149.4,256.6,149.4z"/>
	<path class="st5" d="M259.3,149.2c0,0,0,0.1-0.1,0.1c0,0-0.1,0.1-0.1,0.1c0,0-0.1,0-0.1,0c-0.1,0-0.2,0-0.2-0.1
		c-0.1-0.1-0.1-0.2-0.1-0.3c0,0.1-0.1,0.2-0.2,0.3s-0.2,0.1-0.3,0.1c-0.1,0-0.2,0-0.3,0s-0.2,0-0.2-0.1s-0.1-0.1-0.2-0.1
		c0-0.1-0.1-0.1-0.1-0.2c0-0.1,0-0.2,0.1-0.3s0.2-0.2,0.3-0.2c0.1-0.1,0.3-0.1,0.4-0.1c0.1,0,0.3,0,0.4,0v-0.2c0-0.1,0-0.1,0-0.2
		s-0.1-0.1-0.1-0.2c-0.1-0.1-0.2-0.2-0.3-0.2c-0.1,0-0.2,0-0.3,0s-0.2,0.1-0.2,0.1c0.1,0,0.1,0,0.1,0c0,0,0.1,0.1,0.1,0.2
		c0,0.1,0,0.1-0.1,0.2s-0.1,0-0.1,0s-0.1,0-0.1,0s-0.1-0.1-0.1-0.2c0-0.1,0-0.1,0.1-0.2c0-0.1,0.1-0.1,0.2-0.2
		c0.1,0,0.1-0.1,0.2-0.1s0.2,0,0.2,0c0.1,0,0.2,0,0.3,0c0.1,0,0.2,0.1,0.3,0.1c0.1,0.1,0.1,0.1,0.2,0.2c0,0.1,0.1,0.2,0.1,0.2v1
		c0,0.1,0,0.1,0,0.2c0,0,0.1,0.1,0.1,0.1c0.1,0,0.1,0,0.1-0.1c0,0,0-0.1,0-0.2v-0.3h0.1v0.3C259.3,149.1,259.3,149.2,259.3,149.2z
		 M258.6,148.4c-0.1,0-0.2,0-0.3,0c-0.1,0-0.2,0.1-0.3,0.1c-0.1,0-0.1,0.1-0.2,0.2s-0.1,0.2-0.1,0.3c0,0.1,0,0.1,0,0.1
		c0,0,0,0.1,0.1,0.1c0,0,0.1,0.1,0.1,0.1c0,0,0.1,0,0.1,0c0.1,0,0.1,0,0.2,0c0.1,0,0.1-0.1,0.2-0.1s0.1-0.1,0.1-0.2
		c0-0.1,0-0.1,0-0.2V148.4z M258.1,147.4L258.1,147.4l0.4-0.7c0,0,0.1-0.1,0.1-0.1c0,0,0.1,0,0.1,0.1s0,0.1,0,0.1c0,0,0,0.1-0.1,0.1
		L258.1,147.4z"/>
	<path class="st5" d="M261.1,149.4c-0.1,0-0.3,0-0.4,0v-0.1c0,0,0,0,0.1,0c0,0,0,0,0.1,0c0,0,0-0.1,0-0.1l-0.4-0.5l-0.3,0.4
		c0,0,0,0.1,0,0.1c0,0,0,0.1,0,0.1c0,0.1,0.1,0.1,0.1,0.1v0.1c-0.1,0-0.3,0-0.4,0c-0.1,0-0.3,0-0.4,0v-0.1c0.1,0,0.2,0,0.3-0.1
		c0,0,0.1-0.1,0.1-0.1s0.1-0.1,0.1-0.1l0.4-0.5l-0.5-0.7c0,0,0-0.1-0.1-0.1s-0.1,0-0.1-0.1c0,0-0.1,0-0.1,0c0,0-0.1,0-0.1,0v-0.1
		c0.1,0,0.3,0,0.4,0c0.1,0,0.3,0,0.4,0v0.1c-0.1,0-0.1,0-0.1,0.1c0,0,0,0.1,0,0.1l0.4,0.5l0.3-0.3c0-0.1,0.1-0.1,0.1-0.2
		c0,0,0,0,0-0.1c0,0,0,0-0.1,0v-0.1c0.1,0,0.3,0,0.4,0c0.1,0,0.3,0,0.4,0v0.1c-0.1,0-0.2,0-0.3,0.1c0,0-0.1,0.1-0.1,0.1
		s-0.1,0.1-0.1,0.1l-0.3,0.4l0.6,0.7c0,0,0,0.1,0.1,0.1c0,0,0.1,0,0.1,0.1c0,0,0.1,0,0.1,0c0.1,0,0.1,0,0.1,0v0.1
		C261.4,149.4,261.3,149.4,261.1,149.4z"/>
	<path class="st5" d="M269.4,144.5c0,0-0.1,0-0.1,0h-4.6c0,0-0.1,0-0.1,0c0,0,0-0.1,0-0.1c0,0,0-0.1,0-0.1c0,0,0.1,0,0.1,0h4.6
		c0,0,0.1,0,0.1,0c0,0,0,0.1,0,0.1C269.4,144.4,269.4,144.4,269.4,144.5z M269.4,145.9c0,0-0.1,0-0.1,0h-4.6c0,0-0.1,0-0.1,0
		c0,0,0-0.1,0-0.1c0,0,0-0.1,0-0.1c0,0,0.1,0,0.1,0h4.6c0,0,0.1,0,0.1,0c0,0,0,0.1,0,0.1C269.4,145.8,269.4,145.9,269.4,145.9z"/>
	<path class="st5" d="M276.4,146.2c0,0.1-0.1,0.3-0.1,0.4s-0.1,0.2-0.2,0.3c-0.1,0.1-0.2,0.1-0.3,0.1c-0.2,0-0.3,0-0.4-0.1
		c-0.1-0.1-0.2-0.2-0.2-0.3c-0.1,0.1-0.2,0.2-0.4,0.3s-0.3,0.1-0.5,0.1c-0.2,0-0.3,0-0.4-0.1c-0.1-0.1-0.2-0.2-0.3-0.3
		c-0.1-0.1-0.1-0.3-0.1-0.5c0-0.2,0-0.3,0.1-0.5c0-0.2,0.1-0.3,0.2-0.5c0.1-0.2,0.1-0.4,0.2-0.6c0.1-0.2,0.1-0.4,0.1-0.5
		s-0.1-0.2-0.2-0.2c-0.1,0-0.2,0-0.2,0.1s-0.1,0.1-0.2,0.2c-0.1,0.1-0.1,0.2-0.2,0.3c0,0.1-0.1,0.2-0.1,0.4c0,0-0.1,0.1-0.1,0.1H273
		c0,0-0.1,0-0.1-0.1c0-0.1,0.1-0.3,0.1-0.4c0.1-0.1,0.1-0.3,0.2-0.4c0.1-0.1,0.2-0.2,0.3-0.3c0.1-0.1,0.2-0.1,0.4-0.1
		c0.1,0,0.2,0,0.3,0.1s0.1,0.1,0.2,0.2s0.1,0.2,0.1,0.3c0,0.1,0,0.2-0.1,0.3c-0.1,0.2-0.1,0.4-0.2,0.6c-0.1,0.2-0.1,0.4-0.2,0.5
		s-0.1,0.3-0.1,0.5c0,0.2,0,0.3,0,0.4c0,0.1,0.1,0.2,0.1,0.2s0.1,0.1,0.2,0.1c0.2,0,0.3-0.1,0.4-0.2s0.2-0.2,0.3-0.4c0,0,0,0,0-0.1
		c0,0,0,0,0-0.1l0.5-2.2c0-0.1,0.1-0.1,0.1-0.2c0.1,0,0.1-0.1,0.2-0.1s0.1,0,0.1,0.1c0,0,0,0.1,0,0.2l-0.5,2.2
		c-0.1,0.2-0.1,0.4-0.1,0.5c0,0.1,0.1,0.2,0.2,0.2c0.1,0,0.2-0.1,0.3-0.3c0.1-0.2,0.2-0.4,0.2-0.7c0,0,0-0.1,0.1-0.1h0.1
		c0,0,0,0,0,0c0,0,0,0,0,0C276.5,146,276.5,146.1,276.4,146.2z"/>
	<path class="st5" d="M276.8,149.4v-0.1c0,0,0.1,0,0.1,0c0,0,0.1,0,0.1,0c0,0,0.1,0,0.1,0c0,0,0.1,0,0.1,0c0,0,0.1,0,0.1,0
		c0,0,0-0.1,0-0.1v-2.3c-0.1,0-0.2,0.1-0.3,0.1c-0.1,0-0.2,0-0.3,0v-0.1c0.1,0,0.3,0,0.4-0.1c0.1,0,0.3-0.1,0.4-0.2h0.1c0,0,0,0,0,0
		v2.6c0,0,0,0.1,0,0.1c0,0,0,0,0.1,0c0,0,0.1,0,0.1,0c0,0,0.1,0,0.1,0c0,0,0.1,0,0.1,0c0,0,0.1,0,0.1,0v0.1
		C277.7,149.4,277.2,149.4,276.8,149.4z"/>
</g>
<g>
	<path class="st5" d="M291.5,148.8C291.5,148.8,291.5,148.8,291.5,148.8c-0.1,0-0.1,0-0.1,0c-0.3-0.2-0.5-0.5-0.7-0.7
		c-0.2-0.3-0.4-0.6-0.5-0.9s-0.2-0.7-0.3-1c-0.1-0.4-0.1-0.7-0.1-1.1s0-0.7,0.1-1.1c0.1-0.3,0.2-0.7,0.3-1c0.1-0.3,0.3-0.6,0.5-0.9
		s0.4-0.5,0.7-0.7c0,0,0,0,0.1,0c0,0,0,0,0.1,0c0,0,0,0,0,0.1c0,0,0,0,0,0.1c-0.2,0.2-0.4,0.5-0.6,0.8c-0.2,0.3-0.3,0.6-0.4,0.9
		c-0.1,0.3-0.2,0.6-0.2,1c0,0.3-0.1,0.7-0.1,1c0,0.3,0,0.7,0.1,1s0.1,0.7,0.2,1c0.1,0.3,0.2,0.6,0.4,0.9c0.2,0.3,0.4,0.5,0.6,0.8
		C291.5,148.7,291.5,148.7,291.5,148.8C291.5,148.7,291.5,148.8,291.5,148.8z"/>
	<path class="st5" d="M292.2,146.9v-0.2c0.1,0,0.2,0,0.3,0c0.1,0,0.2,0,0.2,0c0,0,0.1-0.1,0.1-0.1c0,0,0-0.1,0-0.1v-2.1
		c0-0.1,0-0.1,0-0.2c0-0.1,0-0.1-0.1-0.2c0,0-0.1-0.1-0.2-0.1c-0.1,0-0.2,0-0.3,0v-0.2l1.1-0.1v2.8c0,0,0,0.1,0,0.1
		c0,0,0,0.1,0.1,0.1c0,0,0.1,0,0.2,0c0.1,0,0.2,0,0.2,0v0.2C293.2,146.9,292.7,146.9,292.2,146.9z M293.2,142.6
		c-0.1,0.1-0.2,0.1-0.3,0.1s-0.2,0-0.3-0.1c-0.1-0.1-0.1-0.2-0.1-0.3c0-0.1,0-0.2,0.1-0.3c0.1-0.1,0.2-0.1,0.3-0.1s0.2,0,0.3,0.1
		c0.1,0.1,0.1,0.2,0.1,0.3C293.3,142.5,293.2,142.5,293.2,142.6z"/>
	<path class="st5" d="M297.5,144.1c0,0-0.1,0.1-0.1,0.1s-0.1,0-0.1-0.1s-0.1-0.1-0.1-0.2c0-0.1,0-0.1,0-0.1c0,0,0.1-0.1,0.1-0.1
		c-0.3,0-0.6,0.1-0.7,0.3c0.1,0.1,0.2,0.2,0.2,0.3c0.1,0.1,0.1,0.3,0.1,0.4c0,0.1,0,0.3-0.1,0.4c-0.1,0.1-0.2,0.3-0.3,0.4
		c-0.1,0.1-0.2,0.2-0.4,0.2c-0.1,0.1-0.3,0.1-0.5,0.1c-0.1,0-0.3,0-0.4-0.1c-0.1,0-0.2-0.1-0.4-0.2c-0.1,0.1-0.1,0.2-0.1,0.3
		s0,0.2,0,0.3c0,0.1,0.1,0.2,0.2,0.2c0.1,0.1,0.2,0.1,0.3,0.1h0.6c0.2,0,0.4,0,0.6,0c0.2,0,0.4,0.1,0.6,0.2c0.1,0.1,0.2,0.2,0.3,0.4
		c0.1,0.1,0.1,0.3,0.1,0.5c0,0.2-0.1,0.3-0.2,0.4c-0.1,0.1-0.2,0.2-0.3,0.3c-0.2,0.1-0.4,0.2-0.6,0.2c-0.2,0-0.4,0.1-0.6,0.1
		c-0.2,0-0.4,0-0.6-0.1c-0.2,0-0.4-0.1-0.6-0.2c-0.1-0.1-0.2-0.2-0.3-0.3s-0.2-0.3-0.2-0.4c0-0.1,0-0.2,0.1-0.3s0.1-0.2,0.2-0.2
		c0.1-0.1,0.2-0.1,0.4-0.2c-0.1-0.1-0.2-0.1-0.2-0.2s-0.1-0.2-0.1-0.3c0-0.1,0-0.2,0-0.4c0-0.1,0.1-0.2,0.2-0.3
		c-0.1-0.1-0.2-0.2-0.3-0.3c-0.1-0.1-0.1-0.3-0.1-0.4c0-0.1,0-0.3,0.1-0.4c0.1-0.1,0.1-0.3,0.3-0.3c0.1-0.1,0.3-0.2,0.4-0.2
		s0.3-0.1,0.5-0.1c0.3,0,0.6,0.1,0.8,0.3c0.1-0.1,0.2-0.2,0.4-0.3s0.3-0.1,0.4-0.1c0.1,0,0.2,0,0.3,0.1c0.1,0.1,0.1,0.2,0.1,0.3
		C297.6,144,297.6,144.1,297.5,144.1z M297,147.3c-0.1-0.1-0.1-0.2-0.2-0.2c-0.1-0.1-0.3-0.1-0.5-0.1c-0.2,0-0.3,0-0.5,0h-0.6
		c-0.2,0-0.3,0.1-0.5,0.2c-0.1,0.1-0.2,0.3-0.2,0.5c0,0.1,0,0.2,0.1,0.3c0.1,0.1,0.2,0.2,0.3,0.2c0.1,0.1,0.3,0.1,0.4,0.2
		c0.2,0,0.3,0.1,0.5,0.1c0.2,0,0.3,0,0.5-0.1c0.2,0,0.3-0.1,0.4-0.2c0.1-0.1,0.2-0.1,0.3-0.2c0.1-0.1,0.1-0.2,0.1-0.3
		C297.1,147.4,297.1,147.3,297,147.3z M296.3,144.4c0-0.1-0.1-0.2-0.1-0.3c-0.1-0.1-0.1-0.1-0.2-0.2c-0.1,0-0.2-0.1-0.3-0.1
		s-0.2,0-0.3,0.1c-0.1,0-0.2,0.1-0.2,0.2c-0.1,0.1-0.1,0.2-0.1,0.3c0,0.1,0,0.2,0,0.4c0,0.1,0,0.2,0,0.4c0,0.1,0.1,0.2,0.1,0.3
		c0.1,0.2,0.3,0.3,0.5,0.3c0.2,0,0.4-0.1,0.5-0.3c0.1-0.1,0.1-0.2,0.1-0.3c0-0.1,0-0.2,0-0.4C296.3,144.6,296.3,144.5,296.3,144.4z"
		/>
	<path class="st5" d="M300.9,146.9c-0.3,0-0.6,0-0.8,0v-0.2c0.1,0,0.2,0,0.3,0c0.1,0,0.2,0,0.2,0c0,0,0.1-0.1,0.1-0.1
		c0,0,0-0.1,0-0.1v-1.8c0-0.1,0-0.2,0-0.4c0-0.1,0-0.2-0.1-0.3c0-0.1-0.1-0.1-0.2-0.1c-0.1,0-0.1,0-0.2,0c-0.1,0-0.3,0-0.4,0.1
		c-0.1,0.1-0.2,0.1-0.3,0.3c-0.1,0.1-0.2,0.2-0.2,0.4c-0.1,0.1-0.1,0.3-0.1,0.4v1.5c0,0,0,0.1,0,0.1c0,0,0,0.1,0.1,0.1
		c0,0,0.1,0,0.2,0c0.1,0,0.2,0,0.3,0v0.2c-0.1,0-0.2,0-0.3,0c-0.1,0-0.2,0-0.3,0h-0.2c-0.3,0-0.6,0-0.8,0v-0.2c0.1,0,0.2,0,0.3,0
		c0.1,0,0.2,0,0.2,0c0,0,0.1-0.1,0.1-0.1c0,0,0-0.1,0-0.1v-2.1c0-0.1,0-0.1,0-0.2c0-0.1,0-0.1-0.1-0.2c0,0-0.1-0.1-0.2-0.1
		c-0.1,0-0.2,0-0.3,0v-0.2l0.6,0l0.5,0v0.1v0.7c0.1-0.2,0.2-0.4,0.4-0.6s0.4-0.2,0.7-0.2c0.1,0,0.3,0,0.4,0c0.1,0,0.3,0.1,0.4,0.2
		s0.2,0.2,0.2,0.4s0,0.3,0,0.4v1.8c0,0,0,0.1,0,0.1c0,0,0,0.1,0.1,0.1c0,0,0.1,0,0.2,0c0.1,0,0.2,0,0.3,0v0.2
		C301.4,146.9,301.1,146.9,300.9,146.9z"/>
	<path class="st5" d="M305.2,146c-0.1,0.2-0.2,0.4-0.4,0.5c-0.2,0.2-0.3,0.3-0.5,0.4c-0.2,0.1-0.4,0.1-0.6,0.1c-0.2,0-0.4,0-0.6-0.1
		c-0.2-0.1-0.4-0.2-0.5-0.4c-0.2-0.2-0.3-0.3-0.4-0.5c-0.1-0.2-0.1-0.4-0.1-0.6c0-0.2,0-0.4,0.1-0.7s0.2-0.4,0.4-0.6
		c0.2-0.2,0.3-0.3,0.5-0.4c0.2-0.1,0.4-0.1,0.6-0.1c0.2,0,0.4,0,0.6,0.1c0.2,0.1,0.4,0.2,0.5,0.4c0.2,0.2,0.3,0.4,0.4,0.6
		s0.1,0.4,0.1,0.7C305.4,145.6,305.3,145.8,305.2,146z M304.7,144.7c0-0.2-0.1-0.4-0.2-0.5c-0.1-0.1-0.2-0.2-0.3-0.3
		s-0.3-0.1-0.4-0.1c-0.2,0-0.3,0-0.4,0.1s-0.3,0.2-0.3,0.3c-0.1,0.2-0.2,0.3-0.2,0.5c0,0.2,0,0.4,0,0.6c0,0.2,0,0.4,0,0.6
		s0.1,0.4,0.2,0.5c0.1,0.1,0.2,0.2,0.3,0.3c0.1,0.1,0.3,0.1,0.5,0.1c0.2,0,0.3,0,0.5-0.1c0.1-0.1,0.3-0.2,0.3-0.3
		c0.1-0.2,0.2-0.3,0.2-0.5c0-0.2,0-0.4,0-0.6C304.7,145.1,304.7,144.9,304.7,144.7z"/>
	<path class="st5" d="M308.2,144.4c-0.1,0.1-0.1,0.1-0.2,0.1s-0.2,0-0.2-0.1s-0.1-0.1-0.1-0.2c0-0.1,0-0.1,0-0.2
		c0,0,0.1-0.1,0.1-0.1c0,0,0,0-0.1,0c-0.1,0-0.3,0-0.4,0.1c-0.1,0.1-0.2,0.2-0.3,0.3c-0.1,0.1-0.1,0.3-0.2,0.4
		c0,0.2-0.1,0.3-0.1,0.5v1.2c0,0,0,0.1,0,0.1c0,0,0,0.1,0.1,0.1c0.1,0,0.2,0,0.3,0c0.1,0,0.2,0,0.3,0v0.2c-0.3,0-0.6,0-0.9,0
		s-0.6,0-0.9,0v-0.2c0.1,0,0.2,0,0.3,0c0.1,0,0.2,0,0.2,0c0,0,0.1-0.1,0.1-0.1c0,0,0-0.1,0-0.1v-2.1c0-0.1,0-0.1,0-0.2
		c0-0.1,0-0.1-0.1-0.2c0,0-0.1-0.1-0.2-0.1c-0.1,0-0.2,0-0.3,0v-0.2l1-0.1v0.8c0.1-0.2,0.2-0.4,0.3-0.6c0.1-0.2,0.3-0.2,0.6-0.2
		c0.1,0,0.3,0,0.4,0.1s0.2,0.2,0.2,0.3C308.3,144.2,308.3,144.3,308.2,144.4z"/>
	<path class="st5" d="M311.4,146.5c-0.1,0.1-0.2,0.2-0.3,0.3s-0.2,0.1-0.4,0.2c-0.1,0-0.3,0.1-0.4,0.1c-0.2,0-0.4,0-0.6-0.1
		c-0.2-0.1-0.4-0.2-0.5-0.4c-0.2-0.2-0.3-0.3-0.4-0.6c-0.1-0.2-0.1-0.4-0.1-0.7c0-0.2,0-0.4,0.1-0.6s0.2-0.4,0.3-0.6
		c0.1-0.2,0.3-0.3,0.5-0.4s0.4-0.1,0.6-0.1c0.2,0,0.4,0,0.5,0.1s0.3,0.2,0.5,0.3c0.1,0.2,0.2,0.3,0.3,0.5c0,0.2,0.1,0.4,0.1,0.6
		c0,0.1,0,0.1-0.1,0.1h-2.2c0,0.2,0,0.4,0,0.6c0,0.2,0.1,0.4,0.2,0.6c0.1,0.1,0.2,0.2,0.4,0.3c0.1,0.1,0.3,0.1,0.4,0.1
		c0.1,0,0.2,0,0.3-0.1c0.1,0,0.2-0.1,0.3-0.2c0.1-0.1,0.2-0.2,0.2-0.3c0.1-0.1,0.1-0.2,0.1-0.3c0,0,0-0.1,0.1-0.1h0
		c0,0,0.1,0,0.1,0.1C311.6,146.2,311.5,146.3,311.4,146.5z M311,144.6c0-0.2-0.1-0.3-0.2-0.4c-0.1-0.1-0.2-0.2-0.3-0.2
		c-0.1-0.1-0.2-0.1-0.3-0.1c-0.1,0-0.3,0-0.4,0.1s-0.2,0.2-0.3,0.3c-0.1,0.1-0.1,0.3-0.2,0.4c0,0.1,0,0.3-0.1,0.4h1.8
		C311.1,144.9,311.1,144.7,311,144.6z"/>
	<path class="st5" d="M314.6,147v-0.5c-0.1,0.1-0.3,0.3-0.4,0.4c-0.2,0.1-0.4,0.1-0.6,0.1c-0.2,0-0.4,0-0.6-0.1
		c-0.2-0.1-0.4-0.2-0.5-0.4c-0.2-0.2-0.3-0.3-0.4-0.6c-0.1-0.2-0.1-0.4-0.1-0.6c0-0.2,0-0.4,0.1-0.6c0.1-0.2,0.2-0.4,0.4-0.5
		c0.2-0.2,0.3-0.3,0.5-0.4s0.4-0.1,0.6-0.1c0.2,0,0.4,0,0.5,0.1c0.2,0.1,0.3,0.2,0.4,0.3v-1.6c0-0.1,0-0.1,0-0.2s0-0.1-0.1-0.2
		c0,0-0.1-0.1-0.2-0.1s-0.2,0-0.3,0v-0.2l1.1-0.1v4.5c0,0.1,0,0.1,0,0.2s0,0.1,0.1,0.1c0,0,0.1,0.1,0.2,0.1c0.1,0,0.2,0,0.3,0v0.2
		L314.6,147z M314.6,144.4c-0.1-0.2-0.2-0.3-0.4-0.4c-0.2-0.1-0.3-0.2-0.5-0.2c-0.2,0-0.3,0-0.4,0.1s-0.3,0.2-0.4,0.3
		c-0.1,0.2-0.2,0.3-0.2,0.5c0,0.2,0,0.4,0,0.6s0,0.4,0,0.6c0,0.2,0.1,0.4,0.2,0.5c0.1,0.1,0.2,0.2,0.3,0.3c0.1,0.1,0.3,0.1,0.4,0.1
		c0.2,0,0.4-0.1,0.6-0.2c0.2-0.1,0.3-0.3,0.4-0.5V144.4z"/>
	<path class="st5" d="M318,146.1c-0.1,0.3-0.2,0.7-0.3,1c-0.1,0.3-0.3,0.6-0.5,0.9c-0.2,0.3-0.4,0.5-0.7,0.7c0,0,0,0,0,0h0
		c0,0,0,0-0.1,0c0,0,0,0,0-0.1c0,0,0,0,0-0.1c0.2-0.2,0.4-0.5,0.6-0.8c0.2-0.3,0.3-0.6,0.4-0.9c0.1-0.3,0.2-0.6,0.2-1
		c0-0.3,0.1-0.7,0.1-1c0-0.3,0-0.7-0.1-1c0-0.3-0.1-0.7-0.2-1c-0.1-0.3-0.2-0.6-0.4-0.9c-0.2-0.3-0.4-0.5-0.6-0.8c0,0,0,0,0-0.1
		c0,0,0,0,0-0.1c0,0,0,0,0.1,0h0c0,0,0,0,0,0c0.3,0.2,0.5,0.5,0.7,0.7s0.4,0.6,0.5,0.9c0.1,0.3,0.2,0.7,0.3,1
		c0.1,0.3,0.1,0.7,0.1,1.1S318.1,145.8,318,146.1z"/>
</g>
<g>
	<path class="st5" d="M253.6,165.5c0,0.1-0.1,0.3-0.1,0.4s-0.1,0.2-0.2,0.3c-0.1,0.1-0.2,0.1-0.3,0.1c-0.2,0-0.3,0-0.4-0.1
		c-0.1-0.1-0.2-0.2-0.2-0.3c-0.1,0.1-0.2,0.2-0.4,0.3s-0.3,0.1-0.5,0.1c-0.2,0-0.3,0-0.4-0.1c-0.1-0.1-0.2-0.2-0.3-0.3
		c-0.1-0.1-0.1-0.3-0.1-0.5c0-0.2,0-0.3,0.1-0.5c0-0.2,0.1-0.3,0.2-0.5c0.1-0.2,0.1-0.4,0.2-0.6c0.1-0.2,0.1-0.4,0.1-0.5
		s-0.1-0.2-0.2-0.2c-0.1,0-0.2,0-0.2,0.1s-0.1,0.1-0.2,0.2c-0.1,0.1-0.1,0.2-0.2,0.3c0,0.1-0.1,0.2-0.1,0.4c0,0-0.1,0.1-0.1,0.1
		h-0.1c0,0-0.1,0-0.1-0.1c0-0.1,0.1-0.3,0.1-0.4c0.1-0.1,0.1-0.3,0.2-0.4c0.1-0.1,0.2-0.2,0.3-0.3c0.1-0.1,0.2-0.1,0.4-0.1
		c0.1,0,0.2,0,0.3,0.1s0.1,0.1,0.2,0.2s0.1,0.2,0.1,0.3c0,0.1,0,0.2-0.1,0.3c-0.1,0.2-0.1,0.4-0.2,0.6c-0.1,0.2-0.1,0.4-0.2,0.5
		s-0.1,0.3-0.1,0.5c0,0.2,0,0.3,0,0.4c0,0.1,0.1,0.2,0.1,0.2s0.1,0.1,0.2,0.1c0.2,0,0.3-0.1,0.4-0.2s0.2-0.2,0.3-0.4c0,0,0,0,0-0.1
		c0,0,0,0,0-0.1l0.5-2.2c0-0.1,0.1-0.1,0.1-0.2c0.1,0,0.1-0.1,0.2-0.1s0.1,0,0.1,0.1c0,0,0,0.1,0,0.2l-0.5,2.2
		c-0.1,0.2-0.1,0.4-0.1,0.5c0,0.1,0.1,0.2,0.2,0.2c0.1,0,0.2-0.1,0.3-0.3c0.1-0.2,0.2-0.4,0.2-0.7c0,0,0-0.1,0.1-0.1h0.1
		c0,0,0,0,0,0c0,0,0,0,0,0C253.7,165.3,253.6,165.4,253.6,165.5z"/>
	<path class="st5" d="M256.6,168.7c-0.2,0-0.3,0-0.5,0v-0.1c0,0,0.1,0,0.2,0c0.1,0,0.1,0,0.1,0c0,0,0,0,0-0.1c0,0,0,0,0-0.1v-1
		c0-0.1,0-0.1,0-0.2c0-0.1,0-0.1-0.1-0.2c0,0-0.1-0.1-0.1-0.1c0,0-0.1,0-0.1,0c-0.1,0-0.2,0-0.2,0.1c-0.1,0-0.1,0.1-0.2,0.1
		c-0.1,0.1-0.1,0.1-0.1,0.2c0,0.1,0,0.2,0,0.3v0.9c0,0,0,0.1,0,0.1c0,0,0,0,0,0.1c0,0,0.1,0,0.1,0c0.1,0,0.1,0,0.2,0v0.1
		c-0.2,0-0.3,0-0.5,0c-0.2,0-0.3,0-0.5,0v-0.1c0,0,0.1,0,0.2,0c0.1,0,0.1,0,0.1,0c0,0,0,0,0-0.1c0,0,0,0,0-0.1v-1c0-0.1,0-0.1,0-0.2
		c0-0.1,0-0.1-0.1-0.2c0,0-0.1-0.1-0.1-0.1c0,0-0.1,0-0.1,0c-0.1,0-0.2,0-0.2,0.1s-0.1,0.1-0.2,0.1s-0.1,0.1-0.1,0.2
		c0,0.1,0,0.2,0,0.3v0.9c0,0,0,0.1,0,0.1c0,0,0,0,0,0.1c0,0,0.1,0,0.1,0c0.1,0,0.1,0,0.2,0v0.1c-0.1,0-0.1,0-0.2,0
		c-0.1,0-0.1,0-0.2,0h-0.1c-0.2,0-0.3,0-0.5,0v-0.1c0,0,0.1,0,0.2,0c0.1,0,0.1,0,0.1,0c0,0,0,0,0-0.1c0,0,0,0,0-0.1v-1.2
		c0,0,0-0.1,0-0.1c0,0,0-0.1,0-0.1c0,0-0.1,0-0.1,0c-0.1,0-0.1,0-0.2,0v-0.1l0.3,0l0.3,0v0v0.4c0.1-0.1,0.1-0.2,0.2-0.3
		c0.1-0.1,0.2-0.1,0.4-0.1c0.1,0,0.2,0,0.2,0s0.2,0.1,0.2,0.1c0,0,0.1,0.1,0.1,0.1s0,0.1,0,0.1c0.1-0.1,0.1-0.2,0.2-0.3
		c0.1-0.1,0.2-0.1,0.4-0.1c0.1,0,0.2,0,0.2,0c0.1,0,0.2,0.1,0.2,0.1c0.1,0.1,0.1,0.1,0.1,0.2c0,0.1,0,0.2,0,0.2v1c0,0,0,0.1,0,0.1
		c0,0,0,0,0,0.1c0,0,0.1,0,0.1,0c0.1,0,0.1,0,0.2,0v0.1C256.9,168.7,256.7,168.7,256.6,168.7z"/>
	<path class="st5" d="M259.3,168.5c0,0,0,0.1-0.1,0.1c0,0-0.1,0.1-0.1,0.1c0,0-0.1,0-0.1,0c-0.1,0-0.2,0-0.2-0.1
		c-0.1-0.1-0.1-0.2-0.1-0.3c0,0.1-0.1,0.2-0.2,0.3s-0.2,0.1-0.3,0.1c-0.1,0-0.2,0-0.3,0s-0.2,0-0.2-0.1s-0.1-0.1-0.2-0.1
		c0-0.1-0.1-0.1-0.1-0.2c0-0.1,0-0.2,0.1-0.3s0.2-0.2,0.3-0.2c0.1-0.1,0.3-0.1,0.4-0.1c0.1,0,0.3,0,0.4,0v-0.2c0-0.1,0-0.1,0-0.2
		s-0.1-0.1-0.1-0.2c-0.1-0.1-0.2-0.2-0.3-0.2c-0.1,0-0.2,0-0.3,0s-0.2,0.1-0.2,0.1c0.1,0,0.1,0,0.1,0c0,0,0.1,0.1,0.1,0.2
		c0,0.1,0,0.1-0.1,0.2s-0.1,0-0.1,0s-0.1,0-0.1,0s-0.1-0.1-0.1-0.2c0-0.1,0-0.1,0.1-0.2c0-0.1,0.1-0.1,0.2-0.2
		c0.1,0,0.1-0.1,0.2-0.1s0.2,0,0.2,0c0.1,0,0.2,0,0.3,0c0.1,0,0.2,0.1,0.3,0.1c0.1,0.1,0.1,0.1,0.2,0.2c0,0.1,0.1,0.2,0.1,0.2v1
		c0,0.1,0,0.1,0,0.2c0,0,0.1,0.1,0.1,0.1c0.1,0,0.1,0,0.1-0.1c0,0,0-0.1,0-0.2v-0.3h0.1v0.3C259.3,168.4,259.3,168.4,259.3,168.5z
		 M258.6,167.7c-0.1,0-0.2,0-0.3,0c-0.1,0-0.2,0.1-0.3,0.1c-0.1,0-0.1,0.1-0.2,0.2s-0.1,0.2-0.1,0.3c0,0.1,0,0.1,0,0.1
		c0,0,0,0.1,0.1,0.1c0,0,0.1,0.1,0.1,0.1c0,0,0.1,0,0.1,0c0.1,0,0.1,0,0.2,0c0.1,0,0.1-0.1,0.2-0.1s0.1-0.1,0.1-0.2
		c0-0.1,0-0.1,0-0.2V167.7z M258.1,166.6L258.1,166.6l0.4-0.7c0,0,0.1-0.1,0.1-0.1c0,0,0.1,0,0.1,0.1s0,0.1,0,0.1c0,0,0,0.1-0.1,0.1
		L258.1,166.6z"/>
	<path class="st5" d="M261.1,168.7c-0.1,0-0.3,0-0.4,0v-0.1c0,0,0,0,0.1,0c0,0,0,0,0.1,0c0,0,0-0.1,0-0.1l-0.4-0.5l-0.3,0.4
		c0,0,0,0.1,0,0.1c0,0,0,0.1,0,0.1c0,0.1,0.1,0.1,0.1,0.1v0.1c-0.1,0-0.3,0-0.4,0c-0.1,0-0.3,0-0.4,0v-0.1c0.1,0,0.2,0,0.3-0.1
		c0,0,0.1-0.1,0.1-0.1s0.1-0.1,0.1-0.1l0.4-0.5l-0.5-0.7c0,0,0-0.1-0.1-0.1s-0.1,0-0.1-0.1c0,0-0.1,0-0.1,0c0,0-0.1,0-0.1,0v-0.1
		c0.1,0,0.3,0,0.4,0c0.1,0,0.3,0,0.4,0v0.1c-0.1,0-0.1,0-0.1,0.1c0,0,0,0.1,0,0.1l0.4,0.5l0.3-0.3c0-0.1,0.1-0.1,0.1-0.2
		c0,0,0,0,0-0.1c0,0,0,0-0.1,0v-0.1c0.1,0,0.3,0,0.4,0c0.1,0,0.3,0,0.4,0v0.1c-0.1,0-0.2,0-0.3,0.1c0,0-0.1,0.1-0.1,0.1
		s-0.1,0.1-0.1,0.1l-0.3,0.4l0.6,0.7c0,0,0,0.1,0.1,0.1c0,0,0.1,0,0.1,0.1c0,0,0.1,0,0.1,0c0.1,0,0.1,0,0.1,0v0.1
		C261.4,168.7,261.3,168.7,261.1,168.7z"/>
	<path class="st5" d="M269.4,163.7c0,0-0.1,0-0.1,0h-4.6c0,0-0.1,0-0.1,0c0,0,0-0.1,0-0.1c0,0,0-0.1,0-0.1c0,0,0.1,0,0.1,0h4.6
		c0,0,0.1,0,0.1,0c0,0,0,0.1,0,0.1C269.4,163.7,269.4,163.7,269.4,163.7z M269.4,165.2c0,0-0.1,0-0.1,0h-4.6c0,0-0.1,0-0.1,0
		c0,0,0-0.1,0-0.1c0,0,0-0.1,0-0.1c0,0,0.1,0,0.1,0h4.6c0,0,0.1,0,0.1,0c0,0,0,0.1,0,0.1C269.4,165.1,269.4,165.1,269.4,165.2z"/>
	<path class="st5" d="M276.4,165.5c0,0.1-0.1,0.3-0.1,0.4s-0.1,0.2-0.2,0.3c-0.1,0.1-0.2,0.1-0.3,0.1c-0.2,0-0.3,0-0.4-0.1
		c-0.1-0.1-0.2-0.2-0.2-0.3c-0.1,0.1-0.2,0.2-0.4,0.3s-0.3,0.1-0.5,0.1c-0.2,0-0.3,0-0.4-0.1c-0.1-0.1-0.2-0.2-0.3-0.3
		c-0.1-0.1-0.1-0.3-0.1-0.5c0-0.2,0-0.3,0.1-0.5c0-0.2,0.1-0.3,0.2-0.5c0.1-0.2,0.1-0.4,0.2-0.6c0.1-0.2,0.1-0.4,0.1-0.5
		s-0.1-0.2-0.2-0.2c-0.1,0-0.2,0-0.2,0.1s-0.1,0.1-0.2,0.2c-0.1,0.1-0.1,0.2-0.2,0.3c0,0.1-0.1,0.2-0.1,0.4c0,0-0.1,0.1-0.1,0.1H273
		c0,0-0.1,0-0.1-0.1c0-0.1,0.1-0.3,0.1-0.4c0.1-0.1,0.1-0.3,0.2-0.4c0.1-0.1,0.2-0.2,0.3-0.3c0.1-0.1,0.2-0.1,0.4-0.1
		c0.1,0,0.2,0,0.3,0.1s0.1,0.1,0.2,0.2s0.1,0.2,0.1,0.3c0,0.1,0,0.2-0.1,0.3c-0.1,0.2-0.1,0.4-0.2,0.6c-0.1,0.2-0.1,0.4-0.2,0.5
		s-0.1,0.3-0.1,0.5c0,0.2,0,0.3,0,0.4c0,0.1,0.1,0.2,0.1,0.2s0.1,0.1,0.2,0.1c0.2,0,0.3-0.1,0.4-0.2s0.2-0.2,0.3-0.4c0,0,0,0,0-0.1
		c0,0,0,0,0-0.1l0.5-2.2c0-0.1,0.1-0.1,0.1-0.2c0.1,0,0.1-0.1,0.2-0.1s0.1,0,0.1,0.1c0,0,0,0.1,0,0.2l-0.5,2.2
		c-0.1,0.2-0.1,0.4-0.1,0.5c0,0.1,0.1,0.2,0.2,0.2c0.1,0,0.2-0.1,0.3-0.3c0.1-0.2,0.2-0.4,0.2-0.7c0,0,0-0.1,0.1-0.1h0.1
		c0,0,0,0,0,0c0,0,0,0,0,0C276.5,165.3,276.5,165.4,276.4,165.5z"/>
	<path class="st5" d="M278.2,168.7h-1.6v-0.1c0,0,0,0,0,0l0.7-0.7c0.1-0.1,0.2-0.2,0.2-0.3c0.1-0.1,0.2-0.2,0.2-0.3s0.1-0.2,0.2-0.3
		s0.1-0.2,0.1-0.3c0-0.1,0-0.2,0-0.3s-0.1-0.2-0.1-0.2s-0.1-0.1-0.2-0.2c-0.1,0-0.2-0.1-0.3-0.1c-0.1,0-0.3,0-0.4,0.1
		c-0.1,0.1-0.2,0.2-0.2,0.3c0,0,0.1,0,0.1,0c0,0,0.1,0,0.1,0s0.1,0,0.1,0.1c0,0,0,0.1,0,0.1c0,0.1,0,0.1-0.1,0.2s-0.1,0.1-0.2,0.1
		c-0.1,0-0.1,0-0.2-0.1s-0.1-0.1-0.1-0.2c0-0.1,0-0.2,0.1-0.3c0-0.1,0.1-0.2,0.2-0.3s0.2-0.1,0.3-0.2c0.1,0,0.2-0.1,0.3-0.1
		c0.1,0,0.3,0,0.4,0.1c0.1,0,0.2,0.1,0.3,0.2c0.1,0.1,0.1,0.2,0.2,0.3c0,0.1,0.1,0.2,0.1,0.3c0,0.1,0,0.3-0.1,0.4s-0.1,0.2-0.2,0.3
		c-0.1,0.1-0.2,0.2-0.3,0.3s-0.2,0.2-0.3,0.3l-0.5,0.5h0.4c0.1,0,0.1,0,0.2,0s0.2,0,0.2,0c0.1,0,0.1,0,0.2,0c0.1,0,0.1,0,0.1,0
		c0,0,0,0,0-0.1c0,0,0-0.1,0-0.1c0,0,0-0.1,0-0.1c0,0,0-0.1,0-0.1h0.1L278.2,168.7z"/>
</g>
<g>
	<path class="st5" d="M253.6,186.5c0,0.1-0.1,0.3-0.1,0.4s-0.1,0.2-0.2,0.3c-0.1,0.1-0.2,0.1-0.3,0.1c-0.2,0-0.3,0-0.4-0.1
		c-0.1-0.1-0.2-0.2-0.2-0.3c-0.1,0.1-0.2,0.2-0.4,0.3s-0.3,0.1-0.5,0.1c-0.2,0-0.3,0-0.4-0.1c-0.1-0.1-0.2-0.2-0.3-0.3
		c-0.1-0.1-0.1-0.3-0.1-0.5c0-0.2,0-0.3,0.1-0.5c0-0.2,0.1-0.3,0.2-0.5c0.1-0.2,0.1-0.4,0.2-0.6c0.1-0.2,0.1-0.4,0.1-0.5
		s-0.1-0.2-0.2-0.2c-0.1,0-0.2,0-0.2,0.1s-0.1,0.1-0.2,0.2c-0.1,0.1-0.1,0.2-0.2,0.3c0,0.1-0.1,0.2-0.1,0.4c0,0-0.1,0.1-0.1,0.1
		h-0.1c0,0-0.1,0-0.1-0.1c0-0.1,0.1-0.3,0.1-0.4c0.1-0.1,0.1-0.3,0.2-0.4c0.1-0.1,0.2-0.2,0.3-0.3c0.1-0.1,0.2-0.1,0.4-0.1
		c0.1,0,0.2,0,0.3,0.1s0.1,0.1,0.2,0.2s0.1,0.2,0.1,0.3c0,0.1,0,0.2-0.1,0.3c-0.1,0.2-0.1,0.4-0.2,0.6c-0.1,0.2-0.1,0.4-0.2,0.5
		s-0.1,0.3-0.1,0.5c0,0.2,0,0.3,0,0.4c0,0.1,0.1,0.2,0.1,0.2s0.1,0.1,0.2,0.1c0.2,0,0.3-0.1,0.4-0.2s0.2-0.2,0.3-0.4c0,0,0,0,0-0.1
		c0,0,0,0,0-0.1l0.5-2.2c0-0.1,0.1-0.1,0.1-0.2c0.1,0,0.1-0.1,0.2-0.1s0.1,0,0.1,0.1c0,0,0,0.1,0,0.2l-0.5,2.2
		c-0.1,0.2-0.1,0.4-0.1,0.5c0,0.1,0.1,0.2,0.2,0.2c0.1,0,0.2-0.1,0.3-0.3c0.1-0.2,0.2-0.4,0.2-0.7c0,0,0-0.1,0.1-0.1h0.1
		c0,0,0,0,0,0c0,0,0,0,0,0C253.7,186.2,253.6,186.4,253.6,186.5z"/>
	<path class="st5" d="M256.6,189.7c-0.2,0-0.3,0-0.5,0v-0.1c0,0,0.1,0,0.2,0c0.1,0,0.1,0,0.1,0c0,0,0,0,0-0.1c0,0,0,0,0-0.1v-1
		c0-0.1,0-0.1,0-0.2c0-0.1,0-0.1-0.1-0.2c0,0-0.1-0.1-0.1-0.1c0,0-0.1,0-0.1,0c-0.1,0-0.2,0-0.2,0.1c-0.1,0-0.1,0.1-0.2,0.1
		c-0.1,0.1-0.1,0.1-0.1,0.2c0,0.1,0,0.2,0,0.3v0.9c0,0,0,0.1,0,0.1c0,0,0,0,0,0.1c0,0,0.1,0,0.1,0c0.1,0,0.1,0,0.2,0v0.1
		c-0.2,0-0.3,0-0.5,0c-0.2,0-0.3,0-0.5,0v-0.1c0,0,0.1,0,0.2,0c0.1,0,0.1,0,0.1,0c0,0,0,0,0-0.1c0,0,0,0,0-0.1v-1c0-0.1,0-0.1,0-0.2
		c0-0.1,0-0.1-0.1-0.2c0,0-0.1-0.1-0.1-0.1c0,0-0.1,0-0.1,0c-0.1,0-0.2,0-0.2,0.1s-0.1,0.1-0.2,0.1s-0.1,0.1-0.1,0.2
		c0,0.1,0,0.2,0,0.3v0.9c0,0,0,0.1,0,0.1c0,0,0,0,0,0.1c0,0,0.1,0,0.1,0c0.1,0,0.1,0,0.2,0v0.1c-0.1,0-0.1,0-0.2,0
		c-0.1,0-0.1,0-0.2,0h-0.1c-0.2,0-0.3,0-0.5,0v-0.1c0,0,0.1,0,0.2,0c0.1,0,0.1,0,0.1,0c0,0,0,0,0-0.1c0,0,0,0,0-0.1v-1.2
		c0,0,0-0.1,0-0.1c0,0,0-0.1,0-0.1c0,0-0.1,0-0.1,0c-0.1,0-0.1,0-0.2,0v-0.1l0.3,0l0.3,0v0v0.4c0.1-0.1,0.1-0.2,0.2-0.3
		c0.1-0.1,0.2-0.1,0.4-0.1c0.1,0,0.2,0,0.2,0s0.2,0.1,0.2,0.1c0,0,0.1,0.1,0.1,0.1s0,0.1,0,0.1c0.1-0.1,0.1-0.2,0.2-0.3
		c0.1-0.1,0.2-0.1,0.4-0.1c0.1,0,0.2,0,0.2,0c0.1,0,0.2,0.1,0.2,0.1c0.1,0.1,0.1,0.1,0.1,0.2c0,0.1,0,0.2,0,0.2v1c0,0,0,0.1,0,0.1
		c0,0,0,0,0,0.1c0,0,0.1,0,0.1,0c0.1,0,0.1,0,0.2,0v0.1C256.9,189.7,256.7,189.7,256.6,189.7z"/>
	<path class="st5" d="M259.3,189.5c0,0,0,0.1-0.1,0.1c0,0-0.1,0.1-0.1,0.1c0,0-0.1,0-0.1,0c-0.1,0-0.2,0-0.2-0.1
		c-0.1-0.1-0.1-0.2-0.1-0.3c0,0.1-0.1,0.2-0.2,0.3s-0.2,0.1-0.3,0.1c-0.1,0-0.2,0-0.3,0s-0.2,0-0.2-0.1s-0.1-0.1-0.2-0.1
		c0-0.1-0.1-0.1-0.1-0.2c0-0.1,0-0.2,0.1-0.3s0.2-0.2,0.3-0.2c0.1-0.1,0.3-0.1,0.4-0.1c0.1,0,0.3,0,0.4,0v-0.2c0-0.1,0-0.1,0-0.2
		s-0.1-0.1-0.1-0.2c-0.1-0.1-0.2-0.2-0.3-0.2c-0.1,0-0.2,0-0.3,0s-0.2,0.1-0.2,0.1c0.1,0,0.1,0,0.1,0c0,0,0.1,0.1,0.1,0.2
		c0,0.1,0,0.1-0.1,0.2s-0.1,0-0.1,0s-0.1,0-0.1,0s-0.1-0.1-0.1-0.2c0-0.1,0-0.1,0.1-0.2c0-0.1,0.1-0.1,0.2-0.2
		c0.1,0,0.1-0.1,0.2-0.1s0.2,0,0.2,0c0.1,0,0.2,0,0.3,0c0.1,0,0.2,0.1,0.3,0.1c0.1,0.1,0.1,0.1,0.2,0.2c0,0.1,0.1,0.2,0.1,0.2v1
		c0,0.1,0,0.1,0,0.2c0,0,0.1,0.1,0.1,0.1c0.1,0,0.1,0,0.1-0.1c0,0,0-0.1,0-0.2V189h0.1v0.3C259.3,189.4,259.3,189.4,259.3,189.5z
		 M258.6,188.6c-0.1,0-0.2,0-0.3,0c-0.1,0-0.2,0.1-0.3,0.1c-0.1,0-0.1,0.1-0.2,0.2s-0.1,0.2-0.1,0.3c0,0.1,0,0.1,0,0.1
		c0,0,0,0.1,0.1,0.1c0,0,0.1,0.1,0.1,0.1c0,0,0.1,0,0.1,0c0.1,0,0.1,0,0.2,0c0.1,0,0.1-0.1,0.2-0.1s0.1-0.1,0.1-0.2
		c0-0.1,0-0.1,0-0.2V188.6z M258.1,187.6L258.1,187.6l0.4-0.7c0,0,0.1-0.1,0.1-0.1c0,0,0.1,0,0.1,0.1s0,0.1,0,0.1c0,0,0,0.1-0.1,0.1
		L258.1,187.6z"/>
	<path class="st5" d="M261.1,189.7c-0.1,0-0.3,0-0.4,0v-0.1c0,0,0,0,0.1,0c0,0,0,0,0.1,0c0,0,0-0.1,0-0.1l-0.4-0.5l-0.3,0.4
		c0,0,0,0.1,0,0.1c0,0,0,0.1,0,0.1c0,0.1,0.1,0.1,0.1,0.1v0.1c-0.1,0-0.3,0-0.4,0c-0.1,0-0.3,0-0.4,0v-0.1c0.1,0,0.2,0,0.3-0.1
		c0,0,0.1-0.1,0.1-0.1s0.1-0.1,0.1-0.1l0.4-0.5l-0.5-0.7c0,0,0-0.1-0.1-0.1s-0.1,0-0.1-0.1c0,0-0.1,0-0.1,0c0,0-0.1,0-0.1,0v-0.1
		c0.1,0,0.3,0,0.4,0c0.1,0,0.3,0,0.4,0v0.1c-0.1,0-0.1,0-0.1,0.1c0,0,0,0.1,0,0.1l0.4,0.5l0.3-0.3c0-0.1,0.1-0.1,0.1-0.2
		c0,0,0,0,0-0.1c0,0,0,0-0.1,0v-0.1c0.1,0,0.3,0,0.4,0c0.1,0,0.3,0,0.4,0v0.1c-0.1,0-0.2,0-0.3,0.1c0,0-0.1,0.1-0.1,0.1
		s-0.1,0.1-0.1,0.1l-0.3,0.4l0.6,0.7c0,0,0,0.1,0.1,0.1c0,0,0.1,0,0.1,0.1c0,0,0.1,0,0.1,0c0.1,0,0.1,0,0.1,0v0.1
		C261.4,189.7,261.3,189.7,261.1,189.7z"/>
	<path class="st5" d="M269.4,184.7c0,0-0.1,0-0.1,0h-4.6c0,0-0.1,0-0.1,0c0,0,0-0.1,0-0.1c0,0,0-0.1,0-0.1c0,0,0.1,0,0.1,0h4.6
		c0,0,0.1,0,0.1,0c0,0,0,0.1,0,0.1C269.4,184.6,269.4,184.7,269.4,184.7z M269.4,186.2c0,0-0.1,0-0.1,0h-4.6c0,0-0.1,0-0.1,0
		c0,0,0-0.1,0-0.1c0,0,0-0.1,0-0.1c0,0,0.1,0,0.1,0h4.6c0,0,0.1,0,0.1,0c0,0,0,0.1,0,0.1C269.4,186.1,269.4,186.1,269.4,186.2z"/>
	<path class="st5" d="M276.4,186.5c0,0.1-0.1,0.3-0.1,0.4s-0.1,0.2-0.2,0.3c-0.1,0.1-0.2,0.1-0.3,0.1c-0.2,0-0.3,0-0.4-0.1
		c-0.1-0.1-0.2-0.2-0.2-0.3c-0.1,0.1-0.2,0.2-0.4,0.3s-0.3,0.1-0.5,0.1c-0.2,0-0.3,0-0.4-0.1c-0.1-0.1-0.2-0.2-0.3-0.3
		c-0.1-0.1-0.1-0.3-0.1-0.5c0-0.2,0-0.3,0.1-0.5c0-0.2,0.1-0.3,0.2-0.5c0.1-0.2,0.1-0.4,0.2-0.6c0.1-0.2,0.1-0.4,0.1-0.5
		s-0.1-0.2-0.2-0.2c-0.1,0-0.2,0-0.2,0.1s-0.1,0.1-0.2,0.2c-0.1,0.1-0.1,0.2-0.2,0.3c0,0.1-0.1,0.2-0.1,0.4c0,0-0.1,0.1-0.1,0.1H273
		c0,0-0.1,0-0.1-0.1c0-0.1,0.1-0.3,0.1-0.4c0.1-0.1,0.1-0.3,0.2-0.4c0.1-0.1,0.2-0.2,0.3-0.3c0.1-0.1,0.2-0.1,0.4-0.1
		c0.1,0,0.2,0,0.3,0.1s0.1,0.1,0.2,0.2s0.1,0.2,0.1,0.3c0,0.1,0,0.2-0.1,0.3c-0.1,0.2-0.1,0.4-0.2,0.6c-0.1,0.2-0.1,0.4-0.2,0.5
		s-0.1,0.3-0.1,0.5c0,0.2,0,0.3,0,0.4c0,0.1,0.1,0.2,0.1,0.2s0.1,0.1,0.2,0.1c0.2,0,0.3-0.1,0.4-0.2s0.2-0.2,0.3-0.4c0,0,0,0,0-0.1
		c0,0,0,0,0-0.1l0.5-2.2c0-0.1,0.1-0.1,0.1-0.2c0.1,0,0.1-0.1,0.2-0.1s0.1,0,0.1,0.1c0,0,0,0.1,0,0.2l-0.5,2.2
		c-0.1,0.2-0.1,0.4-0.1,0.5c0,0.1,0.1,0.2,0.2,0.2c0.1,0,0.2-0.1,0.3-0.3c0.1-0.2,0.2-0.4,0.2-0.7c0,0,0-0.1,0.1-0.1h0.1
		c0,0,0,0,0,0c0,0,0,0,0,0C276.5,186.2,276.5,186.4,276.4,186.5z"/>
	<path class="st5" d="M278.3,189.2c0,0.1-0.1,0.2-0.2,0.3c-0.1,0.1-0.2,0.1-0.3,0.2c-0.1,0-0.2,0.1-0.3,0.1c-0.1,0-0.2,0-0.3,0
		c-0.1,0-0.2-0.1-0.3-0.1c-0.1-0.1-0.1-0.1-0.2-0.2c0-0.1-0.1-0.2-0.1-0.3c0-0.1,0-0.1,0.1-0.2c0.1,0,0.1-0.1,0.2-0.1
		c0.1,0,0.1,0,0.2,0.1s0.1,0.1,0.1,0.2c0,0,0,0.1,0,0.1c0,0,0,0.1-0.1,0.1c0,0-0.1,0-0.1,0c0,0-0.1,0-0.1,0c0.1,0.1,0.1,0.2,0.3,0.2
		c0.1,0.1,0.3,0.1,0.4,0.1c0.1,0,0.1,0,0.2-0.1s0.1-0.1,0.2-0.1c0-0.1,0.1-0.2,0.1-0.2c0-0.1,0-0.2,0-0.3s0-0.2,0-0.3
		s-0.1-0.2-0.1-0.2c0-0.1-0.1-0.1-0.2-0.1c-0.1,0-0.1-0.1-0.2-0.1h-0.3c0,0,0,0,0,0v0c0,0,0,0,0,0c0,0,0,0,0,0c0,0,0.1,0,0.1,0
		c0,0,0.1,0,0.1,0c0.1,0,0.1,0,0.2-0.1c0.1,0,0.1-0.1,0.1-0.2s0.1-0.1,0.1-0.2c0-0.1,0-0.2,0-0.3c0-0.1,0-0.1,0-0.2
		c0-0.1,0-0.1-0.1-0.2c-0.1-0.1-0.2-0.1-0.3-0.1c-0.1,0-0.2,0-0.3,0.1c-0.1,0-0.2,0.1-0.2,0.2c0.1,0,0.1,0,0.2,0
		c0.1,0,0.1,0.1,0.1,0.2c0,0.1,0,0.1-0.1,0.2s-0.1,0.1-0.2,0.1c-0.1,0-0.1,0-0.2-0.1c0,0-0.1-0.1-0.1-0.2c0-0.1,0-0.2,0.1-0.2
		c0-0.1,0.1-0.1,0.2-0.2c0.1-0.1,0.2-0.1,0.2-0.1s0.2,0,0.3,0c0.1,0,0.2,0,0.3,0s0.2,0.1,0.3,0.1c0.1,0,0.1,0.1,0.2,0.2
		c0,0.1,0.1,0.2,0.1,0.2c0,0.1,0,0.2,0,0.3s-0.1,0.2-0.1,0.2c-0.1,0.1-0.1,0.1-0.2,0.2c-0.1,0-0.2,0.1-0.2,0.1c0.1,0,0.2,0,0.2,0.1
		c0.1,0,0.1,0.1,0.2,0.1c0.1,0.1,0.2,0.2,0.2,0.3c0,0.1,0.1,0.2,0.1,0.3C278.3,189,278.3,189.1,278.3,189.2z"/>
</g>
<g>
	<path class="st5" d="M253.6,207.4c0,0.1-0.1,0.3-0.1,0.4s-0.1,0.2-0.2,0.3c-0.1,0.1-0.2,0.1-0.3,0.1c-0.2,0-0.3,0-0.4-0.1
		c-0.1-0.1-0.2-0.2-0.2-0.3c-0.1,0.1-0.2,0.2-0.4,0.3s-0.3,0.1-0.5,0.1c-0.2,0-0.3,0-0.4-0.1c-0.1-0.1-0.2-0.2-0.3-0.3
		c-0.1-0.1-0.1-0.3-0.1-0.5c0-0.2,0-0.3,0.1-0.5c0-0.2,0.1-0.3,0.2-0.5c0.1-0.2,0.1-0.4,0.2-0.6c0.1-0.2,0.1-0.4,0.1-0.5
		s-0.1-0.2-0.2-0.2c-0.1,0-0.2,0-0.2,0.1s-0.1,0.1-0.2,0.2c-0.1,0.1-0.1,0.2-0.2,0.3c0,0.1-0.1,0.2-0.1,0.4c0,0-0.1,0.1-0.1,0.1
		h-0.1c0,0-0.1,0-0.1-0.1c0-0.1,0.1-0.3,0.1-0.4c0.1-0.1,0.1-0.3,0.2-0.4c0.1-0.1,0.2-0.2,0.3-0.3c0.1-0.1,0.2-0.1,0.4-0.1
		c0.1,0,0.2,0,0.3,0.1s0.1,0.1,0.2,0.2s0.1,0.2,0.1,0.3c0,0.1,0,0.2-0.1,0.3c-0.1,0.2-0.1,0.4-0.2,0.6c-0.1,0.2-0.1,0.4-0.2,0.5
		s-0.1,0.3-0.1,0.5c0,0.2,0,0.3,0,0.4c0,0.1,0.1,0.2,0.1,0.2s0.1,0.1,0.2,0.1c0.2,0,0.3-0.1,0.4-0.2s0.2-0.2,0.3-0.4c0,0,0,0,0-0.1
		c0,0,0,0,0-0.1l0.5-2.2c0-0.1,0.1-0.1,0.1-0.2c0.1,0,0.1-0.1,0.2-0.1s0.1,0,0.1,0.1c0,0,0,0.1,0,0.2l-0.5,2.2
		c-0.1,0.2-0.1,0.4-0.1,0.5c0,0.1,0.1,0.2,0.2,0.2c0.1,0,0.2-0.1,0.3-0.3c0.1-0.2,0.2-0.4,0.2-0.7c0,0,0-0.1,0.1-0.1h0.1
		c0,0,0,0,0,0c0,0,0,0,0,0C253.7,207.2,253.6,207.3,253.6,207.4z"/>
	<path class="st5" d="M256.6,210.6c-0.2,0-0.3,0-0.5,0v-0.1c0,0,0.1,0,0.2,0c0.1,0,0.1,0,0.1,0c0,0,0,0,0-0.1c0,0,0,0,0-0.1v-1
		c0-0.1,0-0.1,0-0.2c0-0.1,0-0.1-0.1-0.2c0,0-0.1-0.1-0.1-0.1c0,0-0.1,0-0.1,0c-0.1,0-0.2,0-0.2,0.1c-0.1,0-0.1,0.1-0.2,0.1
		c-0.1,0.1-0.1,0.1-0.1,0.2c0,0.1,0,0.2,0,0.3v0.9c0,0,0,0.1,0,0.1c0,0,0,0,0,0.1c0,0,0.1,0,0.1,0c0.1,0,0.1,0,0.2,0v0.1
		c-0.2,0-0.3,0-0.5,0c-0.2,0-0.3,0-0.5,0v-0.1c0,0,0.1,0,0.2,0c0.1,0,0.1,0,0.1,0c0,0,0,0,0-0.1c0,0,0,0,0-0.1v-1c0-0.1,0-0.1,0-0.2
		c0-0.1,0-0.1-0.1-0.2c0,0-0.1-0.1-0.1-0.1c0,0-0.1,0-0.1,0c-0.1,0-0.2,0-0.2,0.1s-0.1,0.1-0.2,0.1s-0.1,0.1-0.1,0.2
		c0,0.1,0,0.2,0,0.3v0.9c0,0,0,0.1,0,0.1c0,0,0,0,0,0.1c0,0,0.1,0,0.1,0c0.1,0,0.1,0,0.2,0v0.1c-0.1,0-0.1,0-0.2,0
		c-0.1,0-0.1,0-0.2,0h-0.1c-0.2,0-0.3,0-0.5,0v-0.1c0,0,0.1,0,0.2,0c0.1,0,0.1,0,0.1,0c0,0,0,0,0-0.1c0,0,0,0,0-0.1v-1.2
		c0,0,0-0.1,0-0.1c0,0,0-0.1,0-0.1c0,0-0.1,0-0.1,0c-0.1,0-0.1,0-0.2,0v-0.1l0.3,0l0.3,0v0v0.4c0.1-0.1,0.1-0.2,0.2-0.3
		c0.1-0.1,0.2-0.1,0.4-0.1c0.1,0,0.2,0,0.2,0s0.2,0.1,0.2,0.1c0,0,0.1,0.1,0.1,0.1s0,0.1,0,0.1c0.1-0.1,0.1-0.2,0.2-0.3
		c0.1-0.1,0.2-0.1,0.4-0.1c0.1,0,0.2,0,0.2,0c0.1,0,0.2,0.1,0.2,0.1c0.1,0.1,0.1,0.1,0.1,0.2c0,0.1,0,0.2,0,0.2v1c0,0,0,0.1,0,0.1
		c0,0,0,0,0,0.1c0,0,0.1,0,0.1,0c0.1,0,0.1,0,0.2,0v0.1C256.9,210.6,256.7,210.6,256.6,210.6z"/>
	<path class="st5" d="M259.3,210.4c0,0,0,0.1-0.1,0.1c0,0-0.1,0.1-0.1,0.1c0,0-0.1,0-0.1,0c-0.1,0-0.2,0-0.2-0.1
		c-0.1-0.1-0.1-0.2-0.1-0.3c0,0.1-0.1,0.2-0.2,0.3s-0.2,0.1-0.3,0.1c-0.1,0-0.2,0-0.3,0s-0.2,0-0.2-0.1s-0.1-0.1-0.2-0.1
		c0-0.1-0.1-0.1-0.1-0.2c0-0.1,0-0.2,0.1-0.3s0.2-0.2,0.3-0.2c0.1-0.1,0.3-0.1,0.4-0.1c0.1,0,0.3,0,0.4,0v-0.2c0-0.1,0-0.1,0-0.2
		s-0.1-0.1-0.1-0.2c-0.1-0.1-0.2-0.2-0.3-0.2c-0.1,0-0.2,0-0.3,0s-0.2,0.1-0.2,0.1c0.1,0,0.1,0,0.1,0c0,0,0.1,0.1,0.1,0.2
		c0,0.1,0,0.1-0.1,0.2s-0.1,0-0.1,0s-0.1,0-0.1,0s-0.1-0.1-0.1-0.2c0-0.1,0-0.1,0.1-0.2c0-0.1,0.1-0.1,0.2-0.2
		c0.1,0,0.1-0.1,0.2-0.1s0.2,0,0.2,0c0.1,0,0.2,0,0.3,0c0.1,0,0.2,0.1,0.3,0.1c0.1,0.1,0.1,0.1,0.2,0.2c0,0.1,0.1,0.2,0.1,0.2v1
		c0,0.1,0,0.1,0,0.2c0,0,0.1,0.1,0.1,0.1c0.1,0,0.1,0,0.1-0.1c0,0,0-0.1,0-0.2V210h0.1v0.3C259.3,210.3,259.3,210.4,259.3,210.4z
		 M258.6,209.6c-0.1,0-0.2,0-0.3,0c-0.1,0-0.2,0.1-0.3,0.1c-0.1,0-0.1,0.1-0.2,0.2s-0.1,0.2-0.1,0.3c0,0.1,0,0.1,0,0.1
		c0,0,0,0.1,0.1,0.1c0,0,0.1,0.1,0.1,0.1c0,0,0.1,0,0.1,0c0.1,0,0.1,0,0.2,0c0.1,0,0.1-0.1,0.2-0.1s0.1-0.1,0.1-0.2
		c0-0.1,0-0.1,0-0.2V209.6z M258.1,208.5L258.1,208.5l0.4-0.7c0,0,0.1-0.1,0.1-0.1c0,0,0.1,0,0.1,0.1s0,0.1,0,0.1c0,0,0,0.1-0.1,0.1
		L258.1,208.5z"/>
	<path class="st5" d="M261.1,210.6c-0.1,0-0.3,0-0.4,0v-0.1c0,0,0,0,0.1,0c0,0,0,0,0.1,0c0,0,0-0.1,0-0.1l-0.4-0.5l-0.3,0.4
		c0,0,0,0.1,0,0.1c0,0,0,0.1,0,0.1c0,0.1,0.1,0.1,0.1,0.1v0.1c-0.1,0-0.3,0-0.4,0c-0.1,0-0.3,0-0.4,0v-0.1c0.1,0,0.2,0,0.3-0.1
		c0,0,0.1-0.1,0.1-0.1s0.1-0.1,0.1-0.1l0.4-0.5l-0.5-0.7c0,0,0-0.1-0.1-0.1s-0.1,0-0.1-0.1c0,0-0.1,0-0.1,0c0,0-0.1,0-0.1,0v-0.1
		c0.1,0,0.3,0,0.4,0c0.1,0,0.3,0,0.4,0v0.1c-0.1,0-0.1,0-0.1,0.1c0,0,0,0.1,0,0.1l0.4,0.5l0.3-0.3c0-0.1,0.1-0.1,0.1-0.2
		c0,0,0,0,0-0.1c0,0,0,0-0.1,0v-0.1c0.1,0,0.3,0,0.4,0c0.1,0,0.3,0,0.4,0v0.1c-0.1,0-0.2,0-0.3,0.1c0,0-0.1,0.1-0.1,0.1
		s-0.1,0.1-0.1,0.1l-0.3,0.4l0.6,0.7c0,0,0,0.1,0.1,0.1c0,0,0.1,0,0.1,0.1c0,0,0.1,0,0.1,0c0.1,0,0.1,0,0.1,0v0.1
		C261.4,210.6,261.3,210.6,261.1,210.6z"/>
	<path class="st5" d="M269.4,205.7c0,0-0.1,0-0.1,0h-4.6c0,0-0.1,0-0.1,0c0,0,0-0.1,0-0.1c0,0,0-0.1,0-0.1c0,0,0.1,0,0.1,0h4.6
		c0,0,0.1,0,0.1,0c0,0,0,0.1,0,0.1C269.4,205.6,269.4,205.6,269.4,205.7z M269.4,207.1c0,0-0.1,0-0.1,0h-4.6c0,0-0.1,0-0.1,0
		c0,0,0-0.1,0-0.1c0,0,0-0.1,0-0.1c0,0,0.1,0,0.1,0h4.6c0,0,0.1,0,0.1,0c0,0,0,0.1,0,0.1C269.4,207,269.4,207.1,269.4,207.1z"/>
	<path class="st5" d="M276.4,207.4c0,0.1-0.1,0.3-0.1,0.4s-0.1,0.2-0.2,0.3c-0.1,0.1-0.2,0.1-0.3,0.1c-0.2,0-0.3,0-0.4-0.1
		c-0.1-0.1-0.2-0.2-0.2-0.3c-0.1,0.1-0.2,0.2-0.4,0.3s-0.3,0.1-0.5,0.1c-0.2,0-0.3,0-0.4-0.1c-0.1-0.1-0.2-0.2-0.3-0.3
		c-0.1-0.1-0.1-0.3-0.1-0.5c0-0.2,0-0.3,0.1-0.5c0-0.2,0.1-0.3,0.2-0.5c0.1-0.2,0.1-0.4,0.2-0.6c0.1-0.2,0.1-0.4,0.1-0.5
		s-0.1-0.2-0.2-0.2c-0.1,0-0.2,0-0.2,0.1s-0.1,0.1-0.2,0.2c-0.1,0.1-0.1,0.2-0.2,0.3c0,0.1-0.1,0.2-0.1,0.4c0,0-0.1,0.1-0.1,0.1H273
		c0,0-0.1,0-0.1-0.1c0-0.1,0.1-0.3,0.1-0.4c0.1-0.1,0.1-0.3,0.2-0.4c0.1-0.1,0.2-0.2,0.3-0.3c0.1-0.1,0.2-0.1,0.4-0.1
		c0.1,0,0.2,0,0.3,0.1s0.1,0.1,0.2,0.2s0.1,0.2,0.1,0.3c0,0.1,0,0.2-0.1,0.3c-0.1,0.2-0.1,0.4-0.2,0.6c-0.1,0.2-0.1,0.4-0.2,0.5
		s-0.1,0.3-0.1,0.5c0,0.2,0,0.3,0,0.4c0,0.1,0.1,0.2,0.1,0.2s0.1,0.1,0.2,0.1c0.2,0,0.3-0.1,0.4-0.2s0.2-0.2,0.3-0.4c0,0,0,0,0-0.1
		c0,0,0,0,0-0.1l0.5-2.2c0-0.1,0.1-0.1,0.1-0.2c0.1,0,0.1-0.1,0.2-0.1s0.1,0,0.1,0.1c0,0,0,0.1,0,0.2l-0.5,2.2
		c-0.1,0.2-0.1,0.4-0.1,0.5c0,0.1,0.1,0.2,0.2,0.2c0.1,0,0.2-0.1,0.3-0.3c0.1-0.2,0.2-0.4,0.2-0.7c0,0,0-0.1,0.1-0.1h0.1
		c0,0,0,0,0,0c0,0,0,0,0,0C276.5,207.2,276.5,207.3,276.4,207.4z"/>
	<path class="st5" d="M278.2,210.1c0,0.1-0.1,0.2-0.2,0.3c-0.1,0.1-0.2,0.2-0.3,0.2c-0.1,0-0.2,0.1-0.4,0.1c-0.1,0-0.2,0-0.3-0.1
		c-0.1,0-0.2-0.1-0.2-0.2c-0.1-0.1-0.1-0.2-0.2-0.3c0-0.1-0.1-0.2-0.1-0.3c0-0.1,0-0.1,0.1-0.2s0.1-0.1,0.1-0.1s0.1,0,0.1,0.1
		s0.1,0.1,0.1,0.2c0,0,0,0.1,0,0.1s0,0.1-0.1,0.1s-0.1,0-0.1,0c0,0-0.1,0-0.1,0c0,0.1,0.1,0.3,0.2,0.4s0.3,0.1,0.4,0.1
		c0.1,0,0.2,0,0.2-0.1s0.1-0.1,0.2-0.2c0.1-0.1,0.1-0.2,0.1-0.3c0-0.1,0-0.2,0-0.3c0-0.1,0-0.2,0-0.3c0-0.1,0-0.2-0.1-0.3
		c0-0.1-0.1-0.1-0.1-0.2c-0.1,0-0.1-0.1-0.2-0.1c-0.1,0-0.2,0-0.3,0.1c-0.1,0.1-0.2,0.1-0.2,0.2c0,0,0,0,0,0h0c0,0-0.1,0-0.1,0v-1.4
		c0,0,0,0,0,0c0,0,0,0,0,0c0,0,0,0,0,0c0.2,0.1,0.4,0.1,0.6,0.1c0.2,0,0.4,0,0.6-0.1c0,0,0,0,0,0c0,0,0,0,0,0c0,0,0,0,0,0
		c0,0,0,0,0,0c-0.1,0.1-0.2,0.2-0.4,0.3c-0.1,0.1-0.3,0.1-0.5,0.1c-0.1,0-0.3,0-0.4-0.1v0.9c0.1-0.1,0.2-0.1,0.2-0.2
		s0.2-0.1,0.3-0.1c0.1,0,0.2,0,0.3,0.1c0.1,0.1,0.2,0.1,0.3,0.2c0.1,0.1,0.1,0.2,0.2,0.3s0.1,0.2,0.1,0.4
		C278.3,209.9,278.3,210,278.2,210.1z"/>
</g>
<g>
	<path class="st5" d="M122.5,87.5c0,0.1-0.1,0.3-0.1,0.4s-0.1,0.2-0.2,0.3c-0.1,0.1-0.2,0.1-0.3,0.1c-0.2,0-0.3,0-0.4-0.1
		c-0.1-0.1-0.2-0.2-0.2-0.3c-0.1,0.1-0.2,0.2-0.4,0.3c-0.1,0.1-0.3,0.1-0.5,0.1c-0.2,0-0.3,0-0.4-0.1s-0.2-0.2-0.3-0.3
		c-0.1-0.1-0.1-0.3-0.1-0.5c0-0.2,0-0.3,0.1-0.5c0-0.2,0.1-0.3,0.2-0.5c0.1-0.2,0.1-0.4,0.2-0.6c0.1-0.2,0.1-0.4,0.1-0.5
		s-0.1-0.2-0.2-0.2c-0.1,0-0.2,0-0.2,0.1c-0.1,0.1-0.1,0.1-0.2,0.2s-0.1,0.2-0.2,0.3c0,0.1-0.1,0.2-0.1,0.4c0,0-0.1,0.1-0.1,0.1
		h-0.1c0,0-0.1,0-0.1-0.1c0-0.1,0.1-0.3,0.1-0.4c0.1-0.1,0.1-0.3,0.2-0.4c0.1-0.1,0.2-0.2,0.3-0.3c0.1-0.1,0.2-0.1,0.4-0.1
		c0.1,0,0.2,0,0.3,0.1s0.1,0.1,0.2,0.2c0,0.1,0.1,0.2,0.1,0.3c0,0.1,0,0.2-0.1,0.3c-0.1,0.2-0.1,0.4-0.2,0.6
		c-0.1,0.2-0.1,0.4-0.2,0.5c0,0.2-0.1,0.3-0.1,0.5c0,0.2,0,0.3,0,0.4c0,0.1,0.1,0.2,0.1,0.2s0.1,0.1,0.2,0.1c0.2,0,0.3-0.1,0.4-0.2
		c0.1-0.1,0.2-0.2,0.3-0.4c0,0,0,0,0-0.1s0,0,0-0.1l0.5-2.2c0-0.1,0.1-0.1,0.1-0.2s0.1-0.1,0.2-0.1s0.1,0,0.1,0.1c0,0,0,0.1,0,0.2
		l-0.5,2.2c-0.1,0.2-0.1,0.4-0.1,0.5c0,0.1,0.1,0.2,0.2,0.2c0.1,0,0.2-0.1,0.3-0.3c0.1-0.2,0.1-0.4,0.2-0.7c0,0,0-0.1,0.1-0.1h0.1
		c0,0,0,0,0,0c0,0,0,0,0,0C122.6,87.3,122.6,87.4,122.5,87.5z"/>
	<path class="st5" d="M124.3,90.7h-1.6v-0.1c0,0,0,0,0,0l0.7-0.7c0.1-0.1,0.2-0.2,0.2-0.3s0.2-0.2,0.2-0.3c0.1-0.1,0.1-0.2,0.2-0.3
		s0.1-0.2,0.1-0.3c0-0.1,0-0.2,0-0.3c0-0.1-0.1-0.2-0.1-0.2c0-0.1-0.1-0.1-0.2-0.2c-0.1,0-0.2-0.1-0.3-0.1c-0.1,0-0.3,0-0.4,0.1
		c-0.1,0.1-0.2,0.2-0.2,0.3c0,0,0.1,0,0.1,0s0.1,0,0.1,0c0,0,0.1,0,0.1,0.1c0,0,0,0.1,0,0.1c0,0.1,0,0.1-0.1,0.2
		c0,0-0.1,0.1-0.2,0.1c-0.1,0-0.1,0-0.2-0.1s-0.1-0.1-0.1-0.2c0-0.1,0-0.2,0.1-0.3c0-0.1,0.1-0.2,0.2-0.3c0.1-0.1,0.2-0.1,0.3-0.2
		c0.1,0,0.2-0.1,0.3-0.1c0.1,0,0.3,0,0.4,0.1s0.2,0.1,0.3,0.2c0.1,0.1,0.1,0.2,0.2,0.3c0,0.1,0.1,0.2,0.1,0.3c0,0.1,0,0.3-0.1,0.4
		c-0.1,0.1-0.1,0.2-0.2,0.3c-0.1,0.1-0.2,0.2-0.3,0.3s-0.2,0.2-0.3,0.3l-0.5,0.5h0.4c0.1,0,0.1,0,0.2,0c0.1,0,0.2,0,0.2,0
		s0.1,0,0.2,0c0.1,0,0.1,0,0.1,0c0,0,0,0,0-0.1s0-0.1,0-0.1s0-0.1,0-0.1s0-0.1,0-0.1h0.1L124.3,90.7z"/>
</g>
<g>
	<path class="st5" d="M140.3,62.1c0,0.1-0.1,0.3-0.1,0.4s-0.1,0.2-0.2,0.3c-0.1,0.1-0.2,0.1-0.3,0.1c-0.2,0-0.3,0-0.4-0.1
		c-0.1-0.1-0.2-0.2-0.2-0.3c-0.1,0.1-0.2,0.2-0.4,0.3c-0.1,0.1-0.3,0.1-0.5,0.1c-0.2,0-0.3,0-0.4-0.1s-0.2-0.2-0.3-0.3
		c-0.1-0.1-0.1-0.3-0.1-0.5c0-0.2,0-0.3,0.1-0.5c0-0.2,0.1-0.3,0.2-0.5c0.1-0.2,0.1-0.4,0.2-0.6c0.1-0.2,0.1-0.4,0.1-0.5
		s-0.1-0.2-0.2-0.2c-0.1,0-0.2,0-0.2,0.1c-0.1,0.1-0.1,0.1-0.2,0.2s-0.1,0.2-0.2,0.3c0,0.1-0.1,0.2-0.1,0.4c0,0-0.1,0.1-0.1,0.1
		h-0.1c0,0-0.1,0-0.1-0.1c0-0.1,0.1-0.3,0.1-0.4c0.1-0.1,0.1-0.3,0.2-0.4c0.1-0.1,0.2-0.2,0.3-0.3c0.1-0.1,0.2-0.1,0.4-0.1
		c0.1,0,0.2,0,0.3,0.1s0.1,0.1,0.2,0.2c0,0.1,0.1,0.2,0.1,0.3c0,0.1,0,0.2-0.1,0.3c-0.1,0.2-0.1,0.4-0.2,0.6
		c-0.1,0.2-0.1,0.4-0.2,0.5c0,0.2-0.1,0.3-0.1,0.5c0,0.2,0,0.3,0,0.4c0,0.1,0.1,0.2,0.1,0.2s0.1,0.1,0.2,0.1c0.2,0,0.3-0.1,0.4-0.2
		c0.1-0.1,0.2-0.2,0.3-0.4c0,0,0,0,0-0.1s0,0,0-0.1l0.5-2.2c0-0.1,0.1-0.1,0.1-0.2s0.1-0.1,0.2-0.1s0.1,0,0.1,0.1c0,0,0,0.1,0,0.2
		l-0.5,2.2c-0.1,0.2-0.1,0.4-0.1,0.5c0,0.1,0.1,0.2,0.2,0.2c0.1,0,0.2-0.1,0.3-0.3c0.1-0.2,0.1-0.4,0.2-0.7c0,0,0-0.1,0.1-0.1h0.1
		c0,0,0,0,0,0c0,0,0,0,0,0C140.4,61.8,140.4,61.9,140.3,62.1z"/>
	<path class="st5" d="M142.2,64.8c0,0.1-0.1,0.2-0.2,0.3c-0.1,0.1-0.2,0.1-0.3,0.2s-0.2,0.1-0.3,0.1c-0.1,0-0.2,0-0.3,0
		s-0.2-0.1-0.3-0.1c-0.1-0.1-0.1-0.1-0.2-0.2c0-0.1-0.1-0.2-0.1-0.3c0-0.1,0-0.1,0.1-0.2s0.1-0.1,0.2-0.1c0.1,0,0.1,0,0.2,0.1
		c0.1,0,0.1,0.1,0.1,0.2c0,0,0,0.1,0,0.1c0,0,0,0.1-0.1,0.1c0,0-0.1,0-0.1,0s-0.1,0-0.1,0c0.1,0.1,0.1,0.2,0.3,0.2
		c0.1,0.1,0.3,0.1,0.4,0.1c0.1,0,0.1,0,0.2-0.1c0.1,0,0.1-0.1,0.2-0.1c0-0.1,0.1-0.2,0.1-0.2c0-0.1,0-0.2,0-0.3c0-0.1,0-0.2,0-0.3
		c0-0.1-0.1-0.2-0.1-0.2c0-0.1-0.1-0.1-0.2-0.1c-0.1,0-0.1-0.1-0.2-0.1H141c0,0,0,0,0,0v0c0,0,0,0,0,0c0,0,0,0,0,0c0,0,0.1,0,0.1,0
		s0.1,0,0.1,0c0.1,0,0.1,0,0.2-0.1c0.1,0,0.1-0.1,0.1-0.2s0.1-0.1,0.1-0.2c0-0.1,0-0.2,0-0.3c0-0.1,0-0.1,0-0.2c0-0.1,0-0.1-0.1-0.2
		c-0.1-0.1-0.2-0.1-0.3-0.1c-0.1,0-0.2,0-0.3,0.1c-0.1,0-0.2,0.1-0.2,0.2c0.1,0,0.1,0,0.2,0c0.1,0,0.1,0.1,0.1,0.2
		c0,0.1,0,0.1-0.1,0.2c0,0-0.1,0.1-0.2,0.1c-0.1,0-0.1,0-0.2-0.1c0,0-0.1-0.1-0.1-0.2c0-0.1,0-0.2,0.1-0.2s0.1-0.1,0.2-0.2
		s0.2-0.1,0.2-0.1c0.1,0,0.2,0,0.3,0c0.1,0,0.2,0,0.3,0c0.1,0,0.2,0.1,0.3,0.1c0.1,0,0.1,0.1,0.2,0.2s0.1,0.2,0.1,0.2
		c0,0.1,0,0.2,0,0.3c0,0.1-0.1,0.2-0.1,0.2s-0.1,0.1-0.2,0.2c-0.1,0-0.2,0.1-0.2,0.1c0.1,0,0.2,0,0.2,0.1s0.1,0.1,0.2,0.1
		c0.1,0.1,0.1,0.2,0.2,0.3c0,0.1,0.1,0.2,0.1,0.3C142.2,64.6,142.2,64.7,142.2,64.8z"/>
</g>
<g>
	<path class="st5" d="M277.2,38.4c0,0.1-0.1,0.3-0.1,0.4s-0.1,0.2-0.2,0.3c-0.1,0.1-0.2,0.1-0.3,0.1c-0.2,0-0.3,0-0.4-0.1
		c-0.1-0.1-0.2-0.2-0.2-0.3c-0.1,0.1-0.2,0.2-0.4,0.3s-0.3,0.1-0.5,0.1c-0.2,0-0.3,0-0.4-0.1c-0.1-0.1-0.2-0.2-0.3-0.3
		c-0.1-0.1-0.1-0.3-0.1-0.5c0-0.2,0-0.3,0.1-0.5c0-0.2,0.1-0.3,0.2-0.5c0.1-0.2,0.1-0.4,0.2-0.6c0.1-0.2,0.1-0.4,0.1-0.5
		s-0.1-0.2-0.2-0.2c-0.1,0-0.2,0-0.2,0.1s-0.1,0.1-0.2,0.2c-0.1,0.1-0.1,0.2-0.2,0.3c0,0.1-0.1,0.2-0.1,0.4c0,0-0.1,0.1-0.1,0.1
		h-0.1c0,0-0.1,0-0.1-0.1c0-0.1,0.1-0.3,0.1-0.4c0.1-0.1,0.1-0.3,0.2-0.4c0.1-0.1,0.2-0.2,0.3-0.3c0.1-0.1,0.2-0.1,0.4-0.1
		c0.1,0,0.2,0,0.3,0.1s0.1,0.1,0.2,0.2s0.1,0.2,0.1,0.3c0,0.1,0,0.2-0.1,0.3c-0.1,0.2-0.1,0.4-0.2,0.6c-0.1,0.2-0.1,0.4-0.2,0.5
		c0,0.2-0.1,0.3-0.1,0.5c0,0.2,0,0.3,0,0.4c0,0.1,0.1,0.2,0.1,0.2s0.1,0.1,0.2,0.1c0.2,0,0.3-0.1,0.4-0.2c0.1-0.1,0.2-0.2,0.3-0.4
		c0,0,0,0,0-0.1s0,0,0-0.1l0.5-2.2c0-0.1,0.1-0.1,0.1-0.2s0.1-0.1,0.2-0.1s0.1,0,0.1,0.1c0,0,0,0.1,0,0.2l-0.5,2.2
		c-0.1,0.2-0.1,0.4-0.1,0.5c0,0.1,0.1,0.2,0.2,0.2c0.1,0,0.2-0.1,0.3-0.3s0.2-0.4,0.2-0.7c0,0,0-0.1,0.1-0.1h0.1c0,0,0,0,0,0
		c0,0,0,0,0,0C277.3,38.2,277.2,38.3,277.2,38.4z"/>
	<path class="st5" d="M279,41.1c0,0.1-0.1,0.2-0.2,0.3c-0.1,0.1-0.2,0.2-0.3,0.2c-0.1,0-0.2,0.1-0.4,0.1c-0.1,0-0.2,0-0.3-0.1
		s-0.2-0.1-0.2-0.2c-0.1-0.1-0.1-0.2-0.2-0.3c0-0.1-0.1-0.2-0.1-0.3c0-0.1,0-0.1,0.1-0.2s0.1-0.1,0.1-0.1s0.1,0,0.1,0.1
		s0.1,0.1,0.1,0.2c0,0,0,0.1,0,0.1s0,0.1-0.1,0.1c0,0-0.1,0-0.1,0c0,0-0.1,0-0.1,0c0,0.1,0.1,0.3,0.2,0.4c0.1,0.1,0.3,0.1,0.4,0.1
		c0.1,0,0.2,0,0.2-0.1s0.1-0.1,0.2-0.2c0.1-0.1,0.1-0.2,0.1-0.3c0-0.1,0-0.2,0-0.3s0-0.2,0-0.3c0-0.1,0-0.2-0.1-0.3
		c0-0.1-0.1-0.1-0.1-0.2c-0.1,0-0.1-0.1-0.2-0.1c-0.1,0-0.2,0-0.3,0.1c-0.1,0.1-0.2,0.1-0.2,0.2c0,0,0,0,0,0h0c0,0-0.1,0-0.1,0v-1.4
		c0,0,0,0,0,0c0,0,0,0,0,0c0,0,0,0,0,0c0.2,0.1,0.4,0.1,0.6,0.1c0.2,0,0.4,0,0.6-0.1c0,0,0,0,0,0c0,0,0,0,0,0c0,0,0,0,0,0
		c0,0,0,0,0,0c-0.1,0.1-0.2,0.2-0.4,0.3c-0.1,0.1-0.3,0.1-0.5,0.1c-0.1,0-0.3,0-0.4-0.1V40c0.1-0.1,0.2-0.1,0.2-0.2s0.2-0.1,0.3-0.1
		c0.1,0,0.2,0,0.3,0.1c0.1,0.1,0.2,0.1,0.3,0.2c0.1,0.1,0.1,0.2,0.2,0.3c0,0.1,0.1,0.2,0.1,0.4C279.1,40.9,279,41,279,41.1z"/>
</g>
<g>
	<path class="st5" d="M260.9,20.5c0,0.1-0.1,0.3-0.1,0.4s-0.1,0.2-0.2,0.3c-0.1,0.1-0.2,0.1-0.3,0.1c-0.2,0-0.3,0-0.4-0.1
		c-0.1-0.1-0.2-0.2-0.2-0.3c-0.1,0.1-0.2,0.2-0.4,0.3s-0.3,0.1-0.5,0.1c-0.2,0-0.3,0-0.4-0.1c-0.1-0.1-0.2-0.2-0.3-0.3
		c-0.1-0.1-0.1-0.3-0.1-0.5c0-0.2,0-0.3,0.1-0.5c0-0.2,0.1-0.3,0.2-0.5c0.1-0.2,0.1-0.4,0.2-0.6c0.1-0.2,0.1-0.4,0.1-0.5
		s-0.1-0.2-0.2-0.2c-0.1,0-0.2,0-0.2,0.1s-0.1,0.1-0.2,0.2c-0.1,0.1-0.1,0.2-0.2,0.3c0,0.1-0.1,0.2-0.1,0.4c0,0-0.1,0.1-0.1,0.1
		h-0.1c0,0-0.1,0-0.1-0.1c0-0.1,0.1-0.3,0.1-0.4c0.1-0.1,0.1-0.3,0.2-0.4c0.1-0.1,0.2-0.2,0.3-0.3c0.1-0.1,0.2-0.1,0.4-0.1
		c0.1,0,0.2,0,0.3,0.1s0.1,0.1,0.2,0.2s0.1,0.2,0.1,0.3c0,0.1,0,0.2-0.1,0.3c-0.1,0.2-0.1,0.4-0.2,0.6c-0.1,0.2-0.1,0.4-0.2,0.5
		c0,0.2-0.1,0.3-0.1,0.5c0,0.2,0,0.3,0,0.4c0,0.1,0.1,0.2,0.1,0.2s0.1,0.1,0.2,0.1c0.2,0,0.3-0.1,0.4-0.2c0.1-0.1,0.2-0.2,0.3-0.4
		c0,0,0,0,0-0.1s0,0,0-0.1l0.5-2.2c0-0.1,0.1-0.1,0.1-0.2s0.1-0.1,0.2-0.1s0.1,0,0.1,0.1c0,0,0,0.1,0,0.2l-0.5,2.2
		c-0.1,0.2-0.1,0.4-0.1,0.5c0,0.1,0.1,0.2,0.2,0.2c0.1,0,0.2-0.1,0.3-0.3s0.2-0.4,0.2-0.7c0,0,0-0.1,0.1-0.1h0.1c0,0,0,0,0,0
		c0,0,0,0,0,0C261,20.3,261,20.4,260.9,20.5z"/>
	<path class="st5" d="M262.5,23v0.4c0,0,0,0.1,0,0.1c0,0,0,0,0.1,0c0,0,0.1,0,0.2,0s0.1,0,0.2,0v0.1c-0.4,0-0.8,0-1.2,0v-0.1
		c0.1,0,0.1,0,0.2,0s0.1,0,0.2,0c0,0,0,0,0.1,0c0,0,0-0.1,0-0.1V23H261v-0.1l1.3-2.1c0,0,0,0,0,0h0c0,0,0,0,0,0v2h0.4V23H262.5z
		 M262.1,21.2l-1.1,1.6h1.1V21.2z"/>
</g>
<path class="st6" d="M164.8,115.5"/>
<g>
	<g>
		<line class="st7" x1="84.2" y1="144.9" x2="84.2" y2="143.8"/>
		<line class="st8" x1="84.2" y1="141.7" x2="84.2" y2="113.9"/>
		<line class="st7" x1="84.2" y1="112.8" x2="84.2" y2="111.7"/>
	</g>
</g>
<g>
	<path class="st3" d="M126.6,186.3"/>
</g>
<g>
	<path class="st3" d="M126.6,92.6"/>
</g>
<g>
	<g>
		<line class="st7" x1="189.5" y1="165.3" x2="189.5" y2="164.2"/>
		<line class="st9" x1="189.5" y1="162.1" x2="189.5" y2="94.8"/>
		<line class="st7" x1="189.5" y1="93.7" x2="189.5" y2="92.6"/>
	</g>
</g>
<g>
	<path class="st3" d="M144.6,207.3"/>
</g>
<g>
	<path class="st3" d="M144.6,67.3"/>
</g>
<g>
	<g>
		<line class="st7" x1="207.5" y1="186.3" x2="207.5" y2="185.2"/>
		<line class="st10" x1="207.5" y1="183" x2="207.5" y2="69.5"/>
		<line class="st7" x1="207.5" y1="68.4" x2="207.5" y2="67.3"/>
	</g>
</g>
<g>
	<line class="st0" x1="225.5" y1="46.6" x2="225.5" y2="207.3"/>
	<g>
		<line class="st7" x1="225.5" y1="46.6" x2="225.5" y2="47.7"/>
		<line class="st11" x1="225.5" y1="47.7" x2="225.5" y2="48.9"/>
		<line class="st12" x1="225.5" y1="49.9" x2="225.5" y2="206.2"/>
		<line class="st7" x1="225.5" y1="206.2" x2="225.5" y2="207.3"/>
	</g>
</g>
<g>
	<g>
		<line class="st0" x1="144.7" y1="207.3" x2="225.5" y2="207.3"/>
		<g>
			<line class="st7" x1="147" y1="207.3" x2="223.2" y2="207.3"/>
			<g>
				<path d="M147.4,207.3l0.6-1l0,0l-1.6,0.6c-0.6,0.1-1.1,0.2-1.7,0.4c0.6,0.1,1.1,0.2,1.7,0.4l1.6,0.6l0,0L147.4,207.3z"/>
			</g>
			<g>
				<path d="M222.7,207.3l-0.6-1l0,0l1.6,0.6c0.6,0.1,1.1,0.2,1.7,0.4c-0.6,0.1-1.1,0.2-1.7,0.4l-1.6,0.6l0,0L222.7,207.3z"/>
			</g>
		</g>
	</g>
	<g>
		<rect x="175.2" y="202" class="st0" width="19.7" height="10.5"/>
		<g>
			<path class="st5" d="M181.7,208.5c0,0.1-0.1,0.1-0.1,0.1h-3.6c0,0,0,0-0.1,0c0,0,0,0,0-0.1l0-0.1c0,0,0,0,0-0.1c0,0,0,0,0.1,0
				c0.1,0,0.2,0,0.3,0c0.1,0,0.2,0,0.2,0c0.1,0,0.1-0.1,0.1-0.2l1.1-4.3c0-0.1,0-0.2,0-0.2c0,0-0.1,0-0.2,0c-0.1,0-0.2,0-0.3,0
				c0,0,0,0-0.1,0c0,0,0,0,0-0.1l0-0.1c0-0.1,0.1-0.1,0.1-0.1c0.4,0,0.7,0,1.1,0c0.4,0,0.7,0,1.1,0c0,0,0,0,0.1,0c0,0,0,0,0,0.1
				l0,0.1c0,0,0,0,0,0.1c0,0,0,0-0.1,0c-0.1,0-0.3,0-0.4,0c-0.1,0-0.3,0-0.3,0c-0.1,0-0.1,0.1-0.2,0.2l-1.1,4.3c0,0.1,0,0.2,0,0.3
				c0,0,0.1,0,0.2,0h0.7c0.2,0,0.4,0,0.6-0.1c0.2-0.1,0.4-0.1,0.5-0.3c0.2-0.2,0.3-0.4,0.4-0.6s0.2-0.5,0.3-0.8c0-0.1,0-0.1,0.1-0.1
				h0.1c0.1,0,0.1,0,0.1,0.1L181.7,208.5z"/>
			<path class="st5" d="M183.8,210.9c0,0.1,0,0.1-0.1,0.2c0,0.1-0.1,0.1-0.1,0.1c-0.1,0-0.1,0.1-0.2,0.1c-0.1,0-0.2,0-0.2,0
				c-0.1,0-0.1-0.1-0.2-0.1s-0.1-0.1-0.1-0.2s0-0.2,0-0.2v-1.3h-0.4v-0.1c0.1,0,0.2,0,0.3-0.1s0.1-0.1,0.2-0.2s0.1-0.2,0.1-0.3
				s0-0.2,0-0.3h0.1v0.8h0.6v0.1h-0.6v1.3c0,0.1,0,0.1,0,0.2c0,0.1,0,0.1,0.1,0.2c0.1,0.1,0.1,0.1,0.2,0.1c0,0,0.1,0,0.1,0
				c0,0,0.1-0.1,0.1-0.1c0,0,0-0.1,0.1-0.2c0-0.1,0-0.1,0-0.2v-0.3h0.1v0.3C183.9,210.7,183.9,210.8,183.8,210.9z"/>
			<path class="st5" d="M185.7,209.6c0,0-0.1,0.1-0.1,0.1c0,0-0.1,0-0.1-0.1c0,0-0.1-0.1-0.1-0.2c0,0,0-0.1,0-0.1c0,0,0-0.1,0.1-0.1
				c0,0,0,0,0,0c-0.1,0-0.2,0-0.2,0.1c-0.1,0-0.1,0.1-0.2,0.2c0,0.1-0.1,0.2-0.1,0.3c0,0.1,0,0.2,0,0.3v0.8c0,0,0,0.1,0,0.1
				c0,0,0,0,0.1,0.1c0,0,0.1,0,0.2,0c0.1,0,0.1,0,0.2,0v0.1c-0.2,0-0.4,0-0.6,0c-0.2,0-0.4,0-0.6,0v-0.1c0.1,0,0.1,0,0.2,0
				c0.1,0,0.1,0,0.1,0c0,0,0,0,0-0.1c0,0,0-0.1,0-0.1v-1.3c0,0,0-0.1,0-0.1s0-0.1-0.1-0.1c0,0-0.1,0-0.1,0s-0.1,0-0.2,0v-0.1
				l0.6-0.1v0.5c0-0.1,0.1-0.3,0.2-0.4c0.1-0.1,0.2-0.1,0.4-0.1c0.1,0,0.2,0,0.2,0.1s0.1,0.1,0.1,0.2
				C185.8,209.5,185.8,209.6,185.7,209.6z"/>
			<path class="st5" d="M188.2,211c0,0,0,0.1-0.1,0.1c0,0-0.1,0.1-0.1,0.1c0,0-0.1,0-0.2,0c-0.1,0-0.2,0-0.2-0.1
				c-0.1-0.1-0.1-0.2-0.1-0.3c0,0.1-0.1,0.2-0.2,0.3s-0.2,0.1-0.4,0.1c-0.1,0-0.2,0-0.3,0c-0.1,0-0.2,0-0.2-0.1
				c-0.1,0-0.1-0.1-0.2-0.1c0-0.1-0.1-0.1-0.1-0.2c0-0.1,0-0.2,0.1-0.3s0.2-0.2,0.3-0.2c0.1-0.1,0.3-0.1,0.4-0.1c0.2,0,0.3,0,0.5,0
				v-0.2c0-0.1,0-0.1,0-0.2c0-0.1-0.1-0.1-0.1-0.2c-0.1-0.1-0.2-0.2-0.3-0.2c-0.1,0-0.2,0-0.3,0.1c-0.1,0-0.2,0.1-0.2,0.2
				c0.1,0,0.1,0,0.2,0s0.1,0.1,0.1,0.2c0,0.1,0,0.1-0.1,0.2c0,0-0.1,0.1-0.1,0.1c-0.1,0-0.1,0-0.1-0.1c0,0-0.1-0.1-0.1-0.2
				c0-0.1,0-0.2,0.1-0.2s0.1-0.1,0.2-0.2s0.1-0.1,0.2-0.1s0.2,0,0.2,0c0.1,0,0.2,0,0.3,0c0.1,0,0.2,0.1,0.3,0.1
				c0.1,0.1,0.1,0.1,0.2,0.2s0.1,0.2,0.1,0.3v1c0,0.1,0,0.1,0,0.2c0,0.1,0.1,0.1,0.1,0.1c0.1,0,0.1,0,0.1-0.1c0-0.1,0-0.1,0-0.2
				v-0.3h0.1v0.3C188.2,210.9,188.2,210.9,188.2,211z M187.4,210.1c-0.1,0-0.2,0-0.3,0c-0.1,0-0.2,0.1-0.3,0.1
				c-0.1,0.1-0.2,0.1-0.2,0.2s-0.1,0.2-0.1,0.3c0,0.1,0,0.1,0,0.2c0,0,0.1,0.1,0.1,0.1c0,0,0.1,0.1,0.1,0.1c0,0,0.1,0,0.2,0
				c0.1,0,0.1,0,0.2,0s0.1-0.1,0.2-0.1s0.1-0.1,0.1-0.2c0-0.1,0-0.1,0-0.2V210.1z"/>
			<path class="st5" d="M188.4,211.2v-0.1c0.1,0,0.1,0,0.2,0c0.1,0,0.1,0,0.1,0c0,0,0,0,0-0.1s0-0.1,0-0.1v-1.3c0,0,0-0.1,0-0.1
				c0,0,0-0.1,0-0.1c0,0-0.1,0-0.1,0s-0.1,0-0.2,0v-0.1l0.6,0v1.7c0,0,0,0.1,0,0.1c0,0,0,0,0,0.1c0,0,0.1,0,0.1,0c0.1,0,0.1,0,0.1,0
				v0.1C189,211.2,188.7,211.2,188.4,211.2z M189,208.5c0,0-0.1,0.1-0.2,0.1s-0.1,0-0.2-0.1s-0.1-0.1-0.1-0.2s0-0.1,0.1-0.2
				c0,0,0.1-0.1,0.2-0.1s0.1,0,0.2,0.1c0,0,0.1,0.1,0.1,0.2S189.1,208.5,189,208.5z"/>
			<path class="st5" d="M191.5,211.2c-0.2,0-0.3,0-0.5,0v-0.1c0.1,0,0.1,0,0.2,0s0.1,0,0.1,0c0,0,0,0,0-0.1s0-0.1,0-0.1v-1.1
				c0-0.1,0-0.2,0-0.2c0-0.1,0-0.1-0.1-0.2c0,0-0.1-0.1-0.1-0.1s-0.1,0-0.1,0c-0.1,0-0.2,0-0.2,0.1c-0.1,0-0.1,0.1-0.2,0.2
				c-0.1,0.1-0.1,0.1-0.1,0.2s0,0.2,0,0.3v0.9c0,0,0,0.1,0,0.1s0,0,0,0.1c0,0,0.1,0,0.1,0c0.1,0,0.1,0,0.2,0v0.1c-0.1,0-0.1,0-0.2,0
				s-0.1,0-0.2,0h-0.1c-0.2,0-0.3,0-0.5,0v-0.1c0.1,0,0.1,0,0.2,0c0.1,0,0.1,0,0.1,0c0,0,0,0,0-0.1c0,0,0-0.1,0-0.1v-1.3
				c0,0,0-0.1,0-0.1s0-0.1-0.1-0.1c0,0-0.1,0-0.1,0s-0.1,0-0.2,0v-0.1l0.4,0l0.3,0v0.1v0.4c0.1-0.1,0.1-0.3,0.3-0.3
				c0.1-0.1,0.2-0.1,0.4-0.1c0.1,0,0.2,0,0.3,0c0.1,0,0.2,0.1,0.2,0.1s0.1,0.1,0.1,0.2c0,0.1,0,0.2,0,0.3v1.1c0,0,0,0.1,0,0.1
				c0,0,0,0,0,0.1c0,0,0.1,0,0.1,0c0.1,0,0.1,0,0.2,0v0.1C191.8,211.2,191.6,211.2,191.5,211.2z"/>
		</g>
	</g>
</g>
<g>
	<g>
		<line class="st0" x1="84.2" y1="143" x2="189.7" y2="143"/>
		<g>
			<line class="st7" x1="86.4" y1="143" x2="187.5" y2="143"/>
			<g>
				<path d="M86.9,143l0.6-1l0,0l-1.6,0.6c-0.6,0.1-1.1,0.2-1.7,0.4c0.6,0.1,1.1,0.2,1.7,0.4l1.6,0.6l0,0L86.9,143z"/>
			</g>
			<g>
				<path d="M187,143l-0.6-1l0,0l1.6,0.6c0.6,0.1,1.1,0.2,1.7,0.4c-0.6,0.1-1.1,0.2-1.7,0.4l-1.6,0.6l0,0L187,143z"/>
			</g>
		</g>
	</g>
	<g>
		<rect x="121.6" y="137.7" class="st0" width="30.8" height="10.5"/>
		<g>
			<path class="st5" d="M126.5,143.6c0,0.2-0.1,0.3-0.1,0.5s0.1,0.2,0.2,0.2c0.1,0,0.1,0,0.1-0.1c0,0,0.1-0.1,0.1-0.2
				s0.1-0.2,0.1-0.3c0-0.1,0.1-0.2,0.1-0.3c0,0,0-0.1,0.1-0.1h0.1c0,0,0.1,0,0.1,0.1c0,0.1-0.1,0.2-0.1,0.3c0,0.1-0.1,0.2-0.1,0.3
				c-0.1,0.1-0.1,0.2-0.2,0.3s-0.2,0.1-0.3,0.1c-0.2,0-0.3,0-0.4-0.1s-0.1-0.2-0.2-0.3c-0.1,0.1-0.2,0.2-0.4,0.3
				c-0.1,0.1-0.3,0.1-0.4,0.1c-0.2,0-0.3,0-0.4-0.1c-0.1-0.1-0.2-0.2-0.3-0.3c-0.1-0.2-0.1-0.3-0.1-0.5s0-0.4,0.1-0.5
				c0-0.2,0.1-0.4,0.2-0.5c0.1-0.2,0.2-0.3,0.4-0.5c0.1-0.1,0.3-0.2,0.4-0.3s0.3-0.1,0.5-0.1c0.1,0,0.2,0,0.3,0.1
				c0.1,0.1,0.2,0.2,0.2,0.3l0.4-1.5c0-0.1,0-0.1,0-0.2c0,0,0-0.1,0-0.1c0,0-0.1,0-0.2,0c-0.1,0-0.2,0-0.3,0c0,0-0.1,0-0.1-0.1
				l0-0.1c0,0,0-0.1,0.1-0.1l0.6-0.1l0.2,0c0,0,0,0,0,0c0,0,0,0,0,0.1L126.5,143.6z M126.4,142c0,0,0-0.1,0-0.1
				c0-0.1-0.1-0.2-0.2-0.3c-0.1-0.1-0.2-0.1-0.3-0.1c-0.1,0-0.2,0-0.3,0.1s-0.2,0.2-0.3,0.3c-0.1,0.2-0.2,0.3-0.2,0.5
				s-0.1,0.3-0.1,0.5c0,0.2-0.1,0.3-0.1,0.5c0,0.2,0,0.3,0,0.5c0,0.1,0.1,0.2,0.1,0.3c0.1,0.1,0.1,0.1,0.2,0.1c0.1,0,0.2,0,0.3-0.1
				c0.1-0.1,0.2-0.2,0.3-0.3c0,0,0.1-0.1,0.1-0.1s0.1-0.1,0.1-0.1l0.4-1.4C126.4,142.1,126.4,142,126.4,142z"/>
			<path class="st5" d="M127.5,146.5v-0.1c0,0,0.1,0,0.1,0s0.1,0,0.1,0c0,0,0.1,0,0.1,0c0,0,0.1,0,0.1,0c0,0,0,0,0.1,0
				c0,0,0,0,0-0.1v-2c-0.1,0-0.2,0.1-0.2,0.1c-0.1,0-0.2,0-0.3,0v-0.1c0.1,0,0.3,0,0.4-0.1c0.1,0,0.2-0.1,0.3-0.2h0c0,0,0,0,0,0v2.3
				c0,0,0,0.1,0,0.1c0,0,0,0,0.1,0c0,0,0,0,0.1,0s0.1,0,0.1,0c0,0,0.1,0,0.1,0c0,0,0.1,0,0.1,0v0.1
				C128.3,146.4,127.9,146.4,127.5,146.5z"/>
			<path class="st5" d="M135,142.7C135,142.7,134.9,142.7,135,142.7l-2,0v1.9c0,0,0,0.1,0,0.1s-0.1,0-0.1,0s-0.1,0-0.1,0
				s0-0.1,0-0.1v-1.9h-1.9c0,0-0.1,0-0.1,0s0-0.1,0-0.1s0-0.1,0-0.1s0.1,0,0.1,0h1.9v-1.9c0,0,0-0.1,0-0.1s0.1,0,0.1,0s0.1,0,0.1,0
				s0,0.1,0,0.1v1.9h1.9c0,0,0.1,0,0.1,0S135,142.6,135,142.7C135,142.7,135,142.7,135,142.7z"/>
			<path class="st5" d="M139.7,144.2c0,0.1-0.1,0.1-0.1,0.1H136c0,0,0,0-0.1,0c0,0,0,0,0-0.1l0-0.1c0,0,0,0,0-0.1c0,0,0,0,0.1,0
				c0.1,0,0.2,0,0.3,0c0.1,0,0.2,0,0.2,0c0.1,0,0.1-0.1,0.1-0.2l1.1-4.3c0-0.1,0-0.2,0-0.2c0,0-0.1,0-0.2,0s-0.2,0-0.3,0
				c0,0,0,0-0.1,0s0,0,0-0.1l0-0.1c0-0.1,0.1-0.1,0.1-0.1c0.4,0,0.7,0,1.1,0c0.4,0,0.7,0,1.1,0c0,0,0,0,0.1,0c0,0,0,0,0,0.1l0,0.1
				c0,0,0,0,0,0.1c0,0,0,0-0.1,0c-0.1,0-0.3,0-0.4,0s-0.3,0-0.3,0c-0.1,0-0.1,0.1-0.2,0.2l-1.1,4.3c0,0.1,0,0.2,0,0.3
				c0,0,0.1,0,0.2,0h0.7c0.2,0,0.4,0,0.6-0.1c0.2-0.1,0.4-0.1,0.5-0.3c0.2-0.2,0.3-0.4,0.4-0.6c0.1-0.2,0.2-0.5,0.3-0.8
				c0-0.1,0-0.1,0.1-0.1h0.1c0.1,0,0.1,0,0.1,0.1L139.7,144.2z"/>
			<path class="st5" d="M141.9,146.6c0,0.1,0,0.1-0.1,0.2c0,0.1-0.1,0.1-0.1,0.1s-0.1,0.1-0.2,0.1c-0.1,0-0.2,0-0.2,0
				c-0.1,0-0.1-0.1-0.2-0.1c-0.1-0.1-0.1-0.1-0.1-0.2s0-0.2,0-0.2v-1.3h-0.4V145c0.1,0,0.2,0,0.3-0.1s0.1-0.1,0.2-0.2
				s0.1-0.2,0.1-0.3c0-0.1,0-0.2,0-0.3h0.1v0.8h0.6v0.1h-0.6v1.3c0,0.1,0,0.1,0,0.2c0,0.1,0,0.1,0.1,0.2c0.1,0.1,0.1,0.1,0.2,0.1
				c0,0,0.1,0,0.1,0c0,0,0.1-0.1,0.1-0.1c0,0,0-0.1,0.1-0.2c0-0.1,0-0.1,0-0.2v-0.3h0.1v0.3C141.9,146.4,141.9,146.5,141.9,146.6z"
				/>
			<path class="st5" d="M143.8,145.3c0,0-0.1,0.1-0.1,0.1c0,0-0.1,0-0.1-0.1s-0.1-0.1-0.1-0.2c0,0,0-0.1,0-0.1c0,0,0-0.1,0.1-0.1
				c0,0,0,0,0,0c-0.1,0-0.2,0-0.2,0.1c-0.1,0-0.1,0.1-0.2,0.2c0,0.1-0.1,0.2-0.1,0.3c0,0.1,0,0.2,0,0.3v0.8c0,0,0,0.1,0,0.1
				c0,0,0,0,0.1,0.1c0,0,0.1,0,0.2,0c0.1,0,0.1,0,0.2,0v0.1c-0.2,0-0.4,0-0.6,0c-0.2,0-0.4,0-0.6,0v-0.1c0.1,0,0.1,0,0.2,0
				c0.1,0,0.1,0,0.1,0c0,0,0,0,0-0.1c0,0,0-0.1,0-0.1v-1.3c0,0,0-0.1,0-0.1s0-0.1-0.1-0.1c0,0-0.1,0-0.1,0c-0.1,0-0.1,0-0.2,0v-0.1
				l0.6-0.1v0.5c0-0.1,0.1-0.3,0.2-0.4c0.1-0.1,0.2-0.1,0.4-0.1c0.1,0,0.2,0,0.2,0.1s0.1,0.1,0.1,0.2
				C143.8,145.2,143.8,145.3,143.8,145.3z"/>
			<path class="st5" d="M146.2,146.7c0,0,0,0.1-0.1,0.1c0,0-0.1,0.1-0.1,0.1c0,0-0.1,0-0.2,0c-0.1,0-0.2,0-0.2-0.1s-0.1-0.2-0.1-0.3
				c0,0.1-0.1,0.2-0.2,0.3s-0.2,0.1-0.4,0.1c-0.1,0-0.2,0-0.3,0c-0.1,0-0.2,0-0.2-0.1c-0.1,0-0.1-0.1-0.2-0.1s-0.1-0.1-0.1-0.2
				c0-0.1,0-0.2,0.1-0.3s0.2-0.2,0.3-0.2c0.1-0.1,0.3-0.1,0.4-0.1c0.2,0,0.3,0,0.5,0v-0.2c0-0.1,0-0.1,0-0.2c0-0.1-0.1-0.1-0.1-0.2
				c-0.1-0.1-0.2-0.2-0.3-0.2c-0.1,0-0.2,0-0.3,0.1c-0.1,0-0.2,0.1-0.2,0.2c0.1,0,0.1,0,0.2,0s0.1,0.1,0.1,0.2c0,0.1,0,0.1-0.1,0.2
				s-0.1,0.1-0.1,0.1s-0.1,0-0.1-0.1c0,0-0.1-0.1-0.1-0.2c0-0.1,0-0.2,0.1-0.2c0-0.1,0.1-0.1,0.2-0.2s0.1-0.1,0.2-0.1s0.2,0,0.2,0
				c0.1,0,0.2,0,0.3,0c0.1,0,0.2,0.1,0.3,0.1c0.1,0.1,0.1,0.1,0.2,0.2s0.1,0.2,0.1,0.3v1c0,0.1,0,0.1,0,0.2c0,0.1,0.1,0.1,0.1,0.1
				c0.1,0,0.1,0,0.1-0.1c0-0.1,0-0.1,0-0.2v-0.3h0.1v0.3C146.2,146.6,146.2,146.6,146.2,146.7z M145.5,145.8c-0.1,0-0.2,0-0.3,0
				c-0.1,0-0.2,0.1-0.3,0.1c-0.1,0.1-0.2,0.1-0.2,0.2c-0.1,0.1-0.1,0.2-0.1,0.3c0,0.1,0,0.1,0,0.2c0,0,0.1,0.1,0.1,0.1
				c0,0,0.1,0.1,0.1,0.1c0,0,0.1,0,0.2,0c0.1,0,0.1,0,0.2,0s0.1-0.1,0.2-0.1c0-0.1,0.1-0.1,0.1-0.2c0-0.1,0-0.1,0-0.2V145.8z"/>
			<path class="st5" d="M146.4,146.9v-0.1c0.1,0,0.1,0,0.2,0c0.1,0,0.1,0,0.1,0c0,0,0,0,0-0.1c0,0,0-0.1,0-0.1v-1.3c0,0,0-0.1,0-0.1
				c0,0,0-0.1,0-0.1c0,0-0.1,0-0.1,0s-0.1,0-0.2,0v-0.1l0.6,0v1.7c0,0,0,0.1,0,0.1c0,0,0,0,0,0.1c0,0,0.1,0,0.1,0c0.1,0,0.1,0,0.1,0
				v0.1C147.1,146.9,146.7,146.9,146.4,146.9z M147,144.2c0,0-0.1,0.1-0.2,0.1c-0.1,0-0.1,0-0.2-0.1c0,0-0.1-0.1-0.1-0.2
				s0-0.1,0.1-0.2c0,0,0.1-0.1,0.2-0.1c0.1,0,0.1,0,0.2,0.1c0,0,0.1,0.1,0.1,0.2S147.1,144.2,147,144.2z"/>
			<path class="st5" d="M149.5,146.9c-0.2,0-0.3,0-0.5,0v-0.1c0.1,0,0.1,0,0.2,0s0.1,0,0.1,0c0,0,0,0,0-0.1s0-0.1,0-0.1v-1.1
				c0-0.1,0-0.2,0-0.2c0-0.1,0-0.1-0.1-0.2c0,0-0.1-0.1-0.1-0.1s-0.1,0-0.1,0c-0.1,0-0.2,0-0.2,0.1c-0.1,0-0.1,0.1-0.2,0.2
				c-0.1,0.1-0.1,0.1-0.1,0.2s0,0.2,0,0.3v0.9c0,0,0,0.1,0,0.1s0,0,0,0.1c0,0,0.1,0,0.1,0c0.1,0,0.1,0,0.2,0v0.1c-0.1,0-0.1,0-0.2,0
				s-0.1,0-0.2,0h-0.1c-0.2,0-0.3,0-0.5,0v-0.1c0.1,0,0.1,0,0.2,0c0.1,0,0.1,0,0.1,0c0,0,0,0,0-0.1c0,0,0-0.1,0-0.1v-1.3
				c0,0,0-0.1,0-0.1s0-0.1-0.1-0.1c0,0-0.1,0-0.1,0s-0.1,0-0.2,0v-0.1l0.4,0l0.3,0v0.1v0.4c0.1-0.1,0.1-0.3,0.3-0.3
				c0.1-0.1,0.2-0.1,0.4-0.1c0.1,0,0.2,0,0.3,0c0.1,0,0.2,0.1,0.2,0.1s0.1,0.1,0.1,0.2c0,0.1,0,0.2,0,0.3v1.1c0,0,0,0.1,0,0.1
				c0,0,0,0,0,0.1c0,0,0.1,0,0.1,0c0.1,0,0.1,0,0.2,0v0.1C149.8,146.9,149.7,146.9,149.5,146.9z"/>
		</g>
	</g>
</g>
<g>
	<g>
		<line class="st0" x1="207.5" y1="143" x2="189.3" y2="143"/>
		<g>
			<line class="st7" x1="205.3" y1="143" x2="191.5" y2="143"/>
			<g>
				<path d="M204.8,143l-0.6,1l0,0l1.6-0.6c0.6-0.1,1.1-0.2,1.7-0.4c-0.6-0.1-1.1-0.2-1.7-0.4l-1.6-0.6l0,0L204.8,143z"/>
			</g>
			<g>
				<path d="M192,143l0.6,1l0,0l-1.6-0.6c-0.6-0.1-1.1-0.2-1.7-0.4c0.6-0.1,1.1-0.2,1.7-0.4l1.6-0.6l0,0L192,143z"/>
			</g>
		</g>
	</g>
	<g>
		<rect x="194.5" y="137.7" class="st0" width="7.6" height="9.7"/>
		<g>
			<path class="st5" d="M198.4,143.6c0,0.2-0.1,0.3-0.1,0.5c0,0.1,0.1,0.2,0.2,0.2c0.1,0,0.1,0,0.1-0.1c0,0,0.1-0.1,0.1-0.2
				c0-0.1,0.1-0.2,0.1-0.3c0-0.1,0.1-0.2,0.1-0.3c0,0,0-0.1,0.1-0.1h0.1c0,0,0.1,0,0.1,0.1c0,0.1-0.1,0.2-0.1,0.3
				c0,0.1-0.1,0.2-0.1,0.3c-0.1,0.1-0.1,0.2-0.2,0.3c-0.1,0.1-0.2,0.1-0.3,0.1c-0.2,0-0.3,0-0.4-0.1c-0.1-0.1-0.1-0.2-0.2-0.3
				c-0.1,0.1-0.2,0.2-0.4,0.3c-0.1,0.1-0.3,0.1-0.4,0.1c-0.2,0-0.3,0-0.4-0.1c-0.1-0.1-0.2-0.2-0.3-0.3c-0.1-0.2-0.1-0.3-0.1-0.5
				c0-0.2,0-0.4,0.1-0.5c0-0.2,0.1-0.4,0.2-0.5c0.1-0.2,0.2-0.3,0.4-0.5c0.1-0.1,0.3-0.2,0.4-0.3c0.2-0.1,0.3-0.1,0.5-0.1
				c0.1,0,0.2,0,0.3,0.1c0.1,0.1,0.2,0.2,0.2,0.3l0.4-1.5c0-0.1,0-0.1,0-0.2c0,0,0-0.1,0-0.1c0,0-0.1,0-0.2,0c-0.1,0-0.2,0-0.3,0
				c0,0-0.1,0-0.1-0.1l0-0.1c0,0,0-0.1,0.1-0.1l0.6-0.1l0.2,0c0,0,0,0,0,0c0,0,0,0,0,0.1L198.4,143.6z M198.3,142c0,0,0-0.1,0-0.1
				c0-0.1-0.1-0.2-0.2-0.3c-0.1-0.1-0.2-0.1-0.3-0.1c-0.1,0-0.2,0-0.3,0.1s-0.2,0.2-0.3,0.3c-0.1,0.2-0.2,0.3-0.2,0.5
				s-0.1,0.3-0.1,0.5c0,0.2-0.1,0.3-0.1,0.5c0,0.2,0,0.3,0,0.5c0,0.1,0.1,0.2,0.1,0.3c0.1,0.1,0.1,0.1,0.2,0.1c0.1,0,0.2,0,0.3-0.1
				c0.1-0.1,0.2-0.2,0.3-0.3c0,0,0.1-0.1,0.1-0.1c0,0,0.1-0.1,0.1-0.1l0.4-1.4C198.4,142.1,198.3,142,198.3,142z"/>
			<path class="st5" d="M200.6,146.5h-1.4v-0.1c0,0,0,0,0,0l0.6-0.6c0.1-0.1,0.1-0.2,0.2-0.2s0.1-0.2,0.2-0.3
				c0.1-0.1,0.1-0.2,0.1-0.3c0-0.1,0.1-0.2,0.1-0.3c0-0.1,0-0.2,0-0.2s-0.1-0.1-0.1-0.2c0-0.1-0.1-0.1-0.2-0.1
				c-0.1,0-0.1-0.1-0.2-0.1c-0.1,0-0.2,0-0.3,0.1s-0.2,0.2-0.2,0.3c0,0,0.1,0,0.1,0c0,0,0.1,0,0.1,0s0,0,0.1,0.1s0,0.1,0,0.1
				c0,0.1,0,0.1-0.1,0.2c0,0-0.1,0.1-0.1,0.1c0,0-0.1,0-0.1-0.1c0,0-0.1-0.1-0.1-0.2c0-0.1,0-0.2,0.1-0.3s0.1-0.2,0.2-0.2
				c0.1-0.1,0.1-0.1,0.2-0.2c0.1,0,0.2-0.1,0.3-0.1c0.1,0,0.2,0,0.3,0.1s0.2,0.1,0.3,0.2c0.1,0.1,0.1,0.1,0.2,0.2
				c0,0.1,0.1,0.2,0.1,0.3c0,0.1,0,0.2-0.1,0.3c-0.1,0.1-0.1,0.2-0.2,0.3c-0.1,0.1-0.2,0.2-0.3,0.2s-0.2,0.2-0.2,0.2l-0.4,0.4h0.4
				c0.1,0,0.1,0,0.2,0s0.1,0,0.2,0c0.1,0,0.1,0,0.2,0c0,0,0.1,0,0.1,0c0,0,0,0,0-0.1c0,0,0-0.1,0-0.1c0,0,0-0.1,0-0.1
				c0,0,0-0.1,0-0.1h0.1L200.6,146.5z"/>
		</g>
	</g>
</g>
<g>
	<g>
		<line class="st0" x1="225.7" y1="143" x2="207.5" y2="143"/>
		<g>
			<line class="st7" x1="223.5" y1="143" x2="209.7" y2="143"/>
			<g>
				<path d="M223,143l-0.6,1l0,0l1.6-0.6c0.6-0.1,1.1-0.2,1.7-0.4c-0.6-0.1-1.1-0.2-1.7-0.4l-1.6-0.6l0,0L223,143z"/>
			</g>
			<g>
				<path d="M210.2,143l0.6,1l0,0l-1.6-0.6c-0.6-0.1-1.1-0.2-1.7-0.4c0.6-0.1,1.1-0.2,1.7-0.4l1.6-0.6l0,0L210.2,143z"/>
			</g>
		</g>
	</g>
	<g>
		<rect x="212.8" y="137.7" class="st0" width="7.6" height="9.7"/>
		<g>
			<path class="st5" d="M216.7,143.6c0,0.2-0.1,0.3-0.1,0.5c0,0.1,0.1,0.2,0.2,0.2c0.1,0,0.1,0,0.1-0.1c0,0,0.1-0.1,0.1-0.2
				c0-0.1,0.1-0.2,0.1-0.3c0-0.1,0.1-0.2,0.1-0.3c0,0,0-0.1,0.1-0.1h0.1c0,0,0.1,0,0.1,0.1c0,0.1-0.1,0.2-0.1,0.3
				c0,0.1-0.1,0.2-0.1,0.3c-0.1,0.1-0.1,0.2-0.2,0.3c-0.1,0.1-0.2,0.1-0.3,0.1c-0.2,0-0.3,0-0.4-0.1c-0.1-0.1-0.1-0.2-0.2-0.3
				c-0.1,0.1-0.2,0.2-0.4,0.3c-0.1,0.1-0.3,0.1-0.4,0.1c-0.2,0-0.3,0-0.4-0.1c-0.1-0.1-0.2-0.2-0.3-0.3c-0.1-0.2-0.1-0.3-0.1-0.5
				c0-0.2,0-0.4,0.1-0.5c0-0.2,0.1-0.4,0.2-0.5c0.1-0.2,0.2-0.3,0.4-0.5c0.1-0.1,0.3-0.2,0.4-0.3c0.2-0.1,0.3-0.1,0.5-0.1
				c0.1,0,0.2,0,0.3,0.1c0.1,0.1,0.2,0.2,0.2,0.3l0.4-1.5c0-0.1,0-0.1,0-0.2c0,0,0-0.1,0-0.1c0,0-0.1,0-0.2,0c-0.1,0-0.2,0-0.3,0
				c0,0-0.1,0-0.1-0.1l0-0.1c0,0,0-0.1,0.1-0.1l0.6-0.1l0.2,0c0,0,0,0,0,0c0,0,0,0,0,0.1L216.7,143.6z M216.6,142c0,0,0-0.1,0-0.1
				c0-0.1-0.1-0.2-0.2-0.3c-0.1-0.1-0.2-0.1-0.3-0.1c-0.1,0-0.2,0-0.3,0.1s-0.2,0.2-0.3,0.3c-0.1,0.2-0.2,0.3-0.2,0.5
				s-0.1,0.3-0.1,0.5c0,0.2-0.1,0.3-0.1,0.5c0,0.2,0,0.3,0,0.5c0,0.1,0.1,0.2,0.1,0.3c0.1,0.1,0.1,0.1,0.2,0.1c0.1,0,0.2,0,0.3-0.1
				c0.1-0.1,0.2-0.2,0.3-0.3c0,0,0.1-0.1,0.1-0.1c0,0,0.1-0.1,0.1-0.1l0.4-1.4C216.6,142.1,216.6,142,216.6,142z"/>
			<path class="st5" d="M219,146.1c0,0.1-0.1,0.2-0.2,0.2c-0.1,0.1-0.2,0.1-0.3,0.2c-0.1,0-0.2,0.1-0.3,0.1c-0.1,0-0.2,0-0.3,0
				c-0.1,0-0.2-0.1-0.2-0.1c-0.1-0.1-0.1-0.1-0.2-0.2c0-0.1-0.1-0.2-0.1-0.3c0-0.1,0-0.1,0.1-0.2c0,0,0.1-0.1,0.1-0.1
				c0.1,0,0.1,0,0.1,0.1c0,0,0.1,0.1,0.1,0.2c0,0,0,0.1,0,0.1s0,0.1-0.1,0.1c0,0-0.1,0-0.1,0c0,0-0.1,0-0.1,0
				c0.1,0.1,0.1,0.2,0.2,0.2c0.1,0.1,0.2,0.1,0.4,0.1c0.1,0,0.1,0,0.2,0c0.1,0,0.1-0.1,0.1-0.1c0-0.1,0.1-0.1,0.1-0.2
				c0-0.1,0-0.2,0-0.2s0-0.2,0-0.2s0-0.2-0.1-0.2c0-0.1-0.1-0.1-0.1-0.1c-0.1,0-0.1,0-0.2,0H218c0,0,0,0,0,0v0c0,0,0,0,0,0
				c0,0,0,0,0,0c0,0,0.1,0,0.1,0s0.1,0,0.1,0c0.1,0,0.1,0,0.2-0.1s0.1-0.1,0.1-0.1c0-0.1,0.1-0.1,0.1-0.2s0-0.2,0-0.2
				c0-0.1,0-0.1,0-0.2s0-0.1-0.1-0.1c-0.1-0.1-0.2-0.1-0.3-0.1c-0.1,0-0.2,0-0.3,0.1c-0.1,0-0.2,0.1-0.2,0.2c0.1,0,0.1,0,0.2,0
				c0.1,0,0.1,0.1,0.1,0.2c0,0.1,0,0.1-0.1,0.1s-0.1,0-0.1,0c0,0-0.1,0-0.1,0s-0.1-0.1-0.1-0.1c0-0.1,0-0.2,0.1-0.2
				c0-0.1,0.1-0.1,0.2-0.2c0.1,0,0.1-0.1,0.2-0.1c0.1,0,0.2,0,0.2,0c0.1,0,0.2,0,0.3,0c0.1,0,0.2,0.1,0.2,0.1c0.1,0,0.1,0.1,0.2,0.2
				c0,0.1,0.1,0.1,0.1,0.2c0,0.1,0,0.2,0,0.2c0,0.1-0.1,0.1-0.1,0.2c0,0.1-0.1,0.1-0.2,0.2c-0.1,0-0.1,0.1-0.2,0.1
				c0.1,0,0.1,0,0.2,0.1c0.1,0,0.1,0.1,0.2,0.1c0.1,0.1,0.1,0.1,0.2,0.2c0,0.1,0.1,0.2,0.1,0.3C219,145.9,219,146,219,146.1z"/>
		</g>
	</g>
</g>
<g>
	<g>
		<line class="st0" x1="126.9" y1="33.6" x2="108.6" y2="33.6"/>
		<g>
			<line class="st7" x1="124.6" y1="33.6" x2="110.9" y2="33.6"/>
			<g>
				<path d="M124.2,33.6l-0.6,1l0,0l1.6-0.6c0.6-0.1,1.1-0.2,1.7-0.4c-0.6-0.1-1.1-0.2-1.7-0.4l-1.6-0.6l0,0L124.2,33.6z"/>
			</g>
			<g>
				<path d="M111.4,33.6l0.6,1l0,0l-1.6-0.6c-0.6-0.1-1.1-0.2-1.7-0.4c0.6-0.1,1.1-0.2,1.7-0.4l1.6-0.6l0,0L111.4,33.6z"/>
			</g>
		</g>
	</g>
	<g>
		<rect x="113.9" y="28.4" class="st0" width="7.6" height="9.7"/>
		<g>
			<path class="st5" d="M117.8,34.2c0,0.2-0.1,0.3-0.1,0.5c0,0.1,0.1,0.2,0.2,0.2c0.1,0,0.1,0,0.1-0.1s0.1-0.1,0.1-0.2
				s0.1-0.2,0.1-0.3s0.1-0.2,0.1-0.3c0,0,0-0.1,0.1-0.1h0.1c0,0,0.1,0,0.1,0.1c0,0.1-0.1,0.2-0.1,0.3c0,0.1-0.1,0.2-0.1,0.3
				s-0.1,0.2-0.2,0.3c-0.1,0.1-0.2,0.1-0.3,0.1c-0.2,0-0.3,0-0.4-0.1c-0.1-0.1-0.1-0.2-0.2-0.3c-0.1,0.1-0.2,0.2-0.4,0.3
				c-0.1,0.1-0.3,0.1-0.4,0.1c-0.2,0-0.3,0-0.4-0.1c-0.1-0.1-0.2-0.2-0.3-0.3c-0.1-0.2-0.1-0.3-0.1-0.5c0-0.2,0-0.4,0.1-0.5
				c0-0.2,0.1-0.4,0.2-0.5c0.1-0.2,0.2-0.3,0.4-0.5c0.1-0.1,0.3-0.2,0.4-0.3s0.3-0.1,0.5-0.1c0.1,0,0.2,0,0.3,0.1
				c0.1,0.1,0.2,0.2,0.2,0.3l0.4-1.5c0-0.1,0-0.1,0-0.2c0,0,0-0.1,0-0.1c0,0-0.1,0-0.2,0c-0.1,0-0.2,0-0.3,0c0,0-0.1,0-0.1-0.1
				l0-0.1c0,0,0-0.1,0.1-0.1l0.6-0.1l0.2,0c0,0,0,0,0,0c0,0,0,0,0,0.1L117.8,34.2z M117.7,32.6c0,0,0-0.1,0-0.1
				c0-0.1-0.1-0.2-0.2-0.3c-0.1-0.1-0.2-0.1-0.3-0.1c-0.1,0-0.2,0-0.3,0.1c-0.1,0.1-0.2,0.2-0.3,0.3c-0.1,0.1-0.2,0.3-0.2,0.5
				s-0.1,0.3-0.1,0.5c0,0.2-0.1,0.3-0.1,0.5c0,0.2,0,0.3,0,0.5c0,0.1,0.1,0.2,0.1,0.3c0.1,0.1,0.1,0.1,0.2,0.1c0.1,0,0.2,0,0.3-0.1
				c0.1-0.1,0.2-0.2,0.3-0.3c0,0,0.1-0.1,0.1-0.1c0,0,0.1-0.1,0.1-0.1l0.4-1.4C117.7,32.7,117.7,32.7,117.7,32.6z"/>
			<path class="st5" d="M120,37.1h-1.4V37c0,0,0,0,0,0l0.6-0.6c0.1-0.1,0.1-0.2,0.2-0.2s0.1-0.2,0.2-0.3c0.1-0.1,0.1-0.2,0.1-0.3
				c0-0.1,0.1-0.2,0.1-0.3c0-0.1,0-0.2,0-0.2c0-0.1-0.1-0.1-0.1-0.2c0-0.1-0.1-0.1-0.2-0.1c-0.1,0-0.1-0.1-0.2-0.1
				c-0.1,0-0.2,0-0.3,0.1c-0.1,0.1-0.2,0.2-0.2,0.3c0,0,0.1,0,0.1,0s0.1,0,0.1,0c0,0,0,0,0.1,0.1c0,0,0,0.1,0,0.1
				c0,0.1,0,0.1-0.1,0.2c0,0-0.1,0.1-0.1,0.1c0,0-0.1,0-0.1-0.1c0,0-0.1-0.1-0.1-0.2c0-0.1,0-0.2,0.1-0.3c0-0.1,0.1-0.2,0.2-0.2
				c0.1-0.1,0.1-0.1,0.2-0.2s0.2-0.1,0.3-0.1c0.1,0,0.2,0,0.3,0.1s0.2,0.1,0.3,0.2s0.1,0.1,0.2,0.2s0.1,0.2,0.1,0.3
				c0,0.1,0,0.2-0.1,0.3s-0.1,0.2-0.2,0.3c-0.1,0.1-0.2,0.2-0.3,0.2s-0.2,0.2-0.2,0.2l-0.4,0.4h0.4c0.1,0,0.1,0,0.2,0
				c0.1,0,0.1,0,0.2,0c0.1,0,0.1,0,0.2,0s0.1,0,0.1,0c0,0,0,0,0-0.1c0,0,0-0.1,0-0.1s0-0.1,0-0.1c0,0,0-0.1,0-0.1h0.1L120,37.1z"/>
		</g>
	</g>
</g>
<g>
	<g>
		<line class="st0" x1="108.9" y1="33.6" x2="83.9" y2="33.6"/>
		<g>
			<line class="st7" x1="106.7" y1="33.6" x2="86.2" y2="33.6"/>
			<g>
				<path d="M106.2,33.6l-0.6,1l0,0l1.6-0.6c0.6-0.1,1.1-0.2,1.7-0.4c-0.6-0.1-1.1-0.2-1.7-0.4l-1.6-0.6l0,0L106.2,33.6z"/>
			</g>
			<g>
				<path d="M86.7,33.6l0.6,1l0,0L85.6,34c-0.6-0.1-1.1-0.2-1.7-0.4c0.6-0.1,1.1-0.2,1.7-0.4l1.6-0.6l0,0L86.7,33.6z"/>
			</g>
		</g>
	</g>
	<g>
		<rect x="92.3" y="28.4" class="st0" width="7.6" height="9.7"/>
		<g>
			<path class="st5" d="M96.2,34.2c0,0.2-0.1,0.3-0.1,0.5c0,0.1,0.1,0.2,0.2,0.2c0.1,0,0.1,0,0.1-0.1s0.1-0.1,0.1-0.2
				s0.1-0.2,0.1-0.3s0.1-0.2,0.1-0.3c0,0,0-0.1,0.1-0.1h0.1c0,0,0.1,0,0.1,0.1c0,0.1-0.1,0.2-0.1,0.3c0,0.1-0.1,0.2-0.1,0.3
				s-0.1,0.2-0.2,0.3C96.5,35,96.4,35,96.3,35c-0.2,0-0.3,0-0.4-0.1c-0.1-0.1-0.1-0.2-0.2-0.3c-0.1,0.1-0.2,0.2-0.4,0.3
				c-0.1,0.1-0.3,0.1-0.4,0.1c-0.2,0-0.3,0-0.4-0.1c-0.1-0.1-0.2-0.2-0.3-0.3c-0.1-0.2-0.1-0.3-0.1-0.5c0-0.2,0-0.4,0.1-0.5
				c0-0.2,0.1-0.4,0.2-0.5c0.1-0.2,0.2-0.3,0.4-0.5c0.1-0.1,0.3-0.2,0.4-0.3s0.3-0.1,0.5-0.1c0.1,0,0.2,0,0.3,0.1
				c0.1,0.1,0.2,0.2,0.2,0.3l0.4-1.5c0-0.1,0-0.1,0-0.2c0,0,0-0.1,0-0.1c0,0-0.1,0-0.2,0c-0.1,0-0.2,0-0.3,0c0,0-0.1,0-0.1-0.1
				l0-0.1c0,0,0-0.1,0.1-0.1l0.6-0.1l0.2,0c0,0,0,0,0,0c0,0,0,0,0,0.1L96.2,34.2z M96.1,32.6c0,0,0-0.1,0-0.1c0-0.1-0.1-0.2-0.2-0.3
				c-0.1-0.1-0.2-0.1-0.3-0.1c-0.1,0-0.2,0-0.3,0.1c-0.1,0.1-0.2,0.2-0.3,0.3c-0.1,0.1-0.2,0.3-0.2,0.5s-0.1,0.3-0.1,0.5
				c0,0.2-0.1,0.3-0.1,0.5c0,0.2,0,0.3,0,0.5c0,0.1,0.1,0.2,0.1,0.3c0.1,0.1,0.1,0.1,0.2,0.1c0.1,0,0.2,0,0.3-0.1
				c0.1-0.1,0.2-0.2,0.3-0.3c0,0,0.1-0.1,0.1-0.1c0,0,0.1-0.1,0.1-0.1l0.4-1.4C96.1,32.7,96.1,32.7,96.1,32.6z"/>
			<path class="st5" d="M97.1,37.1V37c0,0,0.1,0,0.1,0s0.1,0,0.1,0c0,0,0.1,0,0.1,0c0,0,0.1,0,0.1,0c0,0,0,0,0.1,0c0,0,0,0,0-0.1v-2
				c-0.1,0-0.2,0.1-0.2,0.1c-0.1,0-0.2,0-0.3,0v-0.1c0.1,0,0.3,0,0.4-0.1c0.1,0,0.2-0.1,0.3-0.2h0c0,0,0,0,0,0v2.3c0,0,0,0.1,0,0.1
				c0,0,0,0,0.1,0c0,0,0,0,0.1,0c0,0,0.1,0,0.1,0c0,0,0.1,0,0.1,0c0,0,0.1,0,0.1,0v0.1C98,37.1,97.6,37.1,97.1,37.1z"/>
		</g>
	</g>
</g>
<g>
	<g>
		<line class="st0" x1="145.1" y1="33.6" x2="126.9" y2="33.6"/>
		<g>
			<line class="st7" x1="142.9" y1="33.6" x2="129.1" y2="33.6"/>
			<g>
				<path d="M142.4,33.6l-0.6,1l0,0l1.6-0.6c0.6-0.1,1.1-0.2,1.7-0.4c-0.6-0.1-1.1-0.2-1.7-0.4l-1.6-0.6l0,0L142.4,33.6z"/>
			</g>
			<g>
				<path d="M129.6,33.6l0.6,1l0,0l-1.6-0.6c-0.6-0.1-1.1-0.2-1.7-0.4c0.6-0.1,1.1-0.2,1.7-0.4l1.6-0.6l0,0L129.6,33.6z"/>
			</g>
		</g>
	</g>
	<g>
		<rect x="132.1" y="28.4" class="st0" width="7.6" height="9.7"/>
		<g>
			<path class="st5" d="M136.1,34.2c0,0.2-0.1,0.3-0.1,0.5c0,0.1,0.1,0.2,0.2,0.2c0.1,0,0.1,0,0.1-0.1s0.1-0.1,0.1-0.2
				s0.1-0.2,0.1-0.3s0.1-0.2,0.1-0.3c0,0,0-0.1,0.1-0.1h0.1c0,0,0.1,0,0.1,0.1c0,0.1-0.1,0.2-0.1,0.3c0,0.1-0.1,0.2-0.1,0.3
				s-0.1,0.2-0.2,0.3c-0.1,0.1-0.2,0.1-0.3,0.1c-0.2,0-0.3,0-0.4-0.1c-0.1-0.1-0.1-0.2-0.2-0.3c-0.1,0.1-0.2,0.2-0.4,0.3
				c-0.1,0.1-0.3,0.1-0.4,0.1c-0.2,0-0.3,0-0.4-0.1c-0.1-0.1-0.2-0.2-0.3-0.3c-0.1-0.2-0.1-0.3-0.1-0.5c0-0.2,0-0.4,0.1-0.5
				c0-0.2,0.1-0.4,0.2-0.5c0.1-0.2,0.2-0.3,0.4-0.5c0.1-0.1,0.3-0.2,0.4-0.3s0.3-0.1,0.5-0.1c0.1,0,0.2,0,0.3,0.1
				c0.1,0.1,0.2,0.2,0.2,0.3l0.4-1.5c0-0.1,0-0.1,0-0.2c0,0,0-0.1,0-0.1c0,0-0.1,0-0.2,0c-0.1,0-0.2,0-0.3,0c0,0-0.1,0-0.1-0.1
				l0-0.1c0,0,0-0.1,0.1-0.1l0.6-0.1l0.2,0c0,0,0,0,0,0c0,0,0,0,0,0.1L136.1,34.2z M136,32.6c0,0,0-0.1,0-0.1c0-0.1-0.1-0.2-0.2-0.3
				c-0.1-0.1-0.2-0.1-0.3-0.1c-0.1,0-0.2,0-0.3,0.1c-0.1,0.1-0.2,0.2-0.3,0.3c-0.1,0.1-0.2,0.3-0.2,0.5s-0.1,0.3-0.1,0.5
				c0,0.2-0.1,0.3-0.1,0.5c0,0.2,0,0.3,0,0.5c0,0.1,0.1,0.2,0.1,0.3c0.1,0.1,0.1,0.1,0.2,0.1c0.1,0,0.2,0,0.3-0.1
				c0.1-0.1,0.2-0.2,0.3-0.3c0,0,0.1-0.1,0.1-0.1c0,0,0.1-0.1,0.1-0.1l0.4-1.4C136,32.7,136,32.7,136,32.6z"/>
			<path class="st5" d="M138.3,36.7c0,0.1-0.1,0.2-0.2,0.2c-0.1,0.1-0.2,0.1-0.3,0.2s-0.2,0.1-0.3,0.1c-0.1,0-0.2,0-0.3,0
				c-0.1,0-0.2-0.1-0.2-0.1c-0.1-0.1-0.1-0.1-0.2-0.2c0-0.1-0.1-0.2-0.1-0.3c0-0.1,0-0.1,0.1-0.2c0,0,0.1-0.1,0.1-0.1
				c0.1,0,0.1,0,0.1,0.1s0.1,0.1,0.1,0.2c0,0,0,0.1,0,0.1c0,0,0,0.1-0.1,0.1s-0.1,0-0.1,0s-0.1,0-0.1,0c0.1,0.1,0.1,0.2,0.2,0.2
				c0.1,0.1,0.2,0.1,0.4,0.1c0.1,0,0.1,0,0.2,0c0.1,0,0.1-0.1,0.1-0.1c0-0.1,0.1-0.1,0.1-0.2c0-0.1,0-0.2,0-0.2c0-0.1,0-0.2,0-0.2
				c0-0.1,0-0.1-0.1-0.2c0-0.1-0.1-0.1-0.1-0.1s-0.1,0-0.2,0h-0.3c0,0,0,0,0,0v0c0,0,0,0,0,0c0,0,0,0,0,0c0,0,0.1,0,0.1,0
				c0,0,0.1,0,0.1,0c0.1,0,0.1,0,0.2-0.1c0,0,0.1-0.1,0.1-0.1s0.1-0.1,0.1-0.2s0-0.2,0-0.2c0-0.1,0-0.1,0-0.2c0-0.1,0-0.1-0.1-0.1
				c-0.1-0.1-0.2-0.1-0.3-0.1c-0.1,0-0.2,0-0.3,0.1c-0.1,0-0.2,0.1-0.2,0.2c0.1,0,0.1,0,0.2,0c0.1,0,0.1,0.1,0.1,0.2
				c0,0.1,0,0.1-0.1,0.1c0,0-0.1,0-0.1,0c0,0-0.1,0-0.1,0c0,0-0.1-0.1-0.1-0.1c0-0.1,0-0.2,0.1-0.2c0-0.1,0.1-0.1,0.2-0.2
				c0.1,0,0.1-0.1,0.2-0.1s0.2,0,0.2,0c0.1,0,0.2,0,0.3,0s0.2,0.1,0.2,0.1c0.1,0,0.1,0.1,0.2,0.2s0.1,0.1,0.1,0.2c0,0.1,0,0.2,0,0.2
				s-0.1,0.1-0.1,0.2c0,0.1-0.1,0.1-0.2,0.2c-0.1,0-0.1,0.1-0.2,0.1c0.1,0,0.1,0,0.2,0.1s0.1,0.1,0.2,0.1c0.1,0.1,0.1,0.1,0.2,0.2
				c0,0.1,0.1,0.2,0.1,0.3C138.4,36.5,138.4,36.6,138.3,36.7z"/>
		</g>
	</g>
</g>
<polyline class="st13" points="108.9,111.7 189.3,111.7 189.3,92.6 189.7,92.6 207.5,92.6 207.5,67.3 225.5,67.3 225.5,46.1 
	281.1,46.2 "/>
<g>
	<circle class="st4" cx="84.2" cy="143.2" r="1.9"/>
	<line class="st4" x1="84.2" y1="143.2" x2="84.2" y2="139.7"/>
	<line class="st4" x1="84.2" y1="146.7" x2="84.2" y2="143.1"/>
	<line class="st4" x1="80.7" y1="143.2" x2="84.2" y2="143.2"/>
	<line class="st4" x1="84.2" y1="143.2" x2="87.7" y2="143.2"/>
</g>
<g>
	<circle class="st4" cx="189.5" cy="164.3" r="1.9"/>
	<line class="st4" x1="189.5" y1="164.3" x2="189.5" y2="160.7"/>
	<line class="st4" x1="189.5" y1="167.7" x2="189.5" y2="164.2"/>
	<line class="st4" x1="185.9" y1="164.3" x2="189.5" y2="164.3"/>
	<line class="st4" x1="189.5" y1="164.3" x2="193" y2="164.3"/>
</g>
<g>
	<circle class="st4" cx="207.5" cy="186.4" r="1.9"/>
	<line class="st4" x1="207.5" y1="186.4" x2="207.5" y2="182.9"/>
	<line class="st4" x1="207.5" y1="189.9" x2="207.5" y2="186.4"/>
	<line class="st4" x1="204" y1="186.4" x2="207.5" y2="186.4"/>
	<line class="st4" x1="207.5" y1="186.4" x2="211.1" y2="186.4"/>
</g>
<g>
	<circle class="st4" cx="225.5" cy="207.3" r="1.9"/>
	<line class="st4" x1="225.5" y1="207.3" x2="225.5" y2="203.7"/>
	<line class="st4" x1="225.5" y1="210.8" x2="225.5" y2="207.2"/>
	<line class="st4" x1="222" y1="207.3" x2="225.5" y2="207.3"/>
	<line class="st4" x1="225.5" y1="207.3" x2="229.1" y2="207.3"/>
</g>
<line class="st7" x1="83.9" y1="67.4" x2="83.9" y2="25"/>
<line class="st7" x1="108.9" y1="92.6" x2="108.9" y2="25"/>
<line class="st7" x1="126.7" y1="67.4" x2="126.7" y2="25"/>
<line class="st7" x1="144.8" y1="46.1" x2="144.8" y2="25"/>
<g>
</g>
</svg>
