<?xml version="1.0" encoding="utf-8" standalone="no"?>
<!DOCTYPE svg PUBLIC "-//W3C//DTD SVG 1.1//EN"
  "http://www.w3.org/Graphics/SVG/1.1/DTD/svg11.dtd">
<!-- Created with matplotlib (https://matplotlib.org/) -->
<svg height="524.88pt" version="1.1" viewBox="0 0 1353.6 524.88" width="1353.6pt" xmlns="http://www.w3.org/2000/svg" xmlns:xlink="http://www.w3.org/1999/xlink">
 <defs>
  <style type="text/css">
*{stroke-linecap:butt;stroke-linejoin:round;}
  </style>
 </defs>
 <g id="figure_1">
  <g id="patch_1">
   <path d="M 0 524.88 
L 1353.6 524.88 
L 1353.6 0 
L 0 0 
z
" style="fill:#ffffff;"/>
  </g>
  <g id="axes_1">
   <g id="patch_2">
    <path d="M 52.578125 483.820625 
L 1342.8 483.820625 
L 1342.8 10.8 
L 52.578125 10.8 
z
" style="fill:#ffffff;"/>
   </g>
   <g id="matplotlib.axis_1">
    <g id="xtick_1">
     <g id="line2d_1">
      <defs>
       <path d="M 0 0 
L 0 3.5 
" id="m2a1218a9bd" style="stroke:#000000;stroke-width:0.8;"/>
      </defs>
      <g>
       <use style="stroke:#000000;stroke-width:0.8;" x="111.224574" xlink:href="#m2a1218a9bd" y="483.820625"/>
      </g>
     </g>
     <g id="text_1">
      <!-- 0 -->
      <defs>
       <path d="M 27.90625 67.90625 
Q 39 67.90625 44.640625 59.046875 
Q 50.296875 50.203125 50.296875 33.40625 
Q 50.296875 16.59375 44.640625 7.6875 
Q 39 -1.203125 27.90625 -1.203125 
Q 16.796875 -1.203125 11.140625 7.6875 
Q 5.5 16.59375 5.5 33.40625 
Q 5.5 50.203125 11.140625 59.046875 
Q 16.796875 67.90625 27.90625 67.90625 
z
M 27.90625 60.59375 
Q 21.40625 60.59375 18.25 54.1875 
Q 15.09375 47.796875 15.09375 33.40625 
Q 15.09375 19 18.25 12.546875 
Q 21.40625 6.09375 27.90625 6.09375 
Q 34.296875 6.09375 37.5 12.546875 
Q 40.703125 19 40.703125 33.40625 
Q 40.703125 47.703125 37.5 54.140625 
Q 34.296875 60.59375 27.90625 60.59375 
z
" id="FiraSans-Regular-48"/>
      </defs>
      <g transform="translate(108.43473 498.320625)scale(0.1 -0.1)">
       <use xlink:href="#FiraSans-Regular-48"/>
      </g>
     </g>
    </g>
    <g id="xtick_2">
     <g id="line2d_2">
      <g>
       <use style="stroke:#000000;stroke-width:0.8;" x="291.069799" xlink:href="#m2a1218a9bd" y="483.820625"/>
      </g>
     </g>
     <g id="text_2">
      <!-- 50 -->
      <defs>
       <path d="M 42 59.703125 
L 15.90625 59.703125 
L 15.90625 40 
Q 21 42.59375 26.59375 42.59375 
Q 35.203125 42.59375 40.390625 36.9375 
Q 45.59375 31.296875 45.59375 21.40625 
Q 45.59375 14.796875 42.6875 9.640625 
Q 39.796875 4.5 34.546875 1.640625 
Q 29.296875 -1.203125 22.40625 -1.203125 
Q 16.296875 -1.203125 11.5 0.9375 
Q 6.703125 3.09375 2.59375 7.296875 
L 8 12.59375 
Q 11.203125 9.40625 14.59375 7.84375 
Q 18 6.296875 22.296875 6.296875 
Q 28.703125 6.296875 32.34375 10.296875 
Q 36 14.296875 36 21.59375 
Q 36 28.90625 32.703125 32.203125 
Q 29.40625 35.5 23.796875 35.5 
Q 21.203125 35.5 19 34.953125 
Q 16.796875 34.40625 14.296875 33.203125 
L 7.09375 33.203125 
L 7.09375 66.90625 
L 43.296875 66.90625 
z
" id="FiraSans-Regular-53"/>
      </defs>
      <g transform="translate(285.775268 498.320625)scale(0.1 -0.1)">
       <use xlink:href="#FiraSans-Regular-53"/>
       <use x="50.099991" xlink:href="#FiraSans-Regular-48"/>
      </g>
     </g>
    </g>
    <g id="xtick_3">
     <g id="line2d_3">
      <g>
       <use style="stroke:#000000;stroke-width:0.8;" x="470.915024" xlink:href="#m2a1218a9bd" y="483.820625"/>
      </g>
     </g>
     <g id="text_3">
      <!-- 100 -->
      <defs>
       <path d="M 32.296875 66.90625 
L 32.296875 0 
L 23.09375 0 
L 23.09375 57.09375 
L 7.5 47.59375 
L 3.5 54.09375 
L 24.203125 66.90625 
z
" id="FiraSans-Regular-49"/>
      </defs>
      <g transform="translate(463.170493 498.320625)scale(0.1 -0.1)">
       <use xlink:href="#FiraSans-Regular-49"/>
       <use x="43.299988" xlink:href="#FiraSans-Regular-48"/>
       <use x="99.099976" xlink:href="#FiraSans-Regular-48"/>
      </g>
     </g>
    </g>
    <g id="xtick_4">
     <g id="line2d_4">
      <g>
       <use style="stroke:#000000;stroke-width:0.8;" x="650.760249" xlink:href="#m2a1218a9bd" y="483.820625"/>
      </g>
     </g>
     <g id="text_4">
      <!-- 150 -->
      <g transform="translate(643.300874 498.320625)scale(0.1 -0.1)">
       <use xlink:href="#FiraSans-Regular-49"/>
       <use x="43.299988" xlink:href="#FiraSans-Regular-53"/>
       <use x="93.399979" xlink:href="#FiraSans-Regular-48"/>
      </g>
     </g>
    </g>
    <g id="xtick_5">
     <g id="line2d_5">
      <g>
       <use style="stroke:#000000;stroke-width:0.8;" x="830.605475" xlink:href="#m2a1218a9bd" y="483.820625"/>
      </g>
     </g>
     <g id="text_5">
      <!-- 200 -->
      <defs>
       <path d="M 22.796875 67.90625 
Q 28.796875 67.90625 33.34375 65.5 
Q 37.90625 63.09375 40.40625 58.9375 
Q 42.90625 54.796875 42.90625 49.59375 
Q 42.90625 43.5 40.15625 37.890625 
Q 37.40625 32.296875 31.703125 25.796875 
Q 26 19.296875 14.40625 7.703125 
L 44.5 7.703125 
L 43.40625 0 
L 3.90625 0 
L 3.90625 7.296875 
Q 17.296875 21.203125 22.890625 27.640625 
Q 28.5 34.09375 30.890625 38.890625 
Q 33.296875 43.703125 33.296875 49.203125 
Q 33.296875 54.40625 30.296875 57.34375 
Q 27.296875 60.296875 22.296875 60.296875 
Q 18.203125 60.296875 15.09375 58.59375 
Q 12 56.90625 8.5 53 
L 2.5 57.796875 
Q 6.59375 62.90625 11.59375 65.40625 
Q 16.59375 67.90625 22.796875 67.90625 
z
" id="FiraSans-Regular-50"/>
      </defs>
      <g transform="translate(822.550787 498.320625)scale(0.1 -0.1)">
       <use xlink:href="#FiraSans-Regular-50"/>
       <use x="49.499985" xlink:href="#FiraSans-Regular-48"/>
       <use x="105.299973" xlink:href="#FiraSans-Regular-48"/>
      </g>
     </g>
    </g>
    <g id="xtick_6">
     <g id="line2d_6">
      <g>
       <use style="stroke:#000000;stroke-width:0.8;" x="1010.4507" xlink:href="#m2a1218a9bd" y="483.820625"/>
      </g>
     </g>
     <g id="text_6">
      <!-- 250 -->
      <g transform="translate(1002.681169 498.320625)scale(0.1 -0.1)">
       <use xlink:href="#FiraSans-Regular-50"/>
       <use x="49.499985" xlink:href="#FiraSans-Regular-53"/>
       <use x="99.599976" xlink:href="#FiraSans-Regular-48"/>
      </g>
     </g>
    </g>
    <g id="xtick_7">
     <g id="line2d_7">
      <g>
       <use style="stroke:#000000;stroke-width:0.8;" x="1190.295925" xlink:href="#m2a1218a9bd" y="483.820625"/>
      </g>
     </g>
     <g id="text_7">
      <!-- 300 -->
      <defs>
       <path d="M 22.5 67.90625 
Q 28.703125 67.90625 33.140625 65.59375 
Q 37.59375 63.296875 39.9375 59.390625 
Q 42.296875 55.5 42.296875 50.90625 
Q 42.296875 44.796875 38.75 40.84375 
Q 35.203125 36.90625 29.296875 35.5 
Q 36 34.90625 40.203125 30.703125 
Q 44.40625 26.5 44.40625 19.296875 
Q 44.40625 13.5 41.59375 8.796875 
Q 38.796875 4.09375 33.59375 1.4375 
Q 28.40625 -1.203125 21.59375 -1.203125 
Q 15.5 -1.203125 10.390625 1.046875 
Q 5.296875 3.296875 1.5 7.796875 
L 7 12.90625 
Q 10.296875 9.5 13.75 7.890625 
Q 17.203125 6.296875 21.296875 6.296875 
Q 27.59375 6.296875 31.1875 9.84375 
Q 34.796875 13.40625 34.796875 19.40625 
Q 34.796875 26 31.390625 28.703125 
Q 28 31.40625 21.5 31.40625 
L 16.5 31.40625 
L 17.59375 38.5 
L 21 38.5 
Q 26.203125 38.5 29.640625 41.59375 
Q 33.09375 44.703125 33.09375 50.296875 
Q 33.09375 55 30.09375 57.75 
Q 27.09375 60.5 22 60.5 
Q 18.09375 60.5 14.84375 59.09375 
Q 11.59375 57.703125 8.203125 54.5 
L 3.40625 60 
Q 11.90625 67.90625 22.5 67.90625 
z
" id="FiraSans-Regular-51"/>
      </defs>
      <g transform="translate(1182.220925 498.320625)scale(0.1 -0.1)">
       <use xlink:href="#FiraSans-Regular-51"/>
       <use x="49.899994" xlink:href="#FiraSans-Regular-48"/>
       <use x="105.699982" xlink:href="#FiraSans-Regular-48"/>
      </g>
     </g>
    </g>
    <g id="text_8">
     <!-- Distance [km] -->
     <defs>
      <path d="M 24.40625 68.90625 
Q 40 68.90625 49.453125 61.65625 
Q 58.90625 54.40625 58.90625 34.796875 
Q 58.90625 15.703125 49.453125 7.84375 
Q 40 0 26.5 0 
L 10 0 
L 10 68.90625 
L 24.40625 68.90625 
z
M 19.5 61.296875 
L 19.5 7.5 
L 27.203125 7.5 
Q 36.796875 7.5 42.796875 13.390625 
Q 48.796875 19.296875 48.796875 34.796875 
Q 48.796875 45.703125 45.6875 51.546875 
Q 42.59375 57.40625 37.796875 59.34375 
Q 33 61.296875 26.5 61.296875 
z
" id="FiraSans-Regular-68"/>
      <path d="M 18.703125 52.703125 
L 18.703125 0 
L 9.5 0 
L 9.5 52.703125 
z
M 14 78 
Q 16.90625 78 18.703125 76.203125 
Q 20.5 74.40625 20.5 71.703125 
Q 20.5 69 18.703125 67.25 
Q 16.90625 65.5 14 65.5 
Q 11.203125 65.5 9.390625 67.25 
Q 7.59375 69 7.59375 71.703125 
Q 7.59375 74.40625 9.390625 76.203125 
Q 11.203125 78 14 78 
z
" id="FiraSans-Regular-105"/>
      <path d="M 23.796875 53.90625 
Q 29.203125 53.90625 33.5 52.40625 
Q 37.796875 50.90625 41.703125 47.90625 
L 37.796875 42.09375 
Q 34.203125 44.40625 30.953125 45.5 
Q 27.703125 46.59375 24.09375 46.59375 
Q 19.59375 46.59375 17 44.75 
Q 14.40625 42.90625 14.40625 39.703125 
Q 14.40625 36.5 16.84375 34.703125 
Q 19.296875 32.90625 25.703125 31.203125 
Q 34.5 29 38.84375 25.203125 
Q 43.203125 21.40625 43.203125 14.796875 
Q 43.203125 7 37.140625 2.890625 
Q 31.09375 -1.203125 22.40625 -1.203125 
Q 10.40625 -1.203125 2.5 5.703125 
L 7.40625 11.296875 
Q 14.09375 6.203125 22.203125 6.203125 
Q 27.40625 6.203125 30.453125 8.34375 
Q 33.5 10.5 33.5 14.203125 
Q 33.5 16.90625 32.390625 18.546875 
Q 31.296875 20.203125 28.59375 21.453125 
Q 25.90625 22.703125 20.703125 24.09375 
Q 12.296875 26.296875 8.546875 30 
Q 4.796875 33.703125 4.796875 39.40625 
Q 4.796875 43.5 7.25 46.84375 
Q 9.703125 50.203125 14.046875 52.046875 
Q 18.40625 53.90625 23.796875 53.90625 
z
" id="FiraSans-Regular-115"/>
      <path d="M 36.09375 2.40625 
Q 30.90625 -1.203125 24.296875 -1.203125 
Q 17.59375 -1.203125 13.84375 2.640625 
Q 10.09375 6.5 10.09375 13.796875 
L 10.09375 45.59375 
L 0.90625 45.59375 
L 0.90625 52.703125 
L 10.09375 52.703125 
L 10.09375 64.59375 
L 19.296875 65.703125 
L 19.296875 52.703125 
L 31.796875 52.703125 
L 30.796875 45.59375 
L 19.296875 45.59375 
L 19.296875 14.203125 
Q 19.296875 10.09375 20.75 8.25 
Q 22.203125 6.40625 25.59375 6.40625 
Q 28.703125 6.40625 32.59375 8.5 
z
" id="FiraSans-Regular-116"/>
      <path d="M 45 12.296875 
Q 45 9.09375 46.09375 7.546875 
Q 47.203125 6 49.40625 5.203125 
L 47.296875 -1.203125 
Q 43.203125 -0.703125 40.703125 1.09375 
Q 38.203125 2.90625 37 6.703125 
Q 31.703125 -1.203125 21.296875 -1.203125 
Q 13.5 -1.203125 9 3.1875 
Q 4.5 7.59375 4.5 14.703125 
Q 4.5 23.09375 10.546875 27.59375 
Q 16.59375 32.09375 27.703125 32.09375 
L 35.796875 32.09375 
L 35.796875 36 
Q 35.796875 41.59375 33.09375 44 
Q 30.40625 46.40625 24.796875 46.40625 
Q 19 46.40625 10.59375 43.59375 
L 8.296875 50.296875 
Q 18.09375 53.90625 26.5 53.90625 
Q 35.796875 53.90625 40.390625 49.34375 
Q 45 44.796875 45 36.40625 
L 45 12.296875 
z
M 23.40625 5.703125 
Q 31.296875 5.703125 35.796875 13.90625 
L 35.796875 26 
L 28.90625 26 
Q 14.296875 26 14.296875 15.203125 
Q 14.296875 10.5 16.59375 8.09375 
Q 18.90625 5.703125 23.40625 5.703125 
z
" id="FiraSans-Regular-97"/>
      <path d="M 34.296875 53.90625 
Q 41.5 53.90625 45.546875 49.59375 
Q 49.59375 45.296875 49.59375 37.796875 
L 49.59375 0 
L 40.40625 0 
L 40.40625 36.5 
Q 40.40625 42.09375 38.296875 44.390625 
Q 36.203125 46.703125 32.09375 46.703125 
Q 27.90625 46.703125 24.703125 44.296875 
Q 21.5 41.90625 18.703125 37.40625 
L 18.703125 0 
L 9.5 0 
L 9.5 52.703125 
L 17.40625 52.703125 
L 18.203125 44.90625 
Q 21 49.09375 25.140625 51.5 
Q 29.296875 53.90625 34.296875 53.90625 
z
" id="FiraSans-Regular-110"/>
      <path d="M 28.703125 53.90625 
Q 33.40625 53.90625 37.296875 52.546875 
Q 41.203125 51.203125 44.796875 48.203125 
L 40.40625 42.40625 
Q 37.59375 44.40625 34.9375 45.34375 
Q 32.296875 46.296875 29.09375 46.296875 
Q 22.703125 46.296875 19.140625 41.1875 
Q 15.59375 36.09375 15.59375 26.09375 
Q 15.59375 16.09375 19.09375 11.34375 
Q 22.59375 6.59375 29.09375 6.59375 
Q 32.203125 6.59375 34.796875 7.546875 
Q 37.40625 8.5 40.59375 10.59375 
L 44.796875 4.59375 
Q 37.59375 -1.203125 28.703125 -1.203125 
Q 18 -1.203125 11.84375 6 
Q 5.703125 13.203125 5.703125 25.90625 
Q 5.703125 34.296875 8.5 40.59375 
Q 11.296875 46.90625 16.4375 50.40625 
Q 21.59375 53.90625 28.703125 53.90625 
z
" id="FiraSans-Regular-99"/>
      <path d="M 49.296875 27.90625 
Q 49.296875 25.59375 49.09375 23.203125 
L 15.5 23.203125 
Q 16.09375 14.5 19.890625 10.390625 
Q 23.703125 6.296875 29.703125 6.296875 
Q 33.5 6.296875 36.703125 7.390625 
Q 39.90625 8.5 43.40625 10.90625 
L 47.40625 5.40625 
Q 39 -1.203125 29 -1.203125 
Q 18 -1.203125 11.84375 6 
Q 5.703125 13.203125 5.703125 25.796875 
Q 5.703125 34 8.34375 40.34375 
Q 11 46.703125 15.953125 50.296875 
Q 20.90625 53.90625 27.59375 53.90625 
Q 38.09375 53.90625 43.6875 47 
Q 49.296875 40.09375 49.296875 27.90625 
z
M 40.203125 30.59375 
Q 40.203125 38.40625 37.09375 42.5 
Q 34 46.59375 27.796875 46.59375 
Q 16.5 46.59375 15.5 30 
L 40.203125 30 
z
" id="FiraSans-Regular-101"/>
      <path id="FiraSans-Regular-32"/>
      <path d="M 27.203125 81.59375 
L 27.203125 73.90625 
L 15.203125 73.90625 
L 15.203125 -4 
L 27.203125 -4 
L 27.203125 -11.59375 
L 6.5 -11.59375 
L 6.5 81.59375 
z
" id="FiraSans-Regular-91"/>
      <path d="M 18.703125 75 
L 18.703125 0 
L 9.5 0 
L 9.5 73.90625 
z
M 49 52.703125 
L 29.59375 29.40625 
L 51.203125 0 
L 40.203125 0 
L 19.296875 28.796875 
L 38.703125 52.703125 
z
" id="FiraSans-Regular-107"/>
      <path d="M 62.40625 53.90625 
Q 68.90625 53.90625 72.796875 49.546875 
Q 76.703125 45.203125 76.703125 37.796875 
L 76.703125 0 
L 67.5 0 
L 67.5 36.5 
Q 67.5 46.703125 60.09375 46.703125 
Q 56.203125 46.703125 53.5 44.453125 
Q 50.796875 42.203125 47.703125 37.40625 
L 47.703125 0 
L 38.5 0 
L 38.5 36.5 
Q 38.5 46.703125 31.09375 46.703125 
Q 27.09375 46.703125 24.390625 44.390625 
Q 21.703125 42.09375 18.703125 37.40625 
L 18.703125 0 
L 9.5 0 
L 9.5 52.703125 
L 17.40625 52.703125 
L 18.203125 45 
Q 24.09375 53.90625 33.40625 53.90625 
Q 38.296875 53.90625 41.75 51.40625 
Q 45.203125 48.90625 46.703125 44.40625 
Q 49.796875 49 53.546875 51.453125 
Q 57.296875 53.90625 62.40625 53.90625 
z
" id="FiraSans-Regular-109"/>
      <path d="M 25.703125 81.59375 
L 25.703125 -11.59375 
L 5 -11.59375 
L 5 -4 
L 17 -4 
L 17 73.90625 
L 5 73.90625 
L 5 81.59375 
z
" id="FiraSans-Regular-93"/>
     </defs>
     <g transform="translate(666.763281 511.950312)scale(0.1 -0.1)">
      <use xlink:href="#FiraSans-Regular-68"/>
      <use x="64.399994" xlink:href="#FiraSans-Regular-105"/>
      <use x="92.599991" xlink:href="#FiraSans-Regular-115"/>
      <use x="139.299988" xlink:href="#FiraSans-Regular-116"/>
      <use x="175.399979" xlink:href="#FiraSans-Regular-97"/>
      <use x="229.799973" xlink:href="#FiraSans-Regular-110"/>
      <use x="288.399963" xlink:href="#FiraSans-Regular-99"/>
      <use x="336.199951" xlink:href="#FiraSans-Regular-101"/>
      <use x="390.699936" xlink:href="#FiraSans-Regular-32"/>
      <use x="417.199921" xlink:href="#FiraSans-Regular-91"/>
      <use x="449.399918" xlink:href="#FiraSans-Regular-107"/>
      <use x="500.599915" xlink:href="#FiraSans-Regular-109"/>
      <use x="586.299896" xlink:href="#FiraSans-Regular-93"/>
     </g>
    </g>
   </g>
   <g id="matplotlib.axis_2">
    <g id="ytick_1">
     <g id="line2d_8">
      <defs>
       <path d="M 0 0 
L -3.5 0 
" id="md626eceec6" style="stroke:#000000;stroke-width:0.8;"/>
      </defs>
      <g>
       <use style="stroke:#000000;stroke-width:0.8;" x="52.578125" xlink:href="#md626eceec6" y="434.348654"/>
      </g>
     </g>
     <g id="text_9">
      <!-- −150 -->
      <defs>
       <path d="M 6.203125 29.40625 
L 6.203125 37.09375 
L 43.796875 37.09375 
L 43.796875 29.40625 
z
" id="FiraSans-Regular-8722"/>
      </defs>
      <g transform="translate(25.659375 438.098654)scale(0.1 -0.1)">
       <use xlink:href="#FiraSans-Regular-8722"/>
       <use x="49.999985" xlink:href="#FiraSans-Regular-49"/>
       <use x="93.299973" xlink:href="#FiraSans-Regular-53"/>
       <use x="143.399963" xlink:href="#FiraSans-Regular-48"/>
      </g>
     </g>
    </g>
    <g id="ytick_2">
     <g id="line2d_9">
      <g>
       <use style="stroke:#000000;stroke-width:0.8;" x="52.578125" xlink:href="#md626eceec6" y="376.913266"/>
      </g>
     </g>
     <g id="text_10">
      <!-- −100 -->
      <g transform="translate(25.089062 380.663266)scale(0.1 -0.1)">
       <use xlink:href="#FiraSans-Regular-8722"/>
       <use x="49.999985" xlink:href="#FiraSans-Regular-49"/>
       <use x="93.299973" xlink:href="#FiraSans-Regular-48"/>
       <use x="149.09996" xlink:href="#FiraSans-Regular-48"/>
      </g>
     </g>
    </g>
    <g id="ytick_3">
     <g id="line2d_10">
      <g>
       <use style="stroke:#000000;stroke-width:0.8;" x="52.578125" xlink:href="#md626eceec6" y="319.477878"/>
      </g>
     </g>
     <g id="text_11">
      <!-- −50 -->
      <g transform="translate(29.989062 323.227878)scale(0.1 -0.1)">
       <use xlink:href="#FiraSans-Regular-8722"/>
       <use x="49.999985" xlink:href="#FiraSans-Regular-53"/>
       <use x="100.099976" xlink:href="#FiraSans-Regular-48"/>
      </g>
     </g>
    </g>
    <g id="ytick_4">
     <g id="line2d_11">
      <g>
       <use style="stroke:#000000;stroke-width:0.8;" x="52.578125" xlink:href="#md626eceec6" y="262.04249"/>
      </g>
     </g>
     <g id="text_12">
      <!-- 0 -->
      <g transform="translate(39.998438 265.79249)scale(0.1 -0.1)">
       <use xlink:href="#FiraSans-Regular-48"/>
      </g>
     </g>
    </g>
    <g id="ytick_5">
     <g id="line2d_12">
      <g>
       <use style="stroke:#000000;stroke-width:0.8;" x="52.578125" xlink:href="#md626eceec6" y="204.607102"/>
      </g>
     </g>
     <g id="text_13">
      <!-- 50 -->
      <g transform="translate(34.989063 208.357102)scale(0.1 -0.1)">
       <use xlink:href="#FiraSans-Regular-53"/>
       <use x="50.099991" xlink:href="#FiraSans-Regular-48"/>
      </g>
     </g>
    </g>
    <g id="ytick_6">
     <g id="line2d_13">
      <g>
       <use style="stroke:#000000;stroke-width:0.8;" x="52.578125" xlink:href="#md626eceec6" y="147.171714"/>
      </g>
     </g>
     <g id="text_14">
      <!-- 100 -->
      <g transform="translate(30.089062 150.921714)scale(0.1 -0.1)">
       <use xlink:href="#FiraSans-Regular-49"/>
       <use x="43.299988" xlink:href="#FiraSans-Regular-48"/>
       <use x="99.099976" xlink:href="#FiraSans-Regular-48"/>
      </g>
     </g>
    </g>
    <g id="ytick_7">
     <g id="line2d_14">
      <g>
       <use style="stroke:#000000;stroke-width:0.8;" x="52.578125" xlink:href="#md626eceec6" y="89.736326"/>
      </g>
     </g>
     <g id="text_15">
      <!-- 150 -->
      <g transform="translate(30.659375 93.486326)scale(0.1 -0.1)">
       <use xlink:href="#FiraSans-Regular-49"/>
       <use x="43.299988" xlink:href="#FiraSans-Regular-53"/>
       <use x="93.399979" xlink:href="#FiraSans-Regular-48"/>
      </g>
     </g>
    </g>
    <g id="ytick_8">
     <g id="line2d_15">
      <g>
       <use style="stroke:#000000;stroke-width:0.8;" x="52.578125" xlink:href="#md626eceec6" y="32.300938"/>
      </g>
     </g>
     <g id="text_16">
      <!-- 200 -->
      <g transform="translate(29.46875 36.050938)scale(0.1 -0.1)">
       <use xlink:href="#FiraSans-Regular-50"/>
       <use x="49.499985" xlink:href="#FiraSans-Regular-48"/>
       <use x="105.299973" xlink:href="#FiraSans-Regular-48"/>
      </g>
     </g>
    </g>
    <g id="text_17">
     <!-- Speed [km/h] -->
     <defs>
      <path d="M 27 70.09375 
Q 33.90625 70.09375 38.796875 68.140625 
Q 43.703125 66.203125 48.296875 62.09375 
L 43.09375 56.296875 
Q 39.203125 59.40625 35.453125 60.84375 
Q 31.703125 62.296875 27.40625 62.296875 
Q 22 62.296875 18.5 59.796875 
Q 15 57.296875 15 52.5 
Q 15 49.5 16.203125 47.453125 
Q 17.40625 45.40625 20.65625 43.703125 
Q 23.90625 42 30.09375 40.09375 
Q 36.59375 38.09375 40.890625 35.796875 
Q 45.203125 33.5 47.84375 29.453125 
Q 50.5 25.40625 50.5 19.203125 
Q 50.5 13.203125 47.546875 8.59375 
Q 44.59375 4 39.046875 1.390625 
Q 33.5 -1.203125 25.90625 -1.203125 
Q 11.59375 -1.203125 2.5 7.703125 
L 7.703125 13.5 
Q 11.90625 10.09375 16.203125 8.34375 
Q 20.5 6.59375 25.796875 6.59375 
Q 32.203125 6.59375 36.390625 9.75 
Q 40.59375 12.90625 40.59375 18.90625 
Q 40.59375 22.296875 39.296875 24.546875 
Q 38 26.796875 34.84375 28.59375 
Q 31.703125 30.40625 25.703125 32.203125 
Q 15.09375 35.40625 10.1875 39.90625 
Q 5.296875 44.40625 5.296875 52.09375 
Q 5.296875 57.296875 8.046875 61.390625 
Q 10.796875 65.5 15.75 67.796875 
Q 20.703125 70.09375 27 70.09375 
z
" id="FiraSans-Regular-83"/>
      <path d="M 33.703125 53.90625 
Q 43.796875 53.90625 48.5 46.703125 
Q 53.203125 39.5 53.203125 26.40625 
Q 53.203125 14 47.796875 6.390625 
Q 42.40625 -1.203125 32.5 -1.203125 
Q 23.703125 -1.203125 18.703125 4.796875 
L 18.703125 -20.203125 
L 9.5 -21.296875 
L 9.5 52.703125 
L 17.40625 52.703125 
L 18.09375 45.59375 
Q 21 49.59375 25.09375 51.75 
Q 29.203125 53.90625 33.703125 53.90625 
z
M 30.296875 6.296875 
Q 43.296875 6.296875 43.296875 26.40625 
Q 43.296875 46.59375 31.40625 46.59375 
Q 27.5 46.59375 24.296875 44.296875 
Q 21.09375 42 18.703125 38.40625 
L 18.703125 12.703125 
Q 20.703125 9.59375 23.703125 7.9375 
Q 26.703125 6.296875 30.296875 6.296875 
z
" id="FiraSans-Regular-112"/>
      <path d="M 50.296875 73.90625 
L 50.296875 0 
L 42.203125 0 
L 41.296875 7.296875 
Q 38.703125 3.296875 34.796875 1.046875 
Q 30.90625 -1.203125 26.09375 -1.203125 
Q 16.703125 -1.203125 11.453125 6.1875 
Q 6.203125 13.59375 6.203125 26.09375 
Q 6.203125 34.203125 8.703125 40.5 
Q 11.203125 46.796875 15.890625 50.34375 
Q 20.59375 53.90625 26.90625 53.90625 
Q 35 53.90625 41.09375 47.40625 
L 41.09375 75 
z
M 28.09375 6.09375 
Q 32.296875 6.09375 35.296875 8.046875 
Q 38.296875 10 41.09375 13.90625 
L 41.09375 39.703125 
Q 38.5 43.09375 35.546875 44.84375 
Q 32.59375 46.59375 28.90625 46.59375 
Q 22.796875 46.59375 19.4375 41.5 
Q 16.09375 36.40625 16.09375 26.296875 
Q 16.09375 16.09375 19.1875 11.09375 
Q 22.296875 6.09375 28.09375 6.09375 
z
" id="FiraSans-Regular-100"/>
      <path d="M 33.703125 80.703125 
L 41.5 78.90625 
L 18.40625 -10.40625 
L 10.5 -8.5 
z
" id="FiraSans-Regular-47"/>
      <path d="M 34.296875 53.90625 
Q 41.5 53.90625 45.546875 49.59375 
Q 49.59375 45.296875 49.59375 37.796875 
L 49.59375 0 
L 40.40625 0 
L 40.40625 36.5 
Q 40.40625 42.09375 38.25 44.390625 
Q 36.09375 46.703125 32 46.703125 
Q 27.90625 46.703125 24.703125 44.296875 
Q 21.5 41.90625 18.703125 37.5 
L 18.703125 0 
L 9.5 0 
L 9.5 73.796875 
L 18.703125 74.796875 
L 18.703125 45.40625 
Q 24.90625 53.90625 34.296875 53.90625 
z
" id="FiraSans-Regular-104"/>
     </defs>
     <g transform="translate(18.959375 278.365781)rotate(-90)scale(0.1 -0.1)">
      <use xlink:href="#FiraSans-Regular-83"/>
      <use x="54.499985" xlink:href="#FiraSans-Regular-112"/>
      <use x="113.899979" xlink:href="#FiraSans-Regular-101"/>
      <use x="168.399963" xlink:href="#FiraSans-Regular-101"/>
      <use x="222.899948" xlink:href="#FiraSans-Regular-100"/>
      <use x="282.699936" xlink:href="#FiraSans-Regular-32"/>
      <use x="309.199921" xlink:href="#FiraSans-Regular-91"/>
      <use x="341.399918" xlink:href="#FiraSans-Regular-107"/>
      <use x="392.599915" xlink:href="#FiraSans-Regular-109"/>
      <use x="478.299896" xlink:href="#FiraSans-Regular-47"/>
      <use x="530.299881" xlink:href="#FiraSans-Regular-104"/>
      <use x="588.899872" xlink:href="#FiraSans-Regular-93"/>
     </g>
    </g>
   </g>
   <g id="line2d_16">
    <path clip-path="url(#pe4e54e7d2f)" d="M 111.224574 262.04249 
L 111.224574 124.197558 
L 111.332481 124.197558 
L 114.695587 124.197558 
L 114.695587 147.171714 
L 114.803494 147.171714 
L 117.116303 147.171714 
L 117.123497 262.04249 
L 117.21342 147.171714 
L 119.425516 147.171714 
L 119.425516 147.171714 
L 119.425516 152.915252 
L 119.533423 152.915252 
L 120.756371 152.915252 
L 120.756371 147.171714 
L 120.864278 147.171714 
L 123.950422 147.171714 
L 123.957616 262.04249 
L 124.047538 187.376485 
L 125.756068 187.376485 
L 125.756068 147.171714 
L 125.863975 147.171714 
L 132.590187 147.171714 
L 132.590187 124.197558 
L 132.698094 124.197558 
L 149.117963 124.197558 
L 149.117963 101.223403 
L 149.22587 101.223403 
L 160.261173 101.223403 
L 160.261173 262.04249 
L 160.358289 101.223403 
L 172.138152 101.223403 
L 172.138152 135.684636 
L 172.246059 135.684636 
L 174.655985 135.684636 
L 174.655985 124.197558 
L 174.763892 124.197558 
L 178.252889 124.197558 
L 178.252889 83.992787 
L 178.360796 83.992787 
L 198.082624 83.992787 
L 198.082624 262.04249 
L 198.17974 95.479864 
L 206.003008 95.479864 
L 206.003008 135.684636 
L 206.110915 135.684636 
L 208.053243 135.684636 
L 208.053243 95.479864 
L 208.16115 95.479864 
L 208.664717 95.479864 
L 208.664717 83.992787 
L 208.772624 83.992787 
L 281.915677 83.992787 
L 281.915677 101.223403 
L 282.023584 101.223403 
L 282.742965 101.223403 
L 282.742965 83.992787 
L 282.850872 83.992787 
L 329.387623 83.992787 
L 329.387623 262.04249 
L 329.484739 83.992787 
L 418.759909 83.992787 
L 418.759909 106.966942 
L 418.867816 106.966942 
L 423.61573 106.966942 
L 423.61573 83.992787 
L 423.723637 83.992787 
L 490.841875 83.992787 
L 490.841875 118.45402 
L 490.949782 118.45402 
L 493.359708 118.45402 
L 493.359708 83.992787 
L 493.467615 83.992787 
L 496.596922 83.992787 
L 496.596922 101.223403 
L 496.70483 101.223403 
L 511.991674 101.223403 
L 511.991674 124.197558 
L 512.099581 124.197558 
L 515.552609 124.197558 
L 515.552609 141.428175 
L 515.660516 141.428175 
L 521.415563 141.428175 
L 521.415563 101.223403 
L 521.523471 101.223403 
L 523.933397 101.223403 
L 523.933397 83.992787 
L 524.041304 83.992787 
L 580.69255 83.992787 
L 580.69255 147.171714 
L 580.800457 147.171714 
L 585.008835 147.171714 
L 585.008835 83.992787 
L 585.116742 83.992787 
L 607.309643 83.992787 
L 607.309643 95.479864 
L 607.41755 95.479864 
L 614.395545 95.479864 
L 614.395545 83.992787 
L 614.503452 83.992787 
L 631.660687 83.992787 
L 631.660687 135.684636 
L 631.768594 135.684636 
L 639.789691 135.684636 
L 639.789691 101.223403 
L 639.897598 101.223403 
L 653.601804 101.223403 
L 653.601804 83.992787 
L 653.709711 83.992787 
L 736.726267 83.992787 
L 736.726267 89.736326 
L 736.834174 89.736326 
L 737.085958 89.736326 
L 737.085958 83.992787 
L 737.193865 83.992787 
L 768.379027 83.992787 
L 768.379027 101.223403 
L 768.486934 101.223403 
L 771.25655 101.223403 
L 771.25655 118.45402 
L 771.364457 118.45402 
L 771.975931 118.45402 
L 771.975931 83.992787 
L 772.083838 83.992787 
L 807.837069 83.992787 
L 807.837069 101.223403 
L 807.944976 101.223403 
L 812.146161 101.223403 
L 812.146161 262.04249 
L 812.243277 101.223403 
L 812.513045 101.223403 
L 812.513045 83.992787 
L 812.620952 83.992787 
L 886.861061 83.992787 
L 886.861061 101.223403 
L 886.968968 101.223403 
L 920.808646 101.223403 
L 920.808646 262.04249 
L 920.905762 158.658791 
L 937.073848 158.658791 
L 937.073848 32.300938 
L 937.181755 32.300938 
L 946.353862 32.300938 
L 946.353862 66.76217 
L 946.461769 66.76217 
L 957.76684 66.76217 
L 957.76684 262.04249 
L 957.863956 66.76217 
L 958.871089 66.76217 
L 958.871089 101.223403 
L 958.978996 101.223403 
L 974.121964 101.223403 
L 974.121964 118.45402 
L 974.229871 118.45402 
L 976.819643 118.45402 
L 976.819643 101.223403 
L 976.92755 101.223403 
L 979.301507 101.223403 
L 979.319491 158.658791 
L 979.409414 101.223403 
L 988.995164 101.223403 
L 988.995164 175.889408 
L 989.103072 175.889408 
L 1016.205747 175.889408 
L 1016.205747 101.223403 
L 1016.313654 101.223403 
L 1017.428695 101.223403 
L 1017.428695 32.300938 
L 1017.536602 32.300938 
L 1093.136341 32.300938 
L 1093.143534 262.04249 
L 1093.233457 32.300938 
L 1094.04276 32.300938 
L 1094.04276 164.40233 
L 1094.150668 164.40233 
L 1094.906018 164.40233 
L 1094.906018 175.889408 
L 1095.013925 175.889408 
L 1097.783541 175.889408 
L 1097.783541 164.40233 
L 1097.891448 164.40233 
L 1104.689598 164.40233 
L 1104.689598 124.197558 
L 1104.797505 124.197558 
L 1114.185426 124.197558 
L 1114.20341 66.76217 
L 1114.293333 66.76217 
L 1117.249988 66.76217 
L 1117.249988 262.04249 
L 1117.347105 66.76217 
L 1124.055332 66.76217 
L 1124.055332 32.300938 
L 1124.163239 32.300938 
L 1137.752344 32.300938 
L 1137.759538 262.04249 
L 1137.84946 32.300938 
L 1219.761767 32.300938 
L 1219.768961 262.04249 
L 1219.858883 32.300938 
L 1258.396118 32.300938 
L 1258.396118 66.76217 
L 1258.504025 66.76217 
L 1260.388803 66.76217 
L 1260.388803 262.04249 
L 1260.48592 66.76217 
L 1269.586088 66.76217 
L 1269.586088 101.223403 
L 1269.693995 101.223403 
L 1269.945778 101.223403 
L 1269.945778 66.76217 
L 1270.053685 66.76217 
L 1271.420509 66.76217 
L 1271.420509 141.428175 
L 1271.528416 141.428175 
L 1281.383935 141.428175 
L 1281.383935 66.76217 
L 1281.491842 66.76217 
L 1282.880247 66.76217 
L 1282.880247 181.632946 
L 1282.988154 181.632946 
L 1284.146357 181.632946 
L 1284.146357 262.04249 
L 1284.153551 262.04249 
" style="fill:none;stroke:#1f77b4;stroke-linecap:square;stroke-width:2;"/>
   </g>
   <g id="line2d_17">
    <path clip-path="url(#pe4e54e7d2f)" d="M 111.224574 262.04249 
L 111.224574 124.197558 
L 111.332481 124.197558 
L 114.695587 124.197558 
L 114.695587 147.171714 
L 114.803494 147.171714 
L 117.116303 147.171714 
L 117.123497 262.04249 
L 117.21342 147.171714 
L 119.425516 147.171714 
L 119.425516 147.171714 
L 119.425516 152.915252 
L 119.533423 152.915252 
L 121.421798 152.915252 
L 121.421798 147.171714 
L 121.529705 147.171714 
L 123.950422 147.171714 
L 123.957616 262.04249 
L 124.047538 187.376485 
L 126.403511 187.376485 
L 126.403511 147.171714 
L 126.511418 147.171714 
L 133.237629 147.171714 
L 133.237629 124.197558 
L 133.345537 124.197558 
L 160.261173 124.197558 
L 160.261173 262.04249 
L 160.358289 124.197558 
L 172.138152 124.197558 
L 172.138152 135.684636 
L 172.246059 135.684636 
L 175.321412 135.684636 
L 175.321412 124.197558 
L 175.429319 124.197558 
L 198.082624 124.197558 
L 198.082624 262.04249 
L 198.17974 124.197558 
L 206.003008 124.197558 
L 206.003008 135.684636 
L 206.110915 135.684636 
L 208.71867 135.684636 
L 208.71867 124.197558 
L 208.826578 124.197558 
L 329.387623 124.197558 
L 329.387623 262.04249 
L 329.484739 124.197558 
L 515.552609 124.197558 
L 515.552609 141.428175 
L 515.660516 141.428175 
L 522.080991 141.428175 
L 522.080991 124.197558 
L 522.188898 124.197558 
L 580.69255 124.197558 
L 580.69255 147.171714 
L 580.800457 147.171714 
L 585.674262 147.171714 
L 585.674262 124.197558 
L 585.78217 124.197558 
L 631.660687 124.197558 
L 631.660687 135.684636 
L 631.768594 135.684636 
L 640.455118 135.684636 
L 640.455118 124.197558 
L 640.563025 124.197558 
L 812.146161 124.197558 
L 812.146161 262.04249 
L 812.243277 124.197558 
L 920.808646 124.197558 
L 920.808646 262.04249 
L 920.905762 158.658791 
L 937.721291 158.658791 
L 937.721291 124.197558 
L 937.829198 124.197558 
L 957.76684 124.197558 
L 957.76684 262.04249 
L 957.863956 124.197558 
L 979.301507 124.197558 
L 979.301507 158.658791 
L 979.409414 158.658791 
L 980.002903 158.658791 
L 980.002903 124.197558 
L 980.11081 124.197558 
L 988.995164 124.197558 
L 988.995164 175.889408 
L 989.103072 175.889408 
L 1016.871174 175.889408 
L 1016.871174 124.197558 
L 1016.979081 124.197558 
L 1093.136341 124.197558 
L 1093.136341 262.04249 
L 1093.233457 124.197558 
L 1094.04276 124.197558 
L 1094.04276 164.40233 
L 1094.150668 164.40233 
L 1094.906018 164.40233 
L 1094.906018 175.889408 
L 1095.013925 175.889408 
L 1098.448969 175.889408 
L 1098.448969 164.40233 
L 1098.556876 164.40233 
L 1105.355025 164.40233 
L 1105.355025 124.197558 
L 1105.462932 124.197558 
L 1117.249988 124.197558 
L 1117.249988 262.04249 
L 1117.347105 124.197558 
L 1137.752344 124.197558 
L 1137.752344 262.04249 
L 1137.84946 124.197558 
L 1219.761767 124.197558 
L 1219.761767 262.04249 
L 1219.858883 124.197558 
L 1260.388803 124.197558 
L 1260.388803 262.04249 
L 1260.48592 124.197558 
L 1271.402525 124.197558 
L 1271.402525 141.428175 
L 1271.510432 141.428175 
L 1282.031377 141.428175 
L 1282.031377 124.197558 
L 1282.139285 124.197558 
L 1282.880247 124.197558 
L 1282.880247 181.632946 
L 1282.988154 181.632946 
L 1284.146357 181.632946 
L 1284.146357 262.04249 
L 1284.153551 262.04249 
" style="fill:none;stroke:#ff7f0e;stroke-linecap:square;stroke-width:2;"/>
   </g>
   <g id="line2d_18">
    <path clip-path="url(#pe4e54e7d2f)" d="M 111.224574 262.04249 
L 111.386435 226.461471 
L 111.692171 204.798575 
L 112.159769 188.073394 
L 112.771243 174.025903 
L 113.256825 167.158977 
L 113.99419 160.627915 
L 115.34303 149.447336 
L 115.375402 150.388095 
L 116.145139 178.512556 
L 116.691869 206.560975 
L 117.01559 234.301732 
L 117.123497 262.04249 
L 117.177451 241.027046 
L 117.429234 212.419855 
L 117.824894 193.398641 
L 118.490321 172.312947 
L 119.245671 155.470993 
L 119.425516 152.178342 
L 119.47947 152.915252 
L 121.421798 152.915252 
L 122.069241 147.171714 
L 122.10521 147.171714 
L 122.461304 158.741531 
L 123.166297 186.920164 
L 123.648282 215.073966 
L 123.907259 243.091945 
L 123.957616 262.04249 
L 124.011569 242.624244 
L 124.281337 213.95404 
L 124.623043 199.280763 
L 125.108625 187.379382 
L 125.810022 187.376485 
L 126.421495 187.376485 
L 127.086923 175.134521 
L 128.004133 162.631015 
L 128.957313 152.423914 
L 129.532818 148.437829 
L 129.838555 147.171714 
L 133.273598 147.079733 
L 134.586469 140.950271 
L 136.996395 131.15563 
L 138.48911 125.92539 
L 139.226475 124.197558 
L 157.606657 124.197558 
L 159.347559 181.006551 
L 159.872707 208.922983 
L 160.182041 237.230402 
L 160.268367 262.04249 
L 160.32232 242.691047 
L 160.592088 214.270848 
L 160.969763 197.701182 
L 161.509299 183.590131 
L 162.444494 165.890714 
L 163.34372 153.112581 
L 164.386822 141.397613 
L 165.268064 133.585676 
L 166.526981 124.197558 
L 171.706523 124.197558 
L 171.864787 128.192451 
L 172.246059 135.684636 
L 175.339397 135.584808 
L 177.497539 124.197558 
L 195.428108 124.197558 
L 197.16901 181.006551 
L 197.694158 208.922983 
L 198.003492 237.230402 
L 198.089818 262.04249 
L 198.143771 242.06478 
L 198.413539 212.779992 
L 198.809199 194.447527 
L 199.348734 178.709533 
L 199.978192 166.231163 
L 200.751527 155.399152 
L 201.812614 143.553412 
L 203.125484 130.833112 
L 203.988741 124.197558 
L 205.571379 124.197558 
L 205.729643 128.192451 
L 206.110915 135.684636 
L 208.71867 135.684636 
L 209.67185 124.197558 
L 326.733107 124.197558 
L 328.474009 181.006551 
L 328.999157 208.922983 
L 329.308491 237.230402 
L 329.394817 262.04249 
L 329.430786 245.347499 
L 329.664584 215.192383 
L 330.024275 196.265579 
L 330.617764 177.309154 
L 331.355129 160.308089 
L 331.930634 151.857382 
L 332.991721 140.204932 
L 334.214669 129.191492 
L 334.916065 124.197558 
L 514.941135 124.197558 
L 515.192919 131.225907 
L 515.660516 141.428175 
L 522.080991 141.428175 
L 523.249985 128.798476 
L 523.825489 124.197558 
L 579.883246 124.197558 
L 580.69255 147.171714 
L 585.674262 147.171714 
L 586.843256 135.199765 
L 588.102173 124.197558 
L 631.229058 124.197558 
L 631.387322 128.192451 
L 631.768594 135.684636 
L 640.455118 135.684636 
L 641.534189 127.176658 
L 642.037756 124.197558 
L 809.491645 124.197558 
L 811.232547 181.006551 
L 811.757695 208.922983 
L 812.067029 237.230402 
L 812.153355 262.04249 
L 812.207308 241.55096 
L 812.477076 211.922635 
L 812.872735 193.698097 
L 813.430256 178.060292 
L 814.149637 164.011523 
L 815.048863 150.918657 
L 816.127934 138.450491 
L 817.22499 127.978172 
L 817.764526 124.197558 
L 918.15413 124.197558 
L 919.895032 181.006551 
L 920.42018 208.922983 
L 920.729514 237.230402 
L 920.81584 262.04249 
L 920.869793 244.419573 
L 921.139561 217.856309 
L 921.499251 203.18815 
L 922.020803 191.180083 
L 923.44158 167.193988 
L 924.304837 158.658791 
L 937.739275 158.658791 
L 938.51261 148.074654 
L 939.609666 135.870257 
L 940.868582 124.303663 
L 940.994474 124.197558 
L 955.112324 124.197558 
L 956.853226 181.006551 
L 957.378374 208.922983 
L 957.687708 237.230402 
L 957.774033 262.04249 
L 957.827987 241.954263 
L 958.07977 214.275768 
L 958.439461 198.11274 
L 958.978996 184.157383 
L 959.680393 171.883464 
L 960.525665 160.93172 
L 963.708926 126.059727 
L 964.014663 124.197558 
L 978.132513 124.197558 
L 978.373505 130.489018 
L 979.517321 158.658791 
L 980.002903 158.658791 
L 981.046006 146.193018 
L 983.186164 124.638288 
L 983.348024 124.197558 
L 987.376557 124.197558 
L 987.901705 138.671276 
L 988.764963 166.837136 
L 989.103072 175.889408 
L 1016.871174 175.889408 
L 1017.572571 159.606664 
L 1018.255983 148.915684 
L 1019.353038 135.277978 
L 1020.342187 125.454174 
L 1020.593971 124.197558 
L 1090.481825 124.197558 
L 1092.222727 181.006551 
L 1092.747875 208.922983 
L 1093.057209 237.230402 
L 1093.143534 262.04249 
L 1093.197488 242.059521 
L 1093.467256 212.968625 
L 1093.844931 195.858108 
L 1094.384466 181.016292 
L 1094.834079 172.055647 
L 1094.977956 175.889408 
L 1098.448969 175.889408 
L 1099.078427 164.40233 
L 1105.355025 164.40233 
L 1106.254251 151.481308 
L 1107.315338 139.392631 
L 1108.286502 130.56944 
L 1109.257667 124.197558 
L 1114.59907 124.197558 
L 1114.926388 133.1151 
L 1115.832808 161.255313 
L 1116.51622 189.349707 
L 1116.976624 217.311862 
L 1117.214019 244.497694 
L 1117.257182 262.04249 
L 1117.293151 245.481589 
L 1117.52695 215.695612 
L 1117.88664 197.471402 
L 1118.390207 183.04974 
L 1118.911758 174.284262 
L 1119.757031 164.283588 
L 1120.74618 155.231184 
L 1121.3037 149.801764 
L 1122.005096 139.186608 
L 1123.120136 124.30131 
L 1123.246028 124.197558 
L 1135.097828 124.197558 
L 1136.83873 181.006551 
L 1137.363878 208.922983 
L 1137.673212 237.230402 
L 1137.759538 262.04249 
L 1137.795507 245.464418 
L 1138.029306 215.476162 
L 1138.388996 196.688167 
L 1138.910547 180.60439 
L 1139.611944 165.801821 
L 1140.493185 151.930726 
L 1141.536288 139.013684 
L 1142.741251 126.829962 
L 1143.13691 124.197558 
L 1217.107251 124.197558 
L 1218.848153 181.006551 
L 1219.373301 208.922983 
L 1219.682635 237.230402 
L 1219.768961 262.04249 
L 1219.822914 241.724515 
L 1220.092682 212.318589 
L 1220.488341 194.382147 
L 1221.045862 179.098325 
L 1221.783227 165.07094 
L 1222.682453 152.204696 
L 1223.671602 141.102506 
L 1224.840596 130.774174 
L 1225.793776 124.197558 
L 1257.734288 124.197558 
L 1259.475189 181.006551 
L 1260.000337 208.922983 
L 1260.309671 237.230402 
L 1260.395997 262.04249 
L 1260.44995 242.449156 
L 1260.719718 213.794939 
L 1261.097393 197.068569 
L 1261.636929 182.709009 
L 1262.428248 168.043899 
L 1263.30949 155.982444 
L 1264.388561 144.241769 
L 1266.456781 124.197558 
L 1270.791051 124.197558 
L 1271.042834 131.225907 
L 1271.510432 141.428175 
L 1281.743625 141.428175 
L 1282.067347 151.304202 
L 1282.82989 179.430034 
L 1282.988154 181.632946 
L 1283.239937 181.632946 
L 1283.362232 186.920164 
L 1283.844217 215.073966 
L 1284.103194 243.091945 
L 1284.153551 262.04249 
L 1284.153551 262.04249 
" style="fill:none;stroke:#2ca02c;stroke-linecap:square;stroke-width:2;"/>
   </g>
   <g id="line2d_19">
    <path clip-path="url(#pe4e54e7d2f)" d="M 111.224574 61.765292 
L 111.422404 61.765292 
L 111.818063 136.242356 
L 112.159769 155.567636 
L 112.48349 166.751663 
L 113.005042 177.022786 
L 113.400701 181.095017 
L 114.066128 185.674865 
L 114.74954 189.170987 
L 115.217138 191.901013 
L 115.34303 192.804657 
L 115.468921 333.921054 
L 115.907744 345.873547 
L 116.253046 361.276067 
L 116.569574 386.78077 
L 116.80697 427.995309 
L 117.051559 462.319687 
L 117.116303 462.319687 
L 117.231404 61.765292 
L 117.303342 61.765292 
L 117.914816 151.607833 
L 118.274507 168.449645 
L 118.778073 181.298332 
L 119.263655 188.963513 
L 119.425516 190.92605 
L 119.425516 329.821252 
L 119.533423 291.144125 
L 119.947067 291.144125 
L 120.090943 281.047543 
L 120.720402 254.709066 
L 120.756371 258.35185 
L 120.828309 257.886711 
L 121.421798 248.293227 
L 121.439783 190.650302 
L 121.54769 191.351675 
L 122.051256 194.382107 
L 122.20952 331.918539 
L 122.713087 344.906676 
L 123.079971 360.845417 
L 123.403693 386.78077 
L 123.641088 427.995309 
L 123.885678 462.319687 
L 123.950422 462.319687 
L 124.065523 61.765292 
L 124.155446 61.765292 
L 124.191415 67.777872 
L 124.443198 121.820963 
L 124.73095 142.041803 
L 125.12661 157.791901 
L 125.252501 237.276941 
L 125.594207 243.602827 
L 125.756068 243.602827 
L 125.88196 239.555289 
L 126.421495 239.555289 
L 126.43948 157.79726 
L 126.547387 160.844014 
L 127.050954 171.593354 
L 127.716381 180.624706 
L 128.381808 186.980081 
L 129.209096 192.178037 
L 129.748632 194.382066 
L 129.874524 227.645786 
L 132.590187 227.645786 
L 132.716078 223.598249 
L 133.255614 223.598249 
L 133.273598 194.441038 
L 133.381506 194.74262 
L 134.730345 198.156035 
L 136.330967 201.571285 
L 137.967559 204.26991 
L 138.992677 205.62831 
L 139.136553 205.794159 
L 139.262444 223.581526 
L 140.143686 223.581526 
L 140.269578 227.22431 
L 141.546479 227.22431 
L 141.67237 225.402918 
L 143.93842 225.402918 
L 144.154235 236.178229 
L 144.729739 257.830433 
L 145.071445 257.830433 
L 145.84478 240.34122 
L 145.898733 240.34122 
L 146.672068 257.830433 
L 149.495638 257.830433 
L 150.233003 281.805631 
L 150.628663 281.805631 
L 150.754554 283.627023 
L 151.204167 283.627023 
L 151.330059 281.805631 
L 154.87301 281.805631 
L 154.890995 283.627023 
L 154.962933 280.882705 
L 155.664329 257.830433 
L 156.671462 257.830433 
L 156.815338 253.567064 
L 157.462781 242.892131 
L 157.606657 242.892131 
L 157.728952 319.795027 
L 158.297263 327.732505 
L 158.764861 337.289122 
L 159.218071 352.292882 
L 159.55618 372.077438 
L 159.822351 401.188069 
L 160.038165 456.35289 
L 160.167653 462.319687 
L 160.261173 462.319687 
L 160.376274 61.765292 
L 160.484181 61.823431 
L 160.825887 128.927215 
L 161.185577 149.788144 
L 161.581237 164.313624 
L 162.066819 174.722425 
L 162.642324 183.474303 
L 163.325736 190.22043 
L 164.135039 196.077481 
L 165.070234 200.899057 
L 166.437058 205.507518 
L 166.526981 205.810834 
L 166.652872 258.318829 
L 167.228377 259.36074 
L 169.296597 259.285155 
L 169.620318 257.924624 
L 169.74621 254.593387 
L 170.051947 253.716601 
L 171.490709 253.716601 
L 171.6166 256.518742 
L 171.706523 256.518742 
L 171.828818 319.693153 
L 172.130958 323.326049 
L 172.335981 246.965912 
L 172.749625 238.37015 
L 174.655985 238.37015 
L 174.781876 235.568008 
L 175.321412 235.568008 
L 175.339397 200.758931 
L 175.447304 201.021098 
L 177.263741 205.690702 
L 177.29971 205.811433 
L 177.425601 257.830433 
L 178.252889 257.830433 
L 178.378781 255.028292 
L 178.864363 255.028292 
L 179.008239 260.679408 
L 179.655682 273.133495 
L 181.022506 273.133495 
L 181.148397 270.331354 
L 181.63398 270.331354 
L 181.651964 273.133495 
L 181.741887 271.098514 
L 182.245453 259.702617 
L 182.389329 252.179318 
L 183.036772 239.72523 
L 183.684215 239.72523 
L 183.846076 248.109036 
L 184.475534 268.761192 
L 186.202048 268.761192 
L 186.345924 262.70308 
L 186.993367 248.469837 
L 188.360191 248.469837 
L 188.486083 248.66999 
L 190.230581 248.644264 
L 190.536318 251.609523 
L 190.66221 255.632653 
L 190.967947 257.830433 
L 190.985931 255.493431 
L 191.075854 257.819124 
L 191.741281 272.517505 
L 192.694461 272.517505 
L 192.712445 274.854508 
L 192.802368 272.528815 
L 193.467795 257.830433 
L 195.212294 257.830433 
L 195.338186 255.028292 
L 195.428108 255.028292 
L 195.550403 319.795027 
L 196.118714 327.732505 
L 196.586312 337.289122 
L 197.039522 352.292882 
L 197.377631 372.077438 
L 197.643801 401.188069 
L 197.859616 456.35289 
L 197.989104 462.319687 
L 198.082624 462.319687 
L 198.197725 61.765292 
L 198.287647 61.765292 
L 198.755245 141.336611 
L 199.348734 168.11755 
L 199.852301 178.677095 
L 200.44579 186.129424 
L 201.039279 191.1613 
L 201.848583 196.535723 
L 202.855716 201.756706 
L 203.934787 205.786873 
L 204.060679 263.989486 
L 204.258509 265.291874 
L 205.571379 265.291874 
L 205.693674 319.693153 
L 205.995814 323.326049 
L 206.182853 268.976273 
L 207.441769 268.976273 
L 207.459754 266.030236 
L 207.549676 268.646641 
L 208.053243 283.298509 
L 208.179135 288.651638 
L 208.664717 288.651638 
L 208.71867 285.18232 
L 208.736655 200.758931 
L 208.844562 201.392664 
L 209.653866 205.796029 
L 209.779757 284.967239 
L 210.103479 284.967239 
L 210.121463 288.203988 
L 210.211386 287.041141 
L 210.876813 279.69195 
L 213.340693 279.69195 
L 213.358677 276.338917 
L 213.4486 276.92034 
L 214.114027 280.594936 
L 217.656978 280.594936 
L 217.78287 282.992847 
L 219.743183 282.992847 
L 219.869074 284.064254 
L 220.246749 284.064254 
L 220.444579 275.318059 
L 221.020084 256.759026 
L 224.850787 256.759026 
L 225.012648 261.4934 
L 225.624122 273.133495 
L 228.447692 273.133495 
L 228.465676 272.294658 
L 228.537614 273.224935 
L 229.221026 280.806695 
L 232.763977 280.806695 
L 232.781962 281.238536 
L 232.817931 279.959405 
L 233.537312 257.830433 
L 235.28181 257.830433 
L 235.299795 257.631161 
L 235.317779 258.503296 
L 236.055145 289.551302 
L 236.720572 289.551302 
L 236.846464 289.065963 
L 237.403984 289.065963 
L 237.529876 290.622709 
L 241.198718 290.622709 
L 241.32461 288.801317 
L 242.745387 288.801317 
L 242.871279 290.622709 
L 243.500737 290.622709 
L 243.626629 288.801317 
L 246.054539 288.801317 
L 246.072524 290.622709 
L 246.144462 287.227197 
L 246.845858 258.704894 
L 248.212682 258.704894 
L 248.338574 256.743961 
L 249.03997 256.009041 
L 252.169277 256.009041 
L 252.295169 257.830433 
L 252.888658 257.830433 
L 253.014549 257.375085 
L 255.44246 257.375085 
L 255.568352 257.830433 
L 261.161538 257.830433 
L 261.395337 254.584254 
L 261.952857 248.630479 
L 262.6003 248.630479 
L 262.888052 258.679311 
L 263.391619 273.133495 
L 270.153799 273.133495 
L 270.279691 272.062088 
L 273.678766 272.062088 
L 273.69675 273.133495 
L 273.768688 271.319454 
L 274.470085 256.081512 
L 274.739853 256.17454 
L 275.495203 257.830433 
L 275.567141 257.830433 
L 276.340475 238.155068 
L 278.066989 238.155068 
L 278.192881 236.598323 
L 279.901411 236.598323 
L 280.027302 238.155068 
L 281.915677 238.155068 
L 282.041569 236.598323 
L 282.383275 236.598323 
L 282.56312 242.864597 
L 283.12064 256.273688 
L 283.480331 256.273688 
L 284.253665 267.204447 
L 287.670724 267.204447 
L 287.796616 268.761192 
L 290.907938 268.761192 
L 291.051815 265.169465 
L 291.699257 256.273688 
L 293.425772 256.273688 
L 293.569648 260.272411 
L 294.21709 270.947344 
L 296.662986 270.947344 
L 296.806862 266.94862 
L 297.454305 256.273688 
L 300.25989 256.273688 
L 300.403766 259.458419 
L 301.051209 266.57504 
L 302.777723 266.57504 
L 302.921599 263.39031 
L 303.569042 256.273688 
L 305.295556 256.273688 
L 305.421448 256.009041 
L 306.014937 256.009041 
L 306.140829 257.830433 
L 307.81339 257.830433 
L 307.957266 254.381056 
L 308.53277 247.264435 
L 308.676647 250.713812 
L 309.324089 257.830433 
L 311.769984 257.830433 
L 311.895876 256.009041 
L 313.928127 256.009041 
L 314.054019 257.830433 
L 316.805651 257.830433 
L 316.823635 256.009041 
L 316.913558 257.4626 
L 317.165341 261.532563 
L 317.291233 263.644667 
L 317.489063 263.644667 
L 317.578985 262.365535 
L 317.95666 257.830433 
L 320.762246 257.830433 
L 320.78023 256.009041 
L 320.870153 257.4626 
L 321.553565 266.9398 
L 322.560698 266.9398 
L 322.68659 269.110046 
L 323.370001 270.947344 
L 326.157602 270.947344 
L 326.283494 269.125952 
L 326.733107 269.125952 
L 326.855402 319.795027 
L 327.423713 327.732505 
L 327.89131 337.289122 
L 328.34452 352.292882 
L 328.682629 372.077438 
L 328.9488 401.188069 
L 329.164615 456.35289 
L 329.294103 462.319687 
L 329.387623 462.319687 
L 329.502724 61.765292 
L 329.574662 61.765292 
L 329.6466 84.24017 
L 329.880399 129.534916 
L 330.240089 154.615662 
L 330.563811 167.957768 
L 331.103346 181.224527 
L 331.534975 187.597974 
L 332.164433 193.05292 
L 332.811876 197.175234 
L 333.729086 201.725629 
L 334.826142 205.548256 
L 334.916065 205.773459 
L 334.934049 242.132004 
L 335.041957 238.643464 
L 335.221802 235.968917 
L 336.24692 235.968917 
L 336.372811 234.412171 
L 338.369093 234.412171 
L 338.494985 235.968917 
L 340.850957 235.968917 
L 340.868942 234.993595 
L 340.922895 236.737865 
L 341.336539 253.237189 
L 341.732199 270.912458 
L 342.05592 277.505799 
L 343.800419 277.505799 
L 343.96228 271.239524 
L 344.573754 256.273688 
L 349.555466 256.273688 
L 349.573451 257.24901 
L 349.627404 255.50474 
L 350.328801 235.968917 
L 350.994228 235.968917 
L 351.012213 234.993595 
L 351.066166 236.737865 
L 351.767563 256.273688 
L 353.871752 256.273688 
L 353.889736 257.132725 
L 353.94369 255.039601 
L 354.645086 231.596613 
L 357.468656 231.596613 
L 357.594548 229.319873 
L 361.928818 229.319873 
L 362.054709 231.596613 
L 362.881997 231.654756 
L 363.655332 233.782765 
L 363.763239 233.782765 
L 363.781224 232.145591 
L 363.853162 234.703853 
L 364.536574 255.553694 
L 368.403246 255.553694 
L 369.17658 281.787514 
L 369.949915 281.787514 
L 370.075806 284.064254 
L 370.201698 284.064254 
L 370.363559 275.508142 
L 370.975033 255.553694 
L 374.2662 255.553694 
L 374.392092 259.051422 
L 375.039535 264.388888 
L 379.661557 264.388888 
L 379.787449 262.112149 
L 380.021247 262.112149 
L 380.039232 264.040035 
L 380.129155 262.295765 
L 380.794582 251.271978 
L 385.416604 251.271978 
L 385.542496 246.960257 
L 386.189939 238.06448 
L 393.329794 238.06448 
L 393.47367 244.062329 
L 394.103129 257.830433 
L 402.681746 257.830433 
L 402.825622 250.437168 
L 403.45508 231.506025 
L 404.480198 231.506025 
L 404.60609 231.961373 
L 405.16361 231.961373 
L 405.289502 233.782765 
L 406.530434 233.782765 
L 406.656325 231.961373 
L 411.314317 231.961373 
L 411.440208 234.596758 
L 411.92579 237.736443 
L 411.943775 236.031336 
L 412.051682 236.333676 
L 413.796181 236.333676 
L 413.922072 238.155068 
L 414.803314 238.155068 
L 414.929206 236.333676 
L 417.536961 236.333676 
L 417.662853 238.155068 
L 418.687971 238.155068 
L 418.705955 236.624388 
L 418.777893 239.608627 
L 419.461305 249.085827 
L 422.356813 249.085827 
L 422.482705 247.264435 
L 423.61573 247.264435 
L 423.741622 249.085827 
L 424.155266 249.085827 
L 424.9286 257.830433 
L 425.953718 257.830433 
L 426.07961 256.759026 
L 427.140696 256.759026 
L 427.266588 257.830433 
L 428.399613 257.830433 
L 428.543489 255.36361 
L 429.172947 250.200571 
L 431.708765 250.200571 
L 431.852641 252.667394 
L 432.4821 257.830433 
L 434.945979 257.830433 
L 434.963964 257.34045 
L 434.999933 258.503296 
L 435.719314 278.620543 
L 441.096686 278.620543 
L 441.222578 279.69195 
L 442.103819 279.69195 
L 442.229711 278.620543 
L 444.297931 278.620543 
L 445.071265 250.200571 
L 447.535145 250.200571 
L 447.679021 252.667394 
L 448.308479 257.830433 
L 454.009573 257.830433 
L 454.027558 256.817169 
L 454.11748 257.10788 
L 454.800892 258.945178 
L 458.217951 258.945178 
L 458.343843 258.195193 
L 462.246484 258.195193 
L 462.444314 264.061703 
L 463.019819 276.434392 
L 463.253618 276.434392 
L 463.361525 277.505799 
L 463.54137 271.201582 
L 464.134859 256.759026 
L 467.210213 256.759026 
L 467.336104 256.312607 
L 468.361222 256.312607 
L 468.613005 264.08496 
L 469.170526 277.505799 
L 469.656108 277.505799 
L 469.781999 276.434392 
L 470.807117 276.434392 
L 470.933009 275.684407 
L 472.281848 275.684407 
L 472.443709 278.527516 
L 473.145105 286.250405 
L 474.691774 286.250405 
L 474.817666 284.429013 
L 477.065731 284.429013 
L 477.191623 286.250405 
L 478.360617 286.250405 
L 478.486508 283.208024 
L 479.133951 277.870558 
L 479.799378 277.870558 
L 479.92527 277.089962 
L 483.755973 277.089962 
L 483.881865 278.277555 
L 484.367447 279.847398 
L 484.493339 281.878102 
L 485.086828 281.878102 
L 485.248689 274.300619 
L 485.860162 256.009041 
L 490.841875 256.009041 
L 490.967767 257.830433 
L 491.561256 257.830433 
L 491.687148 256.009041 
L 491.992885 256.009041 
L 492.118776 257.830433 
L 492.676296 257.830433 
L 492.694281 256.241611 
L 492.784204 257.404457 
L 493.359708 264.753648 
L 493.4856 266.57504 
L 494.079089 266.57504 
L 494.097074 265.335072 
L 494.169012 267.660765 
L 494.852424 286.615165 
L 496.596922 286.615165 
L 496.722814 288.436557 
L 499.834136 288.436557 
L 499.960028 285.400904 
L 502.316001 285.400904 
L 502.441892 288.436557 
L 504.006546 288.436557 
L 504.132437 286.615165 
L 505.840967 286.615165 
L 505.966859 288.436557 
L 506.632286 288.436557 
L 506.758178 284.793773 
L 507.855234 284.793773 
L 507.981125 288.436557 
L 510.516943 288.436557 
L 510.642834 284.793773 
L 511.991674 284.793773 
L 512.117565 288.436557 
L 513.574312 288.436557 
L 513.700203 286.615165 
L 514.941135 286.615165 
L 515.06343 319.915691 
L 515.545415 326.484995 
L 515.678501 288.755922 
L 517.998504 288.755922 
L 518.771839 258.149798 
L 519.617111 258.149798 
L 520.390446 269.080557 
L 522.080991 269.080557 
L 522.098975 197.599984 
L 522.206882 198.302241 
L 522.944248 202.353521 
L 523.78952 205.804725 
L 523.807505 259.167707 
L 523.915412 257.830433 
L 527.889992 257.830433 
L 528.555419 263.760951 
L 528.573403 263.691181 
L 529.2748 257.830433 
L 532.745813 257.911833 
L 533.501163 259.36074 
L 537.74551 259.36074 
L 537.871402 258.905392 
L 542.025826 258.905392 
L 542.151718 259.36074 
L 545.119164 259.36074 
L 545.245056 258.620494 
L 545.6587 257.684403 
L 545.784591 258.26185 
L 545.964437 258.818853 
L 546.450019 260.016585 
L 547.816843 260.016585 
L 547.960719 258.63096 
L 548.590177 255.188934 
L 551.054057 255.188934 
L 551.179948 256.051278 
L 551.845376 257.830433 
L 554.650961 257.830433 
L 554.668946 257.549512 
L 554.722899 258.072793 
L 555.424296 263.933541 
L 558.139958 263.982328 
L 558.607556 260.003119 
L 558.913293 258.249546 
L 560.423993 258.333219 
L 561.197327 259.610024 
L 564.614387 259.610024 
L 564.740278 260.016585 
L 565.117953 260.016585 
L 565.243845 259.406526 
L 565.909272 258.516949 
L 570.729124 258.516949 
L 570.747109 258.894438 
L 570.837031 258.749082 
L 571.520443 257.830433 
L 574.685719 257.830433 
L 574.811611 255.729635 
L 576.9158 255.729635 
L 577.041692 257.830433 
L 577.527274 257.830433 
L 577.545258 255.84592 
L 577.635181 256.427343 
L 578.300608 260.101939 
L 578.894097 260.101939 
L 578.912082 262.103895 
L 579.002005 261.609685 
L 579.667432 258.486279 
L 579.883246 258.486279 
L 580.009138 319.862119 
L 580.570255 327.70847 
L 580.685356 329.643941 
L 580.836426 256.806957 
L 585.008835 256.806957 
L 585.134727 258.907755 
L 585.674262 258.907755 
L 585.692247 194.441038 
L 585.800154 195.105936 
L 586.89721 201.122984 
L 588.084188 205.787093 
L 588.21008 262.202737 
L 588.246049 262.202737 
L 588.371941 259.003049 
L 588.60574 256.962253 
L 588.623724 258.830482 
L 588.713647 257.667635 
L 589.073337 254.334916 
L 589.379074 253.45813 
L 591.842954 253.45813 
L 591.860938 251.491059 
L 591.950861 252.159696 
L 592.616288 256.385481 
L 595.799549 256.385481 
L 595.92544 258.526979 
L 596.824666 258.704894 
L 603.604831 258.704894 
L 603.730723 256.883502 
L 604.647934 256.883502 
L 604.773825 258.704894 
L 607.309643 258.704894 
L 607.435535 256.883502 
L 614.395545 256.883502 
L 614.521437 258.704894 
L 616.193997 258.704894 
L 616.211982 256.97653 
L 616.301904 257.441669 
L 616.553688 258.744057 
L 616.571672 259.902626 
L 616.625626 257.914158 
L 617.380976 233.782765 
L 626.26533 233.782765 
L 626.391221 230.139981 
L 629.394637 230.139981 
L 629.538513 238.89929 
L 630.167971 257.830433 
L 631.229058 257.830433 
L 631.351353 319.693153 
L 631.653493 323.326049 
L 631.858516 249.731161 
L 632.398052 233.997846 
L 636.696353 233.997846 
L 636.822244 231.721106 
L 637.595579 231.721106 
L 637.739455 238.649233 
L 638.368913 255.859363 
L 640.455118 255.859363 
L 640.473103 200.758931 
L 640.58101 201.173359 
L 641.678066 204.918417 
L 641.929849 205.780544 
L 642.055741 262.202737 
L 643.530471 262.202737 
L 643.656363 259.925997 
L 646.22815 259.925997 
L 646.246134 261.853883 
L 646.336057 260.109613 
L 647.001484 249.085827 
L 647.720865 249.027684 
L 648.4942 246.899675 
L 650.004899 246.899675 
L 650.778234 277.505799 
L 657.810182 277.505799 
L 658.583517 257.830433 
L 659.608635 257.830433 
L 660.381969 266.57504 
L 661.407087 266.57504 
L 661.532978 262.482025 
L 662.270344 262.482025 
L 662.396236 268.203025 
L 663.043678 275.319647 
L 663.709106 275.319647 
L 663.834997 271.676863 
L 670.255472 271.676863 
L 670.381364 275.319647 
L 672.917181 275.319647 
L 673.690516 251.271978 
L 680.830371 251.271978 
L 681.603706 233.782765 
L 683.348204 233.782765 
L 684.121539 257.830433 
L 686.225728 257.830433 
L 686.35162 256.919737 
L 686.765264 256.919737 
L 686.963093 264.865656 
L 687.484644 279.670354 
L 692.016744 279.670354 
L 692.142636 281.878102 
L 693.923103 281.878102 
L 694.06698 274.553829 
L 694.696438 255.622686 
L 697.016441 255.622686 
L 697.142333 257.830433 
L 699.893965 257.830433 
L 700.019857 255.622686 
L 703.131179 255.622686 
L 703.257071 258.644426 
L 703.904513 262.202737 
L 705.289322 262.202737 
L 705.307306 260.227558 
L 705.397229 261.390405 
L 706.062656 268.739596 
L 712.12344 268.739596 
L 712.141425 270.59849 
L 712.231347 268.85422 
L 712.896775 257.830433 
L 715.000964 257.830433 
L 715.018948 256.029682 
L 715.108871 258.064664 
L 715.774298 270.925747 
L 719.209342 270.925747 
L 719.227327 272.726499 
L 719.317249 270.691517 
L 719.982677 257.830433 
L 722.446556 257.830433 
L 722.464541 255.855255 
L 722.554463 257.018102 
L 723.219891 264.367292 
L 726.654934 264.367292 
L 726.780826 264.753648 
L 729.136799 264.753648 
L 729.26269 266.57504 
L 729.568427 266.57504 
L 729.712303 260.5674 
L 730.341762 245.078283 
L 730.611529 245.078283 
L 730.791375 255.621025 
L 731.384864 279.69195 
L 733.848743 279.69195 
L 733.99262 274.614588 
L 734.622078 262.567497 
L 736.726267 262.567497 
L 736.852159 264.388888 
L 737.085958 264.388888 
L 737.211849 262.567497 
L 738.524719 262.567497 
L 738.542704 263.759114 
L 738.632626 262.886979 
L 739.298054 257.375085 
L 739.567822 257.375085 
L 739.783636 262.714389 
L 740.341156 273.133495 
L 741.761933 273.133495 
L 741.977748 268.282587 
L 742.535268 258.905392 
L 744.279767 258.905392 
L 744.405658 259.36074 
L 744.855271 259.36074 
L 744.981163 258.620494 
L 745.64659 257.375085 
L 748.596052 257.375085 
L 748.721944 256.009041 
L 753.164121 256.009041 
L 753.290012 257.423437 
L 753.901486 255.537788 
L 754.656836 268.305844 
L 755.430171 268.305844 
L 755.592031 270.331035 
L 756.203505 275.319647 
L 757.228623 275.319647 
L 757.462422 269.119837 
L 758.001957 258.249546 
L 758.667385 258.249546 
L 758.793276 258.704894 
L 761.185218 258.704894 
L 761.203202 258.400716 
L 761.27514 259.005396 
L 761.958552 263.933541 
L 762.62398 263.933541 
L 762.749871 264.388888 
L 762.98367 264.388888 
L 763.109562 261.353235 
L 765.357627 261.353235 
L 765.483519 264.388888 
L 766.077008 264.388888 
L 766.850342 255.644282 
L 768.738717 255.644282 
L 769.512052 260.016585 
L 774.493764 260.016585 
L 775.267099 273.133495 
L 778.450359 273.133495 
L 779.223694 253.45813 
L 780.968192 253.45813 
L 781.741527 273.133495 
L 784.205407 273.133495 
L 784.978741 249.085827 
L 786.72324 249.085827 
L 787.496574 257.830433 
L 789.241073 257.830433 
L 790.014407 264.388888 
L 792.478287 264.388888 
L 792.604179 262.567497 
L 793.665265 262.567497 
L 793.68325 263.981892 
L 793.755188 262.353907 
L 794.4386 249.085827 
L 794.744337 249.085827 
L 795.517671 257.830433 
L 798.593025 257.830433 
L 799.384344 271.179913 
L 800.103724 273.133495 
L 802.54962 273.133495 
L 802.675511 271.312103 
L 802.873341 271.312103 
L 802.999233 273.133495 
L 803.484815 273.133495 
L 803.610706 270.905107 
L 804.240165 269.125952 
L 804.258149 270.59849 
L 804.330087 269.203074 
L 805.013499 257.830433 
L 806.038617 257.830433 
L 806.056601 256.183468 
L 806.146524 257.055603 
L 806.811951 262.567497 
L 807.837069 262.567497 
L 807.962961 264.388888 
L 809.491645 264.388888 
L 809.61394 319.795027 
L 810.182251 327.732505 
L 810.649848 337.289122 
L 811.103058 352.292882 
L 811.441167 372.077438 
L 811.707338 401.188069 
L 811.923153 456.35289 
L 812.052641 462.319687 
L 812.146161 462.319687 
L 812.261262 61.765292 
L 812.3332 61.765292 
L 812.351184 62.555839 
L 812.674906 131.719561 
L 813.016612 153.834192 
L 813.340333 166.482796 
L 813.897853 178.619369 
L 814.509327 186.870035 
L 815.444522 194.947526 
L 816.505609 201.15757 
L 817.674603 205.715842 
L 817.692587 205.777566 
L 817.710572 258.760711 
L 817.818479 258.063003 
L 817.962355 257.830433 
L 820.785925 257.830433 
L 820.911817 256.009041 
L 822.440501 256.009041 
L 822.566393 258.23743 
L 823.23182 260.016585 
L 824.886396 260.016585 
L 825.012288 258.802324 
L 831.288886 258.802324 
L 831.414778 260.016585 
L 834.759899 259.958443 
L 835.533234 257.830433 
L 844.057897 257.830433 
L 844.507511 263.598153 
L 844.831232 266.57504 
L 848.410152 266.57504 
L 848.536044 264.753648 
L 849.345347 264.753648 
L 849.471239 266.57504 
L 850.028759 266.57504 
L 850.19062 258.997557 
L 850.802093 240.70598 
L 852.25884 240.70598 
L 852.402716 245.783342 
L 853.032174 257.830433 
L 854.956518 257.830433 
L 855.08241 256.009041 
L 855.783806 256.009041 
L 855.909698 257.830433 
L 856.467218 257.830433 
L 856.485203 256.241611 
L 856.575125 257.404457 
L 857.240552 264.753648 
L 857.90598 264.753648 
L 857.923964 266.342471 
L 858.013887 265.179624 
L 858.679314 257.830433 
L 860.603658 257.830433 
L 860.72955 254.381056 
L 861.323039 247.264435 
L 861.448931 250.713812 
L 862.096374 257.830433 
L 862.366141 257.830433 
L 862.492033 256.009041 
L 863.589089 256.009041 
L 863.714981 257.830433 
L 864.740098 257.830433 
L 864.901959 247.946237 
L 865.42351 218.061078 
L 865.513433 218.479703 
L 868.121189 218.479703 
L 868.139173 217.704873 
L 868.175142 219.797997 
L 868.894523 256.009041 
L 869.919641 256.009041 
L 870.045533 255.228445 
L 872.149722 255.228445 
L 872.22166 251.357655 
L 872.923056 212.286008 
L 873.264762 212.286008 
L 873.390654 214.1074 
L 873.912205 214.1074 
L 874.038097 211.505411 
L 876.286162 211.505411 
L 876.394069 221.08448 
L 876.430038 218.482491 
L 876.951589 218.482491 
L 877.041512 213.365966 
L 877.167403 211.505411 
L 877.293295 211.505411 
L 877.419187 214.1074 
L 878.264459 214.1074 
L 878.390351 211.83066 
L 880.206788 211.83066 
L 880.332679 214.1074 
L 881.213921 214.1074 
L 881.339813 211.83066 
L 881.825395 211.83066 
L 882.598729 233.692177 
L 883.228188 233.692177 
L 883.354079 235.968917 
L 884.27129 235.968917 
L 884.289274 233.866604 
L 884.379197 234.738739 
L 885.044624 240.250632 
L 885.098578 240.250632 
L 885.22447 239.491718 
L 885.278423 239.491718 
L 885.296408 239.785493 
L 885.332377 238.855216 
L 886.051758 222.761418 
L 886.53734 222.761418 
L 886.663231 222.002505 
L 886.861061 222.002505 
L 886.986953 225.038158 
L 887.29269 225.038158 
L 887.418581 219.967523 
L 888.066024 211.071746 
L 888.515637 211.071746 
L 889.288972 254.79478 
L 889.702616 254.79478 
L 889.828507 257.830433 
L 889.882461 257.830433 
L 890.008353 254.18765 
L 890.421997 254.18765 
L 890.439981 256.667587 
L 890.511919 252.0162 
L 891.195331 214.1074 
L 892.040604 214.1074 
L 892.706031 251.318492 
L 892.795954 246.201967 
L 893.389443 214.1074 
L 893.407427 214.1074 
L 893.533319 208.903423 
L 896.033168 208.903423 
L 896.159059 217.36337 
L 896.806502 231.596613 
L 897.867589 231.596613 
L 897.993481 227.043133 
L 898.227279 227.043133 
L 898.245264 231.247759 
L 898.335186 229.503489 
L 899.000614 218.479703 
L 899.090536 218.479703 
L 899.216428 213.926223 
L 899.450227 213.926223 
L 899.576118 218.479703 
L 900.313484 218.479703 
L 900.331468 214.972785 
L 900.403407 219.159033 
L 900.888989 241.136835 
L 900.978911 241.136835 
L 901.068834 236.531962 
L 901.284648 230.25259 
L 901.446509 230.25259 
L 901.536431 234.857463 
L 901.950075 253.276954 
L 902.32775 253.276954 
L 902.399689 257.830433 
L 902.435658 254.556085 
L 902.939224 268.626529 
L 903.065116 268.626529 
L 903.155038 265.81244 
L 903.604652 253.276954 
L 903.766512 253.276954 
L 903.892404 257.830433 
L 904.054265 257.830433 
L 904.072249 254.323516 
L 904.144187 258.509763 
L 904.809615 293.53838 
L 904.827599 292.162545 
L 905.493026 275.13847 
L 905.618918 279.69195 
L 905.636903 279.69195 
L 905.762794 271.068507 
L 906.338299 256.009041 
L 906.392253 256.009041 
L 906.518144 257.830433 
L 907.003726 257.830433 
L 907.021711 256.939319 
L 907.075664 259.730151 
L 907.327448 267.133207 
L 907.669154 267.133207 
L 907.759076 263.039986 
L 907.956906 257.830433 
L 909.053962 257.830433 
L 909.251792 243.217728 
L 909.827296 212.286008 
L 912.075362 212.286008 
L 912.848696 256.009041 
L 913.442185 256.009041 
L 913.622031 262.986121 
L 914.287458 299.732075 
L 914.988854 299.732075 
L 915.114746 301.553467 
L 915.88808 301.553467 
L 916.067926 281.049407 
L 916.64343 236.333676 
L 917.326842 236.333676 
L 917.470718 242.341316 
L 918.100177 257.830433 
L 918.15413 257.830433 
L 918.276425 319.795027 
L 918.844736 327.732505 
L 919.312334 337.289122 
L 919.765543 352.292882 
L 920.103652 372.077438 
L 920.369823 401.188069 
L 920.585638 456.35289 
L 920.715126 462.319687 
L 920.808646 462.319687 
L 920.923747 61.765292 
L 921.067623 61.765292 
L 921.463282 126.234545 
L 921.804988 143.126933 
L 922.776153 170.613523 
L 923.207781 177.402883 
L 923.945147 184.337457 
L 924.268868 186.766059 
L 924.39476 230.977782 
L 925.437862 230.977782 
L 925.563754 236.50828 
L 926.229181 262.458366 
L 930.20376 262.458366 
L 930.383606 260.504783 
L 930.995079 254.806835 
L 931.067017 254.806835 
L 931.102986 253.968888 
L 931.858336 228.551153 
L 933.800665 228.551153 
L 933.818649 232.08963 
L 933.908572 231.220402 
L 934.591984 225.657344 
L 935.545164 225.657344 
L 936.318498 242.053481 
L 936.660204 242.053481 
L 936.678188 238.442011 
L 936.750127 244.233819 
L 937.109817 255.048292 
L 937.343616 265.856952 
L 937.739275 269.05478 
L 937.75726 186.859567 
L 937.865167 187.950528 
L 938.746409 195.379221 
L 939.771526 201.306326 
L 940.886567 205.766558 
L 941.012458 263.295813 
L 942.145483 263.295813 
L 942.307344 256.690844 
L 942.828895 234.771185 
L 942.936802 234.875841 
L 945.598512 234.875841 
L 946.22797 250.180837 
L 946.371846 252.714838 
L 946.533707 246.827885 
L 947.163165 232.22602 
L 948.224252 232.22602 
L 948.925648 283.600584 
L 949.303323 283.600584 
L 949.321308 285.15733 
L 949.375261 281.681887 
L 950.094642 259.552916 
L 953.008135 259.552916 
L 953.026119 259.288269 
L 953.152011 261.109661 
L 953.637593 261.050007 
L 954.410928 257.371342 
L 955.112324 257.371342 
L 955.234619 319.795027 
L 955.80293 327.732505 
L 956.270527 337.289122 
L 956.723737 352.292882 
L 957.061846 372.077438 
L 957.328017 401.188069 
L 957.543831 456.35289 
L 957.67332 462.319687 
L 957.76684 462.319687 
L 957.88194 61.765292 
L 957.971863 61.765292 
L 958.457445 139.932276 
L 959.086904 164.458237 
L 959.518532 172.907939 
L 960.183959 181.703818 
L 960.777449 187.06155 
L 962.97156 201.766278 
L 963.92474 205.784494 
L 964.050632 267.012271 
L 965.093734 267.012271 
L 965.291564 257.584491 
L 965.903038 229.301154 
L 965.956991 229.301154 
L 965.974976 227.744409 
L 966.064898 229.286618 
L 967.341799 229.191846 
L 976.603828 229.191846 
L 976.621813 227.939767 
L 976.675767 230.224761 
L 976.837627 238.636487 
L 976.963519 238.19026 
L 977.215302 239.899645 
L 977.233287 241.578489 
L 977.305225 239.900807 
L 977.628946 232.22602 
L 978.132513 232.22602 
L 978.251211 319.683147 
L 978.826715 327.692779 
L 979.294313 337.225412 
L 979.373445 232.50895 
L 979.427398 234.427647 
L 980.002903 254.893748 
L 980.020888 186.859567 
L 980.128795 187.808321 
L 981.06399 194.979321 
L 982.682597 203.775129 
L 983.258102 205.792796 
L 983.383993 255.553694 
L 984.157328 255.623464 
L 984.84074 259.925997 
L 984.858724 262.202737 
L 984.930662 259.507372 
L 985.380275 256.600255 
L 985.39826 258.760711 
L 985.470198 254.553645 
L 986.027718 241.471621 
L 986.099656 240.250632 
L 986.225548 242.529811 
L 986.90896 255.553694 
L 987.376557 255.553694 
L 987.498852 319.822252 
L 988.059969 327.651975 
L 988.534761 337.351111 
L 988.980777 352.094095 
L 988.987971 352.388355 
L 989.103072 256.453156 
L 995.037964 256.453156 
L 995.235794 258.729896 
L 995.757345 258.729896 
L 995.775329 256.989903 
L 995.847268 260.43928 
L 996.404788 270.939785 
L 996.440757 270.939785 
L 996.620602 267.032621 
L 997.034246 256.885247 
L 997.124169 258.125215 
L 997.80758 254.357592 
L 998.814714 254.357592 
L 998.832698 252.559457 
L 998.850683 254.471551 
L 998.922621 254.425037 
L 999.893785 253.920362 
L 1001.458439 253.920362 
L 1001.602315 250.159716 
L 1002.303711 231.424668 
L 1003.166968 231.424668 
L 1003.904334 277.552469 
L 1004.04821 277.646659 
L 1004.4079 277.995513 
L 1004.425885 278.885516 
L 1004.497823 277.629642 
L 1005.217204 266.818657 
L 1005.397049 266.818657 
L 1005.415034 265.900745 
L 1005.468987 268.203182 
L 1006.098445 294.189316 
L 1006.170383 294.026517 
L 1006.709919 293.074146 
L 1007.411316 293.074146 
L 1007.4293 292.313695 
L 1007.519223 292.80204 
L 1008.202635 291.106609 
L 1008.418449 291.106609 
L 1008.436433 292.182668 
L 1008.526356 291.227545 
L 1009.245737 291.98107 
L 1009.713334 291.98107 
L 1009.731319 291.554419 
L 1009.803257 292.396206 
L 1010.504653 295.697528 
L 1010.64853 295.697528 
L 1010.666514 296.692187 
L 1010.720468 294.469562 
L 1011.439849 281.268927 
L 1011.727601 281.268927 
L 1011.745585 280.568944 
L 1011.799539 282.068965 
L 1012.482951 290.669379 
L 1013.184347 259.200474 
L 1013.597991 264.683296 
L 1013.615976 266.558179 
L 1013.687914 263.899538 
L 1014.407295 256.244192 
L 1014.605125 263.420445 
L 1015.252567 280.988732 
L 1015.414428 285.526534 
L 1015.522335 283.844683 
L 1015.792103 284.193537 
L 1015.953964 281.752722 
L 1016.187763 279.644481 
L 1016.205747 281.515875 
L 1016.313654 281.194556 
L 1016.871174 288.944929 
L 1016.889159 171.696624 
L 1016.997066 174.551394 
L 1017.518617 185.058541 
L 1018.004199 190.800197 
L 1018.741565 196.881209 
L 1019.586837 201.980802 
L 1020.486063 205.75101 
L 1020.611955 265.725539 
L 1024.730411 265.725539 
L 1024.874287 271.928412 
L 1025.539714 295.359772 
L 1027.500027 295.359772 
L 1027.518012 297.181164 
L 1027.571965 291.445256 
L 1028.309331 260.746105 
L 1031.276777 260.746105 
L 1031.294761 264.388888 
L 1031.384684 260.746105 
L 1040.844543 260.792618 
L 1040.862527 264.400517 
L 1040.934465 259.9817 
L 1041.635862 222.852006 
L 1046.131992 222.852006 
L 1046.149977 221.030615 
L 1046.185946 226.456831 
L 1046.923311 290.622709 
L 1054.099136 290.622709 
L 1054.15309 288.704012 
L 1054.782548 268.354196 
L 1054.87247 268.761192 
L 1059.980075 268.830963 
L 1060.753409 273.133495 
L 1065.501323 273.133495 
L 1066.274658 235.531686 
L 1066.544426 235.531686 
L 1066.56241 235.171692 
L 1066.598379 236.125226 
L 1067.335745 253.002782 
L 1067.71342 253.002782 
L 1067.731404 253.45813 
L 1067.821327 253.002782 
L 1068.486754 253.002782 
L 1068.702568 256.128514 
L 1068.972336 262.028798 
L 1069.332027 267.768609 
L 1069.511872 268.305844 
L 1071.076525 268.201601 
L 1071.759937 242.438966 
L 1071.777922 242.680838 
L 1072.317457 248.679266 
L 1081.345688 248.679266 
L 1081.471579 246.903952 
L 1082.137007 245.078283 
L 1085.158406 245.078283 
L 1085.931741 288.801317 
L 1088.575466 288.801317 
L 1088.773295 279.225275 
L 1089.366785 254.915966 
L 1090.30198 254.915966 
L 1090.319964 256.737358 
L 1090.409887 254.915966 
L 1090.481825 254.915966 
L 1090.60412 319.795027 
L 1091.172431 327.732505 
L 1091.640028 337.289122 
L 1092.093238 352.292882 
L 1092.431347 372.077438 
L 1092.697518 401.188069 
L 1092.913332 456.35289 
L 1093.042821 462.319687 
L 1093.136341 462.319687 
L 1093.251441 61.765292 
L 1093.341364 61.765292 
L 1093.844931 142.291342 
L 1094.43842 166.93266 
L 1094.834079 175.172683 
L 1094.898824 352.388355 
L 1094.941987 257.022837 
L 1095.55346 260.581147 
L 1095.571445 258.864412 
L 1095.625398 260.916047 
L 1095.643383 260.916047 
L 1096.326795 260.843951 
L 1096.812377 257.390296 
L 1096.830361 255.440991 
L 1096.920284 256.622817 
L 1097.100129 256.106514 
L 1097.783541 256.106514 
L 1097.801526 254.285122 
L 1097.873464 256.897249 
L 1098.448969 264.339468 
L 1098.466953 171.696624 
L 1098.57486 173.969097 
L 1099.060442 182.203266 
L 1099.078427 260.675551 
L 1099.186334 259.768531 
L 1099.384164 258.982446 
L 1099.797808 258.982446 
L 1099.815792 258.527098 
L 1099.905715 258.982446 
L 1100.84091 258.982446 
L 1100.858895 258.557332 
L 1100.930833 259.162013 
L 1101.632229 264.211093 
L 1101.740136 264.211093 
L 1101.758121 264.666441 
L 1101.812074 263.694789 
L 1102.099827 260.252763 
L 1102.117811 258.671592 
L 1102.207734 259.473655 
L 1102.441533 258.18871 
L 1102.495486 258.494539 
L 1102.90913 260.494635 
L 1103.538588 260.494635 
L 1103.556573 260.949983 
L 1103.646496 260.494635 
L 1104.653629 260.494635 
L 1104.77952 261.318605 
L 1105.337041 261.859329 
L 1105.355025 261.810489 
L 1105.37301 182.437042 
L 1105.480917 183.773707 
L 1106.146344 190.522052 
L 1106.937663 196.401849 
L 1107.872858 201.429397 
L 1108.826038 204.728881 
L 1109.167744 205.799258 
L 1109.293636 253.45813 
L 1109.347589 253.481387 
L 1110.120924 257.830433 
L 1114.20341 257.830433 
L 1114.383255 260.063099 
L 1114.59907 262.853931 
L 1114.717768 319.795027 
L 1115.286078 327.732505 
L 1115.753676 337.289122 
L 1116.206886 352.292882 
L 1116.544995 372.077438 
L 1116.811166 401.188069 
L 1117.02698 456.35289 
L 1117.156469 462.319687 
L 1117.249988 462.319687 
L 1117.365089 61.765292 
L 1117.437027 61.765292 
L 1117.472996 68.438498 
L 1117.72478 125.76344 
L 1118.012532 146.313383 
L 1118.552068 166.979765 
L 1119.055634 174.949421 
L 1119.703077 181.881036 
L 1120.314551 186.53177 
L 1120.90804 189.886596 
L 1121.285715 192.402734 
L 1122.724477 203.484077 
L 1123.138121 205.767594 
L 1123.264013 288.655172 
L 1126.465258 288.655172 
L 1127.238592 258.049049 
L 1128.947122 258.049049 
L 1129.720456 250.178903 
L 1133.71302 250.178903 
L 1133.731005 248.538915 
L 1133.802943 251.267327 
L 1134.486355 258.704894 
L 1135.097828 258.704894 
L 1135.220123 319.795027 
L 1135.788434 327.732505 
L 1136.256032 337.289122 
L 1136.709242 352.292882 
L 1137.047351 372.077438 
L 1137.313522 401.188069 
L 1137.529336 456.35289 
L 1137.658825 462.319687 
L 1137.752344 462.319687 
L 1137.867445 61.765292 
L 1137.939383 61.765292 
L 1137.975352 68.968211 
L 1138.227135 126.945795 
L 1138.586826 152.42797 
L 1138.928532 166.510143 
L 1139.486052 178.853982 
L 1140.097526 187.297415 
L 1140.978767 195.201787 
L 1141.985901 201.330213 
L 1143.046987 205.802935 
L 1143.172879 266.57504 
L 1147.417226 266.57504 
L 1147.435211 264.711321 
L 1147.543118 264.858213 
L 1148.208545 256.081512 
L 1150.708394 256.081512 
L 1150.888239 258.090911 
L 1151.499713 263.951658 
L 1153.711809 263.87491 
L 1154.485144 259.142124 
L 1158.783445 259.086308 
L 1159.556779 248.648596 
L 1162.668102 248.720693 
L 1163.441436 262.202737 
L 1173.728583 262.301579 
L 1174.465948 263.295813 
L 1181.282082 263.295813 
L 1181.731695 258.249058 
L 1182.073401 255.644282 
L 1182.720844 255.644282 
L 1182.846736 254.43002 
L 1184.968909 254.43002 
L 1185.13077 258.504884 
L 1185.760228 268.761192 
L 1188.835582 268.714678 
L 1189.608916 260.016585 
L 1194.015124 260.016585 
L 1194.141016 257.991695 
L 1194.806443 257.102117 
L 1197.701951 257.126537 
L 1198.475286 261.693036 
L 1203.708782 261.67443 
L 1204.482116 258.195193 
L 1209.805535 258.195193 
L 1209.82352 259.865415 
L 1209.913442 259.109565 
L 1210.57887 254.332591 
L 1217.107251 254.332591 
L 1217.229546 319.795027 
L 1217.797857 327.732505 
L 1218.265454 337.289122 
L 1218.718664 352.292882 
L 1219.056773 372.077438 
L 1219.322944 401.188069 
L 1219.538759 456.35289 
L 1219.668247 462.319687 
L 1219.761767 462.319687 
L 1219.876868 61.765292 
L 1219.96679 61.765292 
L 1220.308496 132.301224 
L 1220.650202 153.419137 
L 1220.991908 166.350503 
L 1221.567413 178.339934 
L 1222.214856 186.792231 
L 1223.006175 193.586651 
L 1223.563695 197.090033 
L 1224.462921 201.473513 
L 1225.649899 205.749976 
L 1225.775791 261.7869 
L 1226.315327 261.7869 
L 1226.441218 264.388888 
L 1234.660145 264.388888 
L 1234.786037 260.281014 
L 1235.43348 253.698139 
L 1237.249916 253.698139 
L 1237.267901 256.288499 
L 1237.375808 256.218728 
L 1238.113173 255.862897 
L 1238.976431 255.862897 
L 1238.994415 253.626857 
L 1239.102322 253.871054 
L 1239.76775 255.116463 
L 1239.983564 255.116463 
L 1240.109455 258.166496 
L 1240.756898 261.546891 
L 1240.990697 261.546891 
L 1241.008682 259.310851 
L 1241.116589 259.555049 
L 1241.782016 260.800458 
L 1243.14884 260.800458 
L 1243.922174 249.345023 
L 1244.803416 249.345023 
L 1244.929308 252.818332 
L 1245.57675 258.049049 
L 1247.537063 258.049049 
L 1247.555048 255.853708 
L 1247.64497 256.260704 
L 1248.310398 258.832921 
L 1249.263577 258.832921 
L 1249.389469 257.951909 
L 1250.090865 257.418162 
L 1250.990092 257.418162 
L 1251.115983 258.258475 
L 1251.853349 258.614306 
L 1252.644668 258.614306 
L 1252.806528 255.814597 
L 1253.418002 249.329401 
L 1254.874748 249.329401 
L 1255.00064 254.277937 
L 1255.648083 262.639967 
L 1256.673201 262.639967 
L 1256.799092 259.319416 
L 1257.46452 258.074008 
L 1257.734288 258.074008 
L 1257.856582 319.795027 
L 1258.424893 327.732505 
L 1258.892491 337.289122 
L 1259.345701 352.292882 
L 1259.68381 372.077438 
L 1259.949981 401.188069 
L 1260.165795 456.35289 
L 1260.295284 462.319687 
L 1260.388803 462.319687 
L 1260.503904 61.765292 
L 1260.593827 61.765292 
L 1260.629796 68.347746 
L 1260.881579 122.823103 
L 1261.169331 143.997385 
L 1261.780805 167.129272 
L 1262.374294 178.226239 
L 1263.057706 186.320358 
L 1263.651195 191.136066 
L 1264.442514 196.255123 
L 1265.773369 203.170741 
L 1266.438796 205.77399 
L 1266.564688 262.639967 
L 1266.744533 262.639967 
L 1267.463914 273.789341 
L 1267.589806 267.93417 
L 1268.237249 265.087521 
L 1268.902676 265.087521 
L 1268.920661 270.006601 
L 1269.010583 268.582113 
L 1269.71198 259.090959 
L 1269.945778 258.183939 
L 1270.07167 253.142063 
L 1270.359422 252.402493 
L 1270.791051 252.402493 
L 1270.913346 319.915691 
L 1271.402525 326.664908 
L 1271.420509 252.721858 
L 1271.528416 257.275337 
L 1271.672293 257.379994 
L 1272.427642 259.242874 
L 1276.67199 259.242874 
L 1276.797881 254.445196 
L 1277.463309 253.377703 
L 1278.254628 253.377703 
L 1279.027962 230.641726 
L 1279.207807 230.699868 
L 1279.981142 232.827877 
L 1280.214941 232.717407 
L 1280.970291 228.674189 
L 1281.16812 228.674189 
L 1281.186105 233.227669 
L 1281.276028 228.674189 
L 1281.383935 228.753263 
L 1281.743625 230.730102 
L 1281.86592 328.568937 
L 1282.297548 337.666924 
L 1282.736371 352.2844 
L 1282.880247 359.140362 
L 1282.898231 233.170297 
L 1283.006139 233.83312 
L 1283.060092 234.164531 
L 1283.185984 239.491304 
L 1283.239937 239.822715 
L 1283.362232 366.137137 
L 1283.664372 394.751422 
L 1283.851411 431.717661 
L 1284.052838 462.319687 
L 1284.146357 462.319687 
L 1284.153551 262.04249 
L 1284.153551 262.04249 
" style="fill:none;stroke:#d62728;stroke-linecap:square;stroke-width:2;"/>
   </g>
   <g id="patch_3">
    <path d="M 52.578125 483.820625 
L 52.578125 10.8 
" style="fill:none;stroke:#000000;stroke-linecap:square;stroke-linejoin:miter;stroke-width:0.8;"/>
   </g>
   <g id="patch_4">
    <path d="M 1342.8 483.820625 
L 1342.8 10.8 
" style="fill:none;stroke:#000000;stroke-linecap:square;stroke-linejoin:miter;stroke-width:0.8;"/>
   </g>
   <g id="patch_5">
    <path d="M 52.578125 483.820625 
L 1342.8 483.820625 
" style="fill:none;stroke:#000000;stroke-linecap:square;stroke-linejoin:miter;stroke-width:0.8;"/>
   </g>
   <g id="patch_6">
    <path d="M 52.578125 10.8 
L 1342.8 10.8 
" style="fill:none;stroke:#000000;stroke-linecap:square;stroke-linejoin:miter;stroke-width:0.8;"/>
   </g>
   <g id="legend_1">
    <g id="patch_7">
     <path d="M 609.764844 478.820625 
L 785.613281 478.820625 
Q 787.613281 478.820625 787.613281 476.820625 
L 787.613281 417.32375 
Q 787.613281 415.32375 785.613281 415.32375 
L 609.764844 415.32375 
Q 607.764844 415.32375 607.764844 417.32375 
L 607.764844 476.820625 
Q 607.764844 478.820625 609.764844 478.820625 
z
" style="fill:#ffffff;opacity:0.8;stroke:#cccccc;stroke-linejoin:miter;"/>
    </g>
    <g id="line2d_20">
     <path d="M 611.764844 423.983125 
L 631.764844 423.983125 
" style="fill:none;stroke:#1f77b4;stroke-linecap:square;stroke-width:2;"/>
    </g>
    <g id="line2d_21"/>
    <g id="text_18">
     <!-- Speed restriction [km/h] -->
     <defs>
      <path d="M 32.40625 53.90625 
Q 35.203125 53.90625 37.59375 53.296875 
L 35.90625 44.296875 
Q 33.5 44.90625 31.296875 44.90625 
Q 26.40625 44.90625 23.40625 41.296875 
Q 20.40625 37.703125 18.703125 30.09375 
L 18.703125 0 
L 9.5 0 
L 9.5 52.703125 
L 17.40625 52.703125 
L 18.296875 42 
Q 20.40625 47.90625 24 50.90625 
Q 27.59375 53.90625 32.40625 53.90625 
z
" id="FiraSans-Regular-114"/>
      <path d="M 29.296875 53.90625 
Q 40.40625 53.90625 46.546875 46.5 
Q 52.703125 39.09375 52.703125 26.40625 
Q 52.703125 18.203125 49.890625 11.953125 
Q 47.09375 5.703125 41.796875 2.25 
Q 36.5 -1.203125 29.203125 -1.203125 
Q 18.09375 -1.203125 11.890625 6.1875 
Q 5.703125 13.59375 5.703125 26.296875 
Q 5.703125 34.5 8.5 40.75 
Q 11.296875 47 16.59375 50.453125 
Q 21.90625 53.90625 29.296875 53.90625 
z
M 29.296875 46.5 
Q 15.59375 46.5 15.59375 26.296875 
Q 15.59375 6.203125 29.203125 6.203125 
Q 42.796875 6.203125 42.796875 26.40625 
Q 42.796875 46.5 29.296875 46.5 
z
" id="FiraSans-Regular-111"/>
     </defs>
     <g transform="translate(639.764844 427.483125)scale(0.1 -0.1)">
      <use xlink:href="#FiraSans-Regular-83"/>
      <use x="54.499985" xlink:href="#FiraSans-Regular-112"/>
      <use x="113.899979" xlink:href="#FiraSans-Regular-101"/>
      <use x="168.399963" xlink:href="#FiraSans-Regular-101"/>
      <use x="222.899948" xlink:href="#FiraSans-Regular-100"/>
      <use x="282.699936" xlink:href="#FiraSans-Regular-32"/>
      <use x="309.199921" xlink:href="#FiraSans-Regular-114"/>
      <use x="347.799911" xlink:href="#FiraSans-Regular-101"/>
      <use x="402.299896" xlink:href="#FiraSans-Regular-115"/>
      <use x="448.999893" xlink:href="#FiraSans-Regular-116"/>
      <use x="485.099884" xlink:href="#FiraSans-Regular-114"/>
      <use x="523.699875" xlink:href="#FiraSans-Regular-105"/>
      <use x="551.899872" xlink:href="#FiraSans-Regular-99"/>
      <use x="599.69986" xlink:href="#FiraSans-Regular-116"/>
      <use x="635.79985" xlink:href="#FiraSans-Regular-105"/>
      <use x="663.999847" xlink:href="#FiraSans-Regular-111"/>
      <use x="722.399841" xlink:href="#FiraSans-Regular-110"/>
      <use x="780.999832" xlink:href="#FiraSans-Regular-32"/>
      <use x="807.499817" xlink:href="#FiraSans-Regular-91"/>
      <use x="839.699814" xlink:href="#FiraSans-Regular-107"/>
      <use x="890.899811" xlink:href="#FiraSans-Regular-109"/>
      <use x="976.599792" xlink:href="#FiraSans-Regular-47"/>
      <use x="1028.599777" xlink:href="#FiraSans-Regular-104"/>
      <use x="1087.199768" xlink:href="#FiraSans-Regular-93"/>
     </g>
    </g>
    <g id="line2d_22">
     <path d="M 611.764844 439.272187 
L 631.764844 439.272187 
" style="fill:none;stroke:#ff7f0e;stroke-linecap:square;stroke-width:2;"/>
    </g>
    <g id="line2d_23"/>
    <g id="text_19">
     <!-- Virtual speed restriction [km/h] -->
     <defs>
      <path d="M 55 68.90625 
L 33 0 
L 22.796875 0 
L 0.59375 68.90625 
L 10.796875 68.90625 
L 28.09375 10.296875 
L 45.40625 68.90625 
z
" id="FiraSans-Regular-86"/>
      <path d="M 48.703125 0 
L 40.796875 0 
L 40.09375 8.203125 
Q 37.09375 3.296875 33.1875 1.046875 
Q 29.296875 -1.203125 23.703125 -1.203125 
Q 16.796875 -1.203125 12.890625 3 
Q 9 7.203125 9 14.90625 
L 9 52.703125 
L 18.203125 52.703125 
L 18.203125 15.90625 
Q 18.203125 10.5 20.09375 8.25 
Q 22 6 26.296875 6 
Q 34 6 39.5 15.09375 
L 39.5 52.703125 
L 48.703125 52.703125 
z
" id="FiraSans-Regular-117"/>
      <path d="M 20 -1.203125 
Q 14.90625 -1.203125 11.953125 1.84375 
Q 9 4.90625 9 10.40625 
L 9 73.90625 
L 18.203125 75 
L 18.203125 10.59375 
Q 18.203125 8.40625 18.953125 7.40625 
Q 19.703125 6.40625 21.5 6.40625 
Q 23.40625 6.40625 24.90625 7 
L 27.296875 0.59375 
Q 24 -1.203125 20 -1.203125 
z
" id="FiraSans-Regular-108"/>
     </defs>
     <g transform="translate(639.764844 442.772187)scale(0.1 -0.1)">
      <use xlink:href="#FiraSans-Regular-86"/>
      <use x="55.599991" xlink:href="#FiraSans-Regular-105"/>
      <use x="83.799988" xlink:href="#FiraSans-Regular-114"/>
      <use x="122.399979" xlink:href="#FiraSans-Regular-116"/>
      <use x="158.499969" xlink:href="#FiraSans-Regular-117"/>
      <use x="216.699966" xlink:href="#FiraSans-Regular-97"/>
      <use x="271.09996" xlink:href="#FiraSans-Regular-108"/>
      <use x="300.399948" xlink:href="#FiraSans-Regular-32"/>
      <use x="326.899933" xlink:href="#FiraSans-Regular-115"/>
      <use x="373.59993" xlink:href="#FiraSans-Regular-112"/>
      <use x="432.999924" xlink:href="#FiraSans-Regular-101"/>
      <use x="487.499908" xlink:href="#FiraSans-Regular-101"/>
      <use x="541.999893" xlink:href="#FiraSans-Regular-100"/>
      <use x="601.799881" xlink:href="#FiraSans-Regular-32"/>
      <use x="628.299866" xlink:href="#FiraSans-Regular-114"/>
      <use x="666.899857" xlink:href="#FiraSans-Regular-101"/>
      <use x="721.399841" xlink:href="#FiraSans-Regular-115"/>
      <use x="768.099838" xlink:href="#FiraSans-Regular-116"/>
      <use x="804.199829" xlink:href="#FiraSans-Regular-114"/>
      <use x="842.79982" xlink:href="#FiraSans-Regular-105"/>
      <use x="870.999817" xlink:href="#FiraSans-Regular-99"/>
      <use x="918.799805" xlink:href="#FiraSans-Regular-116"/>
      <use x="954.899796" xlink:href="#FiraSans-Regular-105"/>
      <use x="983.099792" xlink:href="#FiraSans-Regular-111"/>
      <use x="1041.499786" xlink:href="#FiraSans-Regular-110"/>
      <use x="1100.099777" xlink:href="#FiraSans-Regular-32"/>
      <use x="1126.599762" xlink:href="#FiraSans-Regular-91"/>
      <use x="1158.799759" xlink:href="#FiraSans-Regular-107"/>
      <use x="1209.999756" xlink:href="#FiraSans-Regular-109"/>
      <use x="1295.699738" xlink:href="#FiraSans-Regular-47"/>
      <use x="1347.699722" xlink:href="#FiraSans-Regular-104"/>
      <use x="1406.299713" xlink:href="#FiraSans-Regular-93"/>
     </g>
    </g>
    <g id="line2d_24">
     <path d="M 611.764844 454.56125 
L 631.764844 454.56125 
" style="fill:none;stroke:#2ca02c;stroke-linecap:square;stroke-width:2;"/>
    </g>
    <g id="line2d_25"/>
    <g id="text_20">
     <!-- Speed [km/h] -->
     <g transform="translate(639.764844 458.06125)scale(0.1 -0.1)">
      <use xlink:href="#FiraSans-Regular-83"/>
      <use x="54.499985" xlink:href="#FiraSans-Regular-112"/>
      <use x="113.899979" xlink:href="#FiraSans-Regular-101"/>
      <use x="168.399963" xlink:href="#FiraSans-Regular-101"/>
      <use x="222.899948" xlink:href="#FiraSans-Regular-100"/>
      <use x="282.699936" xlink:href="#FiraSans-Regular-32"/>
      <use x="309.199921" xlink:href="#FiraSans-Regular-91"/>
      <use x="341.399918" xlink:href="#FiraSans-Regular-107"/>
      <use x="392.599915" xlink:href="#FiraSans-Regular-109"/>
      <use x="478.299896" xlink:href="#FiraSans-Regular-47"/>
      <use x="530.299881" xlink:href="#FiraSans-Regular-104"/>
      <use x="588.899872" xlink:href="#FiraSans-Regular-93"/>
     </g>
    </g>
    <g id="line2d_26">
     <path d="M 611.764844 469.190937 
L 631.764844 469.190937 
" style="fill:none;stroke:#d62728;stroke-linecap:square;stroke-width:2;"/>
    </g>
    <g id="line2d_27"/>
    <g id="text_21">
     <!-- Effort [kN] -->
     <defs>
      <path d="M 47.296875 68.90625 
L 46.203125 61.296875 
L 19.5 61.296875 
L 19.5 38.796875 
L 42.703125 38.796875 
L 42.703125 31.203125 
L 19.5 31.203125 
L 19.5 7.59375 
L 48.09375 7.59375 
L 48.09375 0 
L 10 0 
L 10 68.90625 
z
" id="FiraSans-Regular-69"/>
      <path d="M 27.40625 67.59375 
Q 23.203125 67.59375 21.390625 65.75 
Q 19.59375 63.90625 19.59375 60 
L 19.59375 52.703125 
L 32.40625 52.703125 
L 31.40625 45.59375 
L 19.59375 45.59375 
L 19.59375 0 
L 10.40625 0 
L 10.40625 45.59375 
L 1 45.59375 
L 1 52.703125 
L 10.40625 52.703125 
L 10.40625 59.90625 
Q 10.40625 66.703125 14.75 70.84375 
Q 19.09375 75 26.90625 75 
Q 30.5 75 33.34375 74.34375 
Q 36.203125 73.703125 39.5 72.296875 
L 36.59375 65.59375 
Q 32.09375 67.59375 27.40625 67.59375 
z
" id="FiraSans-Regular-102"/>
      <path d="M 58.296875 0 
L 45.59375 0 
L 17.59375 58.5 
Q 18.203125 51.59375 18.546875 45.75 
Q 18.90625 39.90625 18.90625 31.59375 
L 18.90625 0 
L 10 0 
L 10 68.90625 
L 22.40625 68.90625 
L 50.703125 10.296875 
Q 50.40625 12.90625 49.90625 19.40625 
Q 49.40625 25.90625 49.40625 31.296875 
L 49.40625 68.90625 
L 58.296875 68.90625 
z
" id="FiraSans-Regular-78"/>
     </defs>
     <g transform="translate(639.764844 472.690937)scale(0.1 -0.1)">
      <use xlink:href="#FiraSans-Regular-69"/>
      <use x="53.499985" xlink:href="#FiraSans-Regular-102"/>
      <use x="86.999969" xlink:href="#FiraSans-Regular-102"/>
      <use x="120.499954" xlink:href="#FiraSans-Regular-111"/>
      <use x="178.899948" xlink:href="#FiraSans-Regular-114"/>
      <use x="217.499939" xlink:href="#FiraSans-Regular-116"/>
      <use x="253.59993" xlink:href="#FiraSans-Regular-32"/>
      <use x="280.099915" xlink:href="#FiraSans-Regular-91"/>
      <use x="312.299911" xlink:href="#FiraSans-Regular-107"/>
      <use x="363.499908" xlink:href="#FiraSans-Regular-78"/>
      <use x="431.799896" xlink:href="#FiraSans-Regular-93"/>
     </g>
    </g>
   </g>
  </g>
  <g id="text_22">
   <!-- RailwaySim -->
   <defs>
    <path d="M 30.203125 29.203125 
L 19.5 29.203125 
L 19.5 0 
L 10 0 
L 10 68.90625 
L 28.09375 68.90625 
Q 41 68.90625 47.640625 64 
Q 54.296875 59.09375 54.296875 49.40625 
Q 54.296875 42.203125 50.59375 37.703125 
Q 46.90625 33.203125 39.40625 30.90625 
L 58 0 
L 46.703125 0 
z
M 29.09375 36.5 
Q 36.59375 36.5 40.390625 39.546875 
Q 44.203125 42.59375 44.203125 49.40625 
Q 44.203125 55.796875 40.34375 58.640625 
Q 36.5 61.5 28 61.5 
L 19.5 61.5 
L 19.5 36.5 
z
" id="FiraSans-Regular-82"/>
    <path d="M 69.703125 52.703125 
L 57.703125 0 
L 45.203125 0 
L 36 44.40625 
L 26.5 0 
L 14.296875 0 
L 2 52.703125 
L 11.203125 52.703125 
L 20.703125 6.40625 
L 31.09375 52.703125 
L 41.40625 52.703125 
L 51.296875 6.40625 
L 60.90625 52.703125 
z
" id="FiraSans-Regular-119"/>
    <path d="M 30.59375 -0.296875 
Q 27.5 -9.5 21.953125 -14.84375 
Q 16.40625 -20.203125 6.09375 -21.296875 
L 5.09375 -14.09375 
Q 10.296875 -13.203125 13.390625 -11.5 
Q 16.5 -9.796875 18.34375 -7.140625 
Q 20.203125 -4.5 21.796875 0 
L 18.703125 0 
L 1 52.703125 
L 10.796875 52.703125 
L 24.90625 6.703125 
L 38.703125 52.703125 
L 48.203125 52.703125 
z
" id="FiraSans-Regular-121"/>
   </defs>
   <g style="fill:#808080;opacity:0.6;" transform="translate(646.076563 252.980625)scale(0.2 -0.2)">
    <use xlink:href="#FiraSans-Regular-82"/>
    <use x="60.499985" xlink:href="#FiraSans-Regular-97"/>
    <use x="114.899979" xlink:href="#FiraSans-Regular-105"/>
    <use x="143.099976" xlink:href="#FiraSans-Regular-108"/>
    <use x="172.399963" xlink:href="#FiraSans-Regular-119"/>
    <use x="244.099945" xlink:href="#FiraSans-Regular-97"/>
    <use x="298.499939" xlink:href="#FiraSans-Regular-121"/>
    <use x="347.699936" xlink:href="#FiraSans-Regular-83"/>
    <use x="402.199921" xlink:href="#FiraSans-Regular-105"/>
    <use x="430.399918" xlink:href="#FiraSans-Regular-109"/>
   </g>
  </g>
 </g>
 <defs>
  <clipPath id="pe4e54e7d2f">
   <rect height="473.020625" width="1290.221875" x="52.578125" y="10.8"/>
  </clipPath>
 </defs>
</svg>
