<?xml version="1.0" encoding="utf-8" standalone="no"?>
<!DOCTYPE svg PUBLIC "-//W3C//DTD SVG 1.1//EN"
  "http://www.w3.org/Graphics/SVG/1.1/DTD/svg11.dtd">
<!-- Created with matplotlib (https://matplotlib.org/) -->
<svg height="524.88pt" version="1.1" viewBox="0 0 1353.6 524.88" width="1353.6pt" xmlns="http://www.w3.org/2000/svg" xmlns:xlink="http://www.w3.org/1999/xlink">
 <defs>
  <style type="text/css">
*{stroke-linecap:butt;stroke-linejoin:round;}
  </style>
 </defs>
 <g id="figure_1">
  <g id="patch_1">
   <path d="M 0 524.88 
L 1353.6 524.88 
L 1353.6 0 
L 0 0 
z
" style="fill:#ffffff;"/>
  </g>
  <g id="axes_1">
   <g id="patch_2">
    <path d="M 48.198438 483.820625 
L 1342.8 483.820625 
L 1342.8 10.8 
L 48.198438 10.8 
z
" style="fill:#ffffff;"/>
   </g>
   <g id="matplotlib.axis_1">
    <g id="xtick_1">
     <g id="line2d_1">
      <defs>
       <path d="M 0 0 
L 0 3.5 
" id="m7de716a933" style="stroke:#000000;stroke-width:0.8;"/>
      </defs>
      <g>
       <use style="stroke:#000000;stroke-width:0.8;" x="254.209789" xlink:href="#m7de716a933" y="483.820625"/>
      </g>
     </g>
     <g id="text_1">
      <!-- 270 -->
      <defs>
       <path d="M 22.796875 67.90625 
Q 28.796875 67.90625 33.34375 65.5 
Q 37.90625 63.09375 40.40625 58.9375 
Q 42.90625 54.796875 42.90625 49.59375 
Q 42.90625 43.5 40.15625 37.890625 
Q 37.40625 32.296875 31.703125 25.796875 
Q 26 19.296875 14.40625 7.703125 
L 44.5 7.703125 
L 43.40625 0 
L 3.90625 0 
L 3.90625 7.296875 
Q 17.296875 21.203125 22.890625 27.640625 
Q 28.5 34.09375 30.890625 38.890625 
Q 33.296875 43.703125 33.296875 49.203125 
Q 33.296875 54.40625 30.296875 57.34375 
Q 27.296875 60.296875 22.296875 60.296875 
Q 18.203125 60.296875 15.09375 58.59375 
Q 12 56.90625 8.5 53 
L 2.5 57.796875 
Q 6.59375 62.90625 11.59375 65.40625 
Q 16.59375 67.90625 22.796875 67.90625 
z
" id="FiraSans-Regular-50"/>
       <path d="M 41.40625 66.90625 
L 41.40625 60 
L 16.40625 -1 
L 8 1.796875 
L 32.09375 59.40625 
L 2.5 59.40625 
L 2.5 66.90625 
z
" id="FiraSans-Regular-55"/>
       <path d="M 27.90625 67.90625 
Q 39 67.90625 44.640625 59.046875 
Q 50.296875 50.203125 50.296875 33.40625 
Q 50.296875 16.59375 44.640625 7.6875 
Q 39 -1.203125 27.90625 -1.203125 
Q 16.796875 -1.203125 11.140625 7.6875 
Q 5.5 16.59375 5.5 33.40625 
Q 5.5 50.203125 11.140625 59.046875 
Q 16.796875 67.90625 27.90625 67.90625 
z
M 27.90625 60.59375 
Q 21.40625 60.59375 18.25 54.1875 
Q 15.09375 47.796875 15.09375 33.40625 
Q 15.09375 19 18.25 12.546875 
Q 21.40625 6.09375 27.90625 6.09375 
Q 34.296875 6.09375 37.5 12.546875 
Q 40.703125 19 40.703125 33.40625 
Q 40.703125 47.703125 37.5 54.140625 
Q 34.296875 60.59375 27.90625 60.59375 
z
" id="FiraSans-Regular-48"/>
      </defs>
      <g transform="translate(246.724633 498.320625)scale(0.1 -0.1)">
       <use xlink:href="#FiraSans-Regular-50"/>
       <use x="49.499985" xlink:href="#FiraSans-Regular-55"/>
       <use x="93.899979" xlink:href="#FiraSans-Regular-48"/>
      </g>
     </g>
    </g>
    <g id="xtick_2">
     <g id="line2d_2">
      <g>
       <use style="stroke:#000000;stroke-width:0.8;" x="511.753531" xlink:href="#m7de716a933" y="483.820625"/>
      </g>
     </g>
     <g id="text_2">
      <!-- 275 -->
      <defs>
       <path d="M 42 59.703125 
L 15.90625 59.703125 
L 15.90625 40 
Q 21 42.59375 26.59375 42.59375 
Q 35.203125 42.59375 40.390625 36.9375 
Q 45.59375 31.296875 45.59375 21.40625 
Q 45.59375 14.796875 42.6875 9.640625 
Q 39.796875 4.5 34.546875 1.640625 
Q 29.296875 -1.203125 22.40625 -1.203125 
Q 16.296875 -1.203125 11.5 0.9375 
Q 6.703125 3.09375 2.59375 7.296875 
L 8 12.59375 
Q 11.203125 9.40625 14.59375 7.84375 
Q 18 6.296875 22.296875 6.296875 
Q 28.703125 6.296875 32.34375 10.296875 
Q 36 14.296875 36 21.59375 
Q 36 28.90625 32.703125 32.203125 
Q 29.40625 35.5 23.796875 35.5 
Q 21.203125 35.5 19 34.953125 
Q 16.796875 34.40625 14.296875 33.203125 
L 7.09375 33.203125 
L 7.09375 66.90625 
L 43.296875 66.90625 
z
" id="FiraSans-Regular-53"/>
      </defs>
      <g transform="translate(504.553531 498.320625)scale(0.1 -0.1)">
       <use xlink:href="#FiraSans-Regular-50"/>
       <use x="49.499985" xlink:href="#FiraSans-Regular-55"/>
       <use x="93.899979" xlink:href="#FiraSans-Regular-53"/>
      </g>
     </g>
    </g>
    <g id="xtick_3">
     <g id="line2d_3">
      <g>
       <use style="stroke:#000000;stroke-width:0.8;" x="769.297272" xlink:href="#m7de716a933" y="483.820625"/>
      </g>
     </g>
     <g id="text_3">
      <!-- 280 -->
      <defs>
       <path d="M 36.5 35.90625 
Q 50.59375 30.203125 50.59375 17.90625 
Q 50.59375 12.40625 47.640625 8.046875 
Q 44.703125 3.703125 39.390625 1.25 
Q 34.09375 -1.203125 27.40625 -1.203125 
Q 20.59375 -1.203125 15.390625 1.1875 
Q 10.203125 3.59375 7.34375 7.890625 
Q 4.5 12.203125 4.5 17.703125 
Q 4.5 23.90625 7.84375 28.09375 
Q 11.203125 32.296875 17.703125 35.09375 
Q 12.40625 37.796875 9.84375 41.640625 
Q 7.296875 45.5 7.296875 50.703125 
Q 7.296875 56.09375 10.140625 60 
Q 13 63.90625 17.640625 65.90625 
Q 22.296875 67.90625 27.59375 67.90625 
Q 32.796875 67.90625 37.4375 66 
Q 42.09375 64.09375 45 60.25 
Q 47.90625 56.40625 47.90625 51 
Q 47.90625 46 45.09375 42.390625 
Q 42.296875 38.796875 36.5 35.90625 
z
M 27.59375 61 
Q 22.40625 61 19.34375 58.296875 
Q 16.296875 55.59375 16.296875 50.59375 
Q 16.296875 45.796875 19.25 43.296875 
Q 22.203125 40.796875 28.703125 38.703125 
L 30.40625 38.09375 
Q 34.90625 40.703125 36.90625 43.59375 
Q 38.90625 46.5 38.90625 50.703125 
Q 38.90625 55.40625 35.953125 58.203125 
Q 33 61 27.59375 61 
z
M 27.5 6.09375 
Q 33.703125 6.09375 37.34375 9.296875 
Q 41 12.5 41 17.796875 
Q 41 21.40625 39.59375 23.84375 
Q 38.203125 26.296875 35.09375 28.140625 
Q 32 30 26.40625 31.90625 
L 23.90625 32.796875 
Q 18.90625 30.40625 16.5 26.75 
Q 14.09375 23.09375 14.09375 17.703125 
Q 14.09375 12.203125 17.6875 9.140625 
Q 21.296875 6.09375 27.5 6.09375 
z
" id="FiraSans-Regular-56"/>
      </defs>
      <g transform="translate(761.277741 498.320625)scale(0.1 -0.1)">
       <use xlink:href="#FiraSans-Regular-50"/>
       <use x="49.499985" xlink:href="#FiraSans-Regular-56"/>
       <use x="104.599976" xlink:href="#FiraSans-Regular-48"/>
      </g>
     </g>
    </g>
    <g id="xtick_4">
     <g id="line2d_4">
      <g>
       <use style="stroke:#000000;stroke-width:0.8;" x="1026.841014" xlink:href="#m7de716a933" y="483.820625"/>
      </g>
     </g>
     <g id="text_4">
      <!-- 285 -->
      <g transform="translate(1019.106639 498.320625)scale(0.1 -0.1)">
       <use xlink:href="#FiraSans-Regular-50"/>
       <use x="49.499985" xlink:href="#FiraSans-Regular-56"/>
       <use x="104.599976" xlink:href="#FiraSans-Regular-53"/>
      </g>
     </g>
    </g>
    <g id="xtick_5">
     <g id="line2d_5">
      <g>
       <use style="stroke:#000000;stroke-width:0.8;" x="1284.384755" xlink:href="#m7de716a933" y="483.820625"/>
      </g>
     </g>
     <g id="text_5">
      <!-- 290 -->
      <defs>
       <path d="M 25.90625 67.90625 
Q 36.5 67.90625 42 60.953125 
Q 47.5 54 47.5 41.90625 
Q 47.5 28.203125 43.796875 19.84375 
Q 40.09375 11.5 32.5 6.546875 
Q 24.90625 1.59375 11.90625 -2.203125 
L 9.796875 4.703125 
Q 23.203125 8.5 30.34375 15 
Q 37.5 21.5 38 32.296875 
Q 35.703125 28.703125 31.796875 26.5 
Q 27.90625 24.296875 23 24.296875 
Q 17.796875 24.296875 13.59375 26.9375 
Q 9.40625 29.59375 6.953125 34.4375 
Q 4.5 39.296875 4.5 45.796875 
Q 4.5 52.59375 7.390625 57.59375 
Q 10.296875 62.59375 15.140625 65.25 
Q 20 67.90625 25.90625 67.90625 
z
M 24.90625 31.5 
Q 32.796875 31.5 38.203125 39.796875 
Q 38.40625 50.90625 35.453125 55.75 
Q 32.5 60.59375 26.09375 60.59375 
Q 20.203125 60.59375 17 56.6875 
Q 13.796875 52.796875 13.796875 45.59375 
Q 13.796875 38.59375 16.796875 35.046875 
Q 19.796875 31.5 24.90625 31.5 
z
" id="FiraSans-Regular-57"/>
      </defs>
      <g transform="translate(1276.494911 498.320625)scale(0.1 -0.1)">
       <use xlink:href="#FiraSans-Regular-50"/>
       <use x="49.499985" xlink:href="#FiraSans-Regular-57"/>
       <use x="101.999969" xlink:href="#FiraSans-Regular-48"/>
      </g>
     </g>
    </g>
    <g id="text_6">
     <!-- Distance [km] -->
     <defs>
      <path d="M 24.40625 68.90625 
Q 40 68.90625 49.453125 61.65625 
Q 58.90625 54.40625 58.90625 34.796875 
Q 58.90625 15.703125 49.453125 7.84375 
Q 40 0 26.5 0 
L 10 0 
L 10 68.90625 
L 24.40625 68.90625 
z
M 19.5 61.296875 
L 19.5 7.5 
L 27.203125 7.5 
Q 36.796875 7.5 42.796875 13.390625 
Q 48.796875 19.296875 48.796875 34.796875 
Q 48.796875 45.703125 45.6875 51.546875 
Q 42.59375 57.40625 37.796875 59.34375 
Q 33 61.296875 26.5 61.296875 
z
" id="FiraSans-Regular-68"/>
      <path d="M 18.703125 52.703125 
L 18.703125 0 
L 9.5 0 
L 9.5 52.703125 
z
M 14 78 
Q 16.90625 78 18.703125 76.203125 
Q 20.5 74.40625 20.5 71.703125 
Q 20.5 69 18.703125 67.25 
Q 16.90625 65.5 14 65.5 
Q 11.203125 65.5 9.390625 67.25 
Q 7.59375 69 7.59375 71.703125 
Q 7.59375 74.40625 9.390625 76.203125 
Q 11.203125 78 14 78 
z
" id="FiraSans-Regular-105"/>
      <path d="M 23.796875 53.90625 
Q 29.203125 53.90625 33.5 52.40625 
Q 37.796875 50.90625 41.703125 47.90625 
L 37.796875 42.09375 
Q 34.203125 44.40625 30.953125 45.5 
Q 27.703125 46.59375 24.09375 46.59375 
Q 19.59375 46.59375 17 44.75 
Q 14.40625 42.90625 14.40625 39.703125 
Q 14.40625 36.5 16.84375 34.703125 
Q 19.296875 32.90625 25.703125 31.203125 
Q 34.5 29 38.84375 25.203125 
Q 43.203125 21.40625 43.203125 14.796875 
Q 43.203125 7 37.140625 2.890625 
Q 31.09375 -1.203125 22.40625 -1.203125 
Q 10.40625 -1.203125 2.5 5.703125 
L 7.40625 11.296875 
Q 14.09375 6.203125 22.203125 6.203125 
Q 27.40625 6.203125 30.453125 8.34375 
Q 33.5 10.5 33.5 14.203125 
Q 33.5 16.90625 32.390625 18.546875 
Q 31.296875 20.203125 28.59375 21.453125 
Q 25.90625 22.703125 20.703125 24.09375 
Q 12.296875 26.296875 8.546875 30 
Q 4.796875 33.703125 4.796875 39.40625 
Q 4.796875 43.5 7.25 46.84375 
Q 9.703125 50.203125 14.046875 52.046875 
Q 18.40625 53.90625 23.796875 53.90625 
z
" id="FiraSans-Regular-115"/>
      <path d="M 36.09375 2.40625 
Q 30.90625 -1.203125 24.296875 -1.203125 
Q 17.59375 -1.203125 13.84375 2.640625 
Q 10.09375 6.5 10.09375 13.796875 
L 10.09375 45.59375 
L 0.90625 45.59375 
L 0.90625 52.703125 
L 10.09375 52.703125 
L 10.09375 64.59375 
L 19.296875 65.703125 
L 19.296875 52.703125 
L 31.796875 52.703125 
L 30.796875 45.59375 
L 19.296875 45.59375 
L 19.296875 14.203125 
Q 19.296875 10.09375 20.75 8.25 
Q 22.203125 6.40625 25.59375 6.40625 
Q 28.703125 6.40625 32.59375 8.5 
z
" id="FiraSans-Regular-116"/>
      <path d="M 45 12.296875 
Q 45 9.09375 46.09375 7.546875 
Q 47.203125 6 49.40625 5.203125 
L 47.296875 -1.203125 
Q 43.203125 -0.703125 40.703125 1.09375 
Q 38.203125 2.90625 37 6.703125 
Q 31.703125 -1.203125 21.296875 -1.203125 
Q 13.5 -1.203125 9 3.1875 
Q 4.5 7.59375 4.5 14.703125 
Q 4.5 23.09375 10.546875 27.59375 
Q 16.59375 32.09375 27.703125 32.09375 
L 35.796875 32.09375 
L 35.796875 36 
Q 35.796875 41.59375 33.09375 44 
Q 30.40625 46.40625 24.796875 46.40625 
Q 19 46.40625 10.59375 43.59375 
L 8.296875 50.296875 
Q 18.09375 53.90625 26.5 53.90625 
Q 35.796875 53.90625 40.390625 49.34375 
Q 45 44.796875 45 36.40625 
L 45 12.296875 
z
M 23.40625 5.703125 
Q 31.296875 5.703125 35.796875 13.90625 
L 35.796875 26 
L 28.90625 26 
Q 14.296875 26 14.296875 15.203125 
Q 14.296875 10.5 16.59375 8.09375 
Q 18.90625 5.703125 23.40625 5.703125 
z
" id="FiraSans-Regular-97"/>
      <path d="M 34.296875 53.90625 
Q 41.5 53.90625 45.546875 49.59375 
Q 49.59375 45.296875 49.59375 37.796875 
L 49.59375 0 
L 40.40625 0 
L 40.40625 36.5 
Q 40.40625 42.09375 38.296875 44.390625 
Q 36.203125 46.703125 32.09375 46.703125 
Q 27.90625 46.703125 24.703125 44.296875 
Q 21.5 41.90625 18.703125 37.40625 
L 18.703125 0 
L 9.5 0 
L 9.5 52.703125 
L 17.40625 52.703125 
L 18.203125 44.90625 
Q 21 49.09375 25.140625 51.5 
Q 29.296875 53.90625 34.296875 53.90625 
z
" id="FiraSans-Regular-110"/>
      <path d="M 28.703125 53.90625 
Q 33.40625 53.90625 37.296875 52.546875 
Q 41.203125 51.203125 44.796875 48.203125 
L 40.40625 42.40625 
Q 37.59375 44.40625 34.9375 45.34375 
Q 32.296875 46.296875 29.09375 46.296875 
Q 22.703125 46.296875 19.140625 41.1875 
Q 15.59375 36.09375 15.59375 26.09375 
Q 15.59375 16.09375 19.09375 11.34375 
Q 22.59375 6.59375 29.09375 6.59375 
Q 32.203125 6.59375 34.796875 7.546875 
Q 37.40625 8.5 40.59375 10.59375 
L 44.796875 4.59375 
Q 37.59375 -1.203125 28.703125 -1.203125 
Q 18 -1.203125 11.84375 6 
Q 5.703125 13.203125 5.703125 25.90625 
Q 5.703125 34.296875 8.5 40.59375 
Q 11.296875 46.90625 16.4375 50.40625 
Q 21.59375 53.90625 28.703125 53.90625 
z
" id="FiraSans-Regular-99"/>
      <path d="M 49.296875 27.90625 
Q 49.296875 25.59375 49.09375 23.203125 
L 15.5 23.203125 
Q 16.09375 14.5 19.890625 10.390625 
Q 23.703125 6.296875 29.703125 6.296875 
Q 33.5 6.296875 36.703125 7.390625 
Q 39.90625 8.5 43.40625 10.90625 
L 47.40625 5.40625 
Q 39 -1.203125 29 -1.203125 
Q 18 -1.203125 11.84375 6 
Q 5.703125 13.203125 5.703125 25.796875 
Q 5.703125 34 8.34375 40.34375 
Q 11 46.703125 15.953125 50.296875 
Q 20.90625 53.90625 27.59375 53.90625 
Q 38.09375 53.90625 43.6875 47 
Q 49.296875 40.09375 49.296875 27.90625 
z
M 40.203125 30.59375 
Q 40.203125 38.40625 37.09375 42.5 
Q 34 46.59375 27.796875 46.59375 
Q 16.5 46.59375 15.5 30 
L 40.203125 30 
z
" id="FiraSans-Regular-101"/>
      <path id="FiraSans-Regular-32"/>
      <path d="M 27.203125 81.59375 
L 27.203125 73.90625 
L 15.203125 73.90625 
L 15.203125 -4 
L 27.203125 -4 
L 27.203125 -11.59375 
L 6.5 -11.59375 
L 6.5 81.59375 
z
" id="FiraSans-Regular-91"/>
      <path d="M 18.703125 75 
L 18.703125 0 
L 9.5 0 
L 9.5 73.90625 
z
M 49 52.703125 
L 29.59375 29.40625 
L 51.203125 0 
L 40.203125 0 
L 19.296875 28.796875 
L 38.703125 52.703125 
z
" id="FiraSans-Regular-107"/>
      <path d="M 62.40625 53.90625 
Q 68.90625 53.90625 72.796875 49.546875 
Q 76.703125 45.203125 76.703125 37.796875 
L 76.703125 0 
L 67.5 0 
L 67.5 36.5 
Q 67.5 46.703125 60.09375 46.703125 
Q 56.203125 46.703125 53.5 44.453125 
Q 50.796875 42.203125 47.703125 37.40625 
L 47.703125 0 
L 38.5 0 
L 38.5 36.5 
Q 38.5 46.703125 31.09375 46.703125 
Q 27.09375 46.703125 24.390625 44.390625 
Q 21.703125 42.09375 18.703125 37.40625 
L 18.703125 0 
L 9.5 0 
L 9.5 52.703125 
L 17.40625 52.703125 
L 18.203125 45 
Q 24.09375 53.90625 33.40625 53.90625 
Q 38.296875 53.90625 41.75 51.40625 
Q 45.203125 48.90625 46.703125 44.40625 
Q 49.796875 49 53.546875 51.453125 
Q 57.296875 53.90625 62.40625 53.90625 
z
" id="FiraSans-Regular-109"/>
      <path d="M 25.703125 81.59375 
L 25.703125 -11.59375 
L 5 -11.59375 
L 5 -4 
L 17 -4 
L 17 73.90625 
L 5 73.90625 
L 5 81.59375 
z
" id="FiraSans-Regular-93"/>
     </defs>
     <g transform="translate(664.573438 511.950312)scale(0.1 -0.1)">
      <use xlink:href="#FiraSans-Regular-68"/>
      <use x="64.399994" xlink:href="#FiraSans-Regular-105"/>
      <use x="92.599991" xlink:href="#FiraSans-Regular-115"/>
      <use x="139.299988" xlink:href="#FiraSans-Regular-116"/>
      <use x="175.399979" xlink:href="#FiraSans-Regular-97"/>
      <use x="229.799973" xlink:href="#FiraSans-Regular-110"/>
      <use x="288.399963" xlink:href="#FiraSans-Regular-99"/>
      <use x="336.199951" xlink:href="#FiraSans-Regular-101"/>
      <use x="390.699936" xlink:href="#FiraSans-Regular-32"/>
      <use x="417.199921" xlink:href="#FiraSans-Regular-91"/>
      <use x="449.399918" xlink:href="#FiraSans-Regular-107"/>
      <use x="500.599915" xlink:href="#FiraSans-Regular-109"/>
      <use x="586.299896" xlink:href="#FiraSans-Regular-93"/>
     </g>
    </g>
   </g>
   <g id="matplotlib.axis_2">
    <g id="ytick_1">
     <g id="line2d_6">
      <defs>
       <path d="M 0 0 
L -3.5 0 
" id="m3e50c8efbd" style="stroke:#000000;stroke-width:0.8;"/>
      </defs>
      <g>
       <use style="stroke:#000000;stroke-width:0.8;" x="48.198438" xlink:href="#m3e50c8efbd" y="476.491911"/>
      </g>
     </g>
     <g id="text_7">
      <!-- 0 -->
      <g transform="translate(35.61875 480.241911)scale(0.1 -0.1)">
       <use xlink:href="#FiraSans-Regular-48"/>
      </g>
     </g>
    </g>
    <g id="ytick_2">
     <g id="line2d_7">
      <g>
       <use style="stroke:#000000;stroke-width:0.8;" x="48.198438" xlink:href="#m3e50c8efbd" y="419.596838"/>
      </g>
     </g>
     <g id="text_8">
      <!-- 25 -->
      <g transform="translate(31.239063 423.346838)scale(0.1 -0.1)">
       <use xlink:href="#FiraSans-Regular-50"/>
       <use x="49.499985" xlink:href="#FiraSans-Regular-53"/>
      </g>
     </g>
    </g>
    <g id="ytick_3">
     <g id="line2d_8">
      <g>
       <use style="stroke:#000000;stroke-width:0.8;" x="48.198438" xlink:href="#m3e50c8efbd" y="362.701765"/>
      </g>
     </g>
     <g id="text_9">
      <!-- 50 -->
      <g transform="translate(30.609375 366.451765)scale(0.1 -0.1)">
       <use xlink:href="#FiraSans-Regular-53"/>
       <use x="50.099991" xlink:href="#FiraSans-Regular-48"/>
      </g>
     </g>
    </g>
    <g id="ytick_4">
     <g id="line2d_9">
      <g>
       <use style="stroke:#000000;stroke-width:0.8;" x="48.198438" xlink:href="#m3e50c8efbd" y="305.806691"/>
      </g>
     </g>
     <g id="text_10">
      <!-- 75 -->
      <g transform="translate(31.748438 309.556691)scale(0.1 -0.1)">
       <use xlink:href="#FiraSans-Regular-55"/>
       <use x="44.399994" xlink:href="#FiraSans-Regular-53"/>
      </g>
     </g>
    </g>
    <g id="ytick_5">
     <g id="line2d_10">
      <g>
       <use style="stroke:#000000;stroke-width:0.8;" x="48.198438" xlink:href="#m3e50c8efbd" y="248.911618"/>
      </g>
     </g>
     <g id="text_11">
      <!-- 100 -->
      <defs>
       <path d="M 32.296875 66.90625 
L 32.296875 0 
L 23.09375 0 
L 23.09375 57.09375 
L 7.5 47.59375 
L 3.5 54.09375 
L 24.203125 66.90625 
z
" id="FiraSans-Regular-49"/>
      </defs>
      <g transform="translate(25.709375 252.661618)scale(0.1 -0.1)">
       <use xlink:href="#FiraSans-Regular-49"/>
       <use x="43.299988" xlink:href="#FiraSans-Regular-48"/>
       <use x="99.099976" xlink:href="#FiraSans-Regular-48"/>
      </g>
     </g>
    </g>
    <g id="ytick_6">
     <g id="line2d_11">
      <g>
       <use style="stroke:#000000;stroke-width:0.8;" x="48.198438" xlink:href="#m3e50c8efbd" y="192.016545"/>
      </g>
     </g>
     <g id="text_12">
      <!-- 125 -->
      <g transform="translate(26.909375 195.766545)scale(0.1 -0.1)">
       <use xlink:href="#FiraSans-Regular-49"/>
       <use x="43.299988" xlink:href="#FiraSans-Regular-50"/>
       <use x="92.799973" xlink:href="#FiraSans-Regular-53"/>
      </g>
     </g>
    </g>
    <g id="ytick_7">
     <g id="line2d_12">
      <g>
       <use style="stroke:#000000;stroke-width:0.8;" x="48.198438" xlink:href="#m3e50c8efbd" y="135.121472"/>
      </g>
     </g>
     <g id="text_13">
      <!-- 150 -->
      <g transform="translate(26.279688 138.871472)scale(0.1 -0.1)">
       <use xlink:href="#FiraSans-Regular-49"/>
       <use x="43.299988" xlink:href="#FiraSans-Regular-53"/>
       <use x="93.399979" xlink:href="#FiraSans-Regular-48"/>
      </g>
     </g>
    </g>
    <g id="ytick_8">
     <g id="line2d_13">
      <g>
       <use style="stroke:#000000;stroke-width:0.8;" x="48.198438" xlink:href="#m3e50c8efbd" y="78.226398"/>
      </g>
     </g>
     <g id="text_14">
      <!-- 175 -->
      <g transform="translate(27.41875 81.976398)scale(0.1 -0.1)">
       <use xlink:href="#FiraSans-Regular-49"/>
       <use x="43.299988" xlink:href="#FiraSans-Regular-55"/>
       <use x="87.699982" xlink:href="#FiraSans-Regular-53"/>
      </g>
     </g>
    </g>
    <g id="ytick_9">
     <g id="line2d_14">
      <g>
       <use style="stroke:#000000;stroke-width:0.8;" x="48.198438" xlink:href="#m3e50c8efbd" y="21.331325"/>
      </g>
     </g>
     <g id="text_15">
      <!-- 200 -->
      <g transform="translate(25.089063 25.081325)scale(0.1 -0.1)">
       <use xlink:href="#FiraSans-Regular-50"/>
       <use x="49.499985" xlink:href="#FiraSans-Regular-48"/>
       <use x="105.299973" xlink:href="#FiraSans-Regular-48"/>
      </g>
     </g>
    </g>
    <g id="text_16">
     <!-- Speed [km/h] -->
     <defs>
      <path d="M 27 70.09375 
Q 33.90625 70.09375 38.796875 68.140625 
Q 43.703125 66.203125 48.296875 62.09375 
L 43.09375 56.296875 
Q 39.203125 59.40625 35.453125 60.84375 
Q 31.703125 62.296875 27.40625 62.296875 
Q 22 62.296875 18.5 59.796875 
Q 15 57.296875 15 52.5 
Q 15 49.5 16.203125 47.453125 
Q 17.40625 45.40625 20.65625 43.703125 
Q 23.90625 42 30.09375 40.09375 
Q 36.59375 38.09375 40.890625 35.796875 
Q 45.203125 33.5 47.84375 29.453125 
Q 50.5 25.40625 50.5 19.203125 
Q 50.5 13.203125 47.546875 8.59375 
Q 44.59375 4 39.046875 1.390625 
Q 33.5 -1.203125 25.90625 -1.203125 
Q 11.59375 -1.203125 2.5 7.703125 
L 7.703125 13.5 
Q 11.90625 10.09375 16.203125 8.34375 
Q 20.5 6.59375 25.796875 6.59375 
Q 32.203125 6.59375 36.390625 9.75 
Q 40.59375 12.90625 40.59375 18.90625 
Q 40.59375 22.296875 39.296875 24.546875 
Q 38 26.796875 34.84375 28.59375 
Q 31.703125 30.40625 25.703125 32.203125 
Q 15.09375 35.40625 10.1875 39.90625 
Q 5.296875 44.40625 5.296875 52.09375 
Q 5.296875 57.296875 8.046875 61.390625 
Q 10.796875 65.5 15.75 67.796875 
Q 20.703125 70.09375 27 70.09375 
z
" id="FiraSans-Regular-83"/>
      <path d="M 33.703125 53.90625 
Q 43.796875 53.90625 48.5 46.703125 
Q 53.203125 39.5 53.203125 26.40625 
Q 53.203125 14 47.796875 6.390625 
Q 42.40625 -1.203125 32.5 -1.203125 
Q 23.703125 -1.203125 18.703125 4.796875 
L 18.703125 -20.203125 
L 9.5 -21.296875 
L 9.5 52.703125 
L 17.40625 52.703125 
L 18.09375 45.59375 
Q 21 49.59375 25.09375 51.75 
Q 29.203125 53.90625 33.703125 53.90625 
z
M 30.296875 6.296875 
Q 43.296875 6.296875 43.296875 26.40625 
Q 43.296875 46.59375 31.40625 46.59375 
Q 27.5 46.59375 24.296875 44.296875 
Q 21.09375 42 18.703125 38.40625 
L 18.703125 12.703125 
Q 20.703125 9.59375 23.703125 7.9375 
Q 26.703125 6.296875 30.296875 6.296875 
z
" id="FiraSans-Regular-112"/>
      <path d="M 50.296875 73.90625 
L 50.296875 0 
L 42.203125 0 
L 41.296875 7.296875 
Q 38.703125 3.296875 34.796875 1.046875 
Q 30.90625 -1.203125 26.09375 -1.203125 
Q 16.703125 -1.203125 11.453125 6.1875 
Q 6.203125 13.59375 6.203125 26.09375 
Q 6.203125 34.203125 8.703125 40.5 
Q 11.203125 46.796875 15.890625 50.34375 
Q 20.59375 53.90625 26.90625 53.90625 
Q 35 53.90625 41.09375 47.40625 
L 41.09375 75 
z
M 28.09375 6.09375 
Q 32.296875 6.09375 35.296875 8.046875 
Q 38.296875 10 41.09375 13.90625 
L 41.09375 39.703125 
Q 38.5 43.09375 35.546875 44.84375 
Q 32.59375 46.59375 28.90625 46.59375 
Q 22.796875 46.59375 19.4375 41.5 
Q 16.09375 36.40625 16.09375 26.296875 
Q 16.09375 16.09375 19.1875 11.09375 
Q 22.296875 6.09375 28.09375 6.09375 
z
" id="FiraSans-Regular-100"/>
      <path d="M 33.703125 80.703125 
L 41.5 78.90625 
L 18.40625 -10.40625 
L 10.5 -8.5 
z
" id="FiraSans-Regular-47"/>
      <path d="M 34.296875 53.90625 
Q 41.5 53.90625 45.546875 49.59375 
Q 49.59375 45.296875 49.59375 37.796875 
L 49.59375 0 
L 40.40625 0 
L 40.40625 36.5 
Q 40.40625 42.09375 38.25 44.390625 
Q 36.09375 46.703125 32 46.703125 
Q 27.90625 46.703125 24.703125 44.296875 
Q 21.5 41.90625 18.703125 37.5 
L 18.703125 0 
L 9.5 0 
L 9.5 73.796875 
L 18.703125 74.796875 
L 18.703125 45.40625 
Q 24.90625 53.90625 34.296875 53.90625 
z
" id="FiraSans-Regular-104"/>
     </defs>
     <g transform="translate(18.959375 278.365781)rotate(-90)scale(0.1 -0.1)">
      <use xlink:href="#FiraSans-Regular-83"/>
      <use x="54.499985" xlink:href="#FiraSans-Regular-112"/>
      <use x="113.899979" xlink:href="#FiraSans-Regular-101"/>
      <use x="168.399963" xlink:href="#FiraSans-Regular-101"/>
      <use x="222.899948" xlink:href="#FiraSans-Regular-100"/>
      <use x="282.699936" xlink:href="#FiraSans-Regular-32"/>
      <use x="309.199921" xlink:href="#FiraSans-Regular-91"/>
      <use x="341.399918" xlink:href="#FiraSans-Regular-107"/>
      <use x="392.599915" xlink:href="#FiraSans-Regular-109"/>
      <use x="478.299896" xlink:href="#FiraSans-Regular-47"/>
      <use x="530.299881" xlink:href="#FiraSans-Regular-104"/>
      <use x="588.899872" xlink:href="#FiraSans-Regular-93"/>
     </g>
    </g>
   </g>
   <g id="line2d_15">
    <path clip-path="url(#p38aeb1550e)" d="M 48.174796 21.331325 
L 408.117929 21.331325 
L 408.117929 476.491911 
L 408.220947 21.331325 
L 421.098134 21.331325 
L 421.098134 283.048662 
L 433.460233 283.048662 
L 433.460233 305.806691 
L 474.667232 305.806691 
L 474.667232 283.048662 
L 573.564029 283.048662 
L 573.564029 203.395559 
L 709.547124 203.395559 
L 709.547124 89.605413 
L 753.432578 89.605413 
L 753.432578 476.491911 
L 753.535595 89.605413 
L 850.887129 89.605413 
L 850.887129 21.331325 
L 1047.032443 21.331325 
L 1047.032443 476.491911 
L 1047.13546 21.331325 
L 1343.053219 21.331325 
L 1343.053219 21.331325 
" style="fill:none;stroke:#1f77b4;stroke-linecap:square;stroke-width:2;"/>
   </g>
   <g id="line2d_16">
    <path clip-path="url(#p38aeb1550e)" d="M 48.174796 203.395559 
L 408.117929 203.395559 
L 408.117929 476.491911 
L 408.220947 203.395559 
L 421.098134 203.395559 
L 421.098134 283.048662 
L 433.460233 283.048662 
L 433.460233 305.806691 
L 484.196351 305.806691 
L 484.196351 283.048662 
L 583.093147 283.048662 
L 583.093147 203.395559 
L 753.432578 203.395559 
L 753.432578 476.491911 
L 753.535595 203.395559 
L 1047.032443 203.395559 
L 1047.032443 476.491911 
L 1047.13546 203.395559 
L 1343.053219 203.395559 
L 1343.053219 203.395559 
" style="fill:none;stroke:#ff7f0e;stroke-linecap:square;stroke-width:2;"/>
   </g>
   <g id="line2d_17">
    <path clip-path="url(#p38aeb1550e)" d="M 48.174796 203.395559 
L 370.104473 203.395559 
L 371.031631 206.87236 
L 375.049313 221.852444 
L 378.86096 236.928653 
L 382.363555 251.672068 
L 385.660115 266.491649 
L 388.75064 281.404753 
L 391.63513 296.434617 
L 394.210567 311.003634 
L 396.57997 325.644798 
L 398.743337 340.381391 
L 400.70067 355.248203 
L 402.451967 370.299913 
L 403.894212 384.526943 
L 405.130422 398.767327 
L 406.160597 413.030054 
L 406.984737 427.334568 
L 407.602842 441.73242 
L 408.014912 456.42351 
L 408.117929 462.301408 
L 408.220947 476.491911 
L 408.478491 455.106765 
L 408.993578 436.901948 
L 409.766209 419.644559 
L 410.796384 402.670147 
L 411.826559 389.414072 
L 412.856734 379.267491 
L 414.144453 369.073088 
L 415.432172 360.573335 
L 416.977434 351.820184 
L 418.78024 342.945183 
L 420.583046 335.080945 
L 422.643396 327.140992 
L 424.96129 319.220974 
L 427.279184 312.079838 
L 429.854621 304.851196 
L 432.172515 298.850411 
L 432.430059 298.211301 
L 432.739111 301.726249 
L 433.460233 305.806691 
L 484.196351 305.806691 
L 487.029332 297.657455 
L 489.604769 290.917854 
L 492.43775 284.158867 
L 492.952838 283.048662 
L 583.093147 283.048662 
L 586.441216 275.744752 
L 590.046828 268.441064 
L 593.909984 261.144599 
L 597.77314 254.319458 
L 601.89384 247.494942 
L 606.272084 240.673709 
L 610.907871 233.866429 
L 615.543659 227.444869 
L 618.891727 223.134686 
L 622.49734 218.857805 
L 626.102952 214.935301 
L 632.026458 208.797112 
L 637.434877 203.458539 
L 637.949964 203.395559 
L 715.47063 203.395559 
L 715.934209 205.382738 
L 719.951891 220.275714 
L 723.763539 235.253365 
L 727.369151 250.332513 
L 730.665711 265.058183 
L 733.756236 279.862538 
L 736.640726 294.764808 
L 739.319181 309.791249 
L 741.688583 324.315723 
L 743.851951 338.909883 
L 745.809283 353.598553 
L 747.56058 368.420262 
L 749.105843 383.438562 
L 750.342053 397.482536 
L 751.372228 411.462858 
L 752.196368 425.327326 
L 752.814473 438.94737 
L 753.226543 451.91324 
L 753.432578 462.301408 
L 753.535595 476.491911 
L 753.793139 454.361465 
L 754.308226 435.719973 
L 755.080858 418.056446 
L 756.111033 400.732368 
L 757.141208 387.432618 
L 758.171383 377.282654 
L 759.459101 367.074101 
L 760.74682 358.585914 
L 762.292082 349.892472 
L 764.094889 341.116503 
L 765.897695 333.349594 
L 767.442957 327.512777 
L 769.245763 321.553642 
L 771.04857 316.338938 
L 772.851376 311.750751 
L 774.654182 307.704779 
L 776.972076 303.115484 
L 780.062601 297.464134 
L 783.410669 291.821614 
L 787.016282 286.204251 
L 790.621894 280.995894 
L 794.48505 275.791634 
L 798.60575 270.613069 
L 802.983994 265.463447 
L 808.134868 259.449458 
L 809.937675 256.751473 
L 811.740481 253.656658 
L 813.800831 249.662193 
L 816.118724 244.636901 
L 819.98188 236.291812 
L 824.10258 227.918555 
L 828.480824 219.534152 
L 833.116611 211.133909 
L 837.494855 203.601111 
L 837.752399 203.395559 
L 1009.018987 203.395559 
L 1009.946144 206.87236 
L 1013.963826 221.852444 
L 1017.775474 236.928653 
L 1021.278069 251.672068 
L 1024.574629 266.491649 
L 1027.665154 281.404753 
L 1030.549643 296.434617 
L 1033.125081 311.003634 
L 1035.494483 325.644798 
L 1037.657851 340.381391 
L 1039.615183 355.248203 
L 1041.366481 370.299913 
L 1042.808726 384.526943 
L 1044.044935 398.767327 
L 1045.07511 413.030054 
L 1045.89925 427.334568 
L 1046.517355 441.73242 
L 1046.929425 456.42351 
L 1047.032443 462.301408 
L 1047.13546 476.491911 
L 1047.393004 454.344649 
L 1047.908092 435.665233 
L 1048.680723 417.922848 
L 1049.710898 400.462684 
L 1050.741073 387.033399 
L 1051.771248 376.723691 
L 1053.058966 366.273299 
L 1054.346685 357.501122 
L 1055.891948 348.414228 
L 1057.694754 339.122608 
L 1059.49756 330.926622 
L 1061.55791 322.632959 
L 1063.875804 314.259319 
L 1066.451241 305.849523 
L 1069.026678 298.181732 
L 1071.85966 290.43728 
L 1074.950184 282.656111 
L 1078.298253 274.867865 
L 1081.646322 267.629077 
L 1085.251934 260.337488 
L 1089.11509 253.02744 
L 1093.23579 245.728307 
L 1097.614034 238.437631 
L 1101.992277 231.56435 
L 1106.628065 224.691072 
L 1111.778939 217.460932 
L 1117.187358 210.267933 
L 1122.595777 203.44198 
L 1123.368408 203.395559 
L 1343.053219 203.395559 
L 1343.053219 203.395559 
" style="fill:none;stroke:#2ca02c;stroke-linecap:square;stroke-width:2;"/>
   </g>
   <g id="patch_3">
    <path d="M 48.198438 483.820625 
L 48.198438 10.8 
" style="fill:none;stroke:#000000;stroke-linecap:square;stroke-linejoin:miter;stroke-width:0.8;"/>
   </g>
   <g id="patch_4">
    <path d="M 1342.8 483.820625 
L 1342.8 10.8 
" style="fill:none;stroke:#000000;stroke-linecap:square;stroke-linejoin:miter;stroke-width:0.8;"/>
   </g>
   <g id="patch_5">
    <path d="M 48.198437 483.820625 
L 1342.8 483.820625 
" style="fill:none;stroke:#000000;stroke-linecap:square;stroke-linejoin:miter;stroke-width:0.8;"/>
   </g>
   <g id="patch_6">
    <path d="M 48.198437 10.8 
L 1342.8 10.8 
" style="fill:none;stroke:#000000;stroke-linecap:square;stroke-linejoin:miter;stroke-width:0.8;"/>
   </g>
   <g id="legend_1">
    <g id="patch_7">
     <path d="M 55.198438 478.820625 
L 231.046875 478.820625 
Q 233.046875 478.820625 233.046875 476.820625 
L 233.046875 431.953437 
Q 233.046875 429.953437 231.046875 429.953437 
L 55.198438 429.953437 
Q 53.198438 429.953437 53.198438 431.953437 
L 53.198438 476.820625 
Q 53.198438 478.820625 55.198438 478.820625 
z
" style="fill:#ffffff;opacity:0.8;stroke:#cccccc;stroke-linejoin:miter;"/>
    </g>
    <g id="line2d_18">
     <path d="M 57.198438 438.612812 
L 77.198438 438.612812 
" style="fill:none;stroke:#1f77b4;stroke-linecap:square;stroke-width:2;"/>
    </g>
    <g id="line2d_19"/>
    <g id="text_17">
     <!-- Speed restriction [km/h] -->
     <defs>
      <path d="M 32.40625 53.90625 
Q 35.203125 53.90625 37.59375 53.296875 
L 35.90625 44.296875 
Q 33.5 44.90625 31.296875 44.90625 
Q 26.40625 44.90625 23.40625 41.296875 
Q 20.40625 37.703125 18.703125 30.09375 
L 18.703125 0 
L 9.5 0 
L 9.5 52.703125 
L 17.40625 52.703125 
L 18.296875 42 
Q 20.40625 47.90625 24 50.90625 
Q 27.59375 53.90625 32.40625 53.90625 
z
" id="FiraSans-Regular-114"/>
      <path d="M 29.296875 53.90625 
Q 40.40625 53.90625 46.546875 46.5 
Q 52.703125 39.09375 52.703125 26.40625 
Q 52.703125 18.203125 49.890625 11.953125 
Q 47.09375 5.703125 41.796875 2.25 
Q 36.5 -1.203125 29.203125 -1.203125 
Q 18.09375 -1.203125 11.890625 6.1875 
Q 5.703125 13.59375 5.703125 26.296875 
Q 5.703125 34.5 8.5 40.75 
Q 11.296875 47 16.59375 50.453125 
Q 21.90625 53.90625 29.296875 53.90625 
z
M 29.296875 46.5 
Q 15.59375 46.5 15.59375 26.296875 
Q 15.59375 6.203125 29.203125 6.203125 
Q 42.796875 6.203125 42.796875 26.40625 
Q 42.796875 46.5 29.296875 46.5 
z
" id="FiraSans-Regular-111"/>
     </defs>
     <g transform="translate(85.198438 442.112812)scale(0.1 -0.1)">
      <use xlink:href="#FiraSans-Regular-83"/>
      <use x="54.499985" xlink:href="#FiraSans-Regular-112"/>
      <use x="113.899979" xlink:href="#FiraSans-Regular-101"/>
      <use x="168.399963" xlink:href="#FiraSans-Regular-101"/>
      <use x="222.899948" xlink:href="#FiraSans-Regular-100"/>
      <use x="282.699936" xlink:href="#FiraSans-Regular-32"/>
      <use x="309.199921" xlink:href="#FiraSans-Regular-114"/>
      <use x="347.799911" xlink:href="#FiraSans-Regular-101"/>
      <use x="402.299896" xlink:href="#FiraSans-Regular-115"/>
      <use x="448.999893" xlink:href="#FiraSans-Regular-116"/>
      <use x="485.099884" xlink:href="#FiraSans-Regular-114"/>
      <use x="523.699875" xlink:href="#FiraSans-Regular-105"/>
      <use x="551.899872" xlink:href="#FiraSans-Regular-99"/>
      <use x="599.69986" xlink:href="#FiraSans-Regular-116"/>
      <use x="635.79985" xlink:href="#FiraSans-Regular-105"/>
      <use x="663.999847" xlink:href="#FiraSans-Regular-111"/>
      <use x="722.399841" xlink:href="#FiraSans-Regular-110"/>
      <use x="780.999832" xlink:href="#FiraSans-Regular-32"/>
      <use x="807.499817" xlink:href="#FiraSans-Regular-91"/>
      <use x="839.699814" xlink:href="#FiraSans-Regular-107"/>
      <use x="890.899811" xlink:href="#FiraSans-Regular-109"/>
      <use x="976.599792" xlink:href="#FiraSans-Regular-47"/>
      <use x="1028.599777" xlink:href="#FiraSans-Regular-104"/>
      <use x="1087.199768" xlink:href="#FiraSans-Regular-93"/>
     </g>
    </g>
    <g id="line2d_20">
     <path d="M 57.198438 453.901875 
L 77.198438 453.901875 
" style="fill:none;stroke:#ff7f0e;stroke-linecap:square;stroke-width:2;"/>
    </g>
    <g id="line2d_21"/>
    <g id="text_18">
     <!-- Virtual speed restriction [km/h] -->
     <defs>
      <path d="M 55 68.90625 
L 33 0 
L 22.796875 0 
L 0.59375 68.90625 
L 10.796875 68.90625 
L 28.09375 10.296875 
L 45.40625 68.90625 
z
" id="FiraSans-Regular-86"/>
      <path d="M 48.703125 0 
L 40.796875 0 
L 40.09375 8.203125 
Q 37.09375 3.296875 33.1875 1.046875 
Q 29.296875 -1.203125 23.703125 -1.203125 
Q 16.796875 -1.203125 12.890625 3 
Q 9 7.203125 9 14.90625 
L 9 52.703125 
L 18.203125 52.703125 
L 18.203125 15.90625 
Q 18.203125 10.5 20.09375 8.25 
Q 22 6 26.296875 6 
Q 34 6 39.5 15.09375 
L 39.5 52.703125 
L 48.703125 52.703125 
z
" id="FiraSans-Regular-117"/>
      <path d="M 20 -1.203125 
Q 14.90625 -1.203125 11.953125 1.84375 
Q 9 4.90625 9 10.40625 
L 9 73.90625 
L 18.203125 75 
L 18.203125 10.59375 
Q 18.203125 8.40625 18.953125 7.40625 
Q 19.703125 6.40625 21.5 6.40625 
Q 23.40625 6.40625 24.90625 7 
L 27.296875 0.59375 
Q 24 -1.203125 20 -1.203125 
z
" id="FiraSans-Regular-108"/>
     </defs>
     <g transform="translate(85.198438 457.401875)scale(0.1 -0.1)">
      <use xlink:href="#FiraSans-Regular-86"/>
      <use x="55.599991" xlink:href="#FiraSans-Regular-105"/>
      <use x="83.799988" xlink:href="#FiraSans-Regular-114"/>
      <use x="122.399979" xlink:href="#FiraSans-Regular-116"/>
      <use x="158.499969" xlink:href="#FiraSans-Regular-117"/>
      <use x="216.699966" xlink:href="#FiraSans-Regular-97"/>
      <use x="271.09996" xlink:href="#FiraSans-Regular-108"/>
      <use x="300.399948" xlink:href="#FiraSans-Regular-32"/>
      <use x="326.899933" xlink:href="#FiraSans-Regular-115"/>
      <use x="373.59993" xlink:href="#FiraSans-Regular-112"/>
      <use x="432.999924" xlink:href="#FiraSans-Regular-101"/>
      <use x="487.499908" xlink:href="#FiraSans-Regular-101"/>
      <use x="541.999893" xlink:href="#FiraSans-Regular-100"/>
      <use x="601.799881" xlink:href="#FiraSans-Regular-32"/>
      <use x="628.299866" xlink:href="#FiraSans-Regular-114"/>
      <use x="666.899857" xlink:href="#FiraSans-Regular-101"/>
      <use x="721.399841" xlink:href="#FiraSans-Regular-115"/>
      <use x="768.099838" xlink:href="#FiraSans-Regular-116"/>
      <use x="804.199829" xlink:href="#FiraSans-Regular-114"/>
      <use x="842.79982" xlink:href="#FiraSans-Regular-105"/>
      <use x="870.999817" xlink:href="#FiraSans-Regular-99"/>
      <use x="918.799805" xlink:href="#FiraSans-Regular-116"/>
      <use x="954.899796" xlink:href="#FiraSans-Regular-105"/>
      <use x="983.099792" xlink:href="#FiraSans-Regular-111"/>
      <use x="1041.499786" xlink:href="#FiraSans-Regular-110"/>
      <use x="1100.099777" xlink:href="#FiraSans-Regular-32"/>
      <use x="1126.599762" xlink:href="#FiraSans-Regular-91"/>
      <use x="1158.799759" xlink:href="#FiraSans-Regular-107"/>
      <use x="1209.999756" xlink:href="#FiraSans-Regular-109"/>
      <use x="1295.699738" xlink:href="#FiraSans-Regular-47"/>
      <use x="1347.699722" xlink:href="#FiraSans-Regular-104"/>
      <use x="1406.299713" xlink:href="#FiraSans-Regular-93"/>
     </g>
    </g>
    <g id="line2d_22">
     <path d="M 57.198438 469.190937 
L 77.198438 469.190937 
" style="fill:none;stroke:#2ca02c;stroke-linecap:square;stroke-width:2;"/>
    </g>
    <g id="line2d_23"/>
    <g id="text_19">
     <!-- Speed [km/h] -->
     <g transform="translate(85.198438 472.690937)scale(0.1 -0.1)">
      <use xlink:href="#FiraSans-Regular-83"/>
      <use x="54.499985" xlink:href="#FiraSans-Regular-112"/>
      <use x="113.899979" xlink:href="#FiraSans-Regular-101"/>
      <use x="168.399963" xlink:href="#FiraSans-Regular-101"/>
      <use x="222.899948" xlink:href="#FiraSans-Regular-100"/>
      <use x="282.699936" xlink:href="#FiraSans-Regular-32"/>
      <use x="309.199921" xlink:href="#FiraSans-Regular-91"/>
      <use x="341.399918" xlink:href="#FiraSans-Regular-107"/>
      <use x="392.599915" xlink:href="#FiraSans-Regular-109"/>
      <use x="478.299896" xlink:href="#FiraSans-Regular-47"/>
      <use x="530.299881" xlink:href="#FiraSans-Regular-104"/>
      <use x="588.899872" xlink:href="#FiraSans-Regular-93"/>
     </g>
    </g>
   </g>
  </g>
  <g id="text_20">
   <!-- RailwaySim -->
   <defs>
    <path d="M 30.203125 29.203125 
L 19.5 29.203125 
L 19.5 0 
L 10 0 
L 10 68.90625 
L 28.09375 68.90625 
Q 41 68.90625 47.640625 64 
Q 54.296875 59.09375 54.296875 49.40625 
Q 54.296875 42.203125 50.59375 37.703125 
Q 46.90625 33.203125 39.40625 30.90625 
L 58 0 
L 46.703125 0 
z
M 29.09375 36.5 
Q 36.59375 36.5 40.390625 39.546875 
Q 44.203125 42.59375 44.203125 49.40625 
Q 44.203125 55.796875 40.34375 58.640625 
Q 36.5 61.5 28 61.5 
L 19.5 61.5 
L 19.5 36.5 
z
" id="FiraSans-Regular-82"/>
    <path d="M 69.703125 52.703125 
L 57.703125 0 
L 45.203125 0 
L 36 44.40625 
L 26.5 0 
L 14.296875 0 
L 2 52.703125 
L 11.203125 52.703125 
L 20.703125 6.40625 
L 31.09375 52.703125 
L 41.40625 52.703125 
L 51.296875 6.40625 
L 60.90625 52.703125 
z
" id="FiraSans-Regular-119"/>
    <path d="M 30.59375 -0.296875 
Q 27.5 -9.5 21.953125 -14.84375 
Q 16.40625 -20.203125 6.09375 -21.296875 
L 5.09375 -14.09375 
Q 10.296875 -13.203125 13.390625 -11.5 
Q 16.5 -9.796875 18.34375 -7.140625 
Q 20.203125 -4.5 21.796875 0 
L 18.703125 0 
L 1 52.703125 
L 10.796875 52.703125 
L 24.90625 6.703125 
L 38.703125 52.703125 
L 48.203125 52.703125 
z
" id="FiraSans-Regular-121"/>
   </defs>
   <g style="fill:#808080;opacity:0.6;" transform="translate(643.886719 252.980625)scale(0.2 -0.2)">
    <use xlink:href="#FiraSans-Regular-82"/>
    <use x="60.499985" xlink:href="#FiraSans-Regular-97"/>
    <use x="114.899979" xlink:href="#FiraSans-Regular-105"/>
    <use x="143.099976" xlink:href="#FiraSans-Regular-108"/>
    <use x="172.399963" xlink:href="#FiraSans-Regular-119"/>
    <use x="244.099945" xlink:href="#FiraSans-Regular-97"/>
    <use x="298.499939" xlink:href="#FiraSans-Regular-121"/>
    <use x="347.699936" xlink:href="#FiraSans-Regular-83"/>
    <use x="402.199921" xlink:href="#FiraSans-Regular-105"/>
    <use x="430.399918" xlink:href="#FiraSans-Regular-109"/>
   </g>
  </g>
 </g>
 <defs>
  <clipPath id="p38aeb1550e">
   <rect height="473.020625" width="1294.601563" x="48.198438" y="10.8"/>
  </clipPath>
 </defs>
</svg>
